
<svg xmlns="http://www.w3.org/2000/svg" version="1.1" xmlns:xlink="http://www.w3.org/1999/xlink" preserveAspectRatio="none" x="0px" y="0px" width="89px" height="15px" viewBox="0 0 89 15">
<defs>
<g id="Layer0_0_FILL">
<path fill="#FFFFFF" stroke="none" d="
M 8.55 10.1
L 8.55 5 0 5 0 13.55 1.75 13.55 1.75 10.1 8.55 10.1
M 6.85 8.4
L 1.75 8.4 1.75 6.7 6.85 6.7 6.85 8.4
M 16.9 11.85
L 16.9 11.8 16.85 11.8 16.85 11.85 16.9 11.85
M 18.55 11.85
L 16.9 11.85 16.9 13.55 18.55 13.55 18.55 11.85
M 11.75 10.1
L 15.15 10.1 15.15 11.8 16.85 11.8 16.85 10.1 18.55 10.1 18.55 5 10 5 10 13.55 11.75 13.55 11.75 10.1
M 11.75 8.4
L 11.75 6.7 16.85 6.7 16.85 8.4 11.75 8.4
M 21.7 11.85
L 21.7 10.1 26.85 10.1 26.85 8.45 21.7 8.45 21.7 6.7 28.55 6.7 28.55 5 20 5 20 13.55 28.55 13.55 28.55 11.85 21.7 11.85
M 38.55 8.45
L 31.7 8.45 31.7 6.7 38.55 6.7 38.55 5 30 5 30 10.1 36.9 10.1 36.9 11.85 30 11.85 30 13.55 38.55 13.55 38.55 8.45
M 41.7 10.1
L 46.85 10.1 46.85 8.45 41.7 8.45 41.7 6.7 48.55 6.7 48.55 5 40 5 40 13.55 48.55 13.55 48.55 11.85 41.7 11.85 41.7 10.1
M 55.15 10.1
L 55.15 8.45 53.45 8.45 53.45 10.1 55.15 10.1
M 53.45 8.4
L 53.45 6.75 51.7 6.75 51.7 5 50 5 50 13.55 51.7 13.55 51.7 8.4 53.45 8.4
M 58.55 5
L 56.9 5 56.9 10.15 55.15 10.15 55.15 11.8 56.9 11.8 56.9 13.55 58.55 13.55 58.55 5
M 68.55 11.85
L 61.7 11.85 61.7 6.7 68.55 6.7 68.55 5 60 5 60 13.55 68.55 13.55 68.55 11.85
M 78.55 11.85
L 71.7 11.85 71.7 10.1 76.85 10.1 76.85 8.45 71.7 8.45 71.7 6.7 78.55 6.7 78.55 5 70 5 70 13.55 78.55 13.55 78.55 11.85 Z"/>
</g>
</defs>

<g transform="matrix( 1, 0, 0, 1, 0,0) ">
<use xlink:href="#Layer0_0_FILL"/>
</g>
</svg>
