
<svg xmlns="http://www.w3.org/2000/svg" version="1.1" xmlns:xlink="http://www.w3.org/1999/xlink" preserveAspectRatio="none" x="0px" y="0px" width="78px" height="15px" viewBox="0 0 78 15">
<defs>
<g id="Layer0_0_FILL">
<path fill="#FFFFFF" stroke="none" d="
M 1.75 10.1
L 8.55 10.1 8.55 5 0 5 0 13.55 1.75 13.55 1.75 10.1
M 1.75 8.4
L 1.75 6.7 6.85 6.7 6.85 8.4 1.75 8.4
M 18.85 11.85
L 17.2 11.85 17.2 13.55 18.85 13.55 18.85 11.85
M 15.45 11.8
L 17.15 11.8 17.15 10.1 18.85 10.1 18.85 5 10.3 5 10.3 13.55 12.05 13.55 12.05 10.1 15.45 10.1 15.45 11.8
M 12.05 8.4
L 12.05 6.7 17.15 6.7 17.15 8.4 12.05 8.4
M 17.2 11.8
L 17.15 11.8 17.15 11.85 17.2 11.85 17.2 11.8
M 29.15 5
L 20.6 5 20.6 13.55 29.15 13.55 29.15 5
M 22.35 6.7
L 27.45 6.7 27.45 11.8 22.35 11.8 22.35 6.7
M 32.6 10.1
L 37.75 10.1 37.75 8.45 32.6 8.45 32.6 6.7 39.45 6.7 39.45 5 30.9 5 30.9 13.55 32.6 13.55 32.6 10.1
M 42.95 6.7
L 42.95 11.85 41.2 11.85 41.2 13.55 46.35 13.55 46.35 11.85 44.6 11.85 44.6 6.7 46.35 6.7 46.35 5 41.2 5 41.2 6.7 42.95 6.7
M 49.75 5
L 48.05 5 48.05 13.55 56.6 13.55 56.6 11.85 49.75 11.85 49.75 5
M 65.2 10.1
L 65.2 8.45 60.05 8.45 60.05 6.7 66.9 6.7 66.9 5 58.35 5 58.35 13.55 66.9 13.55 66.9 11.85 60.05 11.85 60.05 10.1 65.2 10.1 Z"/>
</g>
</defs>

<g transform="matrix( 1, 0, 0, 1, 0,0) ">
<use xlink:href="#Layer0_0_FILL"/>
</g>
</svg>
