
<svg xmlns="http://www.w3.org/2000/svg" version="1.1" xmlns:xlink="http://www.w3.org/1999/xlink" preserveAspectRatio="none" x="0px" y="0px" width="61px" height="15px" viewBox="0 0 61 15">
<defs>
<g id="Layer0_0_FILL">
<path fill="#FFFFFF" stroke="none" d="
M 8.55 5
L 0 5 0 13.55 1.7 13.55 1.7 11.8 6.85 11.8 6.85 13.55 8.55 13.55 8.55 5
M 6.85 10.1
L 1.75 10.1 1.75 6.7 6.85 6.7 6.85 10.1
M 12.1 8.4
L 12.1 6.7 17.15 6.7 17.15 8.4 18.85 8.4 18.85 5 10.3 5 10.3 13.55 18.85 13.55 18.85 10.15 17.15 10.15 17.15 11.85 12.1 11.85 12.1 10.15 17.15 10.15 17.15 8.4 12.1 8.4
M 29.15 5
L 20.6 5 20.6 13.55 29.15 13.55 29.15 5
M 27.45 11.8
L 22.35 11.8 22.35 6.7 27.45 6.7 27.45 11.8
M 37.75 11.85
L 32.6 11.85 32.6 13.55 37.75 13.55 37.75 11.85
M 32.6 5
L 30.9 5 30.9 11.8 32.6 11.8 32.6 5
M 39.45 5
L 37.8 5 37.8 11.85 39.45 11.85 39.45 5
M 49.75 6.7
L 49.75 5 41.2 5 41.2 6.7 44.65 6.7 44.65 13.55 46.35 13.55 46.35 6.7 49.75 6.7 Z"/>
</g>
</defs>

<g transform="matrix( 1, 0, 0, 1, 0,0) ">
<use xlink:href="#Layer0_0_FILL"/>
</g>
</svg>
