
<svg xmlns="http://www.w3.org/2000/svg" version="1.1" xmlns:xlink="http://www.w3.org/1999/xlink" preserveAspectRatio="none" x="0px" y="0px" width="79px" height="15px" viewBox="0 0 79 15">
<defs>
<g id="Layer0_0_FILL">
<path fill="#FFFFFF" stroke="none" d="
M 10 13.55
L 18.55 13.55 18.55 5 10 5 10 13.55
M 16.85 6.7
L 16.85 11.8 11.75 11.8 11.75 6.7 16.85 6.7
M 1.7 11.85
L 1.7 6.7 8.55 6.7 8.55 5 0 5 0 13.55 8.55 13.55 8.55 11.85 1.7 11.85
M 25.15 10.1
L 25.15 8.45 23.45 8.45 23.45 10.1 25.15 10.1
M 23.45 6.75
L 21.7 6.75 21.7 5 20 5 20 13.55 21.7 13.55 21.7 8.4 23.45 8.4 23.45 6.75
M 28.55 5
L 26.9 5 26.9 10.15 25.15 10.15 25.15 11.8 26.9 11.8 26.9 13.55 28.55 13.55 28.55 5
M 38.55 6.7
L 38.55 5 30 5 30 6.7 33.45 6.7 33.45 13.55 35.15 13.55 35.15 6.7 38.55 6.7
M 41.7 10.1
L 46.85 10.1 46.85 8.45 41.7 8.45 41.7 6.7 48.55 6.7 48.55 5 40 5 40 13.55 48.55 13.55 48.55 11.85 41.7 11.85 41.7 10.1
M 55.15 10.1
L 55.15 8.45 53.45 8.45 53.45 10.1 55.15 10.1
M 53.45 8.4
L 53.45 6.75 51.7 6.75 51.7 5 50 5 50 13.55 51.7 13.55 51.7 8.4 53.45 8.4
M 58.55 5
L 56.9 5 56.9 10.15 55.15 10.15 55.15 11.8 56.9 11.8 56.9 13.55 58.55 13.55 58.55 5
M 65.15 6.7
L 68.55 6.7 68.55 5 60 5 60 6.7 63.45 6.7 63.45 13.55 65.15 13.55 65.15 6.7 Z"/>
</g>
</defs>

<g transform="matrix( 1, 0, 0, 1, 0,0) ">
<use xlink:href="#Layer0_0_FILL"/>
</g>
</svg>
