
<svg xmlns="http://www.w3.org/2000/svg" version="1.1" xmlns:xlink="http://www.w3.org/1999/xlink" preserveAspectRatio="none" x="0px" y="0px" width="79px" height="15px" viewBox="0 0 79 15">
<defs>
<g id="Layer0_0_FILL">
<path fill="#FFFFFF" stroke="none" d="
M 8.55 11.85
L 1.7 11.85 1.7 6.7 8.55 6.7 8.55 5 0 5 0 13.55 8.55 13.55 8.55 11.85
M 11.7 11.8
L 16.85 11.8 16.85 13.55 18.55 13.55 18.55 5 10 5 10 13.55 11.7 13.55 11.7 11.8
M 11.75 10.1
L 11.75 6.7 16.85 6.7 16.85 10.1 11.75 10.1
M 21.7 10.1
L 26.85 10.1 26.85 8.45 21.7 8.45 21.7 6.7 28.55 6.7 28.55 5 20 5 20 13.55 28.55 13.55 28.55 11.85 21.7 11.85 21.7 10.1
M 35.15 10.1
L 35.15 8.45 33.45 8.45 33.45 10.1 35.15 10.1
M 33.45 6.75
L 31.7 6.75 31.7 5 30 5 30 13.55 31.7 13.55 31.7 8.4 33.45 8.4 33.45 6.75
M 38.55 5
L 36.9 5 36.9 10.15 35.15 10.15 35.15 11.8 36.9 11.8 36.9 13.55 38.55 13.55 38.55 5
M 48.55 13.55
L 48.55 5 40 5 40 13.55 48.55 13.55
M 46.85 11.8
L 41.75 11.8 41.75 6.7 46.85 6.7 46.85 11.8
M 53.45 8.4
L 53.45 10.1 56.9 10.1 56.9 11.85 51.7 11.85 51.7 6.7 58.55 6.7 58.55 5 50 5 50 13.55 58.55 13.55 58.55 8.4 53.45 8.4
M 68.55 13.55
L 68.55 5 60 5 60 13.55 68.55 13.55
M 66.85 11.8
L 61.75 11.8 61.75 6.7 66.85 6.7 66.85 11.8
M 75.15 10.1
L 75.15 8.45 73.45 8.45 73.45 10.1 75.15 10.1
M 73.45 6.75
L 71.7 6.75 71.7 5 70 5 70 13.55 71.7 13.55 71.7 8.4 73.45 8.4 73.45 6.75
M 78.55 5
L 76.9 5 76.9 10.15 75.15 10.15 75.15 11.8 76.9 11.8 76.9 13.55 78.55 13.55 78.55 5 Z"/>
</g>
</defs>

<g transform="matrix( 1, 0, 0, 1, 0,0) ">
<use xlink:href="#Layer0_0_FILL"/>
</g>
</svg>
