
<svg xmlns="http://www.w3.org/2000/svg" version="1.1" xmlns:xlink="http://www.w3.org/1999/xlink" preserveAspectRatio="none" x="0px" y="0px" width="57px" height="15px" viewBox="0 0 57 15">
<defs>
<g id="Layer0_0_FILL">
<path fill="#FFFFFF" stroke="none" d="
M 8.55 11.85
L 1.7 11.85 1.7 5 0 5 0 13.55 8.55 13.55 8.55 11.85
M 13.7 11.85
L 13.7 6.7 15.45 6.7 15.45 5 10.3 5 10.3 6.7 12.05 6.7 12.05 11.85 10.3 11.85 10.3 13.55 15.45 13.55 15.45 11.85 13.7 11.85
M 22.3 10.15
L 22.3 11.8 24.05 11.8 24.05 13.55 25.7 13.55 25.7 5 24.05 5 24.05 10.15 22.3 10.15
M 20.6 8.4
L 20.6 6.75 18.85 6.75 18.85 5 17.15 5 17.15 13.55 18.85 13.55 18.85 8.4 20.6 8.4
M 22.3 8.45
L 20.6 8.45 20.6 10.1 22.3 10.1 22.3 8.45
M 34.35 6.7
L 36 6.7 36 5 34.35 5 34.35 6.7
M 36 11.85
L 34.3 11.85 34.3 13.55 36 13.55 36 11.85
M 32.6 10.15
L 32.6 11.8 34.3 11.8 34.3 10.15 32.6 10.15
M 32.6 10.1
L 32.6 8.4 29.15 8.4 29.15 5 27.45 5 27.45 13.55 29.15 13.55 29.15 10.1 32.6 10.1
M 34.3 8.4
L 34.3 6.7 32.6 6.7 32.6 8.4 34.3 8.4
M 46.3 13.55
L 46.3 8.45 39.45 8.45 39.45 6.7 46.3 6.7 46.3 5 37.75 5 37.75 10.1 44.65 10.1 44.65 11.85 37.75 11.85 37.75 13.55 46.3 13.55 Z"/>
</g>
</defs>

<g transform="matrix( 1, 0, 0, 1, 0,0) ">
<use xlink:href="#Layer0_0_FILL"/>
</g>
</svg>
