
<svg xmlns="http://www.w3.org/2000/svg" version="1.1" xmlns:xlink="http://www.w3.org/1999/xlink" preserveAspectRatio="none" x="0px" y="0px" width="32px" height="32px" viewBox="0 0 32 32">
<defs>
<g id="Layer0_0_MEMBER_0_MEMBER_0_MEMBER_0_FILL">
<path fill="#FFFFFF" stroke="none" d="
M 4 8
L 2 8 2 10 4 10 4 8
M 4 10
L 4 12 8 12 8 10 4 10
M 10 12
L 8 12 8 14 10 14 10 12
M 30 8
L 28 8 28 10 30 10 30 8
M 24 12
L 22 12 22 14 24 14 24 12
M 24 10
L 24 12 28 12 28 10 24 10
M 28 28
L 28 26 24 26 24 28 28 28
M 30 28
L 28 28 28 30 30 30 30 28
M 24 24
L 22 24 22 26 24 26 24 24
M 4 28
L 2 28 2 30 4 30 4 28
M 8 28
L 8 26 4 26 4 28 8 28
M 10 24
L 8 24 8 26 10 26 10 24
M 0 20
L 8 20 8 18 0 18 0 20
M 24 18
L 24 20 32 20 32 18 24 18
M 18 19
L 18 17 14 17 14 19 18 19
M 20 21
L 20 19 18 19 18 21 20 21
M 14 21
L 14 19 12 19 12 21 14 21
M 10 17
L 10 19 12 19 12 17 10 17
M 22 19
L 22 17 20 17 20 19 22 19 Z"/>
</g>
</defs>

<g transform="matrix( 1, 0, 0, 1, 0,0) ">
<use xlink:href="#Layer0_0_MEMBER_0_MEMBER_0_MEMBER_0_FILL"/>
</g>
</svg>
