
<svg xmlns="http://www.w3.org/2000/svg" version="1.1" xmlns:xlink="http://www.w3.org/1999/xlink" preserveAspectRatio="none" x="0px" y="0px" width="455px" height="15px" viewBox="0 0 455 15">
<defs>
<g id="Layer0_0_FILL">
<path fill="#FFFFFF" stroke="none" d="
M 1.7 8.45
L 1.7 6.7 8.55 6.7 8.55 5 0 5 0 10.1 6.9 10.1 6.9 11.85 0 11.85 0 13.55 8.55 13.55 8.55 8.45 1.7 8.45
M 18.85 5
L 10.3 5 10.3 13.55 18.85 13.55 18.85 11.85 12 11.85 12 6.7 18.85 6.7 18.85 5
M 22.3 8.45
L 22.3 6.7 29.15 6.7 29.15 5 20.6 5 20.6 13.55 29.15 13.55 29.15 11.85 22.3 11.85 22.3 10.1 27.45 10.1 27.45 8.45 22.3 8.45
M 39.45 10.1
L 39.45 5 30.9 5 30.9 13.55 32.65 13.55 32.65 10.1 39.45 10.1
M 37.75 8.4
L 32.65 8.4 32.65 6.7 37.75 6.7 37.75 8.4
M 44.6 11.85
L 44.6 6.7 46.35 6.7 46.35 5 41.2 5 41.2 6.7 42.95 6.7 42.95 11.85 41.2 11.85 41.2 13.55 46.35 13.55 46.35 11.85 44.6 11.85
M 49.75 5
L 48.05 5 48.05 6.7 49.75 6.7 49.75 5
M 56.55 6.7
L 56.55 5 54.95 5 54.95 6.7 56.55 6.7
M 56.55 11.85
L 54.85 11.85 54.85 13.55 56.55 13.55 56.55 11.85
M 53.2 8.4
L 51.5 8.4 51.5 10.1 53.2 10.1 53.2 8.4
M 54.85 11.8
L 54.85 10.15 53.2 10.15 53.2 11.8 54.85 11.8
M 49.75 11.85
L 48.05 11.85 48.05 13.55 49.75 13.55 49.75 11.85
M 49.75 11.8
L 49.75 11.85 49.8 11.85 49.8 11.8 49.75 11.8
M 51.45 11.8
L 51.45 10.1 49.8 10.1 49.8 11.8 51.45 11.8
M 51.5 8.35
L 51.5 6.7 49.8 6.7 49.8 8.35 51.5 8.35
M 54.85 8.4
L 54.85 6.7 53.25 6.7 53.25 8.4 54.85 8.4
M 70.35 11.85
L 70.35 5 68.65 5 68.65 13.55 77.2 13.55 77.2 11.85 70.35 11.85
M 65.2 10.1
L 65.2 8.45 60.05 8.45 60.05 6.7 66.9 6.7 66.9 5 58.35 5 58.35 13.55 66.9 13.55 66.9 11.85 60.05 11.85 60.05 10.1 65.2 10.1
M 80.65 11.85
L 78.95 11.85 78.95 13.55 80.65 13.55 80.65 11.85
M 90.95 6.7
L 90.95 5 82.4 5 82.4 13.55 84.1 13.55 84.1 10.1 89.25 10.1 89.25 8.45 84.1 8.45 84.1 6.7 90.95 6.7
M 101.25 13.55
L 101.25 11.85 94.4 11.85 94.4 5 92.7 5 92.7 13.55 101.25 13.55
M 104.7 11.8
L 109.85 11.8 109.85 13.55 111.55 13.55 111.55 5 103 5 103 13.55 104.7 13.55 104.7 11.8
M 109.85 10.1
L 104.75 10.1 104.75 6.7 109.85 6.7 109.85 10.1
M 140.75 11.8
L 140.75 10.15 139.05 10.15 139.05 11.8 140.75 11.8
M 140.75 8.4
L 140.75 6.75 139.05 6.75 139.05 8.4 140.75 8.4
M 142.5 11.8
L 144.2 11.8 144.2 10.15 142.5 10.15 142.5 11.8
M 142.5 8.4
L 144.2 8.4 144.2 6.75 142.5 6.75 142.5 8.4
M 180.25 5
L 178.6 5 178.6 8.4 173.4 8.4 173.4 5 171.7 5 171.7 13.55 173.4 13.55 173.4 10.1 178.6 10.1 178.6 13.55 180.25 13.55 180.25 5
M 190.55 6.7
L 190.55 5 182 5 182 6.7 185.45 6.7 185.45 13.55 187.15 13.55 187.15 6.7 190.55 6.7
M 200.85 6.7
L 200.85 5 192.3 5 192.3 6.7 195.75 6.7 195.75 13.55 197.45 13.55 197.45 6.7 200.85 6.7
M 211.15 10.1
L 211.15 5 202.6 5 202.6 13.55 204.35 13.55 204.35 10.1 211.15 10.1
M 209.45 8.4
L 204.35 8.4 204.35 6.7 209.45 6.7 209.45 8.4
M 214.6 8.45
L 214.6 6.7 221.45 6.7 221.45 5 212.9 5 212.9 10.1 219.8 10.1 219.8 11.85 212.9 11.85 212.9 13.55 221.45 13.55 221.45 8.45 214.6 8.45
M 228.35 11.85
L 226.65 11.85 226.65 13.55 228.35 13.55 228.35 11.85
M 231.75 10.15
L 231.75 8.5 230.1 8.5 230.1 10.15 231.75 10.15
M 230.05 11.85
L 230.05 10.15 228.4 10.15 228.4 11.85 230.05 11.85
M 223.2 11.8
L 224.9 11.8 224.9 10.15 223.2 10.15 223.2 11.8
M 223.2 8.4
L 224.9 8.4 224.9 6.75 223.2 6.75 223.2 8.4
M 238.65 11.85
L 236.95 11.85 236.95 13.55 238.65 13.55 238.65 11.85
M 242.05 10.15
L 242.05 8.5 240.4 8.5 240.4 10.15 242.05 10.15
M 238.7 10.15
L 238.7 11.85 240.35 11.85 240.35 10.15 238.7 10.15
M 233.5 8.5
L 233.5 6.7 231.85 6.7 231.85 8.5 233.5 8.5
M 235.2 5
L 233.55 5 233.55 6.7 235.2 6.7 235.2 5
M 245.5 6.7
L 245.5 5 243.85 5 243.85 6.7 245.5 6.7
M 243.8 8.5
L 243.8 6.7 242.15 6.7 242.15 8.5 243.8 8.5
M 255.8 6.7
L 255.8 5 247.25 5 247.25 13.55 255.8 13.55 255.8 11.85 248.95 11.85 248.95 6.7 255.8 6.7
M 264.4 13.55
L 266.1 13.55 266.1 5 257.55 5 257.55 13.55 259.25 13.55 259.25 11.8 264.4 11.8 264.4 13.55
M 264.4 6.7
L 264.4 10.1 259.3 10.1 259.3 6.7 264.4 6.7
M 281.6 10.1
L 283.3 10.1 283.3 8.45 281.6 8.45 281.6 10.1
M 281.6 8.4
L 281.6 6.75 279.85 6.75 279.85 5 278.15 5 278.15 13.55 279.85 13.55 279.85 8.4 281.6 8.4
M 274.7 10.1
L 274.7 8.45 269.55 8.45 269.55 6.7 276.4 6.7 276.4 5 267.85 5 267.85 13.55 276.4 13.55 276.4 11.85 269.55 11.85 269.55 10.1 274.7 10.1
M 297 5
L 288.45 5 288.45 13.55 297 13.55 297 5
M 295.3 6.7
L 295.3 11.8 290.2 11.8 290.2 6.7 295.3 6.7
M 286.7 5
L 285.05 5 285.05 10.15 283.3 10.15 283.3 11.8 285.05 11.8 285.05 13.55 286.7 13.55 286.7 5
M 317.6 13.55
L 317.6 5 309.05 5 309.05 13.55 317.6 13.55
M 315.9 6.7
L 315.9 11.8 310.8 11.8 310.8 6.7 315.9 6.7
M 305.65 10.1
L 305.65 11.85 300.45 11.85 300.45 6.7 307.3 6.7 307.3 5 298.75 5 298.75 13.55 307.3 13.55 307.3 8.4 302.2 8.4 302.2 10.1 305.65 10.1
M 321.05 11.85
L 319.35 11.85 319.35 13.55 321.05 13.55 321.05 11.85
M 326.25 10.1
L 327.95 10.1 327.95 8.45 326.25 8.45 326.25 10.1
M 326.25 8.4
L 326.25 6.75 324.5 6.75 324.5 5 322.8 5 322.8 13.55 324.5 13.55 324.5 8.4 326.25 8.4
M 331.35 5
L 329.7 5 329.7 10.15 327.95 10.15 327.95 11.8 329.7 11.8 329.7 13.55 331.35 13.55 331.35 5
M 334.8 11.85
L 334.8 5 333.1 5 333.1 13.55 341.65 13.55 341.65 11.85 334.8 11.85
M 345.1 13.55
L 345.1 11.85 343.4 11.85 343.4 13.55 345.1 13.55
M 345.15 10.15
L 345.15 11.85 346.8 11.85 346.8 10.15 345.15 10.15
M 348.6 6.7
L 348.6 8.5 350.25 8.5 350.25 6.7 348.6 6.7
M 348.5 8.5
L 346.85 8.5 346.85 10.15 348.5 10.15 348.5 8.5
M 351.95 5
L 350.3 5 350.3 6.7 351.95 6.7 351.95 5
M 362.25 10.1
L 362.25 5 353.7 5 353.7 13.55 355.45 13.55 355.45 10.1 362.25 10.1
M 360.55 8.4
L 355.45 8.4 355.45 6.7 360.55 6.7 360.55 8.4
M 365.7 11.8
L 370.85 11.8 370.85 13.55 372.55 13.55 372.55 5 364 5 364 13.55 365.7 13.55 365.7 11.8
M 370.85 10.1
L 365.75 10.1 365.75 6.7 370.85 6.7 370.85 10.1
M 382.85 8.4
L 377.75 8.4 377.75 10.1 381.2 10.1 381.2 11.85 376 11.85 376 6.7 382.85 6.7 382.85 5 374.3 5 374.3 13.55 382.85 13.55 382.85 8.4
M 393.15 11.85
L 386.3 11.85 386.3 10.1 391.45 10.1 391.45 8.45 386.3 8.45 386.3 6.7 393.15 6.7 393.15 5 384.6 5 384.6 13.55 393.15 13.55 393.15 11.85
M 396.6 8.45
L 396.6 6.7 403.45 6.7 403.45 5 394.9 5 394.9 10.1 401.8 10.1 401.8 11.85 394.9 11.85 394.9 13.55 403.45 13.55 403.45 8.45 396.6 8.45
M 410.4 6.7
L 410.4 8.5 412.05 8.5 412.05 6.7 410.4 6.7
M 408.6 11.85
L 408.6 10.15 406.95 10.15 406.95 11.85 408.6 11.85
M 406.9 11.85
L 405.2 11.85 405.2 13.55 406.9 13.55 406.9 11.85
M 408.65 8.5
L 408.65 10.15 410.3 10.15 410.3 8.5 408.65 8.5
M 413.75 5
L 412.1 5 412.1 6.7 413.75 6.7 413.75 5
M 424.05 10.1
L 424.05 5 415.5 5 415.5 13.55 417.25 13.55 417.25 10.1 424.05 10.1
M 422.35 6.7
L 422.35 8.4 417.25 8.4 417.25 6.7 422.35 6.7
M 434.3 11.85
L 432.6 11.85 432.6 13.55 434.3 13.55 434.3 11.85
M 430.95 10.15
L 430.95 11.8 432.6 11.8 432.6 10.15 430.95 10.15
M 432.6 8.4
L 432.6 6.7 431 6.7 431 8.4 432.6 8.4
M 429.25 8.4
L 429.25 10.1 430.95 10.1 430.95 8.4 429.25 8.4
M 427.55 10.1
L 427.55 11.8 429.2 11.8 429.2 10.1 427.55 10.1
M 427.55 11.85
L 427.55 11.8 427.5 11.8 427.5 11.85 427.55 11.85
M 427.5 11.85
L 425.8 11.85 425.8 13.55 427.5 13.55 427.5 11.85
M 429.25 8.35
L 429.25 6.7 427.55 6.7 427.55 8.35 429.25 8.35
M 427.5 5
L 425.8 5 425.8 6.7 427.5 6.7 427.5 5
M 434.3 5
L 432.7 5 432.7 6.7 434.3 6.7 434.3 5
M 437.8 5
L 436.1 5 436.1 13.55 437.8 13.55 437.8 11.8 439.5 11.8 439.5 10.15 437.8 10.15 437.8 5
M 441.25 10.15
L 441.25 5 439.55 5 439.55 10.15 441.25 10.15
M 444.65 5
L 443 5 443 10.15 441.25 10.15 441.25 11.8 443 11.8 443 13.55 444.65 13.55 444.65 5
M 448.1 5
L 446.4 5 446.4 13.55 448.1 13.55 448.1 11.8 449.8 11.8 449.8 10.15 448.1 10.15 448.1 5
M 451.55 10.15
L 451.55 5 449.85 5 449.85 10.15 451.55 10.15
M 454.95 5
L 453.3 5 453.3 10.15 451.55 10.15 451.55 11.8 453.3 11.8 453.3 13.55 454.95 13.55 454.95 5 Z"/>
</g>
</defs>

<g transform="matrix( 1, 0, 0, 1, 0,0) ">
<use xlink:href="#Layer0_0_FILL"/>
</g>
</svg>
