
<svg xmlns="http://www.w3.org/2000/svg" version="1.1" xmlns:xlink="http://www.w3.org/1999/xlink" preserveAspectRatio="none" x="0px" y="0px" width="103px" height="7px" viewBox="0 0 103 7">
<defs>
<g id="Layer0_0_FILL">
<path fill="#000000" stroke="none" d="
M 103 7
L 103 6 0 6 0 7 103 7
M 3 1
L 4 1 4 5 5 5 5 0 0 0 0 5 1 5 1 1 2 1 2 4 3 4 3 1
M 11 5
L 11 0 6 0 6 5 11 5
M 10 4
L 7 4 7 1 10 1 10 4
M 16 5
L 17 5 17 4 16 4 16 5
M 17 3
L 17 0 12 0 12 5 13 5 13 3 15 3 15 4 16 4 16 3 17 3
M 16 1
L 16 2 13 2 13 1 16 1
M 23 5
L 23 4 19 4 19 3 22 3 22 2 19 2 19 1 23 1 23 0 18 0 18 5 23 5
M 33 1
L 33 0 28 0 28 5 29 5 29 3 32 3 32 2 29 2 29 1 33 1
M 38 5
L 39 5 39 4 38 4 38 5
M 39 3
L 39 0 34 0 34 5 35 5 35 3 37 3 37 4 38 4 38 3 39 3
M 38 1
L 38 2 35 2 35 1 38 1
M 45 5
L 45 0 40 0 40 5 45 5
M 44 4
L 41 4 41 1 44 1 44 4
M 51 5
L 51 0 46 0 46 5 47 5 47 1 48 1 48 4 49 4 49 1 50 1 50 5 51 5
M 61 5
L 61 4 57 4 57 1 61 1 61 0 56 0 56 5 61 5
M 66 5
L 67 5 67 0 62 0 62 5 63 5 63 4 66 4 66 5
M 66 1
L 66 3 63 3 63 1 66 1
M 72 3
L 72 2 69 2 69 1 73 1 73 0 68 0 68 5 73 5 73 4 69 4 69 3 72 3
M 78 5
L 79 5 79 0 74 0 74 5 75 5 75 1 78 1 78 5
M 85 5
L 85 0 80 0 80 5 85 5
M 81 4
L 81 1 84 1 84 4 81 4
M 91 1
L 91 0 86 0 86 5 91 5 91 2 88 2 88 3 90 3 90 4 87 4 87 1 91 1
M 97 5
L 97 0 92 0 92 5 97 5
M 93 1
L 96 1 96 4 93 4 93 1
M 103 5
L 103 0 98 0 98 5 99 5 99 1 102 1 102 5 103 5 Z"/>
</g>
</defs>

<g transform="matrix( 1, 0, 0, 1, 0,0) ">
<use xlink:href="#Layer0_0_FILL"/>
</g>
</svg>
