
<svg xmlns="http://www.w3.org/2000/svg" version="1.1" xmlns:xlink="http://www.w3.org/1999/xlink" preserveAspectRatio="none" x="0px" y="0px" width="249px" height="15px" viewBox="0 0 249 15">
<defs>
<g id="Layer0_0_FILL">
<path fill="#FFFFFF" stroke="none" d="
M 1.7 8.45
L 1.7 6.7 8.55 6.7 8.55 5 0 5 0 10.1 6.9 10.1 6.9 11.85 0 11.85 0 13.55 8.55 13.55 8.55 8.45 1.7 8.45
M 15.45 6.7
L 18.85 6.7 18.85 5 10.3 5 10.3 6.7 13.75 6.7 13.75 13.55 15.45 13.55 15.45 6.7
M 27.45 6.7
L 25.8 6.7 25.8 8.4 27.45 8.4 27.45 6.7
M 25.65 8.4
L 24 8.4 24 13.55 25.65 13.55 25.65 8.4
M 24 8.4
L 24 6.7 22.3 6.7 22.3 8.4 24 8.4
M 22.3 5
L 20.6 5 20.6 6.7 22.3 6.7 22.3 5
M 29.15 5
L 27.5 5 27.5 6.7 29.15 6.7 29.15 5
M 39.45 11.85
L 32.6 11.85 32.6 5 30.9 5 30.9 13.55 39.45 13.55 39.45 11.85
M 42.9 11.85
L 42.9 10.1 48.05 10.1 48.05 8.45 42.9 8.45 42.9 6.7 49.75 6.7 49.75 5 41.2 5 41.2 13.55 49.75 13.55 49.75 11.85 42.9 11.85
M 77.25 10.15
L 77.25 11.8 78.95 11.8 78.95 10.15 77.25 10.15
M 78.95 8.4
L 78.95 6.75 77.25 6.75 77.25 8.4 78.95 8.4
M 82.4 11.8
L 82.4 10.15 80.7 10.15 80.7 11.8 82.4 11.8
M 82.4 8.4
L 82.4 6.75 80.7 6.75 80.7 8.4 82.4 8.4
M 111.6 8.4
L 113.35 8.4 113.35 6.7 111.6 6.7 111.6 5 109.9 5 109.9 13.55 111.6 13.55 111.6 8.4
M 115 8.4
L 113.35 8.4 113.35 13.55 115 13.55 115 8.4
M 118.45 5
L 116.8 5 116.8 6.7 115.1 6.7 115.1 8.4 116.8 8.4 116.8 13.55 118.45 13.55 118.45 5
M 128.75 13.55
L 128.75 5 120.2 5 120.2 13.55 128.75 13.55
M 121.95 6.7
L 127.05 6.7 127.05 11.8 121.95 11.8 121.95 6.7
M 133.95 8.4
L 133.95 6.75 132.2 6.75 132.2 5 130.5 5 130.5 13.55 132.2 13.55 132.2 8.4 133.95 8.4
M 135.65 10.1
L 135.65 8.45 133.95 8.45 133.95 10.1 135.65 10.1
M 139.05 5
L 137.4 5 137.4 10.15 135.65 10.15 135.65 11.8 137.4 11.8 137.4 13.55 139.05 13.55 139.05 5
M 149.35 13.55
L 149.35 5 140.8 5 140.8 13.55 149.35 13.55
M 142.55 11.8
L 142.55 6.7 147.65 6.7 147.65 11.8 142.55 11.8
M 159.65 11.85
L 152.8 11.85 152.8 6.7 159.65 6.7 159.65 5 151.1 5 151.1 13.55 159.65 13.55 159.65 11.85
M 163.1 10.1
L 168.3 10.1 168.3 13.55 169.95 13.55 169.95 5 168.3 5 168.3 8.4 163.1 8.4 163.1 5 161.4 5 161.4 13.55 163.1 13.55 163.1 10.1
M 180.25 11.85
L 178.6 11.85 178.6 13.55 180.25 13.55 180.25 11.85
M 178.55 11.85
L 178.6 11.85 178.6 11.8 178.55 11.8 178.55 11.85
M 173.45 10.1
L 176.85 10.1 176.85 11.8 178.55 11.8 178.55 10.1 180.25 10.1 180.25 5 171.7 5 171.7 13.55 173.45 13.55 173.45 10.1
M 173.45 8.4
L 173.45 6.7 178.55 6.7 178.55 8.4 173.45 8.4
M 190.55 13.55
L 190.55 5 182 5 182 13.55 190.55 13.55
M 183.75 11.8
L 183.75 6.7 188.85 6.7 188.85 11.8 183.75 11.8
M 194 8.4
L 195.75 8.4 195.75 6.7 194 6.7 194 5 192.3 5 192.3 13.55 194 13.55 194 8.4
M 197.4 8.4
L 195.75 8.4 195.75 13.55 197.4 13.55 197.4 8.4
M 200.85 5
L 199.2 5 199.2 6.7 197.5 6.7 197.5 8.4 199.2 8.4 199.2 13.55 200.85 13.55 200.85 5
M 211.15 5
L 202.6 5 202.6 13.55 204.3 13.55 204.3 11.8 209.45 11.8 209.45 13.55 211.15 13.55 211.15 5
M 209.45 10.1
L 204.35 10.1 204.35 6.7 209.45 6.7 209.45 10.1
M 221.45 6.7
L 221.45 5 212.9 5 212.9 6.7 216.35 6.7 216.35 13.55 218.05 13.55 218.05 6.7 221.45 6.7
M 230.05 13.55
L 238.6 13.55 238.6 5 230.05 5 230.05 13.55
M 236.9 6.7
L 236.9 11.8 231.8 11.8 231.8 6.7 236.9 6.7
M 224.95 11.85
L 223.2 11.85 223.2 13.55 228.35 13.55 228.35 11.85 226.6 11.85 226.6 6.7 228.35 6.7 228.35 5 223.2 5 223.2 6.7 224.95 6.7 224.95 11.85
M 245.5 10.15
L 245.5 11.8 247.25 11.8 247.25 13.55 248.9 13.55 248.9 5 247.25 5 247.25 10.15 245.5 10.15
M 245.5 8.45
L 243.8 8.45 243.8 10.1 245.5 10.1 245.5 8.45
M 243.8 8.4
L 243.8 6.75 242.05 6.75 242.05 5 240.35 5 240.35 13.55 242.05 13.55 242.05 8.4 243.8 8.4 Z"/>
</g>
</defs>

<g transform="matrix( 1, 0, 0, 1, 0,0) ">
<use xlink:href="#Layer0_0_FILL"/>
</g>
</svg>
