
<svg xmlns="http://www.w3.org/2000/svg" version="1.1" xmlns:xlink="http://www.w3.org/1999/xlink" preserveAspectRatio="none" x="0px" y="0px" width="305px" height="5px" viewBox="0 0 305 5">
<defs>
<g id="Layer0_0_FILL">
<path fill="#FFFFFF" stroke="none" d="
M 85 1
L 85 0 84 0 84 1 85 1
M 86 1
L 85 1 85 2 86 2 86 1
M 87 3
L 87 2 86 2 86 3 87 3
M 85 4
L 84 4 84 5 85 5 85 4
M 86 3
L 85 3 85 4 86 4 86 3
M 80 2
L 80 1 79 1 79 2 80 2
M 79 1
L 79 0 78 0 78 1 79 1
M 81 3
L 81 2 80 2 80 3 81 3
M 78 4
L 78 5 79 5 79 4 78 4
M 80 3
L 79 3 79 4 80 4 80 3
M 5 1
L 5 0 0 0 0 3 4 3 4 4 0 4 0 5 5 5 5 2 1 2 1 1 5 1
M 11 5
L 11 4 7 4 7 1 11 1 11 0 6 0 6 5 11 5
M 17 5
L 17 4 13 4 13 3 16 3 16 2 13 2 13 1 17 1 17 0 12 0 12 5 17 5
M 24 0
L 24 5 25 5 25 0 24 0
M 23 3
L 23 0 18 0 18 5 19 5 19 3 23 3
M 22 1
L 22 2 19 2 19 1 22 1
M 27 4
L 28 4 28 3 27 3 27 4
M 27 4
L 26 4 26 5 27 5 27 4
M 27 1
L 27 0 26 0 26 1 27 1
M 29 1
L 29 2 30 2 30 1 29 1
M 30 3
L 29 3 29 4 30 4 30 3
M 28 2
L 28 1 27 1 27 2 28 2
M 28 2
L 28 3 29 3 29 2 28 2
M 31 5
L 31 4 30 4 30 5 31 5
M 31 1
L 31 0 30 0 30 1 31 1
M 37 5
L 37 4 33 4 33 3 36 3 36 2 33 2 33 1 37 1 37 0 32 0 32 5 37 5
M 44 4
L 44 5 45 5 45 4 44 4
M 43 5
L 43 4 39 4 39 0 38 0 38 5 43 5
M 51 1
L 51 0 46 0 46 5 47 5 47 3 50 3 50 2 47 2 47 1 51 1
M 57 5
L 57 4 53 4 53 0 52 0 52 5 57 5
M 62 4
L 62 5 63 5 63 0 58 0 58 5 59 5 59 4 62 4
M 62 1
L 62 3 59 3 59 1 62 1
M 108 0
L 108 2 105 2 105 0 104 0 104 5 105 5 105 3 108 3 108 5 109 5 109 0 108 0
M 112 1
L 112 5 113 5 113 1 115 1 115 0 110 0 110 1 112 1
M 121 1
L 121 0 116 0 116 1 118 1 118 5 119 5 119 1 121 1
M 127 3
L 127 0 122 0 122 5 123 5 123 3 127 3
M 123 1
L 126 1 126 2 123 2 123 1
M 134 3
L 134 4 135 4 135 3 134 3
M 133 1
L 133 0 128 0 128 3 132 3 132 4 128 4 128 5 133 5 133 2 129 2 129 1 133 1
M 135 2
L 135 1 134 1 134 2 135 2
M 137 5
L 137 4 136 4 136 5 137 5
M 138 3
L 137 3 137 4 138 4 138 3
M 139 2
L 138 2 138 3 139 3 139 2
M 140 2
L 140 1 139 1 139 2 140 2
M 140 0
L 140 1 141 1 141 0 140 0
M 143 4
L 142 4 142 5 143 5 143 4
M 144 3
L 143 3 143 4 144 4 144 3
M 145 3
L 145 2 144 2 144 3 145 3
M 146 2
L 146 1 145 1 145 2 146 2
M 147 1
L 147 0 146 0 146 1 147 1
M 153 5
L 153 4 149 4 149 1 153 1 153 0 148 0 148 5 153 5
M 158 4
L 158 5 159 5 159 0 154 0 154 5 155 5 155 4 158 4
M 158 1
L 158 3 155 3 155 1 158 1
M 165 5
L 165 4 161 4 161 3 164 3 164 2 161 2 161 1 165 1 165 0 160 0 160 5 165 5
M 171 5
L 171 0 166 0 166 5 167 5 167 1 170 1 170 5 171 5
M 177 5
L 177 0 172 0 172 5 177 5
M 173 1
L 176 1 176 4 173 4 173 1
M 183 5
L 183 2 180 2 180 3 182 3 182 4 179 4 179 1 183 1 183 0 178 0 178 5 183 5
M 189 5
L 189 0 184 0 184 5 189 5
M 188 1
L 188 4 185 4 185 1 188 1
M 191 4
L 190 4 190 5 191 5 191 4
M 193 5
L 193 1 196 1 196 5 197 5 197 0 192 0 192 5 193 5
M 203 5
L 203 4 199 4 199 0 198 0 198 5 203 5
M 205 4
L 206 4 206 3 205 3 205 4
M 205 5
L 205 4 204 4 204 5 205 5
M 206 2
L 206 3 207 3 207 2 206 2
M 208 2
L 208 1 207 1 207 2 208 2
M 209 1
L 209 0 208 0 208 1 209 1
M 215 3
L 215 0 210 0 210 5 211 5 211 3 215 3
M 214 1
L 214 2 211 2 211 1 214 1
M 220 4
L 220 5 221 5 221 0 216 0 216 5 217 5 217 4 220 4
M 220 1
L 220 3 217 3 217 1 220 1
M 227 1
L 227 0 222 0 222 5 227 5 227 2 224 2 224 3 226 3 226 4 223 4 223 1 227 1
M 233 5
L 233 4 229 4 229 3 232 3 232 2 229 2 229 1 233 1 233 0 228 0 228 5 233 5
M 239 1
L 239 0 234 0 234 3 238 3 238 4 234 4 234 5 239 5 239 2 235 2 235 1 239 1
M 240 4
L 240 5 241 5 241 4 240 4
M 242 3
L 241 3 241 4 242 4 242 3
M 243 3
L 243 2 242 2 242 3 243 3
M 244 1
L 243 1 243 2 244 2 244 1
M 245 1
L 245 0 244 0 244 1 245 1
M 251 3
L 251 0 246 0 246 5 247 5 247 3 251 3
M 250 1
L 250 2 247 2 247 1 250 1
M 256 4
L 256 5 257 5 257 0 252 0 252 5 253 5 253 4 256 4
M 256 1
L 256 3 253 3 253 1 256 1
M 263 1
L 263 0 258 0 258 5 263 5 263 2 260 2 260 3 262 3 262 4 259 4 259 1 263 1
M 269 5
L 269 4 265 4 265 3 268 3 268 2 265 2 265 1 269 1 269 0 264 0 264 5 269 5
M 275 1
L 275 0 270 0 270 3 274 3 274 4 270 4 270 5 275 5 275 2 271 2 271 1 275 1
M 277 4
L 276 4 276 5 277 5 277 4
M 278 3
L 277 3 277 4 278 4 278 3
M 279 2
L 280 2 280 1 279 1 279 2
M 279 3
L 279 2 278 2 278 3 279 3
M 281 1
L 281 0 280 0 280 1 281 1
M 287 3
L 287 0 282 0 282 5 283 5 283 3 287 3
M 286 1
L 286 2 283 2 283 1 286 1
M 291 3
L 291 4 292 4 292 3 291 3
M 292 4
L 292 5 293 5 293 4 292 4
M 289 5
L 289 4 288 4 288 5 289 5
M 290 1
L 289 1 289 2 290 2 290 1
M 290 3
L 289 3 289 4 290 4 290 3
M 291 3
L 291 2 290 2 290 3 291 3
M 289 1
L 289 0 288 0 288 1 289 1
M 292 1
L 293 1 293 0 292 0 292 1
M 292 2
L 292 1 291 1 291 2 292 2
M 299 5
L 299 0 298 0 298 4 297 4 297 1 296 1 296 4 295 4 295 0 294 0 294 5 299 5
M 305 5
L 305 0 304 0 304 4 303 4 303 1 302 1 302 4 301 4 301 0 300 0 300 5 305 5 Z"/>
</g>
</defs>

<g transform="matrix( 1, 0, 0, 1, 0,0) ">
<use xlink:href="#Layer0_0_FILL"/>
</g>
</svg>
