
<svg xmlns="http://www.w3.org/2000/svg" version="1.1" xmlns:xlink="http://www.w3.org/1999/xlink" preserveAspectRatio="none" x="0px" y="0px" width="32px" height="32px" viewBox="0 0 32 32">
<defs>
<g id="Layer0_0_FILL">
<path fill="#333333" stroke="none" d="
M 20 6
L 18 6 18 8 14 8 14 6 12 6 12 8 2 8 2 26 6 26 6 30 8 30 8 28 10 28 10 26 22 26 22 28 24 28 24 30 26 30 26 26 30 26 30 8 20 8 20 6
M 28 10
L 28 24 4 24 4 10 28 10
M 26 12
L 22 12 22 16 26 16 26 12
M 14 20
L 12 20 12 22 20 22 20 20 18 20 18 18 14 18 14 20
M 10 14
L 6 14 6 18 10 18 10 14
M 12 6
L 12 4 10 4 10 6 12 6
M 22 6
L 22 4 20 4 20 6 22 6
M 10 2
L 8 2 8 4 10 4 10 2
M 24 2
L 22 2 22 4 24 4 24 2 Z"/>
</g>
</defs>

<g transform="matrix( 1, 0, 0, 1, 0,0) ">
<use xlink:href="#Layer0_0_FILL"/>
</g>
</svg>
