
<svg xmlns="http://www.w3.org/2000/svg" version="1.1" xmlns:xlink="http://www.w3.org/1999/xlink" preserveAspectRatio="none" x="0px" y="0px" width="200px" height="40px" viewBox="0 0 200 40">
<defs>
<g id="Layer1_0_FILL">
<path fill="#000000" stroke="none" d="
M 149.4 41.4
Q 149.25 41.05 148.9 40.85 148.55 40.65 148.25 40.7 147.85 40.8 147.65 41.15 147.45 41.5 147.55 41.8
L 149.45 41.8
Q 149.45 41.6 149.4 41.4
M 148 33.4
Q 147.45 33.55 147.2 33.95 146.95 34.4 147.15 34.9 147.25 35.4 147.7 35.65 148.15 35.9 148.7 35.75 149.15 35.65 149.4 35.2 149.65 34.8 149.55 34.25 149.4 33.75 148.95 33.5 148.5 33.25 148 33.4
M 150.15 31.15
Q 150.05 31.3 150.1 31.5 150.15 31.7 150.3 31.8 150.5 31.9 150.7 31.85 150.9 31.8 151 31.65 151.1 31.45 151.05 31.25 151 31.05 150.8 30.95 150.65 30.85 150.45 30.9 150.25 30.95 150.15 31.15
M 144.05 28.35
Q 143.55 28.5 143.35 28.9 143.1 29.3 143.25 29.7 143.4 30.15 143.75 30.4 144.15 30.6 144.6 30.5 145 30.4 145.25 30 145.45 29.6 145.4 29.15 145.25 28.7 144.85 28.5 144.5 28.25 144.05 28.35
M 159.05 35.05
Q 158.8 35.4 158.95 35.9 159.05 36.35 159.45 36.55 159.85 36.8 160.3 36.65 160.7 36.5 160.95 36.15 161.1 35.8 161.05 35.45 161.25 35.15 161.2 34.9 161.1 34.6 160.75 34.4 160.45 34.25 160.2 34.35 159.95 34.35 159.8 34.55 159.8 34.5 159.75 34.55 159.25 34.65 159.05 35.05
M 152.05 31.85
Q 151.85 32.2 151.95 32.6 152.1 33 152.4 33.2 152.75 33.4 153.2 33.3 153.6 33.2 153.8 32.85 154 32.5 153.9 32.1 153.75 31.65 153.4 31.45 153.1 31.25 152.65 31.4 152.25 31.5 152.05 31.85
M 139.1 41.45
Q 139 41.05 138.65 40.85 138.3 40.65 137.9 40.75 137.5 40.85 137.3 41.2 137.15 41.5 137.2 41.8
L 139.2 41.8
Q 139.15 41.65 139.1 41.45
M 129.2 25.6
Q 129.35 25.6 129.45 25.45 129.5 25.35 129.45 25.2 129.45 25.05 129.3 25 129.15 24.9 129.05 24.95 128.9 25 128.85 25.1 128.75 25.25 128.8 25.35 128.8 25.5 128.95 25.6 129.1 25.65 129.2 25.6
M 139.2 33.9
Q 139.15 33.6 138.9 33.45 138.6 33.3 138.35 33.4 138.05 33.45 137.9 33.7 137.75 34 137.85 34.25 137.9 34.5 138.2 34.65 138.45 34.8 138.7 34.75 139 34.7 139.15 34.4 139.3 34.15 139.2 33.9
M 159.2 23.95
Q 158.85 24.05 158.7 24.35 158.5 24.65 158.6 24.9 158.7 25.25 159 25.45 159.3 25.6 159.6 25.5 159.9 25.45 160.1 25.15 160.25 24.85 160.2 24.55 160.1 24.2 159.8 24.05 159.5 23.85 159.2 23.95
M 158 24.55
Q 157.8 24.4 157.5 24.45 157.25 24.55 157.1 24.75 157 24.95 157.05 25.25
L 157 25.3
Q 156.9 25.1 156.7 25 156.25 24.75 155.85 24.85 155.4 24.95 155.15 25.4 154.9 25.8 155.05 26.3 155.1 26.75 155.55 27 155.95 27.25 156.45 27.1 156.85 26.95 157.1 26.55 157.35 26.1 157.25 25.65 157.25 25.6 157.25 25.55 157.3 25.6 157.35 25.65 157.55 25.75 157.85 25.7 158.1 25.6 158.2 25.4 158.35 25.2 158.3 24.9 158.2 24.65 158 24.55
M 158 22.85
Q 157.75 22.95 157.65 23.15 157.5 23.4 157.55 23.65 157.65 23.95 157.85 24.05 158.05 24.2 158.35 24.1 158.6 24.05 158.75 23.8 158.85 23.6 158.8 23.3 158.7 23.05 158.5 22.9 158.3 22.8 158 22.85
M 155.9 18.2
Q 155.9 18.4 156.05 18.5 156.15 18.55 156.4 18.5 156.55 18.5 156.6 18.35 156.7 18.2 156.65 18.05 156.55 17.85 156.45 17.8 156.3 17.7 156.15 17.75 156 17.8 155.9 17.95 155.85 18.1 155.9 18.2
M 160.2 18.3
Q 160 18.15 159.75 18.25 159.55 18.3 159.45 18.5 159.3 18.75 159.35 18.95 159.4 19.2 159.6 19.35 159.85 19.45 160.05 19.35 160.25 19.3 160.4 19.05 160.5 18.85 160.45 18.65 160.45 18.4 160.2 18.3
M 157.5 16.35
Q 157.2 16.35 156.95 16.6 157 16.5 157 16.45 156.9 16.15 156.65 16 156.4 15.85 156.1 15.9 155.75 16 155.6 16.3 155.45 16.55 155.55 16.8 155.65 17.15 155.9 17.3 156.15 17.45 156.45 17.35 156.6 17.3 156.7 17.25 156.75 17.4 156.75 17.65 156.85 18.05 157.25 18.25 157.65 18.5 158.1 18.4 158.5 18.3 158.75 17.9 158.95 17.5 158.85 17.1 158.7 16.7 158.3 16.45 157.9 16.25 157.5 16.35
M 151.45 15.4
Q 151.3 15.7 151.45 16 151.45 16.3 151.75 16.5 152.05 16.65 152.45 16.6 152.7 16.5 152.85 16.2 153.05 15.9 153 15.6 152.85 15.25 152.55 15.1 152.25 14.9 152 15 151.65 15.1 151.45 15.4
M 151.8 22.55
Q 151.65 22.8 151.75 23.15 151.8 23.45 152.05 23.6 152.3 23.75 152.7 23.65 152.95 23.55 153.1 23.3 153.25 23.05 153.2 22.7 153.05 22.45 152.8 22.3 152.55 22.15 152.25 22.2 151.95 22.3 151.8 22.55
M 143.45 3.8
Q 143.35 3.75 143.25 3.85 143.1 3.9 143.05 3.95 143 4.05 143.05 4.2 143.05 4.3 143.15 4.35 143.2 4.4 143.35 4.35 143.45 4.3 143.5 4.2 143.55 4.15 143.55 4 143.5 3.85 143.45 3.8
M 149.3 4
Q 149.25 4.1 149.3 4.25 149.35 4.4 149.5 4.5 149.6 4.55 149.8 4.55 149.95 4.5 150 4.4 150.1 4.25 150.05 4.1 149.95 3.95 149.85 3.9 149.7 3.8 149.55 3.8 149.4 3.85 149.3 4
M 147.3 4
Q 147.2 3.65 146.9 3.5 146.6 3.3 146.3 3.4 146 3.5 145.8 3.8 145.75 3.9 145.7 4
L 145.65 4
Q 145.4 4.05 145.25 4.25 145.15 4.5 145.2 4.7 145.25 5 145.45 5.1 145.7 5.25 145.95 5.15 146.1 5.15 146.25 4.95 146.5 5.05 146.75 5 147.05 4.9 147.2 4.6 147.4 4.3 147.3 4
M 153.7 9
Q 154 8.9 154.2 8.55 154.35 8.25 154.3 7.9 154.2 7.55 153.9 7.35 153.6 7.2 153.2 7.25 152.8 7.35 152.65 7.65 152.45 8 152.6 8.35 152.7 8.75 153 8.9 153.3 9.1 153.7 9
M 155.05 2.9
Q 154.65 3 154.45 3.35 154.25 3.7 154.35 4.1 154.45 4.5 154.8 4.7 155.15 4.9 155.55 4.8 155.95 4.7 156.15 4.35 156.35 4 156.25 3.6 156.15 3.2 155.8 3 155.45 2.8 155.05 2.9
M 158.85 5.05
Q 158.9 5.35 159.15 5.5 159.4 5.65 159.75 5.55 160.05 5.45 160.2 5.2 160.25 5.15 160.2 5.1 160.45 4.95 160.55 4.8 160.7 4.55 160.6 4.4 160.55 4.15 160.35 4.05 160.15 3.9 159.9 4 159.75 4.05 159.7 4.1 159.5 4.1 159.35 4.15 159.05 4.2 158.9 4.45 158.75 4.7 158.85 5.05
M 159.2 2.85
Q 159.1 2.85 159.05 2.95 159 3.05 159 3.15 159 3.2 159.1 3.25 159.2 3.3 159.3 3.3 159.4 3.3 159.45 3.2 159.5 3.1 159.5 3 159.45 2.9 159.35 2.85 159.25 2.8 159.2 2.85
M 195.05 41.6
Q 195 41.7 195 41.8
L 196.2 41.8 196.2 41.75
Q 196.1 41.5 195.9 41.35 195.65 41.25 195.5 41.3 195.2 41.35 195.05 41.6
M 201.85 41.25
Q 201.75 40.95 201.45 40.75 201.1 40.6 200.8 40.65 200.5 40.75 200.3 41.05 200.15 41.35 200.25 41.6 200.25 41.7 200.3 41.8
L 201.8 41.8
Q 201.95 41.55 201.85 41.25
M 199.85 39.55
Q 199.55 39.4 199.2 39.45 198.75 39.55 198.6 39.85 198.4 40.15 198.6 40.55 198.65 40.95 198.95 41.1 199.25 41.3 199.65 41.2 199.95 41.05 200.15 40.75 200.3 40.45 200.25 40.1 200.15 39.75 199.85 39.55
M 182.4 41.8
L 183.35 41.8
Q 183.25 41.75 183.2 41.7 182.9 41.55 182.65 41.65 182.5 41.7 182.4 41.8
M 186.25 39.3
Q 186 39.2 185.75 39.25 185.7 39.15 185.65 39.1 185.45 39 185.2 39.05 184.95 39.15 184.8 39.35 184.7 39.55 184.75 39.85
L 184.7 39.9
Q 184.7 40.15 184.8 40.45 184.9 40.85 185.25 41.05 185.6 41.25 186 41.15 186.4 41 186.6 40.65 186.8 40.3 186.7 39.9 186.6 39.5 186.25 39.3
M 191.35 38.65
Q 191.1 38.5 190.8 38.6 190.45 38.7 190.3 38.95 190.15 39.25 190.25 39.5 190.35 39.8 190.6 39.95 190.85 40.1 191.15 40.05 191.45 40 191.6 39.7 191.75 39.45 191.7 39.15 191.6 38.8 191.35 38.65
M 188.9 36.25
Q 188.95 36.5 189.2 36.65 189.5 36.8 189.75 36.75 190.05 36.65 190.2 36.4 190.35 36.15 190.25 35.85 190.2 35.6 189.9 35.45 189.65 35.3 189.4 35.35 189.1 35.45 188.95 35.7 188.8 35.95 188.9 36.25
M 188.2 34.65
Q 188 34.55 187.85 34.6 187.65 34.65 187.55 34.8 187.45 35 187.5 35.15 187.55 35.35 187.75 35.45 187.9 35.55 188.1 35.45 188.2 35.45 188.3 35.25 188.4 35.1 188.45 34.9 188.35 34.75 188.2 34.65
M 185.7 36
Q 185.6 36.15 185.6 36.25 185.65 36.4 185.8 36.45 185.9 36.55 186.05 36.5 186.2 36.5 186.3 36.35 186.35 36.2 186.3 36.1 186.25 35.95 186.15 35.85 186 35.8 185.85 35.85 185.75 35.85 185.7 36
M 184.5 35.45
Q 184.2 35.25 183.85 35.35 183.4 35.45 183.25 35.75 183.05 36.05 183.25 36.45 183.3 36.8 183.6 37 183.9 37.15 184.3 37.05 184.65 36.95 184.85 36.65 185 36.35 184.9 35.95 184.8 35.6 184.5 35.45
M 183.1 25.8
L 183.05 25.75 183 25.8 183.05 25.8 183 25.85 183.1 25.85 183.1 25.8
M 186.25 27.2
Q 186.3 27.4 186.5 27.55 186.7 27.65 186.95 27.6 187.1 27.55 187.25 27.3 187.35 27.1 187.35 26.9 187.25 26.7 187.05 26.6 186.85 26.45 186.65 26.5 186.4 26.55 186.3 26.75 186.15 27 186.25 27.2
M 201.95 31.75
Q 201.75 31.6 201.55 31.65 201.3 31.75 201.15 31.95 201.15 32 201.1 32.05 200.95 31.7 200.6 31.5 200.15 31.25 199.75 31.4 199.3 31.5 199.05 31.9 198.8 32.35 198.95 32.8 199 33.25 199.45 33.5 199.9 33.75 200.4 33.6 200.8 33.5 201.05 33.05 201.2 32.8 201.2 32.6 201.25 32.7 201.35 32.8 201.6 32.9 201.85 32.8 202.1 32.8 202.2 32.55 202.35 32.35 202.3 32.05 202.2 31.85 201.95 31.75
M 192.8 36.05
Q 193.05 35.65 192.95 35.2 192.8 34.75 192.35 34.5 191.9 34.25 191.5 34.35 191.05 34.5 190.8 34.9 190.55 35.35 190.7 35.75 190.75 36.2 191.2 36.45 191.65 36.7 192.15 36.6 192.55 36.5 192.8 36.05
M 194.2 34.85
Q 194.3 35.15 194.55 35.3 194.8 35.45 195.1 35.4 195.4 35.35 195.55 35.05 195.7 34.8 195.65 34.5 195.55 34.15 195.3 34 195.05 33.85 194.75 33.95 194.4 34.05 194.25 34.3 194.1 34.6 194.2 34.85
M 194.2 27.6
Q 193.85 27.4 193.5 27.45 193.1 27.6 192.9 27.9 192.7 28.25 192.8 28.65 192.9 29.05 193.25 29.25 193.6 29.45 194 29.35 194.4 29.25 194.6 28.9 194.8 28.6 194.7 28.15 194.55 27.8 194.2 27.6
M 199.75 28.85
Q 199.6 29.15 199.7 29.4 199.75 29.7 200.05 29.85 200.3 30 200.55 29.9 200.85 29.85 201 29.55 201.15 29.3 201.05 29.05 201 28.75 200.75 28.6 200.45 28.45 200.2 28.55 199.9 28.6 199.75 28.85
M 202.15 24.95
Q 202.05 24.9 202 24.95 201.85 25 201.8 25.1 201.75 25.2 201.8 25.3 201.75 25.4 201.85 25.45 201.95 25.5 202.1 25.45 202.15 25.45 202.2 25.35 202.25 25.25 202.3 25.1 202.25 25 202.15 24.95
M 173.2 41.45
Q 172.85 41.55 172.7 41.8
L 174.2 41.8
Q 174.05 41.6 173.9 41.5 173.55 41.35 173.2 41.45
M 174.25 39.4
Q 173.9 39.2 173.45 39.3 173.05 39.4 172.85 39.8 172.6 40.2 172.7 40.6 172.85 41 173.2 41.2 173.6 41.45 174 41.35 174.45 41.25 174.7 40.85 174.9 40.45 174.75 40.05 174.65 39.65 174.25 39.4
M 181.85 39.05
Q 181.55 39.15 181.35 39.45 181.2 39.75 181.25 40.1 181.4 40.45 181.7 40.6 182 40.8 182.3 40.7 182.65 40.6 182.8 40.3 183 40 182.9 39.65 182.85 39.35 182.55 39.15 182.25 39 181.85 39.05
M 170.35 36.2
Q 169.95 36 169.55 36.1 169.15 36.2 168.95 36.6 168.7 37 168.8 37.4 168.9 37.8 169.3 38 169.7 38.25 170.1 38.15 170.5 38.05 170.75 37.65 170.95 37.25 170.85 36.85 170.75 36.45 170.35 36.2
M 166.9 35.1
L 166.85 35.15 166.95 35.1 166.95 35.05 166.85 35.05 166.9 35.1
M 164.8 35.9
Q 164.35 35.65 163.9 35.75 163.45 35.9 163.2 36.3 162.95 36.75 163.1 37.15 163.2 37.65 163.65 37.9 164.1 38.15 164.6 38 165.05 37.95 165.3 37.5 165.55 37.1 165.4 36.6 165.25 36.15 164.8 35.9
M 162.75 27.25
Q 162.95 26.9 162.85 26.5 162.7 26.15 162.35 25.95 162 25.75 161.7 25.8 161.3 25.95 161.1 26.3 160.9 26.65 161 27 161.05 27.4 161.4 27.6 161.75 27.8 162.15 27.7 162.55 27.6 162.75 27.25
M 166.85 26.85
Q 166.75 26.3 166.25 26.05 165.75 25.75 165.25 25.95 164.9 26 164.7 26.2 164.75 26.05 164.75 25.9 164.65 25.7 164.45 25.6 164.2 25.45 164 25.5 163.7 25.6 163.6 25.8 163.45 26 163.6 26.25 163.6 26.5 163.85 26.65 164.05 26.75 164.35 26.65 164.15 27.1 164.3 27.6 164.4 28.1 164.9 28.4 165.4 28.65 165.9 28.5 166.4 28.35 166.65 27.85 166.95 27.4 166.85 26.85
M 168.7 27.3
Q 168.55 27.35 168.45 27.5 168.4 27.6 168.45 27.75 168.45 27.9 168.6 28 168.75 28.05 168.85 28 169 27.95 169.05 27.85 169.15 27.7 169.1 27.55 169.1 27.45 168.95 27.4 168.8 27.3 168.7 27.3
M 169.6 27.15
Q 169.9 27.35 170.3 27.25 170.6 27.1 170.8 26.8 170.95 26.5 170.9 26.15 170.8 25.8 170.5 25.6 170.2 25.45 169.8 25.5 169.4 25.6 169.25 25.9 169.05 26.2 169.2 26.6 169.3 27 169.6 27.15
M 175.5 35.3
Q 175.65 35.25 175.75 35.1 175.85 34.9 175.8 34.75 175.7 34.6 175.55 34.5 175.4 34.4 175.25 34.45 175.05 34.45 174.95 34.65 174.85 34.8 174.95 35 174.95 35.2 175.1 35.3 175.25 35.4 175.5 35.3
M 172.7 32.65
Q 172.9 32.3 172.8 31.95 172.7 31.65 172.4 31.45 172.1 31.3 171.75 31.35 171.45 31.45 171.25 31.8 171.1 32.1 171.15 32.4 171.25 32.75 171.55 32.9 171.85 33.1 172.2 33 172.55 32.95 172.7 32.65
M 175.35 29.3
Q 175.45 29.35 175.7 29.3 175.8 29.25 175.9 29.1 176 28.95 176 28.75 175.9 28.55 175.8 28.5 175.65 28.4 175.5 28.45 175.35 28.55 175.25 28.7 175.15 28.85 175.2 29 175.2 29.2 175.35 29.3
M 174.4 29
Q 174.05 29.1 173.9 29.45 173.7 29.75 173.8 30 173.9 30.3 174.2 30.5 174.5 30.65 174.8 30.6 175.05 30.55 175.25 30.25 175.4 29.9 175.4 29.6 175.3 29.3 175 29.15 174.7 28.95 174.4 29
M 173.15 27.7
Q 173.3 27.45 173.25 27.2 173.15 26.95 172.9 26.85 172.7 26.7 172.5 26.8 172.25 26.85 172.1 27.1 172 27.3 172.05 27.55 172.1 27.75 172.3 27.9 172.55 28 172.8 27.95 173.05 27.9 173.15 27.7
M 182.05 25.95
Q 181.6 26.05 181.4 26.35 181.25 26.65 181.4 27 181.45 27.35 181.75 27.55 182.05 27.7 182.45 27.6 182.85 27.55 183 27.25 183.2 26.95 183.1 26.55 182.95 26.15 182.65 26 182.35 25.8 182.05 25.95
M 178.85 20.25
Q 178.95 20.2 179.05 20 179.15 19.85 179.2 19.65 179.1 19.5 178.9 19.4 178.75 19.3 178.6 19.3 178.4 19.4 178.3 19.55 178.2 19.75 178.25 19.9 178.3 20.05 178.45 20.15 178.65 20.25 178.85 20.25
M 181.3 19.75
Q 181.25 19.55 181.05 19.45 180.9 19.35 180.75 19.4 180.55 19.5 180.45 19.65 180.35 19.8 180.4 19.95 180.45 20.15 180.6 20.25 180.8 20.35 180.95 20.3 181.1 20.25 181.2 20.1 181.3 19.95 181.3 19.75
M 177 23.05
Q 176.8 23.4 176.95 23.8 177 24.2 177.35 24.4 177.7 24.6 178.15 24.5 178.45 24.35 178.65 24 178.85 23.65 178.8 23.3 178.65 22.95 178.3 22.75 177.95 22.55 177.6 22.6 177.2 22.7 177 23.05
M 173.3 24.2
Q 172.9 24.3 172.7 24.65 172.5 25 172.6 25.4 172.7 25.8 173.05 26 173.4 26.2 173.8 26.1 174.2 26 174.4 25.65 174.6 25.3 174.5 24.9 174.4 24.5 174.05 24.3 173.7 24.1 173.3 24.2
M 174.1 22.9
Q 174.15 22.95 174.25 22.9 174.3 22.9 174.35 22.85 174.35 22.8 174.35 22.75 174.3 22.7 174.25 22.65 174.2 22.65 174.15 22.65 174.05 22.65 174.05 22.7 174 22.75 174.05 22.8 174.05 22.9 174.1 22.9
M 172.7 16.95
Q 172.8 17 172.95 16.95 173 16.9 173.05 16.85 173.1 16.75 173.15 16.6 173.1 16.45 173 16.4 172.9 16.35 172.85 16.45 172.7 16.5 172.65 16.6 172.6 16.65 172.65 16.8 172.6 16.9 172.7 16.95
M 180.2 17.65
Q 180.3 17.6 180.35 17.5 180.4 17.4 180.4 17.3 180.35 17.2 180.25 17.15 180.2 17.1 180.1 17.1 179.95 17.15 179.9 17.25 179.85 17.35 179.9 17.45 179.9 17.6 179.95 17.65 180.05 17.7 180.2 17.65
M 167.4 20.1
Q 167.55 20.2 167.75 20.1 167.9 20.05 167.95 19.95 168.05 19.8 168 19.6 167.95 19.5 167.8 19.4 167.7 19.35 167.55 19.35 167.35 19.4 167.25 19.55 167.2 19.65 167.3 19.85 167.3 20.05 167.4 20.1
M 162.8 15
Q 162.9 14.95 162.9 14.9 162.95 14.9 162.9 14.85 162.9 14.75 162.85 14.75 162.8 14.7 162.7 14.75 162.65 14.75 162.6 14.75 162.6 14.8 162.6 14.9 162.65 14.95 162.7 15 162.75 15 162.8 15
M 165.25 12.95
Q 164.95 12.75 164.6 12.9 164.25 12.95 164.1 13.25 163.9 13.55 164 13.9 164.05 14.1 164.15 14.3 164.1 14.35 164.05 14.45 163.85 14.85 164 15.25 164.1 15.65 164.5 15.9 164.85 16.1 165.3 16 165.7 15.9 165.9 15.5 166.15 15.1 166.05 14.7 165.9 14.3 165.6 14.1 165.75 13.8 165.65 13.5 165.55 13.1 165.25 12.95
M 168.5 12.1
Q 168.2 11.9 167.95 12 167.6 12.1 167.45 12.4 167.25 12.7 167.35 13 167.4 13.3 167.7 13.5 168 13.65 168.35 13.6 168.6 13.5 168.8 13.2 168.95 12.9 168.95 12.6 168.8 12.25 168.5 12.1
M 169.7 9.05
Q 170.1 9.25 170.6 9.15 171 9.05 171.2 8.65 171.45 8.25 171.35 7.8 171.2 7.35 170.8 7.15 170.4 6.9 170 7 169.55 7.15 169.3 7.55 169.1 7.95 169.25 8.35 169.3 8.8 169.7 9.05
M 163.65 7.45
Q 163.7 7.35 163.65 7.2 163.6 7.1 163.5 7.05 163.35 6.95 163.25 6.95 163.1 7 163.05 7.1 163 7.15 163.05 7.3 163.05 7.45 163.2 7.55 163.3 7.6 163.45 7.55 163.6 7.5 163.65 7.45
M 162.95 4.5
Q 162.5 4.6 162.3 4.95 162.1 5.3 162.25 5.65 162.3 6.05 162.65 6.25 163 6.45 163.4 6.35 163.75 6.25 163.95 5.9 164.15 5.55 164.1 5.2 163.95 4.8 163.6 4.6 163.25 4.4 162.95 4.5
M 166.6 0.35
Q 166.4 0.2 166.25 0.3 165.95 0.35 165.8 0.6 165.7 0.8 165.8 1.05 165.8 1.25 166 1.4 166.25 1.5 166.5 1.45 166.75 1.4 166.85 1.2 167 0.95 166.95 0.7 166.85 0.45 166.6 0.35
M 178 11.9
Q 177.55 12 177.35 12.35 177.15 12.7 177.3 13.1 177.35 13.45 177.7 13.65 178.05 13.85 178.45 13.75 178.8 13.65 179 13.3 179.2 12.95 179.15 12.55 179.05 12.15 178.7 11.95 178.35 11.75 178 11.9
M 176.65 8.9
Q 176.7 9.3 177 9.45 177.3 9.65 177.7 9.55 178.1 9.4 178.25 9.1 178.45 8.8 178.35 8.45 178.2 8.1 177.9 7.9 177.6 7.75 177.3 7.8 176.9 7.9 176.7 8.2 176.55 8.5 176.65 8.9
M 172.55 1.5
Q 172.45 1.15 172.2 1 171.9 0.85 171.65 0.95 171.35 1.05 171.2 1.3 171.05 1.55 171.15 1.85 171.15 2.15 171.45 2.3 171.7 2.45 172.05 2.4 172.35 2.3 172.5 2.05 172.65 1.8 172.55 1.5
M 177.35 2.55
Q 177.45 2.65 177.6 2.65 177.6 2.9 177.65 3.15 177.7 3.3 177.75 3.4 177.3 3.55 177.05 4 176.8 4.4 176.95 4.85 177.05 5.35 177.45 5.6 177.9 5.85 178.4 5.7 178.75 5.6 178.95 5.3
L 179 5.35
Q 179.1 5.4 179.25 5.35
L 179.3 5.25
Q 179.35 5.15 179.4 5.05 179.35 5 179.25 4.95
L 179.2 4.9
Q 179.3 4.6 179.2 4.25 179.15 4.1 179.15 4 179.6 3.9 179.85 3.5 180.1 3.05 180 2.55 179.85 2.1 179.4 1.85 178.95 1.6 178.5 1.7 178.3 1.8 178.15 1.85 178.05 1.65 177.9 1.55 177.65 1.45 177.45 1.5 177.2 1.55 177.05 1.75 176.95 1.95 177.05 2.2 177.1 2.45 177.35 2.55
M 181 0.3
Q 181 0.35 181.05 0.4 180.85 0.3 180.6 0.4 180.1 0.5 179.9 0.9 179.65 1.3 179.8 1.75 179.9 2.2 180.3 2.4 180.7 2.65 181.15 2.5 181.55 2.4 181.8 2 182 1.6 181.95 1.15 181.8 0.75 181.4 0.5 181.25 0.45 181.1 0.4
L 181.2 0.4
Q 181.25 0.35 181.3 0.3 181.3 0.25 181.3 0.2 181.25 0.1 181.2 0.1 181.15 0.05 181.1 0.1 181 0.1 181 0.15 180.95 0.2 181 0.3
M 196 24.55
Q 195.65 24.35 195.25 24.45 194.85 24.55 194.65 24.9 194.45 25.25 194.55 25.65 194.65 26.05 195 26.25 195.35 26.45 195.75 26.35 196.15 26.25 196.35 25.9 196.55 25.55 196.45 25.15 196.35 24.75 196 24.55
M 198.1 16.8
Q 198.25 17.2 198.55 17.4 198.9 17.6 199.35 17.5 199.75 17.4 199.95 17.05 200.15 16.7 200.05 16.3 199.9 15.9 199.55 15.7 199.25 15.5 198.8 15.6 198.4 15.7 198.2 16.05 198 16.4 198.1 16.8
M 190.45 24.4
Q 190.2 24.5 190.05 24.7 189.95 24.9 190 25.15 190.05 25.4 190.25 25.5 190.45 25.65 190.75 25.6 190.95 25.5 191.05 25.3 191.2 25.1 191.2 24.85 191.05 24.65 190.85 24.5 190.65 24.4 190.45 24.4
M 189.7 21.9
L 189.65 21.95 189.75 21.95 189.75 21.9 189.8 21.85 189.75 21.8
Q 189.7 21.8 189.65 21.85 189.65 21.9 189.7 21.9
M 183.2 22.3
Q 182.95 22.75 183.05 23.2 183.2 23.7 183.6 23.95 184.05 24.2 184.5 24.05 184.8 24 185 23.8 185.15 23.9 185.3 23.9 185.4 23.85 185.45 23.7 185.55 23.6 185.55 23.45 185.5 23.3 185.35 23.2 185.5 22.95 185.35 22.6 185.25 22.15 184.8 21.9 184.4 21.65 183.9 21.75 183.45 21.9 183.2 22.3
M 191.95 17
Q 191.9 16.95 191.8 16.95 191.65 17 191.6 17.1 191.55 17.2 191.65 17.25 191.65 17.35 191.7 17.4 191.8 17.45 191.95 17.4 192 17.45 192.05 17.35 192.1 17.25 192.1 17.1 192.05 17.05 191.95 17
M 188.8 13.55
L 188.85 13.5 188.75 13.45 188.8 13.5 188.8 13.55
M 190.6 14.65
Q 190.15 14.75 189.9 15.2 189.65 15.65 189.8 16.1 189.85 16.55 190.3 16.8 190.7 17.05 191.2 16.9 191.6 16.8 191.85 16.35 192.1 15.9 192 15.45 191.85 15.05 191.45 14.8 191 14.55 190.6 14.65
M 191.2 11.7
Q 190.7 11.85 190.45 12.3 190.2 12.7 190.35 13.1 190.45 13.55 190.9 13.8 191.35 14.05 191.8 13.95 192.2 13.85 192.45 13.45 192.7 13 192.65 12.55 192.5 12.1 192.05 11.85 191.6 11.6 191.2 11.7
M 188.2 10.1
Q 188.1 10.05 188.1 10.1 188.05 10.15 188.1 10.25 188.05 10.3 188.1 10.35 188.15 10.35 188.25 10.35 188.3 10.3 188.35 10.25
L 188.35 10.2
Q 188.3 10.1 188.25 10.1 188.2 10.05 188.2 10.1
M 189.3 10.5
Q 189.05 10.35 188.8 10.45 188.5 10.5 188.35 10.75 188.2 11 188.3 11.3 188.35 11.55 188.6 11.7 188.85 11.85 189.15 11.8 189.4 11.7 189.55 11.45 189.7 11.2 189.65 10.95 189.55 10.65 189.3 10.5
M 186.75 10.7
Q 186.8 10.7 186.9 10.7
L 186.9 10.65
Q 186.95 10.65 186.95 10.6 186.9 10.55 186.85 10.55
L 186.8 10.5
Q 186.75 10.55 186.7 10.55 186.7 10.6 186.75 10.6 186.7 10.65 186.75 10.7
M 183.2 8.3
Q 183.35 8.4 183.5 8.35 183.6 8.35 183.7 8.2 183.75 8.05 183.75 7.95 183.7 7.8 183.55 7.7 183.45 7.65 183.3 7.7 183.15 7.7 183.1 7.85 183 8 183.05 8.1 183.1 8.25 183.2 8.3
M 182.9 4.65
Q 182.6 4.5 182.3 4.6 182 4.65 181.8 4.95
L 181.8 5
Q 181.7 4.9 181.6 4.85 181.1 4.55 180.55 4.7 180 4.85 179.75 5.3 179.45 5.8 179.6 6.35 179.65 6.45 179.7 6.6 179.6 6.7 179.5 6.85 179.25 7.3 179.4 7.7 179.5 8.15 179.95 8.4 180.35 8.65 180.85 8.55 181.25 8.45 181.5 8 181.75 7.6 181.7 7.15 181.9 6.95 182.1 6.65 182.25 6.4 182.25 6.15 182.5 6.2 182.75 6.1 183.05 6.05 183.2 5.75 183.4 5.45 183.3 5.15 183.2 4.85 182.9 4.65
M 189.15 2.6
Q 189.5 2.55 189.65 2.25 189.85 1.95 189.75 1.55 189.7 1.25 189.4 1.05 189.1 0.9 188.7 0.95 188.4 1.1 188.2 1.4 188.05 1.7 188.1 2 188.25 2.4 188.55 2.55 188.85 2.75 189.15 2.6
M 194.95 7.25
Q 194.95 7.15 194.85 7.1 194.75 7.05 194.65 7.05 194.55 7.1 194.5 7.2 194.45 7.25 194.5 7.35 194.5 7.5 194.6 7.55 194.7 7.6 194.8 7.55 194.85 7.5 194.9 7.45 194.95 7.35 194.95 7.25
M 194.7 4.75
Q 194.75 4.85 194.85 4.9 194.95 4.95 195.05 4.95 195.2 4.9 195.25 4.8 195.3 4.75 195.25 4.6 195.25 4.45 195.15 4.4 195.05 4.35 194.9 4.4 194.8 4.45 194.75 4.5 194.7 4.6 194.7 4.75
M 194.95 2
L 195 2
Q 195.05 1.95 195.05 1.85 195.05 1.8 195 1.75 194.95 1.75 194.85 1.75 194.8 1.8 194.75 1.85
L 194.75 1.9
Q 194.8 2 194.85 2 194.9 2.05 194.95 2
M 199.95 5.3
Q 199.7 5.7 199.85 6.1 199.95 6.55 200.35 6.8 200.7 7 201.2 6.9 201.6 6.8 201.85 6.4 202.05 6.05 202 5.55 201.8 5.1 201.45 4.9 201.05 4.65 200.65 4.75 200.15 4.95 199.95 5.3
M 197.55 4.3
Q 197.7 4 197.65 3.75 197.6 3.45 197.3 3.3 197.05 3.15 196.8 3.25 196.5 3.3 196.35 3.6 196.2 3.85 196.3 4.1 196.35 4.4 196.6 4.55 196.9 4.7 197.15 4.6 197.4 4.55 197.55 4.3
M 205.6 39.1
L 205.5 39.05 205.55 39.1 205.55 39.15 205.6 39.1
M 206.95 35.45
Q 206.85 35.3 206.75 35.2 206.6 35.15 206.45 35.2 206.25 35.2 206.2 35.35 206.1 35.5 206.15 35.65 206.2 35.85 206.35 35.9
L 206.4 35.95 206.3 35.95
Q 206.15 35.9 206 35.95 205.85 35.95 205.75 36.15 205.65 36.3 205.7 36.5 205.7 36.65 205.9 36.75 206.05 36.85 206.3 36.8 206.4 36.75 206.5 36.6 206.55 36.5 206.55 36.45 206.6 36.65 206.65 36.75 206.75 37.2 207.1 37.4 207.4 37.55 207.7 37.5
L 207.7 35.45
Q 207.55 35.45 207.4 35.45 207 35.6 206.75 35.95 206.75 36 206.7 36.05 206.7 36 206.6 35.95
L 206.65 35.9
Q 206.8 35.9 206.9 35.75 206.95 35.6 206.95 35.45
M 203.15 33.9
Q 203 33.4 202.5 33.1 202.05 32.85 201.55 32.95 201 33.1 200.75 33.6 200.45 34.05 200.65 34.55 200.75 35.1 201.2 35.35 201.7 35.65 202.25 35.5 202.7 35.35 203 34.9 203.25 34.4 203.15 33.9
M 203.25 33.2
L 203.15 33.2
Q 203.1 33.25 203.05 33.3
L 203.05 33.35 203.1 33.45
Q 203.15 33.5 203.2 33.45 203.3 33.5 203.3 33.45 203.35 33.4 203.3 33.3 203.3 33.25 203.25 33.2
M 207.2 30.05
Q 206.8 30.15 206.6 30.5 206.4 30.85 206.55 31.2 206.65 31.55 207 31.75 207.35 31.95 207.7 31.85
L 207.7 30
Q 207.45 29.95 207.2 30.05
M 207.7 25.8
L 207.7 24.8
Q 207.65 24.8 207.65 24.85 207.45 25.2 207.65 25.6 207.65 25.7 207.7 25.8
M 203.65 24.1
Q 203.3 24.15 203.15 24.4 203 24.65 203.1 25 203.15 25.3 203.4 25.45 203.7 25.6 204 25.5 204.25 25.4 204.4 25.15 204.55 24.9 204.55 24.6 204.45 24.3 204.15 24.15 203.9 24 203.65 24.1
M 205.85 21.4
Q 205.75 21.05 205.45 20.85 205.15 20.7 204.8 20.75 204.35 20.85 204.2 21.15 204 21.45 204.2 21.85 204.25 22.25 204.55 22.4 204.85 22.6 205.25 22.5 205.6 22.35 205.8 22.05 205.95 21.75 205.85 21.4
M 207.1 20.1
Q 207.15 20.4 207.45 20.55 207.55 20.65 207.7 20.7
L 207.7 19.1 207.65 19.1
Q 207.35 19.15 207.15 19.45 207 19.75 207.1 20.1
M 207.4 20.75
Q 207 20.9 206.85 21.2 206.65 21.5 206.8 21.85 206.9 22.25 207.2 22.4 207.4 22.55 207.7 22.55
L 207.7 20.75
Q 207.55 20.75 207.4 20.75
M 205 18.25
Q 204.65 18.05 204.35 18.15 203.95 18.25 203.75 18.6 203.55 18.95 203.65 19.3 203.7 19.7 204.05 19.9 204.4 20.1 204.85 20 205.2 19.9 205.4 19.55 205.6 19.2 205.55 18.85 205.35 18.45 205 18.25
M 206.3 8.05
Q 206.25 7.8 205.95 7.65 205.7 7.5 205.45 7.55 205.15 7.65 205 7.9 204.85 8.15 204.95 8.45 205 8.7 205.25 8.85 205.55 9 205.8 8.95 206.1 8.85 206.25 8.6 206.4 8.35 206.3 8.05
M 204.55 5.65
Q 204.6 5.8 204.8 5.9 204.95 6 205.15 5.95 205.25 5.9 205.35 5.75 205.45 5.55 205.5 5.4 205.4 5.25 205.25 5.15 205.05 5.05 204.9 5.1 204.7 5.1 204.6 5.3 204.5 5.45 204.55 5.65
M 206.75 2.35
Q 206.6 2 206.3 1.8 205.95 1.6 205.55 1.7 205.15 1.8 204.95 2.15 204.75 2.5 204.9 2.9 205 3.25 205.35 3.45 205.65 3.65 206.1 3.55 206.4 3.45 206.6 3.1 206.8 2.75 206.75 2.35
M 195.05 -0.05
Q 194.95 -0.2 194.85 -0.25 194.7 -0.35 194.6 -0.35 194.35 -0.25 194.3 -0.15 194.2 0 194.3 0.15 194.3 0.3 194.45 0.4 194.55 0.45 194.75 0.45 194.9 0.4 195 0.25 195.05 0.15 195.05 -0.05
M 192.1 -1.3
Q 191.65 -1.2 191.45 -0.85 191.25 -0.5 191.4 -0.1 191.45 0.25 191.8 0.45 192.15 0.65 192.55 0.55 192.9 0.45 193.1 0.1 193.3 -0.25 193.25 -0.65 193.1 -1 192.75 -1.2 192.4 -1.4 192.1 -1.3
M 185.9 -0.95
Q 186 -1.15 186 -1.35 185.9 -1.55 185.7 -1.65 185.5 -1.8 185.3 -1.75 185.05 -1.7 184.95 -1.5 184.8 -1.3 184.9 -1.05 184.95 -0.85 185.15 -0.7 185.35 -0.6 185.6 -0.65 185.75 -0.75 185.9 -0.95
M 177.3 -0.65
Q 177.15 -0.35 177.25 -0.05 177.3 0.3 177.6 0.45 177.9 0.65 178.25 0.5 178.55 0.45 178.7 0.15 178.9 -0.15 178.8 -0.5 178.7 -0.75 178.4 -0.95 178.1 -1.1 177.8 -1.05 177.5 -0.95 177.3 -0.65
M 168.35 -1.2
Q 167.85 -1.05 167.6 -0.6 167.35 -0.2 167.5 0.3 167.65 0.85 168.05 1.1 168.5 1.35 169.05 1.2 169.5 1.05 169.75 0.65 170 0.2 169.9 -0.3 169.75 -0.8 169.3 -1.05 168.9 -1.3 168.35 -1.2
M 166.6 -1.35
Q 166.65 -1.05 166.95 -0.9 167.2 -0.75 167.5 -0.85 167.8 -0.9 167.95 -1.2 168.1 -1.45 168 -1.7 167.9 -2 167.65 -2.15 167.6 -2.2 167.55 -2.2 167.3 -2.3 167.1 -2.2 166.8 -2.2 166.65 -1.95 166.5 -1.65 166.6 -1.35
M 160.45 -0.7
Q 160.3 -0.4 160.4 -0.05 160.45 0.25 160.75 0.4 161.05 0.6 161.4 0.5 161.7 0.4 161.85 0.1 162.05 -0.2 161.95 -0.5 161.85 -0.75 161.55 -0.95 161.25 -1.1 160.95 -1.05 160.65 -1 160.45 -0.7
M 148.15 -1.8
Q 148.25 -2 148.25 -2.2
L 146.85 -2.2
Q 146.85 -2.05 146.85 -1.95 146.95 -1.65 147.2 -1.5 147.45 -1.35 147.75 -1.45 148 -1.5 148.15 -1.8
M 146.5 -1.55
Q 146.4 -1.8 146.2 -1.95 146 -2.05 145.75 -2 145.5 -1.95 145.4 -1.7 145.25 -1.5 145.35 -1.3 145.4 -1 145.6 -0.9 145.8 -0.75 146.1 -0.85 146.25 -0.9 146.4 -1.1 146.5 -1.35 146.5 -1.55
M 144.15 -1.85
Q 143.95 -1.95 143.75 -1.9 143.55 -1.85 143.45 -1.65 143.35 -1.5 143.4 -1.3 143.45 -1.05 143.65 -0.95 143.8 -0.85 144 -0.95 144.2 -1 144.3 -1.15 144.4 -1.35 144.35 -1.55 144.3 -1.75 144.15 -1.85 Z"/>
</g>

<g id="Layer0_0_FILL">
<path fill="#000000" stroke="none" d="
M 6.4 13.35
L 4.6 13.35 4.6 25.7 6.4 25.7 6.4 27.5 18.8 27.5 18.8 25.75 20.6 25.75 20.6 13.35 18.8 13.35 18.8 11.55 6.4 11.55 6.4 13.35
M 8.2 15.1
L 9.9 15.1 9.9 16.9 11.7 16.9 11.7 18.65 13.5 18.65 13.5 20.4 11.7 20.4 11.7 18.65 9.9 18.65 9.9 23.95 8.2 23.95 8.2 15.1
M 15.3 15.1
L 17.05 15.1 17.05 23.95 15.3 23.95 15.3 22.15 13.5 22.15 13.5 20.45 15.3 20.45 15.3 15.1
M 24.2 13.35
L 22.4 13.35 22.4 25.7 24.2 25.7 24.2 27.5 36.6 27.5 36.6 25.75 38.4 25.75 38.4 13.35 36.6 13.35 36.6 11.55 24.2 11.55 24.2 13.35
M 26 23.95
L 26 15.1 34.8 15.1 34.8 23.95 26 23.95
M 27.75 16.9
L 27.75 22.2 33.05 22.2 33.05 16.9 27.75 16.9
M 46.05 13.35
L 44.25 13.35 44.25 25.7 46.05 25.7 46.05 27.5 58.45 27.5 58.45 25.75 60.25 25.75 60.25 13.35 58.45 13.35 58.45 11.55 46.05 11.55 46.05 13.35
M 49.55 16.85
L 49.55 18.65 54.95 18.65 54.95 16.9 56.7 16.9 56.7 23.95 47.85 23.95 47.85 15.1 54.9 15.1 54.9 16.85 49.55 16.85
M 49.6 20.45
L 49.6 22.2 54.9 22.2 54.9 20.45 49.6 20.45
M 63.85 13.35
L 62.05 13.35 62.05 25.7 63.85 25.7 63.85 27.5 76.25 27.5 76.25 25.75 78.05 25.75 78.05 13.35 76.25 13.35 76.25 11.55 63.85 11.55 63.85 13.35
M 67.35 22.2
L 67.35 23.95 65.65 23.95 65.65 15.1 74.45 15.1 74.45 23.95 72.75 23.95 72.75 22.2 67.35 22.2
M 67.4 16.9
L 67.4 20.4 72.7 20.4 72.7 16.9 67.4 16.9
M 95.85 13.35
L 94.05 13.35 94.05 11.55 81.65 11.55 81.65 13.35 79.85 13.35 79.85 25.7 81.65 25.7 81.65 27.5 94.05 27.5 94.05 25.75 95.85 25.75 95.85 13.35
M 85.15 15.1
L 85.15 16.9 86.95 16.9 86.95 18.65 88.75 18.65 88.75 20.4 86.95 20.4 86.95 18.65 85.15 18.65 85.15 23.95 83.45 23.95 83.45 15.1 85.15 15.1
M 90.55 23.95
L 90.55 22.15 88.75 22.15 88.75 20.45 90.55 20.45 90.55 15.1 92.3 15.1 92.3 23.95 90.55 23.95
M 113.65 13.35
L 111.85 13.35 111.85 11.55 99.45 11.55 99.45 13.35 97.65 13.35 97.65 25.7 99.45 25.7 99.45 27.5 111.85 27.5 111.85 25.75 113.65 25.75 113.65 13.35
M 108.35 15.1
L 110.1 15.1 110.1 23.95 108.35 23.95 108.35 22.15 106.55 22.15 106.55 20.45 108.35 20.45 108.35 15.1
M 102.95 15.1
L 102.95 16.9 104.75 16.9 104.75 18.65 106.55 18.65 106.55 20.4 104.75 20.4 104.75 18.65 102.95 18.65 102.95 23.95 101.25 23.95 101.25 15.1 102.95 15.1
M 131.45 13.35
L 129.65 13.35 129.65 11.55 117.25 11.55 117.25 13.35 115.45 13.35 115.45 25.7 117.25 25.7 117.25 27.5 129.65 27.5 129.65 25.75 131.45 25.75 131.45 13.35
M 127.85 22.25
L 127.85 23.95 119.05 23.95 119.05 15.1 127.85 15.1 127.85 16.85 120.75 16.85 120.75 18.65 126.1 18.65 126.1 20.4 120.75 20.4 120.75 22.25 127.85 22.25
M 149.25 13.35
L 147.45 13.35 147.45 11.55 135.05 11.55 135.05 13.35 133.25 13.35 133.25 25.7 135.05 25.7 135.05 27.5 147.45 27.5 147.45 25.75 149.25 25.75 149.25 13.35
M 143.9 20.4
L 143.9 22.25 145.65 22.25 145.65 23.95 142.15 23.95 142.15 20.4 138.55 20.4 138.55 23.95 136.85 23.95 136.85 15.1 145.65 15.1 145.65 20.4 143.9 20.4
M 143.9 18.65
L 143.9 16.9 138.6 16.9 138.6 18.65 143.9 18.65 Z"/>
</g>
</defs>

<g transform="matrix( 1, 0, 0, 1, 0,0) ">
<use xlink:href="#Layer1_0_FILL"/>
</g>

<g transform="matrix( 1, 0, 0, 1, 0,0) ">
<use xlink:href="#Layer0_0_FILL"/>
</g>
</svg>
