
<svg xmlns="http://www.w3.org/2000/svg" version="1.1" xmlns:xlink="http://www.w3.org/1999/xlink" preserveAspectRatio="none" x="0px" y="0px" width="44px" height="45px" viewBox="0 0 44 45">
<defs>
<g id="Layer0_0_FILL">
<path fill="#000000" stroke="none" d="
M 44.05 2.75
Q 43.95 2.45 43.45 2.45 36.05 1.85 29.7 1.45 26.45 0.55 23.25 0
L 21.3 -0.25
Q 17.75 -0.55 14.75 0.75 9.7 0.55 5.65 0.5 5.15 0.5 5 0.75 4.8 1.15 5.3 1.8
L 8.65 5.85 3.95 8.1
Q 3.1 8.6 3.1 9.05 3.1 9.75 4 10.15
L 7.35 11.45
Q 5.55 12.9 3.65 13.65 2.25 14.15 2.3 15.05 2.35 15.7 3.15 16.25 4.7 17.35 6.75 18.1 5.8 19.1 3.8 19.75 1.5 20.55 0.75 21.1 0 21.7 0.15 22.2 0.25 22.55 0.95 22.75 4.55 23.75 7.9 23.75 7.75 23.85 7.95 24.1 8.1 24.25 8.3 24.25
L 13.7 25.05
Q 14.45 25.15 15.1 25.3 14.85 25.5 14.5 25.9 13.95 26.75 12.35 29.4 10.9 31.95 10.1 33.95
L 7.45 42.95
Q 7.3 43.4 7.35 43.8 7.4 44 7.55 44.1 7.75 44.3 7.9 44.2 8.05 44.1 8.25 43.65
L 10.1 37.05 11.95 32.4
Q 13.3 29.5 15.3 26.8
L 16.35 25.55
Q 16.4 25.5 16.45 25.45 20.45 25.95 23 26.25 22.85 26.7 23.1 27.05
L 23.65 27.7
Q 24.25 28.35 24.7 29.75 25.05 30.7 25.3 31.95
L 27.7 42.15
Q 27.95 43.2 27.95 43.65 28 43.9 28.05 44.35 28.25 44.8 28.55 44.7 28.8 44.55 28.8 44.2 29 43.3 28.55 41.2
L 25.55 29.05
Q 25.05 27.8 24.45 26.95 24.2 26.6 24 26.35 31 26.95 38.35 26.2 39.05 26.1 39.3 25.75 39.85 25.05 38.7 23.8
L 35.15 19.7 41.15 16.55
Q 41.55 16.25 41.55 16.05 41.6 15.75 41.15 15.45
L 36.5 12.45
Q 39.05 10.95 41.6 10.6 42.15 10.6 42.55 10.35 43.1 9.95 42.95 9.3 42.75 8.9 42.2 8.65 40.25 7.85 38.2 6.1 40.95 5.2 43.55 3.6 44.25 3.2 44.05 2.75
M 38.2 4.7
Q 36.9 5.3 36.95 6.1 36.95 6.65 37.75 7.25
L 40.8 9.3
Q 38.95 9.95 36.25 11.1
L 36.5 7.65
Q 36.7 5.05 35.85 3.75 35.5 3.3 34.95 3 38.3 3.25 41.6 3.45
L 38.2 4.7
M 31.8 3.4
Q 31.9 3.4 32.15 3.55 33.25 3.85 34.35 4.4 34.7 4.55 34.95 4.5
L 35 4.5
Q 35.05 4.5 35.05 4.55 35.8 5.45 35.6 7.85 35.45 10.15 35.25 11.75 35.15 11.9 35.15 12.05 35.15 12.2 35.15 12.4 35 13.6 34.75 14.5 34.5 14.6 34.3 14.1 33.05 11.5 32.5 8.9 32.2 7.5 31.55 7.35 30.95 7.25 30.2 8.2
L 28.2 11
Q 27.75 11.6 27.4 11.7 26.9 11.9 26.3 11.3 25.95 10.9 25.6 10.1 25.25 9.1 25.05 8.65 24.35 6.9 23.2 6.9 22.4 6.85 21.6 7.8 20.75 8.65 19.1 12.25 19 12.55 18.85 12.55 18.8 12.55 18.55 12.25 18.15 11.4 17.95 10.05 17.65 7.9 17.6 7.65 17.5 7 17.2 6.7 16.9 6.5 16.1 6.7 14.5 7.4 12.3 8.85 9.35 10.9 8.7 11.3 8.65 11.25 8.6 11.2 9.8 6.05 13.4 3 13.6 2.85 13.7 2.6 14.3 2.2 15.1 1.95 22.5 2.2 29.5 2.65 30.65 3 31.8 3.4
M 21.1 10.45
Q 22.15 8.25 23.65 8.1 24.2 9.85 25.35 11.7 26.05 12.8 26.65 12.95 28.05 13.4 29.3 11.4 30.65 9.1 31.45 8.8 32.55 13.1 33.7 15.25 34.2 16.15 34.85 16.1 35.3 15.95 35.65 14.9 35.8 14.3 35.95 13.4 37.6 14.85 39.75 15.95
L 34.25 18.75
Q 33.85 19.05 33.8 19.3 33.7 19.65 34.1 20.1
L 38.1 24.85
Q 30.55 25.75 23.5 25.05 20.6 24.85 14.85 24.05 13.35 23.85 12.15 23.4
L 10.5 22.85
Q 9.25 22.45 6.25 22.35 3.45 22.35 2 21.75 4.7 20.95 7.15 19.4 7.9 19.05 7.95 18.5 8.15 17.65 6.9 17
L 3.55 15.05
Q 5.3 14.15 7.85 12.7 8 12.65 8.15 12.6 8.55 12.65 9.3 12.3 10.55 11.6 12.9 9.85 15.05 8.3 16.7 8.05 17 10.95 17.9 13.35 18.25 14.15 18.65 14.15 18.95 14.25 19.4 13.7 20.1 12.7 21.1 10.45
M 10.8 3.35
Q 10.55 3.75 10.85 4.15 10.2 4.95 9.7 5.8 9.7 5.7 9.65 5.6 9.6 5.4 9.25 4.85
L 6.6 1.6
Q 9.65 1.7 12.65 1.8 12 2.2 11.3 2.8 10.9 3.15 10.8 3.35
M 8.4 7.3
Q 8.85 7 9.2 6.7 8.35 8.4 7.8 10.5 7.7 10.5 7.65 10.45 6.65 9.85 4.75 9
L 8.4 7.3
M 12.4 13.4
L 12.15 13.25
Q 12 13.1 11.7 13.1 11.2 13.1 11.15 13.1
L 11.15 13.25
Q 10.85 13.25 10.75 13.5 10.7 13.75 10.8 14.1
L 11.1 14.6 11.2 14.7 12.05 14.8 12.4 14.7 12.6 14.45 12.7 14.1
Q 12.75 13.9 12.4 13.4
M 22.3 23.4
Q 23.7 23.3 24.5 22.9
L 25.35 22.35
Q 26.05 21.8 26.35 21.45 27 20.6 26.6 19.95 26.4 19.7 25.95 19.55 24.85 19.3 23.25 19.3
L 22.9 19.3
Q 22.65 19.15 22.5 19.1 22.2 19 21.6 19 17.75 18.65 14.6 18.65
L 13.9 18.6 13.55 18.5
Q 13.3 18.55 13.2 18.85 13.1 19.15 13.2 19.45 13.35 19.85 13.9 20.2 14.65 20.7 16.1 21.9 17.45 22.85 18.45 23.15
L 19.65 23.45
Q 20.7 23.65 22.3 23.4
M 25.4 21
Q 23.25 22.3 21.15 22.35 18.75 22.5 17 21.05 15.6 20.05 15.25 19.9 19.55 19.85 24.55 20.5 25.25 20.6 25.4 21
M 28.05 15
L 28 15.4
Q 28 15.8 28.1 15.9
L 29.2 16.1
Q 29.45 16.1 29.5 15.95
L 29.65 15.8
Q 29.8 15.3 29.3 14.9 29 14.7 28.4 14.7
L 28.3 14.8
Q 28.15 14.8 28.05 15
M 96.65 90.95
Q 96.55 91.05 96.5 91.2 96.3 91.15 96 91.2 91.65 91.7 86.75 91.7 85.45 91.7 79 91.45
L 77.95 91.3
Q 77.75 91.25 77.6 91.25 74.4 87.1 71.7 82.55 71.65 82.55 71.65 82.5 71.45 82.1 71.25 81.95 70.95 81.75 70.75 81.9 70.5 81.85 70.4 81.95
L 69.45 83.5
Q 69.35 83.35 69.1 83.35 68.85 83.35 68.65 83.85 64.95 93.35 64.5 103.05 64.4 105.5 64.95 106.6 65.6 107.9 68.1 109.3 69.2 109.95 70.05 110.45 70.15 110.5 70.25 110.55
L 70.3 110.55
Q 72.1 111.6 73.15 112.1 76.05 113.5 78.6 114 78.8 114.05 79.05 114.1
L 77.65 115.6
Q 76.884375 116.487109375 76.2 117.35
L 76.25 117.35
Q 75.81328125 117.9111328125 75.55 118.4
L 75.35 118.9 75.3 119.65 75.1 120.35 75.1 121.45 74.95 122.45
Q 74.85 123.1 74.85 124.4
L 74.9 129.25
Q 74.95 129.8 75.2 130.85 75.4 131.5 75.7 131.7 75.9 131.8 76.2 131.75 76.45 131.65 76.5 131.45 76.5 131.4 76.35 130.95 76.05 130.35 75.9 129.65
L 75.75 128.8 75.75 123.05 76.1 120.15
Q 76.25 119.05 76.85 118.25
L 77.5 117.3
Q 78.9 115.8 79.4 115.45 80.05 114.95 80.1 114.8 80.18203125 114.594921875 80.1 114.4 80.1533203125 114.319921875 80.2 114.25 82.05 114.45 84.75 114.5 88.4 114.55 90.55 114.45 90.55 114.55 90.6 114.7 90.65 115.05 91.05 115.35 91.4837890625 115.753515625 91.85 116.2
L 91.9 116.2 92.2 116.8
Q 92.65 117.95 92.95 119.1
L 93.65 122.85
Q 93.8 124.3 93.7 126.15 93.7 127.05 93.6 127.5
L 93.45 128.4
Q 93.45 128.55 93.45 129.15 93.5 129.6 93.4 129.85
L 93.2 130.45
Q 93.15 130.7 93.2 131.25
L 92.95 131.8
Q 92.9 132.05 92.95 132.5 92.85 132.75 92.65 133.2 92.65 133.6 93.1 133.6 93.4 133.65 93.65 133.3
L 93.85 132.65 94.05 131.35
Q 94.25 130.45 94.25 130
L 94.55 126.5
Q 94.55 123.2 94.5 122.55
L 94.25 120.4 93.75 118.5
Q 93.487109375 117.448828125 93.1 116.35 93.2279296875 116.368359375 93.35 116.35 93.086328125 116.0126953125 92.75 115.65
L 92.25 114.7
Q 92 114.45 91.9 114.4 91.7560546875 114.3712890625 91.6 114.4 91.5896484375 114.387890625 91.55 114.35 94.4 114.1 96.65 113.55 103.3 111.85 106.4 107.2 109.5 102.45 108.15 95.55 107.25 91.3 103.75 84.35 103.7 84.25 103.7 84.2 103.8 83.95 103.75 83.8 103.6 83.5 103.15 83.6 103.05 83.65 102.65 84.05
L 96.65 90.95
M 96.8 92.1
Q 97.05 92.05 97.55 91.6
L 103.1 85
Q 103.8 86.65 105.25 89.95 106.45 92.85 107 95.1 108.55 101.3 106.15 105.7 104.15 109.4 99.7 111.4 99.55 111.3 99.4 111.2
L 97.5 110.05
Q 96.85 109.7 96.6 109.6 96.05 109.4 95.8 109.2 95.6 108.9 95.4 108.8 95.2 108.55 95 108.5 94.75 108.6 94.65 108.85 94.55 109.15 94.65 109.4 94.85 109.85 95.4 110.1
L 98.5 111.9
Q 97.75 112.15 96.9 112.4 93 113.5 85.15 113.5 80.9 113.4 78.8 113 76.5 112.55 73.9 111.3 72.95 110.9 71.5 110.1
L 71.7 109.85 72.2 109.65 72.9 108.95 73.7 108.5
Q 74.15 108.2 74.2 107.85 74.2 107.2 73.75 107.2 73.55 107.2 73.1 107.6
L 72.45 108.15 70.75 109.3
Q 70.55 109.4 70.45 109.5 69.85 109.2 69.25 108.85 66.65 107.4 66 106.2 65.25 104.85 65.45 101.8 66.35 92.95 69.35 84.6
L 69.75 84.65 69.9 84.6 70.05 84.45
Q 70.25 84.4 70.3 84.3 70.4 84.2 70.4 83.95
L 70.6 83.6 70.8 83.1
Q 73.85 87.9 76.7 91.55 77.1 92 77.3 92.05 77.35 92.05 77.4 92.1 77.6 92.3 78.35 92.4
L 79.55 92.45
Q 85.1 92.75 88 92.65 89.45 92.6 92.45 92.4
L 96.5 92.1
Q 96.65 92.1 96.8 92.1
M 97.85 104.5
Q 100.1 103.65 100.95 103.3 101.6 103.1 101.55 102.65 101.55 102.25 101.05 102.25 100.7 102.25 100.35 102.4
L 96.35 103.95
Q 94.3 104.85 93.9 105.05 93.5 105.3 93.45 105.5 93.45 106 94 106 94.4 106 94.8 105.75 95.9 105.2 97.85 104.5
M 101.6 107.25
Q 101.6 106.9 101.3 106.8 101.05 106.65 100.7 106.75 97.85 106.85 95 107.05 94.65 107.05 94.5 107.15 94.2 107.35 94.3 107.6 94.45 107.85 94.85 107.85 98 108 100.9 107.65 101.55 107.65 101.6 107.25
M 77.1 107.4
Q 77 107 76.65 107 76.35 107 76.25 107.5 76.15 108.1 76.45 108.7 76.75 109.3 77.35 109.5 77.85 109.75 78.95 109.75
L 80.75 109.75
Q 81.25 109.75 81.5 109.65
L 82.9 108.75
Q 83.35 108.4 83.7 107.85 84 107.5 84.15 107
L 84.35 107.1
Q 84.35 107.3 84.55 107.5 85.7 108.7 86.65 109.45
L 87.15 109.65 87.65 109.75 88.4 109.75
Q 88.95 109.75 89.15 109.65 89.3 109.6 89.55 109.35
L 90.75 108.2
Q 91.25 107.7 91.3 107.35 91.4 107 91.15 106.85 90.85 106.65 90.5 106.9 90.35 106.95 90 107.4 89.65 107.9 89.25 108.25 88.95 108.55 88.55 108.7 87.9 108.9 87.2 108.55 86.6 108.2 86.05 107.65 85.55 107.15 85.4 106.85
L 85 106.25
Q 84.75 106 84.3 105.95 83.85 105.95 83.5 106.15
L 82.75 107.35
Q 82.45 107.85 82.2 108.05 82 108.15 81.5 108.35 81.25 108.65 81.15 108.65
L 80.8 108.7 79.1 108.75
Q 78.35 108.75 78 108.65 77.4 108.5 77.25 108 77.2 107.6 77.1 107.4
M 73.65 106.8
Q 73.85 106.8 73.95 106.65 74.05 106.45 74 106.3 73.9 105.9 73.45 105.8 73.25 105.7 72.75 105.7
L 68.8 105.7
Q 68.2 105.7 68 105.85 67.85 105.95 67.85 106.2 67.8 106.4 67.95 106.5
L 68.3 106.55 72.65 106.65 73.15 106.7
Q 73.6 106.85 73.65 106.8
M 71.4 103.3
L 73.45 104.7
Q 73.8 104.95 74.25 105 74.8 105 74.8 104.5 74.8 104.2 74.3 103.9
L 72.9 103.15
Q 72.65 103 71.3 101.95 70.65 101.45 69.8 101.05 69.4 100.85 69.2 100.9 68.8 100.9 68.7 101.2 68.6 101.55 69.3 102 70.2 102.4 71.4 103.3
M 73.95 97.45
Q 73.85 97.5 73.85 97.75
L 73.85 98.95
Q 73.85 99.25 73.95 99.35
L 74.25 99.4 75.75 99.45
Q 76.1 99.45 76.3 99.35 76.65 99.15 76.55 98.6 76.45 98.3 76.1 97.85 75.65 97.4 75.45 97.35
L 74.95 97.3
Q 74.4 97.3 74.15 97.35
L 73.95 97.45
M 93.5 97.5
L 93.5 97.8
Q 93.55 97.9 93.75 98.1 93.85 98.25 93.85 98.9 93.85 99.2 93.95 99.3 94.05 99.4 94.3 99.4 94.6 99.45 95.15 99.45 95.6 99.35 95.85 99.05 96.05 98.75 96.05 97.85 96.05 97.35 95.9 97.2
L 95.4 97.05 93.95 97.1 93.6 97.15 93.5 97.5 Z"/>
</g>
</defs>

<g transform="matrix( 1, 0, 0, 1, 0,0) ">
<use xlink:href="#Layer0_0_FILL"/>
</g>
</svg>
