
<svg xmlns="http://www.w3.org/2000/svg" version="1.1" xmlns:xlink="http://www.w3.org/1999/xlink" preserveAspectRatio="none" x="0px" y="0px" width="44px" height="45px" viewBox="0 0 44 45">
<defs>
<g id="Layer0_0_MEMBER_0_MEMBER_0_MEMBER_0_FILL">
<path fill="#333333" stroke="none" d="
M 32.65 3.25
Q 32.5904296875 3.28984375 32.55 3.3 32.35 3.35 31.95 3.65
L 25.8 9.9
Q 25.6080078125 10.0919921875 25.5 10.25 24.7583984375 10.22578125 22.65 10.45 20.15 10.6 18.2 10.35 17.976171875 10.35 17.8 10.35
L 16.65 8.2
Q 16.25 7.4 15.75 6.75
L 12.6 2.6 11.7 1.65
Q 11.5595703125 1.5697265625 11.45 1.5 11.3099609375 1.4298828125 11.25 1.4 10.9 1.25 10.65 1.6 10.5 1.7 10.25 2.1
L 9.85 2.5
Q 9.53203125 2.495703125 9.25 3.1 7.1 6.95 6.2 9.15 4.7 12.6 4.45 15.6 4.3146484375 17.1244140625 4.5 18.5 4.0880859375 18.5099609375 4 18.95 4 19.2 4.2 19.35
L 4.6 19.6 4.75 19.65
Q 4.772265625 19.7494140625 4.8 19.85 5.3599609375 21.7455078125 6.5 23.05 6.1943359375 23.0712890625 5.95 23.1
L 4.95 23.3 4.65 23.4
Q 4.25 23.7 4.6 24.05 4.8 24.35 5.4 24.25
L 7.55 24
Q 8.631640625 24.7876953125 10.25 25.4
L 9.75 25.65 9.05 26.1
Q 8 26.7 7.1 27.45
L 6.9 27.65
Q 6.8 27.8 6.9 28.1 7.3 28.4 7.7 28.25
L 8.8 27.5
Q 9.6 26.85 10.4 26.5
L 10.85 26.25 11.1 26.05 11.45 25.9 11.55 25.8
Q 11.710546875 25.8609375 11.85 25.9 13.3119140625 26.3236328125 14.75 26.6
L 13.05 29.5
Q 11.65 31.85 10.8 34
L 8.1 43
Q 8 43.6 8.05 43.85 8.05 44 8.25 44.2 8.45 44.4 8.6 44.25
L 8.9 43.75 10.8 37.1 12.6 32.5
Q 14.2 29.25 16 26.9
L 16 26.85
Q 20.0271484375 27.5876953125 24.05 27.45
L 24.35 27.75
Q 25 28.45 25.35 29.8 25.65 30.55 26 32
L 28.35 42.25
Q 28.6 43.05 28.6 43.75
L 28.75 44.45
Q 28.9 44.9 29.25 44.75 29.5 44.6 29.5 44.25 29.65 43.2 29.25 41.25
L 26.25 29.15
Q 25.8203125 28.0953125 25.35 27.35 27.426171875 27.225 29.5 26.85 30.053515625 26.7486328125 30.55 26.6
L 32.05 27.65 33.25 28.25
Q 33.6 28.4 33.85 28.35 34.3 28.25 34.2 27.85 34.15 27.5 33.5 27.3 33.35 27.25 32.4 26.7
L 31.8 26.3
Q 33.7462890625 25.7357421875 35 24.9 36.0248046875 24.2927734375 36.7 23.4
L 37.35 23.5
Q 37.65 23.55 37.9 23.5 38.15 23.5 38.25 23.15 38.35 22.85 38 22.7 37.8 22.55 37.5 22.55
L 37.3 22.5
Q 37.932421875 21.3158203125 38.15 19.75 38.2375 19.0857421875 38.25 18.4 38.8703125 18.273828125 39.3 18.25
L 39.9 18.1
Q 40.25 18 40.25 17.65 40.25 17.45 39.95 17.25
L 39.4 17.15
Q 38.8625 17.18359375 38.25 17.3 38.1482421875 14.5701171875 37.05 11.55 36.15 8.9 33.55 4 33.25 3.5 33.05 3.35 32.894140625 3.293359375 32.75 3.25 32.7125 3.275 32.65 3.25
M 32.6 4.4
Q 35.3689453125 9.7025390625 36.05 11.6 37.209765625 14.7626953125 37.3 17.55
L 29.55 19.4
Q 29 19.5 28.75 19.7 28.6 19.8 28.55 20.05 28.5 20.25 28.65 20.4 28.8 20.65 29.15 20.55 29.35 20.55 29.7 20.4
L 30.65 20.15
Q 33.65 19.65 36.7 18.8 36.996484375 18.7126953125 37.25 18.65 37.2349609375 19.2291015625 37.15 19.8 36.8669921875 21.4041015625 36.25 22.35
L 28.75 21.4 28.15 21.45
Q 27.8 21.55 27.8 21.85 27.8 22.15 28.1 22.35
L 35.45 23.25
Q 34.8630859375 23.8080078125 33.95 24.35 32.5533203125 25.08046875 30.75 25.5
L 28.1 23.65
Q 27.85 23.4 27.6 23.35 27.2 23.25 27.05 23.5 26.9 23.65 27.1 24.1
L 29.4 25.8
Q 27.5166015625 26.166796875 25.25 26.25 18.0978515625 26.642578125 12.65 25.1
L 13.1 24.85
Q 13.3 24.65 13.25 24.45 13.25 24.05 12.75 24.05 12.55 24.05 12.05 24.3
L 11.4 24.75
Q 11.2615234375 24.7056640625 11.1 24.65 10.1294921875 24.3015625 9.35 23.9 10.0404296875 23.82734375 10.35 23.75
L 12.25 23.4
Q 12.7 23.25 12.75 22.85 12.8 22.65 12.65 22.5 12.55 22.3 12.35 22.3 12.25 22.25 12.05 22.35
L 10.8 22.65 8.55 22.95
Q 8.216796875 22.9595703125 7.9 22.95 6.6015625 21.8359375 5.9 20
L 7.2 20.45 7.6 20.65
Q 8.45 20.8 9.8 21.3
L 11.25 21.9
Q 11.55 21.9 11.7 21.65 11.85 21.4 11.7 21.15 11.55 20.95 11.3 20.85
L 9.7 20.15 5.55 18.9
Q 5.2818359375 17.69609375 5.35 16.4 5.4 13.5 7.25 9.35 8.55 6.45 10.1 3.65 10.1373046875 3.5828125 10.15 3.5
L 10.55 3.35
Q 10.9 3 10.9 2.85 11.1271484375 2.77421875 11.15 2.55 12.266015625 3.694921875 13.35 5.25
L 14.7 7.05
Q 15.25 7.75 16.15 9.35
L 16.65 10.25 16.9 10.9
Q 17.15 11.25 17.45 11.35 17.6140625 11.3865234375 17.7 11.35
L 17.95 11.4
Q 21 11.75 25.8 11.2 25.9224609375 11.2080078125 26.05 11.15 26.1001953125 11.1310546875 26.15 11.1
L 26.4 10.8 32.6 4.4
M 25.2 21.2
Q 24.9 20.7 24.45 21
L 24.2 21.25 23.5 22.2
Q 23.1 22.25 22.25 22.15
L 21.45 22.05
Q 20.55 21.8 20.35 21.6 20.15 21.2 19.95 21.1 19.45 20.8 19.25 21.3 19.15 21.55 19.1 22.05 18.95 22.3 18.35 22.3 17.05 22.3 16.45 21.85 16.15 21.55 16.05 21.35
L 15.9 20.95
Q 15.5 20.55 15.15 21 14.9 21.3 15.1 21.75 15.2 22 15.6 22.4 16.25 22.95 16.65 23.1
L 17.35 23.25
Q 18.15 23.4 18.8 23.35 19.6 23.2 19.95 22.6 21.15 23.2 23.55 23.2
L 24.05 23.15 24.9 22.05
Q 25.25 21.5 25.2 21.2
M 28.85 15.35
Q 28.45 15.35 28.3 15.45 28.15 15.55 28.15 15.95 28.15 16.6 28.6 16.8 29.1 17.2 29.55 16.8
L 29.7 16.65 29.9 16.55
Q 30.05 16.4 30.05 16.2
L 29.95 15.85
Q 29.75 15.55 29.55 15.45 29.35 15.35 28.85 15.35
M 10.15 16.05
Q 10.8 16.7 11.75 16.45 12.1 16.35 12.3 16.1 12.5 15.65 12.15 15.25
L 12 15.05 11.65 14.8
Q 11.5 14.65 11.25 14.65
L 10.85 14.75
Q 10.4 14.85 10.25 15 10.1 15.25 10.1 15.5
L 10.15 16.05 Z"/>
</g>
</defs>

<g transform="matrix( 1, 0, 0, 1, 0,0) ">
<use xlink:href="#Layer0_0_MEMBER_0_MEMBER_0_MEMBER_0_FILL"/>
</g>
</svg>
