
<svg xmlns="http://www.w3.org/2000/svg" version="1.1" xmlns:xlink="http://www.w3.org/1999/xlink" preserveAspectRatio="none" x="0px" y="0px" width="128px" height="128px" viewBox="0 0 128 128">
<defs>
<g id="Layer5_0_FILL">
<path fill="#000000" stroke="none" d="
M 50.9 125.15
L 51.85 124.6
Q 52.15 123.55 52.5 122.6 52.25 122.45 51.45 124.2 51 125 50.9 125.15
M 66.2 96.6
Q 63.05 96.8 59.25 98.6 57.3 99.65 56.2 100.75 55.95 100.5 55.7 100.6 55.7 100.65 55.6 100.65 55.25 100.65 55.05 100.85 54.85 101.25 55.1 101.8 55.15 102.1 55.25 102.35 55.3 102.6 55.45 102.9 55.55 103.15 55.65 103.45 55.9 104 56.25 104.65
L 56.8 105.6
Q 57 105.95 57.45 106.6 57.4 106.6 57.35 106.6 57.05 106.8 56.65 107.4
L 56.05 108.3 52.2 117
Q 52.1 117.65 49.6 123.1 47.1 128.5 49.3 125.05 51.45 121.6 50.6 125.25
L 50.85 125.15
Q 50.8 125.15 50.95 124.6 51.2 123.75 52.3 121.4 54.6 115.55 54.65 115.5
L 56.7 110.35
Q 57.35 109.15 57.95 108.4 58.3 108 58.4 107.7 59.05 108.35 59.85 109.85 60.2 110.4 60.6 110.45 60.85 110.5 61.15 110.35 61.35 110.2 61.45 110.05 61.65 109.85 61.95 109.6 62.55 108.95 63.95 107.75 64.95 106.95 66.2 106.1 66.3 106.15 66.45 106.25 67.7 107.3 70.45 109.15 71.95 110.3 72.4 110.75 72.85 111.2 73.1 111.35 73.55 111.6 73.95 111.45 74.25 111.35 74.4 111.05 74.4 111 74.45 110.95
L 75.9 107.85 81.85 122.6
Q 85 126 83.9 123.2 82.75 120.35 82.1 118.7 81.4 117 81.3 116.65 81.3 116.6 81.25 116.6 81.15 116.3 81 115.95
L 80.75 115.1
Q 80.45 114.3 79.95 113.25 79.75 112.95 78.5 110.05
L 76.85 105.95
Q 76.8 105.85 76.8 105.8
L 78.6 102.6
Q 78.85 102.25 78.95 101.85 79.1 101.45 78.85 101.1 78.75 100.85 78.4 100.8 78.1 100.75 77.85 100.9 77.8 100.95 77.75 101 76.95 100.2 75.7 99.5 70.75 96.45 66.2 96.6
M 76.45 102.05
Q 76.7 102.25 76.95 102.5
L 75.65 104.95
Q 75.55 105.05 75.4 105.15 75.3 105.35 75.25 105.8
L 75.25 105.85 73.4 109.5 72.55 108.9
Q 71.75 108.2 70.35 107.2 68.5 105.85 68.05 105.55 67.65 105.2 67.25 104.85 67.25 104.45 66.95 104.2 66.65 104.05 66.4 104.1 66.25 103.9 66.1 103.85 63.2 106.3 60.8 108.35
L 60.8 108.4
Q 60.3 107.6 60.05 107.25 59.95 107.1 59.35 106.4 58.7 105.65 58.25 104.85
L 57.35 103.25 57 102.35
Q 57.1 102.15 57.3 102 57.9 101.15 59.4 100.4 64.65 97.55 69.05 98.45 70.8 98.8 73.9 100.4 75.6 101.25 76.45 102.05
M 64.95 103.85
Q 64.65 104.2 64.8 104.55 64.85 104.65 66.05 103.85 65.8 103.6 65.6 103.6 65.2 103.5 64.95 103.85 Z"/>

<path fill="#FFFFFF" stroke="none" d="
M 75.9 107.85
L 74.45 110.95
Q 74.4 111 74.4 111.05 74.25 111.35 73.95 111.45 73.55 111.6 73.1 111.35 72.85 111.2 72.4 110.75 71.95 110.3 70.45 109.15 67.7 107.3 66.45 106.25 66.3 106.15 66.2 106.1 64.95 106.95 63.95 107.75 62.55 108.95 61.95 109.6 61.65 109.85 61.45 110.05 61.35 110.2 61.15 110.35 60.85 110.5 60.6 110.45 60.2 110.4 59.85 109.85 59.05 108.35 58.4 107.7 58.3 108 57.95 108.4 57.35 109.15 56.7 110.35
L 54.65 115.5
Q 54.6 115.55 52.3 121.4 51.2 123.75 50.95 124.6 50.8 125.15 50.85 125.15
L 50.9 125.15
Q 51 125 51.45 124.2 52.25 122.45 52.5 122.6 53.5 123.5 61.9 123.55 71.9 123.55 81.85 122.6
L 75.9 107.85
M 76.95 102.5
Q 76.7 102.25 76.45 102.05 75.6 101.25 73.9 100.4 70.8 98.8 69.05 98.45 64.65 97.55 59.4 100.4 57.9 101.15 57.3 102 57.1 102.15 57 102.35
L 57.35 103.25 58.25 104.85
Q 58.7 105.65 59.35 106.4 59.95 107.1 60.05 107.25 60.3 107.6 60.8 108.4
L 60.8 108.35
Q 63.2 106.3 66.1 103.85 66.25 103.9 66.4 104.1 66.65 104.05 66.95 104.2 67.25 104.45 67.25 104.85 67.65 105.2 68.05 105.55 68.5 105.85 70.35 107.2 71.75 108.2 72.55 108.9
L 73.4 109.5 75.25 105.85 75.25 105.8
Q 75.3 105.35 75.4 105.15 75.55 105.05 75.65 104.95
L 76.95 102.5
M 64.8 104.55
Q 64.65 104.2 64.95 103.85 65.2 103.5 65.6 103.6 65.8 103.6 66.05 103.85 64.85 104.65 64.8 104.55 Z"/>
</g>

<g id="Layer4_0_FILL">
<path fill="#000000" stroke="none" d="
M 99.5 69.9
Q 98 62.8 92.6 56.2 90.5 53.6 88.75 52.45 86.45 51 82.15 50.05 70.4 47.45 57 48.05 55.65 48.15 55.2 48.5 54.8 48.8 54.7 49.35 54.6 49.9 55 50.15 48.8 51.1 44.65 52.75 39.25 54.85 36.35 58.7 33.6 62.3 32.7 67.95 32.35 70.15 32.3 73.5 32.65 73.7 32.75 74.05 32.85 74.35 32.85 75.4
L 32.85 76.55
Q 32.5 76.5 32 76.7 26.55 78.7 19.6 83.4 18.55 84.25 18.65 84.9 18.8 85.4 19.6 85.85 24.2 88.25 28.95 90.45 27.45 92.5 25.5 96.45 23.25 100.9 22.2 102.6 21.65 103.4 21.8 103.85 21.95 104.45 22.75 104.55 23.15 104.65 23.95 104.35 34.8 101.35 41 99.15 42.95 98.5 43.9 98.45 44.25 98.4 45 98.3 45.65 98.1 45.65 97.6 45.65 97.55 45.65 97.5 47.5 98.45 49.35 99.35 49.4 99.3 49.5 99.3 53.15 101.4 57.8 102.75 58.25 102.85 59.65 103.25 61.35 103.65 61.5 103.8 65.15 104.7 67.3 104.65 68.55 104.6 71.25 103.8 74.8 102.7 71.65 103.5 80.7 100.95 83.8 99.65 83.8 99.7 83.85 99.75 84.2 99.55 88.85 97.4
L 88.65 97.45
Q 89.35 97.05 90.1 96.75 90.6 96.45 91.1 96.25 91.35 96.45 91.8 96.7 99.6 100.05 107.95 101.05 109.25 101.25 109.95 101.25 110.85 101.25 111.8 101 113 100.75 113.05 100.15 113.1 99.75 112.8 99.1 108.5 91.5 104.4 88.1
L 111.7 85.2
Q 113.35 84.5 114.2 83.95 114.95 83.35 114.9 82.85 114.9 82.35 114.25 81.8 112 79.95 108.75 78.4 106.8 77.45 102.75 75.85 101 75.25 100.6 75.1 100.3 75.05 100.1 75.05 99.95 72.15 99.5 69.9
M 86.8 53.5
Q 89.7 55.1 92.25 58.4 95.8 63.1 97.4 69.5 97.95 71.85 98.3 74.45 98.15 74.5 98 74.6 97.55 74.9 97.85 75.45 97.95 75.7 98.5 76.15 98.7 78.9 98.6 81.8 98.3 86.95 96.6 89.6 95.5 91.4 93.35 92.8 92 93.8 89.3 95.15 81.6 98.8 74.15 101.3 70.15 102.6 67.7 102.7 64.35 102.85 58.85 101 47.4 97.05 39.7 91.75 36.95 89.85 35.85 88.05 34.65 86.15 34.3 82.25 33.75 76.45 34.25 70.5 34.75 65.25 36.3 62.2 38.1 58.8 41.75 56.4 45 54.25 49.2 53.2 52.3 52.35 57.25 51.9 64.15 51.15 65.3 51 66.05 50.9 66.3 50.6 66.5 50.35 66.4 50.1 66.35 49.8 66.1 49.7 73.55 50.2 80.25 51.45 84.6 52.25 86.8 53.5
M 100.1 79.95
Q 100.1 79.1 100.2 78.5 100.15 77.9 100.2 77.35 100.25 77.4 100.3 77.5
L 100.4 77 104.05 78.35
Q 106.95 79.55 108.5 80.25 110.85 81.45 112.45 82.85 107.7 84.65 103.3 86.65 102.35 87.1 102.3 87.6 102.1 88.25 103.1 89.15 107.95 93.6 110.7 99.35 109.75 99.6 107.8 99.25 101.45 98.1 98.3 97.2 96.3 96.5 93 95.2 94.15 94.55 94.95 93.95 97.45 92.1 98.65 89.85 99.55 88.2 99.85 85.8 100.05 84.35 100.1 81.55 100.1 80.95 100.15 80.45 100.1 80.25 100.1 79.95
M 32.4 78.45
Q 32.6 78.4 32.7 78.3
L 32.5 79.1
Q 32.35 79.95 32.35 80 32.35 80.1 32.3 80.15 32.4 82.05 32.55 83.25 32.95 86.05 33.9 88.05 35.15 90.45 37.65 92.55 39.5 94.1 42.6 95.85 43.3 96.2 44 96.6 42.9 96.65 41.4 97.05 40.85 97.25 38.75 98 31.9 100.4 24.55 102.2 27.05 96.85 30.6 91.1 31.15 90.2 30.95 89.65 30.75 89.3 29.95 88.95 25.2 86.9 21.25 84.5 26.4 80.85 32.4 78.45 Z"/>

<path fill="#FFFFFF" stroke="none" d="
M 32.7 78.3
Q 32.6 78.4 32.4 78.45 26.4 80.85 21.25 84.5 25.2 86.9 29.95 88.95 30.75 89.3 30.95 89.65 31.15 90.2 30.6 91.1 27.05 96.85 24.55 102.2 31.9 100.4 38.75 98 40.85 97.25 41.4 97.05 42.9 96.65 44 96.6 43.3 96.2 42.6 95.85 39.5 94.1 37.65 92.55 35.15 90.45 33.9 88.05 32.95 86.05 32.55 83.25 32.4 82.05 32.3 80.15 32.35 80.1 32.35 80 32.35 79.95 32.5 79.1
L 32.7 78.3
M 100.2 78.5
Q 100.1 79.1 100.1 79.95 100.1 80.25 100.15 80.45 100.1 80.95 100.1 81.55 100.05 84.35 99.85 85.8 99.55 88.2 98.65 89.85 97.45 92.1 94.95 93.95 94.15 94.55 93 95.2 96.3 96.5 98.3 97.2 101.45 98.1 107.8 99.25 109.75 99.6 110.7 99.35 107.95 93.6 103.1 89.15 102.1 88.25 102.3 87.6 102.35 87.1 103.3 86.65 107.7 84.65 112.45 82.85 110.85 81.45 108.5 80.25 106.95 79.55 104.05 78.35
L 100.4 77 100.3 77.5
Q 100.25 77.4 100.2 77.35 100.15 77.9 100.2 78.5
M 92.25 58.4
Q 89.7 55.1 86.8 53.5 84.6 52.25 80.25 51.45 73.55 50.2 66.1 49.7 66.35 49.8 66.4 50.1 66.5 50.35 66.3 50.6 66.05 50.9 65.3 51 64.15 51.15 57.25 51.9 52.3 52.35 49.2 53.2 45 54.25 41.75 56.4 38.1 58.8 36.3 62.2 34.75 65.25 34.25 70.5 33.75 76.45 34.3 82.25 34.65 86.15 35.85 88.05 36.95 89.85 39.7 91.75 47.4 97.05 58.85 101 64.35 102.85 67.7 102.7 70.15 102.6 74.15 101.3 81.6 98.8 89.3 95.15 92 93.8 93.35 92.8 95.5 91.4 96.6 89.6 98.3 86.95 98.6 81.8 98.7 78.9 98.5 76.15 97.95 75.7 97.85 75.45 97.55 74.9 98 74.6 98.15 74.5 98.3 74.45 97.95 71.85 97.4 69.5 95.8 63.1 92.25 58.4 Z"/>
</g>

<g id="Layer3_0_FILL">
<path fill="#000000" stroke="none" d="
M 85.1 70.45
Q 85.2 69.45 84.7 69 84.4 68.75 84 68.8 83.55 68.8 83.35 69.15 83.1 69.45 83.1 70.25
L 83.1 82
Q 83.1 82.75 83.3 83.05 83.75 83.7 84.45 83.35 84.85 83.2 85.05 82.6 85.15 82.25 85.15 81.55
L 85.1 70.45
M 90.6 66.55
Q 86.9 65.45 83.05 65.75 79.15 66 75.65 67.6 74.6 68.1 74.5 68.75 74.3 69.5 75.05 69.75 75.6 69.95 76.6 69.45 80.1 67.8 84.1 67.7 88.1 67.6 91.65 69.15 92.25 69.45 92.65 69.45 93.25 69.55 93.55 69.05 93.85 68.6 93.5 68.05 93.3 67.8 92.7 67.4 91.7 66.85 90.6 66.55
M 49.05 68.95
Q 48.65 68.9 48.35 69.15 47.85 69.6 47.95 70.6
L 47.9 81.7
Q 47.9 82.4 48 82.75 48.2 83.35 48.6 83.5 49.3 83.85 49.75 83.2 49.95 82.9 49.95 82.15
L 49.95 70.4
Q 49.95 69.6 49.7 69.3 49.5 68.95 49.05 68.95
M 39.5 70.9
Q 39.85 70.8 40.45 70.3 41.6 69.55 43.55 68.95
L 45.65 68.3
Q 51.85 66.65 57 69.4 58.05 70.05 58.65 69.75 59.25 69.4 59.1 68.7 59 68.4 58.45 67.95 56.25 66.35 52.25 65.9
L 50 65.75
Q 48.35 65.75 47.55 65.85 46.7 65.95 44.75 66.45 41.7 67.25 39.4 68.6 38.6 68.95 38.25 69.5 37.8 70.35 38.4 70.85 38.8 71.2 39.5 70.9
M 63.3 95.7
Q 62.8 96.15 62.65 96.55 62.45 96.9 62.55 97.25 62.65 97.6 63 97.85 63.4 98.05 63.75 97.9 64.1 97.85 64.4 97.45
L 66.65 95.4
Q 66.9 95.15 67.05 95.05
L 68.9 97.15
Q 69.3 97.75 69.8 97.85 70.25 97.95 70.6 97.7 71 97.35 70.95 96.9 70.9 96.6 70.4 95.85
L 68.3 93.55
Q 67.75 92.95 67.5 92.9 66.95 92.75 66.25 93.05
L 63.3 95.7 Z"/>
</g>

<g id="Layer2_0_FILL">
<path fill="#000000" stroke="none" d="
M 31.65 47.65
Q 31.65 47.7 31.65 47.8 31.9 47.6 32.1 47.15 32.15 47.1 32.15 47.05 31.9 47.3 31.65 47.65
M 98.3 48.15
Q 96.95 47.55 96.2 47.45 96 47.45 95.8 47.45 94.1 45.8 92.3 44.55 89.15 42.35 84.2 40.75 76.4 38.15 68.35 37.8 60.05 37.45 52.4 39.45 44.5 41.55 37.75 46.1 35.35 47.75 33.2 49.6 33 49.6 32.85 49.7 25.1 52.35 13.55 58.85 12.55 59.45 12.6 60.1 12.7 60.6 13.75 61 16.8 61.95 19.55 63.3 17.4 65.95 13.95 69.15 13.4 69.6 13.35 69.9 13.25 70.45 13.75 70.85 14.2 71.15 14.85 71.25 15.2 71.3 15.95 71.3 16.65 71.3 17.05 71.6
L 13.6 73.35
Q 12.45 73.95 12.55 74.6 12.7 75.2 13.8 75.4
L 17.15 75.9
Q 17.1 75.9 17.1 75.95 16.7 76.05 16.15 76.35 15.45 76.85 14.65 77.55 13.95 78.3 14.1 78.8 14.25 79.5 15.4 79.5 16.2 79.45 18.1 78.8
L 27.7 75.3 27.75 75.3
Q 27.6 77.6 27.6 80.5 27.6 85.2 28 87.85 28.5 91.3 30.9 97.55 31.25 98.55 31.65 99.3 32.1 101.1 32.65 102.95 32.95 103.8 33.25 103.95 34.15 104.35 34.95 102.75 36.45 106.05 38.4 109.1 39.25 110.45 40.05 110.1 40.4 109.95 40.55 109.55 40.65 109.15 40.55 108.8 40.6 108.45 40.6 107.6 39.7 94.4 40.1 80.6 40.25 74.2 40.8 70.15 41.4 64.9 42.9 60.75 43.15 61.55 43.1 62.6 43.1 63.65 43.15 63.75 43.15 63.9 43.2 64.05
L 43.4 64.5
Q 43.45 64.75 43.45 65.3 43.45 65.4 43.45 65.5 43.45 65.75 43.65 66 43.85 66.3 44.15 66.35 44.55 66.4 45.1 65.95 47.85 64.1 49.5 63.15
L 51.45 62.05 54.15 60.1
Q 54.6 59.8 55.4 59.1 56.35 58.2 57.3 57.2 57.7 58.65 58.3 61.45
L 59.7 68.2
Q 60 70 60 70.45 60 71.55 60.3 72 60.35 72.1 60.45 72.2 60.55 72.55 60.8 72.7 61.2 72.9 62 72.35 66.45 69.15 67.75 68.1 71.7 64.9 77.6 59.25
L 81.85 55.2
Q 81.9 55.15 82 55.1 83.25 56.55 85.05 59.25 85.9 60.55 86 60.75 86.25 61.4 86.55 61.7 86.55 61.95 86.8 62.2 87.2 62.5 87.65 62.25 87.9 62.2 88.25 61.9
L 88.8 61.7
Q 88.8 61.65 89.15 61.4 89.25 62.05 89.65 62.95 90.25 64.55 90.4 65.15 90.5 65.85 90.75 66.2 92.05 72.1 92.2 79.15 92.35 85.2 91.6 93.75 91.45 96.95 90.95 98.9 90.7 100.15 90.05 102.6 89.65 104.7 89.9 106.2 90.05 107.25 90.7 107.3 91.1 107.35 91.5 106.95 93.25 105.4 94.7 102.95 95.7 101.4 97.1 98.35 97.2 98.65 97.25 99.25 97.25 99.8 97.35 100.15 97.4 100.45 97.6 100.65 97.65 101 97.95 101.25 98.65 101.55 99.45 100.55 103.25 95.25 104.05 87.4 104.5 82.2 103.55 74.95 104.1 75.1 105 75.35
L 114.25 78.35
Q 115.25 78.75 115.8 78.35 116 78.15 116.05 77.8 116.05 77.75 116.05 77.7 116.05 77.45 115.95 77.15 115.8 76.5 115.1 75.6
L 114.8 75.15 114.9 75.1
Q 115.1 75.05 115.55 74.95 115.95 74.85 116.1 74.6 116.3 74.5 116.35 74.3 116.5 73.8 115.95 72.95 115.2 71.95 113.05 69.5
L 111.8 68.2
Q 112.3 68.05 113.1 67.9 114.25 67.7 114.8 67.5 115.35 67.35 115.5 67.15 115.75 66.8 115.65 66.45 115.55 66 115.2 65.85
L 115.15 65.85
Q 114.9 65.55 114.6 65.25
L 110.8 62.05 115.8 60.35
Q 117.05 60 117.05 59.25 117.1 58.65 116.15 58.05
L 109.9 54.05
Q 108.5 53.2 107.75 52.8 106.6 52.05 105.15 51.4 102.9 50.3 98.3 48.15
M 103.75 52.75
Q 106.15 54 111.05 56.95
L 114.25 58.9 109.5 60.65
Q 108.6 61.05 108.45 61.45 108.15 62.1 109.25 63.05
L 112.9 66.25
Q 112.65 66.25 112.35 66.3 111.4 66.4 110.95 66.45 110.15 66.7 109.85 67.1 109.75 67.2 109.7 67.25 109.5 67.55 109.55 67.9 109.6 68.35 110.2 69.05 110.85 69.75 112.2 71.1 113.4 72.35 114 73.4 114 73.45 114.05 73.55
L 113.45 73.65
Q 113.05 73.75 112.85 74 112.65 74.25 112.7 74.65
L 112.7 74.7
Q 112.7 75 112.85 75.25 113.05 75.55 113.45 76.1 113.55 76.25 113.65 76.35 110.8 75.45 104.65 73.35 103.9 73 103.25 72.8 102.6 68.45 101.65 65.65 101.5 65.2 101.25 64.55 101.1 63.75 100.9 63.1
L 104.8 67.45
Q 105.75 68.65 106.55 68.3 107.1 68.1 107.15 67.35 107.15 66.7 106.85 65.95 105.25 62.05 102.9 57.45 100.6 53.2 98.1 50.05 100.75 51.15 103.75 52.75
M 25.75 58.35
Q 25.7 58.6 25.8 58.8 23.8 62.3 23.05 63.9 22.6 64.75 22.6 65.25 22.6 66.1 23.3 66.35 23.85 66.45 24.65 65.7 26.9 63.75 29.15 62.25 28.85 64 28.65 66.1 28.2 68.6 27.95 71.65 27.85 72.4 27.8 73.3 27.45 73.35 27.05 73.45
L 26.6 73.65
Q 26.45 73.75 26.35 73.85 24.85 74.35 22.7 75.15 21.35 75.65 20.45 76 20.55 75.85 20.65 75.7 20.8 75.35 20.65 74.95 20.4 74.5 19.2 74.25
L 16.5 74
Q 18 72.9 19.95 72.55 20.9 72.3 21.2 72.15 21.9 71.75 21.65 71 21.45 70.55 20.6 70.4 18.2 69.75 16.25 69.6 18.4 66.95 21.35 64.3 22.2 63.55 22.2 63 22.15 62.35 20.9 61.85
L 15.85 59.8
Q 22.5 55.65 30 52.7 29.45 53.2 29 53.75 28.9 53.8 28.8 53.85 28.35 54.1 27.95 54.85
L 27.8 55.2
Q 26.95 56.2 26.2 57.25 25.8 57.8 25.75 58.35 Z"/>

<path fill="#FFFFFF" stroke="none" d="
M 25.8 58.8
Q 25.7 58.6 25.75 58.35 25.8 57.8 26.2 57.25 26.95 56.2 27.8 55.2
L 27.95 54.85
Q 28.35 54.1 28.8 53.85 28.9 53.8 29 53.75 29.45 53.2 30 52.7 22.5 55.65 15.85 59.8
L 20.9 61.85
Q 22.15 62.35 22.2 63 22.2 63.55 21.35 64.3 18.4 66.95 16.25 69.6 18.2 69.75 20.6 70.4 21.45 70.55 21.65 71 21.9 71.75 21.2 72.15 20.9 72.3 19.95 72.55 18 72.9 16.5 74
L 19.2 74.25
Q 20.4 74.5 20.65 74.95 20.8 75.35 20.65 75.7 20.55 75.85 20.45 76 21.35 75.65 22.7 75.15 24.85 74.35 26.35 73.85 26.45 73.75 26.6 73.65
L 27.05 73.45
Q 27.45 73.35 27.8 73.3 27.85 72.4 27.95 71.65 28.2 68.6 28.65 66.1 28.85 64 29.15 62.25 26.9 63.75 24.65 65.7 23.85 66.45 23.3 66.35 22.6 66.1 22.6 65.25 22.6 64.75 23.05 63.9 23.8 62.3 25.8 58.8
M 111.05 56.95
Q 106.15 54 103.75 52.75 100.75 51.15 98.1 50.05 100.6 53.2 102.9 57.45 105.25 62.05 106.85 65.95 107.15 66.7 107.15 67.35 107.1 68.1 106.55 68.3 105.75 68.65 104.8 67.45
L 100.9 63.1
Q 101.1 63.75 101.25 64.55 101.5 65.2 101.65 65.65 102.6 68.45 103.25 72.8 103.9 73 104.65 73.35 110.8 75.45 113.65 76.35 113.55 76.25 113.45 76.1 113.05 75.55 112.85 75.25 112.7 75 112.7 74.7
L 112.7 74.65
Q 112.65 74.25 112.85 74 113.05 73.75 113.45 73.65
L 114.05 73.55
Q 114 73.45 114 73.4 113.4 72.35 112.2 71.1 110.85 69.75 110.2 69.05 109.6 68.35 109.55 67.9 109.5 67.55 109.7 67.25 109.75 67.2 109.85 67.1 110.15 66.7 110.95 66.45 111.4 66.4 112.35 66.3 112.65 66.25 112.9 66.25
L 109.25 63.05
Q 108.15 62.1 108.45 61.45 108.6 61.05 109.5 60.65
L 114.25 58.9 111.05 56.95 Z"/>
</g>

<g id="Layer1_0_FILL">
<path fill="#000000" stroke="none" d="
M 97.9 18.4
Q 90.75 16.8 81.8 16 75.5 15.4 65.5 15.15 60.8 15 51.5 14.8 46.05 14.7 42.95 14.8 38.25 15 34.55 15.55 34.35 15.6 34.2 15.65 33.75 15.55 33.3 15.95 33.05 16.3 32.85 16.9 31.8 20.45 31.35 27.8
L 31 32.55
Q 30.95 32.8 30.95 33.3
L 30.55 36.95
Q 30.5 37.55 30.45 38.05 30.25 39.1 30.1 40
L 29.45 41.9
Q 29.3 42.55 29.1 43.8 28.85 43.75 28.7 43.7 28.35 43.8 28.1 43.9 25.35 44.7 23.25 46.45 22 47.5 21.95 48.45 21.75 50.5 25.75 51.45 33.05 53.2 42 54.05 48.8 54.75 58.5 55.1 66.2 55.4 75.9 55.5 85.35 55.6 91.2 55 99.55 54.3 105.95 52 109.35 50.8 109.35 49.05 109.35 47.1 105.8 45.9 105.05 45.65 102.75 45.5 102.5 45.55 102.15 45.7
L 102.15 45.45
Q 102.15 44.85 102 44
L 101.7 42.6
Q 101.55 41.8 101.55 41
L 101.25 39
Q 101.05 38.35 101 37.25
L 101 37.2
Q 101 36 101 35.45 100.85 31.15 100.6 28.2
L 100.1 23.15
Q 99.8 20.55 99.35 19.6 99.15 19.35 99 19.15
L 99 19.1
Q 98.85 18.6 97.9 18.4
M 100.3 46.15
Q 99 46.5 97.2 46.7 92.95 47.35 74.95 47.5 57 47.6 43.65 45.8 34.65 44.5 31 44.05 31.1 43.05 31.3 42.45 31.85 40.75 32 39.8
L 32.35 37.7
Q 32.45 36.9 32.5 36.35 34.15 36.5 35.65 36.7 41.3 37.3 45.45 38.3 51.25 39.6 67 39.3 86.85 40.05 95.95 38.55 97.75 38.25 99.15 37.85 99.25 38.5 99.35 38.9 99.4 39.45 99.65 40.75
L 99.75 41.9
Q 99.8 42.65 100.1 44.1
L 100.3 46.15 Z"/>

<path fill="#FFFFFF" stroke="none" d="
M 97.2 46.7
Q 99 46.5 100.3 46.15
L 100.1 44.1
Q 99.8 42.65 99.75 41.9
L 99.65 40.75
Q 99.4 39.45 99.35 38.9 99.25 38.5 99.15 37.85 97.75 38.25 95.95 38.55 86.85 40.05 67 39.3 51.25 39.6 45.45 38.3 41.3 37.3 35.65 36.7 34.15 36.5 32.5 36.35 32.45 36.9 32.35 37.7
L 32 39.8
Q 31.85 40.75 31.3 42.45 31.1 43.05 31 44.05 34.65 44.5 43.65 45.8 57 47.6 74.95 47.5 92.95 47.35 97.2 46.7 Z"/>
</g>

<path id="Layer0_0_1_STROKES" stroke="#000000" stroke-width="16" stroke-linejoin="miter" stroke-linecap="square" stroke-miterlimit="3" fill="none" d="
M 0 0
L 128 0 128 128 0 128 0 0 Z"/>
</defs>

<g transform="matrix( 1, 0, 0, 1, 0,0) ">
<use xlink:href="#Layer5_0_FILL"/>
</g>

<g transform="matrix( 1, 0, 0, 1, 0,0) ">
<use xlink:href="#Layer4_0_FILL"/>
</g>

<g transform="matrix( 1, 0, 0, 1, 0,0) ">
<use xlink:href="#Layer3_0_FILL"/>
</g>

<g transform="matrix( 1, 0, 0, 1, 0,0) ">
<use xlink:href="#Layer2_0_FILL"/>
</g>

<g transform="matrix( 1, 0, 0, 1, 0,0) ">
<use xlink:href="#Layer1_0_FILL"/>
</g>

<g transform="matrix( 1, 0, 0, 1, 0,0) ">
<use xlink:href="#Layer0_0_1_STROKES"/>
</g>
</svg>
