
<svg xmlns="http://www.w3.org/2000/svg" version="1.1" xmlns:xlink="http://www.w3.org/1999/xlink" preserveAspectRatio="none" x="0px" y="0px" width="128px" height="128px" viewBox="0 0 128 128">
<defs>
<g id="Layer4_0_FILL">
<path fill="#000000" stroke="none" d="
M 90.2 70.45
Q 88.65 68.25 88.1 67.5 85.2 64 81.3 61.9 77.45 59.85 72.2 59.15 68.25 58.55 62.6 58.75 55 59 49.5 60.4 42.55 62.1 37.75 65.75 32.75 69.7 29.15 76.6 28.95 76.45 28.7 76.5 28.2 76.55 27.9 77.45 27.35 79.5 26.85 81.8 26.45 82.85 26.1 83.9 25.8 84.75 25.9 85.25 26 85.5 26.15 85.7 26.05 86.3 25.95 86.95 25.55 89.9 24.9 96.65
L 23.95 106.4
Q 23.35 113.7 23.35 118.85 23.25 119 23.2 119.15 23 119.6 23.25 119.95 23.3 120 23.35 120.1 23.4 121.75 23.45 123.15 23.45 123.9 23.75 124.25 24 124.6 24.55 124.65 25 124.65 25.5 124.45 26.05 124.2 27.05 123.5
L 27.95 123.25
Q 28.45 123.1 28.75 122.85 29.15 122.55 29.15 122.05 29.2 121.55 28.85 121.35 28.55 121.2 27.8 121.45
L 24.9 122.65
Q 24.9 121.5 24.9 120.4 28.6 120.05 33.5 120.3 35 120.35 42.1 120.95 55.5 122.05 72.1 122.1 82.85 122.15 102.15 121.6 103 121.55 103.2 121.25 103.3 121 103.25 120.85 103.3 120.65 103.3 120.3
L 103.3 104.1
Q 103.3 100.6 103.2 98.9 103.15 96.85 102.25 88.2 101.55 81.65 101.8 77.5 101.8 76.55 101.65 76.25 101.4 75.9 101.05 75.85 100.7 75.75 100.45 76 100.4 76.1 100.3 76.55 100.1 78.75 100.15 81.4 99.1 79.55 96.8 77.4 92.75 73.7 92.45 73.35 91.55 72.3 90.2 70.45 Z"/>
</g>

<g id="Layer3_0_FILL">
<path fill="#000000" stroke="none" d="
M 85.3 55.4
Q 85.1 55.25 84.9 55.15 82.25 54.1 79.8 52.85 77.8 51.85 76.9 51.7 76.05 51.55 75.85 51.25 75.55 50.7 76.1 50.3 76.4 50.05 77.05 50 77.9 50 78.9 50.45
L 78.95 50.45
Q 78.3 49.85 77.7 49.25 70.35 41.5 55.45 48.95 40.55 56.35 38.05 58.2 35.55 60.05 34.25 62.7 33.05 65.15 32.85 68.05 32.6 72.45 34.95 78.95 37.4 85.55 40.7 88.7 43.1 91.05 47.5 92.95 57.6 97.25 69.75 97.35 79.05 97.45 85.3 94.65 89.1 93 91.9 90.25 94.95 87.3 96.25 83.7 97.35 80.8 98.15 78 98.95 75.1 99.6 67.1 99.8 65.35 99.55 64 99.5 64 99.45 64 99.2 64.05 98.95 63.95 98.7 67.05 98 70.25 96.2 77.75 94.95 82 94 85.5 91.25 88.4 88.65 91.15 85.1 92.8 79.25 95.55 70.35 95.55 62.35 95.55 54.1 93.35 44.5 90.75 40.35 85.55 38 82.65 36.3 77.7 33.9 70.8 34.9 66.2 35.55 63.2 37.65 61.05 39.85 58.75 42.7 58.55 43.05 58.55 44.75 58.6 46.05 58.65 46.85 58.45 47 58.4 49.2 56.5 51.4 54.6 59.35 52.05 67.25 49.45 73.1 54.5 78.05 58.7 85.3 55.4 Z"/>

<path fill="#FFFFFF" stroke="none" d="
M 95.5 57.95
Q 93.1 56.15 91.4 55.5 90.9 55.3 88.2 54.45 86.45 53.9 85 53.3 81.55 51.85 80.65 51.35 79.15 50.55 78.95 50.45
L 78.9 50.45
Q 77.9 50 77.05 50 76.4 50.05 76.1 50.3 75.55 50.7 75.85 51.25 76.05 51.55 76.9 51.7 77.8 51.85 79.8 52.85 82.25 54.1 84.9 55.15 85.1 55.25 85.3 55.4 78.05 58.7 73.1 54.5 67.25 49.45 59.35 52.05 51.4 54.6 49.2 56.5 47 58.4 46.85 58.45 46.05 58.65 44.75 58.6 43.05 58.55 42.7 58.55 39.85 58.75 37.65 61.05 35.55 63.2 34.9 66.2 33.9 70.8 36.3 77.7 38 82.65 40.35 85.55 44.5 90.75 54.1 93.35 62.35 95.55 70.35 95.55 79.25 95.55 85.1 92.8 88.65 91.15 91.25 88.4 94 85.5 94.95 82 96.2 77.75 98 70.25 98.7 67.05 98.95 63.95 99.2 64.05 99.45 64 99.5 64 99.55 64 99.85 63.85 100 63.5 100.15 63.2 99.75 62.55 99.05 61.35 98.65 60.85 97.6 59.45 95.5 57.95 Z"/>
</g>

<g id="Layer2_0_FILL">
<path fill="#000000" stroke="none" d="
M 68.25 95.55
Q 66.65 95.05 64.8 95.4 63.1 95.75 61.6 96.75 59.25 98.25 56.8 101.8 53.85 106.05 51.75 110.95 51.15 112.5 49.75 116.55 49.35 117.95 49.35 118.35 49.35 118.45 49.4 118.55 49 118.85 48.85 119.5
L 48.4 120.95
Q 48.25 121.6 48.5 122 48.65 122.25 49.3 122.45 50.05 122.55 51.6 122.55
L 74.45 122.55
Q 75.6 122.55 76.15 122.35 76.6 122.2 77.15 121.75 77.3 121.8 77.45 121.85 77.85 121.9 78.05 121.6 78.2 121.45 78.2 120.85 78.2 120.75 78.2 120.7 78.65 120.1 78.65 119.75 78.7 119.15 78.05 118.55
L 78 118.55
Q 77.85 116.5 77.65 115.25 76.85 108.9 74.45 102.9 73.35 100.15 72.15 98.5 70.5 96.3 68.25 95.55
M 62.45 98.15
Q 64.6 96.75 66.8 97.05 69.15 97.45 70.8 99.6 72 101 73.05 103.85 75.7 110.85 76.4 118.4 76.35 118.4 76.35 118.45 76.1 118.7 76.15 119 76.2 119.25 76.4 119.7 76.45 120.05 76.1 120.4 75.65 120.8 74.45 120.8
L 50.3 120.8
Q 50.3 120.55 50.55 120 50.85 119.5 50.8 119.2 50.8 119.1 50.8 119 50.9 118.85 50.95 118.55 53.1 112.1 54.2 109.6 56.15 105.2 59.2 101.4 60.9 99.2 62.45 98.15
M 45.3 81.8
Q 45.1 81.1 44.4 81 43.75 80.9 43.2 81.4 42.8 81.7 42.35 82.5 41.95 83.25 41.95 83.65 41.95 84.45 42.6 84.65 43.05 84.8 43.5 84.45 43.8 84.3 44.15 83.7 44.25 84.4 44.4 84.65 44.7 85.15 45.25 85.15 45.7 85.15 46.35 84.45 46.95 83.75 47.45 83.85 47.4 84.45 47.7 84.8 48.1 85.35 48.65 85.15 48.8 85.1 49.5 84.5
L 49.9 84.2
Q 50.2 84.05 50.25 83.85 50.65 83.25 50.2 82.8 49.75 82.3 49.1 82.65 49.25 82.3 48.95 81.85 48.65 81.45 48.2 81.4 47.45 81.4 46.6 82.1 45.9 82.65 45.55 82.3 45.4 82 45.3 81.8
M 58.7 85.05
Q 58.6 85.5 58.85 85.8 59 86.05 59.45 86.25 60 86.55 60.85 86.65
L 63.35 86.7
Q 64.1 86.7 64.45 86.55 64.65 86.4 65 85.95
L 66.25 84.45
Q 67.1 85.05 68.4 85.25 69.1 85.35 70.65 85.4
L 71.5 85.4
Q 72.05 85.5 72.3 85.35 72.65 85.15 72.7 84.75 72.75 84.35 72.55 84.1 72.2 83.7 71.2 83.7 69.9 83.65 68.4 83.35 67.55 83.2 67.2 82.95 66.8 82.6 66.65 82.5 66.25 82.25 65.8 82.25 65.35 82.25 65.05 82.6 64.85 82.8 64.7 83.4 64.55 83.8 63.95 84.45
L 63.6 84.8
Q 63.35 84.9 62.95 84.9
L 61.65 84.9
Q 60.8 84.9 60.45 84.65
L 60 84.25
Q 59.75 84.05 59.55 84 59.1 84 58.9 84.35 58.7 84.6 58.7 85.05
M 44.95 69.9
Q 44.5 70.6 44.95 71.35 45.2 71.75 45.5 71.95 45.75 72 46.25 72
L 47.6 72
Q 48.25 72 48.45 71.8 48.65 71.65 48.7 71.3 48.8 70.8 48.65 70.45 48.55 70.15 48.25 69.85 47.9 69.5 47.7 69.45 47.4 69.3 46.8 69.3 46.05 69.35 45.85 69.3 45.3 69.45 44.95 69.9
M 35.35 67
Q 35.75 67.35 36.65 66.85 40.4 64.75 44.35 63.3 45.55 62.85 46.2 62.75
L 51.5 62.7
Q 53.65 62.7 54.7 63.05 55.3 63.2 55.4 63.2 55.85 63.25 56.1 63.05 56.55 62.7 56.2 62.1 56 61.8 55.45 61.45 54.55 61 52.55 61
L 47.75 61
Q 45.8 61 45.1 61.2 44.15 61.35 42.45 62.15
L 37.4 64.4
Q 36.05 65.05 35.55 65.5 35.25 65.85 35.1 66.2 35 66.8 35.35 67
M 86.05 82.7
Q 85.85 82.9 85.75 82.95 85.55 83.05 85.45 83 85.3 82.95 85.05 82.6 84.75 82.2 84.05 82.35 83.65 82.55 83.1 83 83.1 82.55 82.85 82.25 82.55 81.85 82.15 81.9 81.8 82 81.45 82.7
L 81.05 83.8
Q 80.6 85.2 81.25 85.65 81.85 86.05 82.6 85.6 83 85.35 83.75 84.75 84 85.45 84.85 85.45 85.45 85.45 86.35 84.65 87.35 83.9 87.95 84.2 88.2 84.8 88.5 85.1 88.85 85.6 89.45 85.45 89.95 85.3 90.2 84.45
L 90.65 83.15
Q 90.9 82.25 90.5 81.95 90.3 81.75 89.8 81.85 89.3 82 89.05 82 88.55 81.95 88.3 82 88.1 82 87.8 82.2 87.35 82.4 87.25 82.45 87.1 82.5 86.65 82.55 86.25 82.6 86.05 82.7
M 85.1 67.75
Q 84.3 67.75 83.9 68 83.65 68.2 83.55 68.5 83.4 68.8 83.6 69.05 82.9 69.3 82.7 69.5 82.25 69.8 82.15 70.25 82.15 70.75 82.55 71.1 82.9 71.4 83.4 71.55 84.5 71.9 86.3 71.8 87.05 71.8 87.35 71.6 87.85 71.2 87.65 69.95 87.35 68.45 86.5 68 86.1 67.75 85.1 67.75
M 87 60.55
Q 85.95 60.4 84.4 60.4 82.7 60.4 81.85 60.4 80.55 60.4 80.3 60.4 79.45 60.5 77.8 61.2 77.25 61.4 76.8 61.7 76.3 62.15 76.3 62.7 76.3 63.4 77 63.45 77.35 63.45 77.9 63.05 78.8 62.4 80.1 62.2 80.9 62.05 82.55 62 84.85 62 85.95 62.2 86.9 62.3 87.8 62.55 91.35 63.55 94.35 65.6 95.25 66.3 95.75 65.9 96.2 65.6 95.95 64.9 95.75 64.45 95.2 64.05 93.45 62.85 89.7 61.4 87.9 60.7 87 60.55 Z"/>

<path fill="#FFFFFF" stroke="none" d="
M 66.8 97.05
Q 64.6 96.75 62.45 98.15 60.9 99.2 59.2 101.4 56.15 105.2 54.2 109.6 53.1 112.1 50.95 118.55 50.9 118.85 50.8 119 50.8 119.1 50.8 119.2 50.85 119.5 50.55 120 50.3 120.55 50.3 120.8
L 74.45 120.8
Q 75.65 120.8 76.1 120.4 76.45 120.05 76.4 119.7 76.2 119.25 76.15 119 76.1 118.7 76.35 118.45 76.35 118.4 76.4 118.4 75.7 110.85 73.05 103.85 72 101 70.8 99.6 69.15 97.45 66.8 97.05 Z"/>
</g>

<g id="Layer1_0_FILL">
<path fill="#000000" stroke="none" d="
M 102.85 37.2
Q 101.95 31.2 101.1 27.35 100.8 26.35 100.4 26.25 100.15 26.25 99.95 26.3 99.65 26.3 99.3 26.4 96.3 27.2 91.95 29.9 86.05 33.6 75.95 41.8
L 76.3 40.55
Q 77 37.95 77.15 36.6 77.2 36.25 77.2 35.95 77.15 35.9 77.2 35.85 77.15 35.7 77.1 35.6 76.9 35 76.35 35 76.1 35 75.9 35.15 75.8 35.15 75.65 35.15 71.8 35.65 64.35 37.35 59.7 38.45 57.5 39.35 55.9 39.95 54.15 40.9 53.6 41.15 53.25 41.45 46.95 35.05 43.5 31.9 37.25 26.3 31.5 22.9 31 22.5 30.45 22.45 30.1 22.45 29.85 22.6 29.75 22.65 29.55 22.8 29.3 23.05 29.2 23.85 29.05 26.25 28 30.85 26.1 39.6 24.6 45.8 24.45 46.25 24.45 46.6 24.2 46.85 23.95 47.4 22.85 49.7 21.4 53.65 21.45 53.7 21.55 53.75 21.45 54 21.35 54.3 20.65 56.9 20.3 61
L 19.95 64.7
Q 19.7 67.65 19.65 71.25 19.45 75.8 19.65 82.6 19.65 83.25 19.75 83.55 20.05 84.15 20.55 83.95 20.95 83.85 21.15 83.05 21.6 80.8 22.3 74.4 22.9 69 23.8 65.95 24 74.45 24.95 80.55 26.9 93 31.95 102.15 32 102.55 32.25 103.1 34.95 108.25 39.45 111.85 40.6 112.7 41.15 112.15 41.5 111.85 41.4 110.95
L 36.35 75.15
Q 37.85 74.1 39.85 72.8 44.75 69.6 46.75 68.1 50.35 65.4 55.4 60.4 59.65 56.25 61.85 54.15
L 61.65 64.95
Q 61.65 66.35 62.15 66.75 62.7 67.15 64.05 66.8 78.9 62.05 93.15 55.85 93.8 58.25 94.05 61.3 94.25 63.4 94.3 67.1 94.3 67.65 94.3 68.15 94.1 70.5 94 74.05 93.85 76.15 93.15 83.9
L 92.85 87.15
Q 92.1 94.45 91.6 98.05 90.85 104.1 89.8 108.85 89.7 109.2 89.7 109.45 89.25 110.05 89.15 110.55 88.95 111.25 89.45 111.5 90.1 111.85 91 110.75 91.3 110.35 91.7 109.85 91.8 109.75 91.95 109.5 100.3 98.15 103.6 80.2 104.4 76.1 104.8 72
L 105.5 77.25 105.6 79.7
Q 105.5 83.6 105.65 84.7
L 105.9 87
Q 105.8 87.8 105.9 88.1 106.15 88.85 106.7 88.8 107.3 88.75 107.45 87.7
L 108.05 84
Q 108.05 82.75 108.15 82.1 108.25 81.4 108.5 80.25 108.95 78.7 109 78.4
L 109.25 77.15
Q 109.4 76 109.4 73.8 109.5 73.75 109.6 73.7 110 73.5 110 72.45 109.85 68.6 109.05 64.15 108.65 61.85 107.75 57.9
L 107.25 55.9
Q 106.3 52 104.35 47.85 104.4 47.4 104.3 46.75
L 102.85 37.2 Z"/>
</g>

<path id="Layer0_0_1_STROKES" stroke="#000000" stroke-width="16" stroke-linejoin="miter" stroke-linecap="square" stroke-miterlimit="3" fill="none" d="
M 0 0
L 128 0 128 128 0 128 0 0 Z"/>
</defs>

<g transform="matrix( 1, 0, 0, 1, 0,0) ">
<use xlink:href="#Layer4_0_FILL"/>
</g>

<g transform="matrix( 1, 0, 0, 1, 0,0) ">
<use xlink:href="#Layer3_0_FILL"/>
</g>

<g transform="matrix( 1, 0, 0, 1, 0,0) ">
<use xlink:href="#Layer2_0_FILL"/>
</g>

<g transform="matrix( 1, 0, 0, 1, 0,0) ">
<use xlink:href="#Layer1_0_FILL"/>
</g>

<g transform="matrix( 1, 0, 0, 1, 0,0) ">
<use xlink:href="#Layer0_0_1_STROKES"/>
</g>
</svg>
