
<svg xmlns="http://www.w3.org/2000/svg" version="1.1" xmlns:xlink="http://www.w3.org/1999/xlink" preserveAspectRatio="none" x="0px" y="0px" width="600px" height="120px" viewBox="0 0 600 120">
<defs>
<filter id="Filter_1" x="-20%" y="-20%" width="140%" height="140%" color-interpolation-filters="sRGB">
<feColorMatrix in="SourceGraphic" type="matrix" values="1 0 0 0 0 0 1 0 0 0 0 0 1 0 0 0 0 0 0.5 0" result="result1"/>
</filter>

<g id="Layer2_0_FILL">
<path fill="#FFFFFF" stroke="none" d="
M 600 120
L 600 0.2 0 0.2 0 120 600 120 Z"/>
</g>

<g id="bits_0_Layer0_0_FILL">
<path fill="#000000" stroke="none" d="
M 20 21.7
L 0 21.7 0 41.7 20 41.7 20 21.7
M 193.6 86.8
L 173.6 86.8 173.6 106.8 193.6 106.8 193.6 86.8
M 173.6 85.1
L 193.6 85.1 193.6 65.1 173.6 65.1 173.6 85.1
M 193.6 43.4
L 173.6 43.4 173.6 63.4 193.6 63.4 193.6 43.4
M 193.6 20
L 193.6 0 173.6 0 173.6 20 193.6 20
M 302.1 63.4
L 302.1 43.4 282.1 43.4 282.1 63.4 302.1 63.4
M 302.1 86.8
L 282.1 86.8 282.1 106.8 302.1 106.8 302.1 86.8
M 323.8 86.8
L 303.8 86.8 303.8 106.8 323.8 106.8 323.8 86.8
M 323.8 65.1
L 303.8 65.1 303.8 85.1 323.8 85.1 323.8 65.1
M 282.1 65.1
L 282.1 85.1 302.1 85.1 302.1 65.1 282.1 65.1
M 302.1 41.7
L 302.1 21.7 282.1 21.7 282.1 41.7 302.1 41.7
M 323.8 21.7
L 303.8 21.7 303.8 41.7 323.8 41.7 323.8 21.7
M 367.2 86.8
L 347.2 86.8 347.2 106.8 367.2 106.8 367.2 86.8
M 367.2 63.4
L 367.2 43.4 347.2 43.4 347.2 63.4 367.2 63.4
M 368.9 65.1
L 368.9 85.1 388.9 85.1 388.9 65.1 368.9 65.1
M 345.5 86.8
L 325.5 86.8 325.5 106.8 345.5 106.8 345.5 86.8
M 347.2 65.1
L 347.2 85.1 367.2 85.1 367.2 65.1 347.2 65.1
M 345.5 41.7
L 345.5 21.7 325.5 21.7 325.5 41.7 345.5 41.7
M 388.9 43.4
L 368.9 43.4 368.9 63.4 388.9 63.4 388.9 43.4
M 368.9 21.7
L 368.9 41.7 388.9 41.7 388.9 21.7 368.9 21.7
M 367.2 20
L 367.2 0 347.2 0 347.2 20 367.2 20
M 388.9 20
L 388.9 0 368.9 0 368.9 20 388.9 20
M 215.3 41.7
L 215.3 21.7 195.3 21.7 195.3 41.7 215.3 41.7
M 215.3 20
L 215.3 0 195.3 0 195.3 20 215.3 20
M 237 20
L 237 0 217 0 217 20 237 20
M 280.4 21.7
L 260.4 21.7 260.4 41.7 280.4 41.7 280.4 21.7
M 258.7 20
L 258.7 0 238.7 0 238.7 20 258.7 20
M 280.4 20
L 280.4 0 260.4 0 260.4 20 280.4 20
M 215.3 86.8
L 195.3 86.8 195.3 106.8 215.3 106.8 215.3 86.8
M 195.3 63.4
L 215.3 63.4 215.3 43.4 195.3 43.4 195.3 63.4
M 237 43.4
L 217 43.4 217 63.4 237 63.4 237 43.4
M 258.7 85.1
L 258.7 65.1 238.7 65.1 238.7 85.1 258.7 85.1
M 237 85.1
L 237 65.1 217 65.1 217 85.1 237 85.1
M 280.4 85.1
L 280.4 65.1 260.4 65.1 260.4 85.1 280.4 85.1
M 238.7 106.8
L 258.7 106.8 258.7 86.8 238.7 86.8 238.7 106.8
M 0 20
L 20 20 20 0 0 0 0 20
M 41.7 41.7
L 41.7 21.7 21.7 21.7 21.7 41.7 41.7 41.7
M 63.4 21.7
L 43.4 21.7 43.4 41.7 63.4 41.7 63.4 21.7
M 150.2 86.8
L 130.2 86.8 130.2 106.8 150.2 106.8 150.2 86.8
M 85.1 20
L 85.1 0 65.1 0 65.1 20 85.1 20
M 106.8 20
L 106.8 0 86.8 0 86.8 20 106.8 20
M 128.5 41.7
L 128.5 21.7 108.5 21.7 108.5 41.7 128.5 41.7
M 150.2 43.4
L 130.2 43.4 130.2 63.4 150.2 63.4 150.2 43.4
M 130.2 41.7
L 150.2 41.7 150.2 21.7 130.2 21.7 130.2 41.7
M 171.9 20
L 171.9 0 151.9 0 151.9 20 171.9 20
M 63.4 43.4
L 43.4 43.4 43.4 63.4 63.4 63.4 63.4 43.4
M 106.8 85.1
L 106.8 65.1 86.8 65.1 86.8 85.1 106.8 85.1
M 20 86.8
L 0 86.8 0 106.8 20 106.8 20 86.8
M 41.7 86.8
L 21.7 86.8 21.7 106.8 41.7 106.8 41.7 86.8
M 128.5 86.8
L 108.5 86.8 108.5 106.8 128.5 106.8 128.5 86.8
M 106.8 86.8
L 86.8 86.8 86.8 106.8 106.8 106.8 106.8 86.8
M 85.1 85.1
L 85.1 65.1 65.1 65.1 65.1 85.1 85.1 85.1
M 108.5 65.1
L 108.5 85.1 128.5 85.1 128.5 65.1 108.5 65.1
M 41.7 43.4
L 21.7 43.4 21.7 63.4 41.7 63.4 41.7 43.4
M 20 43.4
L 0 43.4 0 63.4 20 63.4 20 43.4
M 85.1 63.4
L 85.1 43.4 65.1 43.4 65.1 63.4 85.1 63.4
M 128.5 43.4
L 108.5 43.4 108.5 63.4 128.5 63.4 128.5 43.4 Z"/>
</g>

<g id="Layer0_1_MEMBER_0_MEMBER_0_MEMBER_0_FILL">
<path fill="#FFFFFF" stroke="none" d="
M 149.25 39.7
L 132.55 32.55 145.6 25.25 105.15 20.25
Q 98 16.75 88.05 16.15
L 87.25 16.15
Q 77.2 16.75 70.15 20.25
L 29.7 25.25 42.75 32.55 26 39.7 38.5 44.05 23.5 54.25 30.25 54.25 26.75 60 49.65 58
Q 49.5 59.65 49.5 62.95
L 27.35 66.45 39.5 79.95 25.7 99.7 56.9 95.6 58.55 96.45
Q 73.35 103.9 87.65 103.95 102.05 103.9 116.65 96.45
L 118.4 95.6 149.6 99.7 135.8 79.95 147.9 66.45 125.75 62.95
Q 125.75 59.65 125.65 58
L 148.5 60 145 54.25 151.75 54.25 136.75 44.05 149.25 39.7
M 96.4 37
L 94.05 37 87.65 54.35 96.4 29.25 96.4 37 Z"/>
</g>

<g id="Layer0_2_FILL">
<path fill="#000000" stroke="none" d="
M 449.7 5.75
L 449.7 39.6 483.7 39.6 483.7 5.75 449.7 5.75
M 185.1 77.45
L 219.1 77.45 219.1 43.55 185.1 43.55 185.1 77.45
M 192.65 69.85
L 192.65 51.05 211.45 51.05 211.45 62.3 196.25 62.3 196.25 69.85 192.65 69.85
M 196.45 54.85
L 196.45 58.55 207.65 58.55 207.65 54.85 196.45 54.85
M 219.2 81.35
L 185.2 81.35 185.2 115.2 219.2 115.2 219.2 81.35
M 223.15 81.35
L 223.15 115.2 257.1 115.2 257.1 81.35 223.15 81.35
M 260.7 43.55
L 260.7 77.45 294.7 77.45 294.7 43.55 260.7 43.55
M 283.45 54.75
L 283.45 51.05 287.1 51.05 287.1 54.75 283.45 54.75
M 279.7 54.85
L 283.35 54.85 283.35 58.55 279.7 58.55 279.7 54.85
M 275.8 54.85
L 275.8 58.55 272.1 58.55 272.1 54.85 275.8 54.85
M 275.85 58.6
L 279.6 58.6 279.6 62.3 275.85 62.3 275.85 58.6
M 268.35 51.05
L 272.05 51.05 272.05 54.75 268.35 54.75 268.35 51.05
M 268.35 66.2
L 272.05 66.2 272.05 69.85 268.35 69.85 268.35 66.2
M 272.1 66.05
L 272.1 62.45 275.8 62.45 275.8 66.05 272.1 66.05
M 279.7 62.45
L 283.35 62.45 283.35 66.05 279.7 66.05 279.7 62.45
M 283.45 69.85
L 283.45 66.2 287.1 66.2 287.1 69.85 283.45 69.85
M 256.95 77.45
L 256.95 43.55 222.95 43.55 222.95 77.45 256.95 77.45
M 245.5 51.05
L 245.5 54.75 241.75 54.75 241.75 66.2 245.5 66.2 245.5 69.85 234.35 69.85 234.35 66.2 238.1 66.2 238.1 54.75 234.35 54.75 234.35 51.05 245.5 51.05
M 294.7 81.35
L 260.7 81.35 260.7 115.2 294.7 115.2 294.7 81.35
M 332.45 77.45
L 332.45 43.55 298.45 43.55 298.45 77.45 332.45 77.45
M 324.85 66.2
L 324.85 69.85 306.1 69.85 306.1 51.05 324.85 51.05 324.85 54.75 309.85 54.75 309.85 58.6 321.1 58.6 321.1 62.3 309.85 62.3 309.85 66.2 324.85 66.2
M 336.35 43.55
L 336.35 77.45 370.35 77.45 370.35 43.55 336.35 43.55
M 362.7 66.2
L 362.7 69.85 343.85 69.85 343.85 51.05 347.6 51.05 347.6 66.2 362.7 66.2
M 411.95 43.55
L 411.95 77.45 445.95 77.45 445.95 43.55 411.95 43.55
M 427.1 69.85
L 427.1 54.75 419.6 54.75 419.6 51.05 438.35 51.05 438.35 54.75 430.85 54.75 430.85 69.85 427.1 69.85
M 408.2 77.45
L 408.2 43.55 374.2 43.55 374.2 77.45 408.2 77.45
M 385.45 66.05
L 385.45 69.85 381.8 69.85 381.8 51.05 400.6 51.05 400.6 69.85 396.85 69.85 396.85 66.05 385.45 66.05
M 396.8 62.3
L 396.8 54.85 385.6 54.85 385.6 62.3 396.8 62.3
M 483.85 43.55
L 449.85 43.55 449.85 77.45 483.85 77.45 483.85 43.55
M 472.35 51.05
L 472.35 54.75 468.6 54.75 468.6 66.2 472.35 66.2 472.35 69.85 461.2 69.85 461.2 66.2 464.95 66.2 464.95 54.75 461.2 54.75 461.2 51.05 472.35 51.05
M 525.35 77.45
L 559.35 77.45 559.35 43.55 525.35 43.55 525.35 77.45
M 548.05 51.05
L 551.75 51.05 551.75 69.85 548.05 69.85 548.05 66.05 544.3 66.05 544.3 62.35 548.05 62.35 548.05 51.05
M 540.35 58.6
L 544.3 58.6 544.3 62.3 540.35 62.3 540.35 58.6
M 540.35 54.85
L 540.35 58.55 536.6 58.55 536.6 69.85 532.9 69.85 532.9 51.05 536.6 51.05 536.6 54.85 540.35 54.85
M 521.5 43.55
L 487.45 43.55 487.45 77.45 521.5 77.45 521.5 43.55
M 513.9 51.05
L 513.9 69.85 495.1 69.85 495.1 51.05 513.9 51.05
M 510.1 66.05
L 510.1 54.85 498.95 54.85 498.95 66.05 510.1 66.05
M 487.45 39.6
L 521.5 39.6 521.5 5.75 487.45 5.75 487.45 39.6
M 559.35 39.6
L 559.35 5.75 525.35 5.75 525.35 39.6 559.35 39.6 Z"/>

<path fill="#FFFFFF" stroke="none" d="
M 192.65 51.05
L 192.65 69.85 196.25 69.85 196.25 62.3 211.45 62.3 211.45 51.05 192.65 51.05
M 196.45 58.55
L 196.45 54.85 207.65 54.85 207.65 58.55 196.45 58.55
M 283.45 66.2
L 283.45 69.85 287.1 69.85 287.1 66.2 283.45 66.2
M 283.35 62.45
L 279.7 62.45 279.7 66.05 283.35 66.05 283.35 62.45
M 272.1 62.45
L 272.1 66.05 275.8 66.05 275.8 62.45 272.1 62.45
M 272.05 66.2
L 268.35 66.2 268.35 69.85 272.05 69.85 272.05 66.2
M 272.05 51.05
L 268.35 51.05 268.35 54.75 272.05 54.75 272.05 51.05
M 279.6 58.6
L 275.85 58.6 275.85 62.3 279.6 62.3 279.6 58.6
M 275.8 58.55
L 275.8 54.85 272.1 54.85 272.1 58.55 275.8 58.55
M 283.35 54.85
L 279.7 54.85 279.7 58.55 283.35 58.55 283.35 54.85
M 283.45 51.05
L 283.45 54.75 287.1 54.75 287.1 51.05 283.45 51.05
M 245.5 54.75
L 245.5 51.05 234.35 51.05 234.35 54.75 238.1 54.75 238.1 66.2 234.35 66.2 234.35 69.85 245.5 69.85 245.5 66.2 241.75 66.2 241.75 54.75 245.5 54.75
M 324.85 69.85
L 324.85 66.2 309.85 66.2 309.85 62.3 321.1 62.3 321.1 58.6 309.85 58.6 309.85 54.75 324.85 54.75 324.85 51.05 306.1 51.05 306.1 69.85 324.85 69.85
M 362.7 69.85
L 362.7 66.2 347.6 66.2 347.6 51.05 343.85 51.05 343.85 69.85 362.7 69.85
M 427.1 54.75
L 427.1 69.85 430.85 69.85 430.85 54.75 438.35 54.75 438.35 51.05 419.6 51.05 419.6 54.75 427.1 54.75
M 385.45 69.85
L 385.45 66.05 396.85 66.05 396.85 69.85 400.6 69.85 400.6 51.05 381.8 51.05 381.8 69.85 385.45 69.85
M 396.8 54.85
L 396.8 62.3 385.6 62.3 385.6 54.85 396.8 54.85
M 472.35 54.75
L 472.35 51.05 461.2 51.05 461.2 54.75 464.95 54.75 464.95 66.2 461.2 66.2 461.2 69.85 472.35 69.85 472.35 66.2 468.6 66.2 468.6 54.75 472.35 54.75
M 540.35 58.55
L 540.35 54.85 536.6 54.85 536.6 51.05 532.9 51.05 532.9 69.85 536.6 69.85 536.6 58.55 540.35 58.55
M 544.3 58.6
L 540.35 58.6 540.35 62.3 544.3 62.3 544.3 58.6
M 551.75 51.05
L 548.05 51.05 548.05 62.35 544.3 62.35 544.3 66.05 548.05 66.05 548.05 69.85 551.75 69.85 551.75 51.05
M 513.9 69.85
L 513.9 51.05 495.1 51.05 495.1 69.85 513.9 69.85
M 510.1 54.85
L 510.1 66.05 498.95 66.05 498.95 54.85 510.1 54.85 Z"/>
</g>

<path id="Layer0_0_1_STROKES" stroke="#333333" stroke-width="1" stroke-linejoin="round" stroke-linecap="round" fill="none" d="
M 528.45 -28.6
L 527.55 -28.7"/>

<path id="Layer0_0_2_STROKES" stroke="#000000" stroke-width="12" stroke-linejoin="miter" stroke-linecap="butt" stroke-miterlimit="1" fill="none" d="
M 0 0.2
L 600 0.2 600 120 0 120 0 0.2 Z"/>

<path id="Layer0_1_MEMBER_1_MEMBER_0_1_STROKES" stroke="#000000" stroke-width="4" stroke-linejoin="miter" stroke-linecap="butt" stroke-miterlimit="2" fill="none" d="
M 105.15 20.25
L 145.6 25.25 132.55 32.55 149.25 39.7 136.75 44.05 151.75 54.25 145 54.25 148.5 60 125.65 58
Q 125.75 59.65 125.75 62.95
L 147.9 66.45 135.8 79.95 149.6 99.7 118.4 95.6 117.65 95.95 116.65 96.45
Q 102.05 103.9 87.65 103.95 73.35 103.9 58.55 96.45
L 57.65 95.95 56.9 95.6 25.7 99.7 39.5 79.95 27.35 66.45 49.5 62.95
Q 49.5 59.65 49.65 58
L 26.75 60 30.25 54.25 23.5 54.25 38.5 44.05 26 39.7 42.75 32.55 29.7 25.25 70.15 20.25
Q 77.2 16.75 87.25 16.15
L 88.05 16.15
Q 98 16.75 105.15 20.25 114.1 24.55 118.65 33.45 124.85 46.1 125.65 58
M 49.5 62.95
L 50.2 78.85 55.25 70.2 59.05 83.2 65.55 47.1 69.9 61.3 77.55 43.75 84.55 61.5 96.4 29.25 105.4 61.3 109.75 47.1 116.15 83.2 120.05 70.2 125.05 78.85 125.65 63.5 125.75 63 125.75 62.95
M 126.65 90.85
Q 122.3 93.4 117.65 95.95
M 70.15 20.25
Q 61.15 24.55 56.65 33.45 50.4 46.1 49.65 58
M 48.65 90.85
Q 52.95 93.4 57.65 95.95"/>
</defs>

<g transform="matrix( 1, 0, 0, 1, 0,0) ">
<use xlink:href="#Layer2_0_FILL"/>
</g>

<g transform="matrix( 1, 0, 0, 1, 178.75,5.75) ">
<g transform="matrix( 1, 0, 0, 1, 0,0) ">
<use filter="url(#Filter_1)" xlink:href="#bits_0_Layer0_0_FILL"/>
</g>
</g>

<g transform="matrix( 1, 0, 0, 1, 0,0) ">
<use xlink:href="#Layer0_0_1_STROKES"/>

<use xlink:href="#Layer0_0_2_STROKES"/>
</g>

<g transform="matrix( 1, 0, 0, 1, 0,0) ">
<use xlink:href="#Layer0_1_MEMBER_0_MEMBER_0_MEMBER_0_FILL"/>
</g>

<g transform="matrix( 1, 0, 0, 1, 0,0) ">
<use xlink:href="#Layer0_1_MEMBER_1_MEMBER_0_1_STROKES"/>
</g>

<g transform="matrix( 1, 0, 0, 1, 0,0) ">
<use xlink:href="#Layer0_2_FILL"/>
</g>
</svg>
