
<svg xmlns="http://www.w3.org/2000/svg" version="1.1" xmlns:xlink="http://www.w3.org/1999/xlink" preserveAspectRatio="none" x="0px" y="0px" width="600px" height="120px" viewBox="0 0 600 120">
<defs>
<g id="Layer1_0_FILL">
<path fill="#FFFFFF" stroke="none" d="
M 600 120
L 600 0.2 0 0.2 0 120 600 120 Z"/>
</g>

<g id="Layer0_0_FILL">
<path fill="#FFFFFF" stroke="none" d="
M 57.1 34.9
Q 61.65 26 70.6 21.7
L 30.15 26.7 43.2 34.05 26.5 41.15 39 45.55 24 55.75 30.75 55.75 27.25 61.5 50.1 59.5
Q 50.9 47.55 57.1 34.9
M 96.85 38.45
L 94.5 38.45 88.1 55.85 94.6 37 85 63 78 45.25 70.35 62.8 66 48.6 59.55 84.65 55.7 71.65 50.65 80.3
Q 50.15 68.75 50.05 65 50 64.75 50 64.5 50 64.45 50 64.4
L 27.8 67.95 39.95 81.4 26.15 101.15 57.35 97.05
Q 57.6 97.2 58.1 97.45 53.45 94.9 49.1 92.35 53.45 94.9 58.1 97.45 58.55 97.7 59.05 97.95 73.75 105.35 88.1 105.4 102.45 105.35 117.15 97.95 117.65 97.7 118.1 97.45 122.75 94.9 127.1 92.35 122.75 94.9 118.1 97.45 118.6 97.2 118.85 97.05
L 150.05 101.15 136.25 81.4 148.4 67.95 126.2 64.4
Q 126.2 64.45 126.2 64.5 126.2 64.75 126.15 65 126.05 68.75 125.55 80.3
L 120.5 71.65 116.65 84.65 110.2 48.6 105.85 62.8 96.85 30.7 96.85 38.45
M 105.6 21.7
Q 98.45 18.2 88.5 17.65
L 87.7 17.65
Q 77.75 18.2 70.6 21.7 61.65 26 57.1 34.9 50.9 47.55 50.1 59.5 49.95 61.95 50 64.4 50 64.45 50 64.5 50 64.75 50.05 65 50.15 68.75 50.65 80.3
L 55.7 71.65 59.55 84.65 66 48.6 70.35 62.8 78 45.25 85 63 94.6 37 96.85 30.7 105.85 62.8 110.2 48.6 116.65 84.65 120.5 71.65 125.55 80.3
Q 126.05 68.75 126.15 65 126.2 64.75 126.2 64.5 126.2 64.45 126.2 64.4 126.25 61.95 126.1 59.5 125.3 47.55 119.1 34.9 114.55 26 105.6 21.7
M 137.2 45.55
L 149.7 41.15 133 34.05 146.05 26.7 105.6 21.7
Q 114.55 26 119.1 34.9 125.3 47.55 126.1 59.5
L 148.95 61.5 145.45 55.75 152.2 55.75 137.2 45.55 Z"/>

<path fill="#000000" stroke="none" d="
M 185 76.15
L 191.85 76.15 191.85 62.4 219.15 62.4 219.15 42 185 42 185 76.15
M 191.85 48.85
L 212.2 48.85 212.2 55.55 191.85 55.55 191.85 48.85
M 280.75 69.45
L 280.75 76.15 287.5 76.15 287.5 69.45 280.75 69.45
M 267.3 55.7
L 267.3 62.4 274.05 62.4 274.05 55.7 267.3 55.7
M 280.75 62.65
L 274.05 62.65 274.05 69.2 280.75 69.2 280.75 62.65
M 260.25 69.45
L 260.55 69.45 260.55 69.2 260.25 69.2 260.25 69.45
M 260.25 69.45
L 253.6 69.45 253.6 76.15 260.25 76.15 260.25 69.45
M 267.1 69.2
L 267.1 62.4 260.55 62.4 260.55 69.2 267.1 69.2
M 267.3 48.85
L 260.55 48.85 260.55 55.5 267.3 55.5 267.3 48.85
M 260.55 48.85
L 260.55 48.8 260.25 48.8 260.25 48.85 260.55 48.85
M 260.25 42.05
L 253.6 42.05 253.6 48.8 260.25 48.8 260.25 42.05
M 246.6 48.7
L 246.6 42 226.1 42 226.1 48.7 233 48.7 233 69.4 226.1 69.4 226.1 76.15 246.6 76.15 246.6 69.4 239.7 69.4 239.7 48.7 246.6 48.7
M 280.75 48.85
L 274.25 48.85 274.25 55.7 280.75 55.7 280.75 48.85
M 281.1 48.8
L 280.75 48.8 280.75 48.85 281.1 48.85 281.1 48.8
M 287.5 48.8
L 287.5 42.05 281.1 42.05 281.1 48.8 287.5 48.8
M 342.6 42.05
L 335.9 42.05 335.9 76.15 369.95 76.15 369.95 69.4 342.6 69.4 342.6 42.05
M 328.8 48.7
L 328.8 42 294.75 42 294.75 76.15 328.8 76.15 328.8 69.45 301.45 69.45 301.45 62.4 322 62.4 322 55.75 301.45 55.75 301.45 48.7 328.8 48.7
M 411.2 76.15
L 411.2 42 377.05 42 377.05 76.15 383.7 76.15 383.7 69.25 404.35 69.25 404.35 76.15 411.2 76.15
M 383.9 48.85
L 404.35 48.85 404.35 62.4 383.9 62.4 383.9 48.85
M 452.25 48.7
L 452.25 42 418.2 42 418.2 48.7 431.9 48.7 431.9 76.15 438.65 76.15 438.65 48.7 452.25 48.7
M 479.8 48.7
L 479.8 42 459.3 42 459.3 48.7 466.2 48.7 466.2 69.4 459.3 69.4 459.3 76.15 479.8 76.15 479.8 69.4 472.9 69.4 472.9 48.7 479.8 48.7
M 548.4 62.35
L 548.4 55.75 541.65 55.75 541.65 62.35 548.4 62.35
M 520.95 42
L 486.8 42 486.8 76.15 520.95 76.15 520.95 42
M 493.65 48.85
L 514.1 48.85 514.1 69.25 493.65 69.25 493.65 48.85
M 562.1 42.05
L 555.35 42.05 555.35 62.55 548.4 62.55 548.4 69.2 555.35 69.2 555.35 76.15 562.1 76.15 562.1 42.05
M 534.6 48.9
L 534.6 42.05 527.95 42.05 527.95 76.15 534.6 76.15 534.6 55.6 541.65 55.6 541.65 48.9 534.6 48.9
M 562.1 32
L 562.1 0 530.1 0 530.1 32 562.1 32
M 486.8 0
L 486.8 32 518.8 32 518.8 0 486.8 0
M 477.1 32
L 477.1 0 445.1 0 445.1 32 477.1 32
M 217 88
L 185 88 185 120 217 120 217 88
M 258.1 120
L 258.1 88 226.1 88 226.1 120 258.1 120
M 302 88
L 270 88 270 120 302 120 302 88 Z"/>
</g>

<path id="Layer0_0_1_STROKES" stroke="#000000" stroke-width="4" stroke-linejoin="miter" stroke-linecap="butt" stroke-miterlimit="2" fill="none" d="
M 126.1 59.5
Q 126.25 61.95 126.2 64.4
L 148.4 67.95 136.25 81.4 150.05 101.15 118.85 97.05
Q 118.6 97.2 118.1 97.45 117.65 97.7 117.15 97.95 102.45 105.35 88.1 105.4 73.75 105.35 59.05 97.95 58.55 97.7 58.1 97.45 57.6 97.2 57.35 97.05
L 26.15 101.15 39.95 81.4 27.8 67.95 50 64.4
Q 49.95 61.95 50.1 59.5
L 27.25 61.5 30.75 55.75 24 55.75 39 45.55 26.5 41.15 43.2 34.05 30.15 26.7 70.6 21.7
Q 77.75 18.2 87.7 17.65
L 88.5 17.65
Q 98.45 18.2 105.6 21.7
L 146.05 26.7 133 34.05 149.7 41.15 137.2 45.55 152.2 55.75 145.45 55.75 148.95 61.5 126.1 59.5
Q 125.3 47.55 119.1 34.9 114.55 26 105.6 21.7
M 94.6 37
L 96.85 30.7 105.85 62.8 110.2 48.6 116.65 84.65 120.5 71.65 125.55 80.3
Q 126.05 68.75 126.15 65 126.2 64.75 126.2 64.5 126.2 64.45 126.2 64.4
M 94.6 37
L 85 63 78 45.25 70.35 62.8 66 48.6 59.55 84.65 55.7 71.65 50.65 80.3
Q 50.15 68.75 50.05 65 50 64.75 50 64.5 50 64.45 50 64.4
M 127.1 92.35
Q 122.75 94.9 118.1 97.45
M 70.6 21.7
Q 61.65 26 57.1 34.9 50.9 47.55 50.1 59.5
M 49.1 92.35
Q 53.45 94.9 58.1 97.45"/>
</defs>

<g transform="matrix( 1, 0, 0, 1, 0,0) ">
<use xlink:href="#Layer1_0_FILL"/>
</g>

<g transform="matrix( 1, 0, 0, 1, 0,0) ">
<use xlink:href="#Layer0_0_FILL"/>

<use xlink:href="#Layer0_0_1_STROKES"/>
</g>
</svg>
