
<svg xmlns="http://www.w3.org/2000/svg" version="1.1" xmlns:xlink="http://www.w3.org/1999/xlink" preserveAspectRatio="none" x="0px" y="0px" width="240px" height="78px" viewBox="0 0 240 78">
<defs>
<g id="Layer1_0_FILL">
<path fill="#FFFFFF" stroke="none" d="
M 240 78
L 240 0 0 0 0 78 240 78 Z"/>
</g>

<g id="Layer0_0_FILL">
<path fill="#000000" stroke="none" d="
M 101.55 18.95
Q 106.35 17.9 106.35 16.55 106.35 15.6 100.75 13.85 95.65 12.25 93.15 12 88.3 10.9 84.2 10.1 83.1 9.8 82.05 9.7 80.6 9.4 79.25 9.15 74.3 8.35 70.85 8.35
L 69.5 8.35
Q 67.75 8.1 65.75 7.95
L 53.5 7.95
Q 52 8.1 50.55 8.5
L 50.4 8.1
Q 44.4 8.35 32.65 11.55 18.9 15.35 18.9 18.45 18.9 18.95 21.95 22.05 19.15 23.4 17.15 24.5 13.55 26.65 13.55 27.7 13.55 28.9 16.75 30 18.5 30.55 20.65 31.05 17.85 32 16.35 32.7 13.55 33.9 13.55 35.1
L 14.35 36.2 23.05 36.2
Q 22.25 36.7 21.3 37.25 14.25 41.7 14.25 42.1 14.25 42.25 14.35 42.5
L 14.25 42.5 14.5 42.75 14.75 42.9
Q 17.85 44.8 26.5 51.4 25.3 51.65 19.95 55 14.65 58.25 14.65 58.5 14.65 59.2 15.55 60.65 21.45 64 29.2 66.05 32.5 67 37.2 67.8 43.6 69 52.4 70.05
L 70.45 70.05
Q 74.55 69.55 79.25 68.6
L 90.7 65.75
Q 104.6 62 104.6 59.05 104.6 58.1 91.65 51.1 104.05 42.1 106.2 40.35
L 106.95 39.2 106.95 38.25
Q 106.25 37.95 104.45 37.25 101.15 36.05 98.6 35.4 94.6 34.45 92.3 33.75
L 104.45 33.75
Q 104.75 33.65 104.85 33.5 105.25 32.95 105.25 32.8 104.75 32 102.35 30.15 99.8 28.25 99.55 27.6 99.8 27.6 101.95 27.05 103.95 26.25 103.95 25 103.95 23.95 95.8 20.45 95.4 20.3 95.15 20.2
L 95.8 20.05
Q 96.35 19.9 101.55 18.95
M 102.75 16.4
L 101.8 16.7
Q 92.05 18.15 92.05 20.3 92.05 21.25 95.8 22.75 100.45 24.6 101.15 25.15 100.75 25.4 98.35 25.95 97 26.25 97 27.45
L 99.8 30.65
Q 100.6 31.5 101.4 32.15
L 91.4 32
Q 90.45 31.9 89.65 31.75
L 89.65 28.25
Q 89.4 21.5 84.7 16.15 83.5 14.65 82.05 13.6 80.7 12.5 79.25 11.7 78.95 11.45 78.55 11.3 78.95 11.3 79.25 11.45 80.7 11.55 82.05 11.85 85.65 12.4 88.6 12.9 90.45 13.3 102.75 16.4
M 82.05 16
Q 82.85 16.7 83.65 17.6 87 21.95 88.05 29.45
L 88.05 40.9
Q 88.85 44.5 89 49.75 87.1 48 86.45 47.9
L 82.7 51
Q 82.6 48.95 82.05 44.8 81.9 43.2 81.65 41.3 81.1 36.3 79.25 33.2 78.55 32.15 77.75 31.35
L 77.65 32.3
Q 77.65 32.55 78.55 36.05
L 73.65 26.9
Q 72.3 23.25 71.35 21.4 70.15 18.95 68.45 18.45
L 58.95 36.45 58.95 35.9
Q 58 32.3 57.5 30.25 56.95 28.25 56.3 26.9 56.95 24.5 57.9 21.4
L 57.6 21.4
Q 57.35 21.5 57.1 21.5 56.8 21.5 56.55 21.4 56.4 21.4 56.3 21.4 55.9 23.95 55.2 25.4 54.8 26.35 51.75 32.15 50.8 33.75 50.4 34.95 48.95 30.4 46.95 28.8 46.95 28.5 46.95 28.25
L 46.8 26.9
Q 45.35 27.05 44.95 28.65 44.8 29.6 44.65 31.35 44.55 31.75 43.35 33.9 42.8 34.95 42.55 35.65
L 42.95 30.65 42.8 28.25
Q 42.15 28.4 41.75 29.05 42 28.4 42.25 27.7
L 42.15 26.9
Q 40 28.1 36.9 37.55 34.25 45.45 33.6 50.05 31.6 48 31.6 47.9 31.3 47.9 30.25 48.4 29.2 48.95 28.9 49.25 29.05 48.15 30.25 41.95 31.6 35.5 32 33.9 34.9 24.1 34.9 23.95 34.9 23.25 34.25 23.25 36.65 19.9 40.15 16.95 46.55 11.55 54 9.7
L 65.5 9.7
Q 73.9 10.5 79.25 13.85 80.7 14.8 82.05 16
M 90.6 48
Q 90.6 41.95 89.65 40.2
L 89.65 34.05
Q 91.65 34.85 98.35 37 103.55 38.75 105 39.15
L 105.25 39.15 103.25 40.35
Q 100.35 41.95 96.35 44.9 91.4 48.7 90.6 50.05
L 90.6 48
M 81.65 54.2
L 86.3 49.75
Q 90.3 52.2 90.45 52.05
L 90.45 51.65
Q 91.1 53 95.95 56.2 99.55 58.65 101.65 59.6 98.05 60.8 89.8 63.6 86.05 64.95 82.05 66.05 80.7 66.3 79.25 66.7 76.45 67.25 73.5 67.8 71.65 68.05 69.9 68.3
L 52.95 68.3
Q 50.55 68.05 48.4 67.8 36 66.3 29.45 64.4 28.1 64 22.35 61.35 17.45 59.2 16.5 59.05 24.75 54.6 27.45 52.7 27.6 53 27.85 53.15
L 30.8 50.15 35.05 53.4
Q 35.3 51.9 36.9 45.2 37.85 41.7 38.25 39.55
L 38.25 53.8
Q 39.35 53.95 40.4 54.2 42.25 54.2 41.85 45.35
L 41.75 40.35 40.8 40.2
Q 40.4 40.5 40.25 40.5 40.25 38.6 38.5 38.45 39.2 34.85 41.05 30.95
L 41.05 31.05
Q 40.95 31.6 40.95 34.7 40.95 36.7 41.75 37.1
L 42.4 36.85 42.4 36.6 43.35 37.55
Q 44.65 36.2 45.75 33.2 46.15 32.3 46.4 31.5 46.8 32.55 47.45 33.9 48.65 36.2 48.95 38.05
L 49.85 38.2 50.25 38.2
Q 52.4 38.2 55.2 30.4 55.35 31.75 55.75 33.2 56.15 35.1 57.6 37.25 58.7 39.15 59.35 39.55 67.35 26.25 68.45 20.6 69.75 22.05 70.7 23.8 71.35 25.15 72.55 28.9 73.25 30.25 75.25 34.95 77.25 38.85 78.45 38.85 78.95 38.85 79.25 38.6 79.8 40.9 81.65 54.2
M 43.75 10.5
Q 45.85 10.1 47.45 9.7 43.45 11.55 38.8 15.6 30.65 22.75 30.65 26.75
L 31.2 27.3 30 32.7
Q 27.45 33.35 23.15 36.05 23.55 35.65 23.55 35.4
L 22.75 34.55 17.7 34.45
Q 23.55 32.7 23.55 30.8 23.55 30 20.65 28.9 17.3 27.85 16.35 27.45 24.9 23.15 24.9 21.95 24.9 21.25 20.9 18.85 22.35 17.75 26.4 15.75 30.5 13.85 33.45 12.9 35.3 12.25 43.75 10.5
M 18.1 42.1
Q 17.7 41.85 17.45 41.7 26.25 36.7 29.6 34.45
L 28.5 39.55
Q 27.3 45.85 27.05 49.75 26.5 49.1 25.85 48.55 22.75 46.15 21.55 45.05 19.45 43.05 18.1 42.1
M 68.15 58.9
L 68.05 57.95
Q 67.9 57.95 49.2 58.5 49.2 58.65 50.8 62.15 53.35 65.75 58.15 65.75 62.95 65.75 65.9 63.2 68.15 61.2 68.15 58.9
M 65.9 59.7
Q 65.35 60.25 64.95 61.2 63.35 64 58.15 64 54.7 64 52.25 61.05 51.85 60.5 51.6 60.1
L 65.9 59.7
M 77.5 40.6
L 76.3 40.6 76.3 39.8
Q 75.65 39.7 74.85 40.1
L 74.85 47.1
Q 74.95 54.05 75.5 54.2
L 76.3 53.95
Q 76.3 53.4 76.45 53 76.95 53.8 77.75 53.8 78.45 53.8 78.55 53.55
L 78.55 41.45 78.45 40.9 77.5 40.75 77.5 40.6
M 100.35 38.45
Q 100.3 38.4 99.9 38.25
L 99.9 39.2 100.35 38.45 Z"/>

<path fill="#FFFFFF" stroke="none" d="
M 17.45 41.7
Q 17.7 41.85 18.1 42.1 19.45 43.05 21.55 45.05 22.75 46.15 25.85 48.55 26.5 49.1 27.05 49.75 27.3 45.85 28.5 39.55
L 29.6 34.45
Q 26.25 36.7 17.45 41.7
M 47.45 9.7
Q 45.85 10.1 43.75 10.5 35.3 12.25 33.45 12.9 30.5 13.85 26.4 15.75 22.35 17.75 20.9 18.85 24.9 21.25 24.9 21.95 24.9 23.15 16.35 27.45 17.3 27.85 20.65 28.9 23.55 30 23.55 30.8 23.55 32.7 17.7 34.45
L 22.75 34.55 23.55 35.4
Q 23.55 35.65 23.15 36.05 27.45 33.35 30 32.7
L 31.2 27.3 30.65 26.75
Q 30.65 22.75 38.8 15.6 43.45 11.55 47.45 9.7
M 86.3 49.75
L 81.65 54.2
Q 79.8 40.9 79.25 38.6 78.95 38.85 78.45 38.85 77.25 38.85 75.25 34.95 73.25 30.25 72.55 28.9 71.35 25.15 70.7 23.8 69.75 22.05 68.45 20.6 67.35 26.25 59.35 39.55 58.7 39.15 57.6 37.25 56.15 35.1 55.75 33.2 55.35 31.75 55.2 30.4 52.4 38.2 50.25 38.2
L 49.85 38.2 48.95 38.05
Q 48.65 36.2 47.45 33.9 46.8 32.55 46.4 31.5 46.15 32.3 45.75 33.2 44.65 36.2 43.35 37.55
L 42.4 36.6 42.4 36.85 41.75 37.1
Q 40.95 36.7 40.95 34.7 40.95 31.6 41.05 31.05
L 41.05 30.95
Q 39.2 34.85 38.5 38.45 40.25 38.6 40.25 40.5 40.4 40.5 40.8 40.2
L 41.75 40.35 41.85 45.35
Q 42.25 54.2 40.4 54.2 39.35 53.95 38.25 53.8
L 38.25 39.55
Q 37.85 41.7 36.9 45.2 35.3 51.9 35.05 53.4
L 30.8 50.15 27.85 53.15
Q 27.6 53 27.45 52.7 24.75 54.6 16.5 59.05 17.45 59.2 22.35 61.35 28.1 64 29.45 64.4 36 66.3 48.4 67.8 50.55 68.05 52.95 68.3
L 69.9 68.3
Q 71.65 68.05 73.5 67.8 76.45 67.25 79.25 66.7 80.7 66.3 82.05 66.05 86.05 64.95 89.8 63.6 98.05 60.8 101.65 59.6 99.55 58.65 95.95 56.2 91.1 53 90.45 51.65
L 90.45 52.05
Q 90.3 52.2 86.3 49.75
M 76.3 40.6
L 77.5 40.6 77.5 40.75 78.45 40.9 78.55 41.45 78.55 53.55
Q 78.45 53.8 77.75 53.8 76.95 53.8 76.45 53 76.3 53.4 76.3 53.95
L 75.5 54.2
Q 74.95 54.05 74.85 47.1
L 74.85 40.1
Q 75.65 39.7 76.3 39.8
L 76.3 40.6
M 68.05 57.95
L 68.15 58.9
Q 68.15 61.2 65.9 63.2 62.95 65.75 58.15 65.75 53.35 65.75 50.8 62.15 49.2 58.65 49.2 58.5 67.9 57.95 68.05 57.95
M 64.95 61.2
Q 65.35 60.25 65.9 59.7
L 51.6 60.1
Q 51.85 60.5 52.25 61.05 54.7 64 58.15 64 63.35 64 64.95 61.2
M 89.65 40.2
Q 90.6 41.95 90.6 48
L 90.6 50.05
Q 91.4 48.7 96.35 44.9 100.35 41.95 103.25 40.35
L 105.25 39.15 105 39.15
Q 103.55 38.75 98.35 37 91.65 34.85 89.65 34.05
L 89.65 40.2
M 99.9 38.25
Q 100.3 38.4 100.35 38.45
L 99.9 39.2 99.9 38.25
M 83.65 17.6
Q 82.85 16.7 82.05 16 80.7 14.8 79.25 13.85 73.9 10.5 65.5 9.7
L 54 9.7
Q 46.55 11.55 40.15 16.95 36.65 19.9 34.25 23.25 34.9 23.25 34.9 23.95 34.9 24.1 32 33.9 31.6 35.5 30.25 41.95 29.05 48.15 28.9 49.25 29.2 48.95 30.25 48.4 31.3 47.9 31.6 47.9 31.6 48 33.6 50.05 34.25 45.45 36.9 37.55 40 28.1 42.15 26.9
L 42.25 27.7
Q 42 28.4 41.75 29.05 42.15 28.4 42.8 28.25
L 42.95 30.65 42.55 35.65
Q 42.8 34.95 43.35 33.9 44.55 31.75 44.65 31.35 44.8 29.6 44.95 28.65 45.35 27.05 46.8 26.9
L 46.95 28.25
Q 46.95 28.5 46.95 28.8 48.95 30.4 50.4 34.95 50.8 33.75 51.75 32.15 54.8 26.35 55.2 25.4 55.9 23.95 56.3 21.4 56.4 21.4 56.55 21.4 56.8 21.5 57.1 21.5 57.35 21.5 57.6 21.4
L 57.9 21.4
Q 56.95 24.5 56.3 26.9 56.95 28.25 57.5 30.25 58 32.3 58.95 35.9
L 58.95 36.45 68.45 18.45
Q 70.15 18.95 71.35 21.4 72.3 23.25 73.65 26.9
L 78.55 36.05
Q 77.65 32.55 77.65 32.3
L 77.75 31.35
Q 78.55 32.15 79.25 33.2 81.1 36.3 81.65 41.3 81.9 43.2 82.05 44.8 82.6 48.95 82.7 51
L 86.45 47.9
Q 87.1 48 89 49.75 88.85 44.5 88.05 40.9
L 88.05 29.45
Q 87 21.95 83.65 17.6
M 101.8 16.7
L 102.75 16.4
Q 90.45 13.3 88.6 12.9 85.65 12.4 82.05 11.85 80.7 11.55 79.25 11.45 78.95 11.3 78.55 11.3 78.95 11.45 79.25 11.7 80.7 12.5 82.05 13.6 83.5 14.65 84.7 16.15 89.4 21.5 89.65 28.25
L 89.65 31.75
Q 90.45 31.9 91.4 32
L 101.4 32.15
Q 100.6 31.5 99.8 30.65
L 97 27.45
Q 97 26.25 98.35 25.95 100.75 25.4 101.15 25.15 100.45 24.6 95.8 22.75 92.05 21.25 92.05 20.3 92.05 18.15 101.8 16.7 Z"/>
</g>

<g id="Symbol_1_0_Layer0_0_FILL">
<path fill="#000000" stroke="none" d="
M 2.45 3.45
Q 2.45 3.5 2.45 3.7
L 2.45 6.05
Q 2.45 6.55 2.45 7.5 2.4 8.5 2.4 8.7 2.4 9.15 2.65 9.15 2.9 9.15 2.9 8.8
L 2.9 8.25
Q 2.9 7.55 2.9 7.05 3.65 7.75 4.25 7.75 5 7.75 5.4 7.05 5.75 6.45 5.75 5.6 5.75 3.2 4.3 3.2 3.7 3.2 2.95 3.7
L 2.9 3.4
Q 2.85 3.2 2.7 3.2 2.45 3.2 2.45 3.45
M 2.95 4.25
Q 3.1 4.25 3.25 4.15 3.85 3.7 4.25 3.7 5.25 3.7 5.25 5.55 5.25 7.25 4.25 7.25 3.8 7.25 3.3 6.75 3.1 6.5 2.95 6.55
L 2.95 4.25
M 7.2 5.6
Q 7.2 5 7.2 4.3
L 7.25 3.65
Q 7.25 3.55 7.15 3.4 7.1 3.25 6.95 3.25 6.65 3.25 6.65 3.7
L 6.65 4.4
Q 6.7 5.1 6.7 5.55 6.7 5.75 6.7 6.5 6.65 7.3 6.65 7.35 6.65 7.75 6.95 7.75 7.05 7.75 7.15 7.6 7.2 7.4 7.2 7.25 7.2 6.05 7.2 5.6
M 7.2 1.85
Q 7.3 1.75 7.3 1.6 7.3 1.45 7.2 1.35 7.1 1.2 6.95 1.2 6.8 1.2 6.65 1.3 6.55 1.45 6.55 1.6 6.55 1.75 6.65 1.85 6.8 2 6.95 2 7.1 2 7.2 1.85
M 10.45 5.4
L 11.6 3.85
Q 11.65 3.75 11.8 3.65 11.9 3.55 11.9 3.5 11.9 3.15 11.5 3.15 11.4 3.15 11.2 3.45 10.55 4.4 10.1 5
L 8.95 3.5
Q 8.9 3.4 8.8 3.3 8.75 3.2 8.6 3.2 8.3 3.2 8.3 3.55
L 8.4 3.65
Q 8.45 3.75 8.55 3.8 9.3 4.75 9.8 5.4 9.25 6.1 8.95 6.45 8.5 7 8.25 7.25 8.05 7.5 8.05 7.6 8.05 7.8 8.25 7.8 8.35 7.8 8.6 7.65 8.7 7.55 9.25 6.9 9.65 6.4 10.1 5.8 10.85 6.75 11.2 7.25 11.6 7.75 11.75 7.75 12 7.75 12 7.5 12 7.35 11.8 7.2 11.7 7.05 10.45 5.4
M 15.55 5.55
Q 15.8 5.55 15.8 5.1 15.8 4.45 15.6 4 15.25 3.2 14.35 3.2 13.3 3.2 12.85 4.2 12.65 4.75 12.65 5.5 12.65 6.55 13.1 7.2 13.55 7.85 14.3 7.85 14.9 7.85 15.35 7.4 15.85 6.95 15.85 6.6 15.85 6.35 15.6 6.35 15.4 6.35 15.35 6.55 15.25 6.85 15 7.1 14.7 7.35 14.35 7.35 13.9 7.35 13.65 7.1 13.2 6.6 13.2 5.6 13.3 5.6 13.4 5.6
L 13.7 5.55
Q 14 5.5 14.35 5.5 14.6 5.5 14.95 5.5 15.35 5.55 15.55 5.55
M 13.2 5.1
Q 13.25 4.5 13.55 4.05 13.85 3.65 14.35 3.65 15.2 3.65 15.3 5.05 14.4 5 14.3 5 13.5 5 13.2 5.1
M 17.25 1.55
Q 17.25 1.3 17.25 1.25 17.25 0.85 16.95 0.85 16.7 0.85 16.7 1.25 16.7 1.35 16.7 1.6 16.7 1.9 16.7 1.95
L 16.7 4.4
Q 16.7 4.9 16.7 5.85 16.65 6.85 16.65 7.3 16.65 7.75 16.9 7.75 17.05 7.75 17.15 7.6 17.2 7.5 17.2 7.3
L 17.2 3.9
Q 17.2 3.8 17.2 2.85
L 17.2 1.9
Q 17.2 1.8 17.25 1.55
M 34.55 1.55
Q 34.55 1.35 34.3 1.35 34.05 1.35 33.95 1.65 33.7 2.7 33.5 3.7 33 5.8 32.6 7.1 32 4.9 31.6 3.45 31.5 3.1 31.3 3.1 31.15 3.1 31.05 3.3 30.65 4.4 30.5 4.95 30.05 6.3 29.8 7.05
L 29 3.4
Q 28.75 1.95 28.5 1.5 28.45 1.35 28.2 1.35 28 1.35 28 1.55 28 1.6 28.05 1.75 28.15 1.85 28.15 1.9 28.25 2.15 28.45 3.1 28.7 4 28.75 4.4 29.1 6.35 29.5 7.9 29.55 8.05 29.55 8.1 29.6 8.15 29.75 8.15 29.9 8.15 29.95 7.95 30.8 5.35 31.3 4 32.05 7.05 32.35 7.75 32.4 7.85 32.45 8 32.5 8.15 32.65 8.15 32.85 8.15 32.95 7.85 33 7.65 33.05 7.45 33.75 4.55 34.35 2.05 34.35 2 34.45 1.8 34.55 1.6 34.55 1.55
M 38.75 1.55
Q 38.75 1.3 38.45 1.3 37.4 1.3 37.15 1.3 36.6 1.3 35.9 1.35 35.75 1.25 35.55 1.25 35.3 1.25 35.3 1.5 35.3 1.55 35.35 1.75 35.35 1.9 35.35 1.95 35.35 2 35.4 3.3 35.4 4.55 35.4 4.75 35.4 4.9 35.4 6 35.4 7.15 35.4 7.25 35.4 7.45 35.35 7.65 35.3 7.9 35.3 7.95 35.3 8.2 35.55 8.2
L 36.1 8.15
Q 36.7 8.1 36.95 8.1 37.2 8.1 37.75 8.15 38.25 8.15 38.4 8.15 38.7 8.15 38.7 7.95 38.7 7.7 38.4 7.7 38.3 7.7 37.9 7.65 37.55 7.65 37.25 7.65 36.55 7.65 35.85 7.7 35.9 7 35.9 4.55 36.55 4.45 37.15 4.45 37.25 4.45 37.6 4.5 37.95 4.5 38 4.5 38.3 4.5 38.3 4.25 38.3 4 38 4 36.75 4 35.9 4.05
L 35.9 1.85
Q 36.5 1.75 37.25 1.75 37.4 1.75 37.95 1.8 38.45 1.8 38.5 1.8 38.75 1.8 38.75 1.55
M 42.85 2.8
Q 42.85 2.05 42.5 1.7 42.05 1.3 41.05 1.3 40.6 1.3 40.1 1.35 40 1.2 39.8 1.2 39.55 1.2 39.55 1.5
L 39.55 2
Q 39.6 2.55 39.6 3.1 39.6 4.15 39.55 6.05
L 39.55 7.8
Q 39.55 8.25 39.75 8.25 39.95 8.25 40.05 8.1 40.15 8.15 40.25 8.15
L 41 8.15
Q 43.15 8.15 43.15 6.1 43.15 5.65 43 5.25 42.75 4.6 42 4.25 42.85 3.75 42.85 2.8
M 41 1.75
Q 41.6 1.75 41.9 1.85 42.4 2.1 42.4 2.8 42.4 3.95 40.9 3.95
L 40.05 3.95
Q 40.05 2.25 40.1 1.85 40.65 1.75 41 1.75
M 40.65 4.45
Q 41.45 4.45 42 4.8 42.65 5.2 42.65 6 42.65 6.8 42.35 7.2 42 7.7 41.1 7.7 41 7.7 40.6 7.65 40.2 7.6 40.05 7.65
L 40.05 4.4
Q 40.2 4.45 40.35 4.45
L 40.65 4.45
M 23.4 -0.35
Q 23.4 -0.4 23.35 -0.4 23.35 -0.45 23.35 -0.5 23.3 -0.5 23.25 -0.55 23.2 -0.55 23.05 -0.6 23 -0.6 22.95 -0.6 22.9 -0.55 22.85 -0.55 22.8 -0.55 22.8 -0.5
L 22.75 -0.5 21.35 3.35 18.55 3.9 18.55 3.95 18.5 4
Q 18.5 4.05 18.5 4.1
L 18.5 4.2 20.2 6.25 19 9
Q 18.85 9.8 19 9.95 19.2 10 19.15 10.05
L 22.3 7.6 22.35 7.65 26.45 8.7
Q 26.45 8.65 26.5 8.65 26.55 8.65 26.6 8.6
L 26.6 8.55
Q 26.6 8.5 26.6 8.45 26.6 8.4 26.6 8.35
L 26.6 8.3 25.65 6.2
Q 25.6 6.15 25.6 6.1
L 25.6 6 27.55 3.45
Q 28.1 2.9 27.35 2.95
L 24.8 2.95
Q 24.8 2.9 24.75 2.9
L 23.4 -0.35
M 22.95 0.1
L 23 0.05
Q 23.05 0.05 23.2 0.1
L 24.5 3.3
Q 24.55 3.3 27.05 3.45
L 25.2 5.85 25.2 5.9
Q 25.2 6 25.15 6.05 25.15 6.1 25.15 6.2 26 8.2 25.95 8.2
L 22.35 7.15 19.65 9.2
Q 19.6 9.2 19.55 9.2
L 20.75 6.4 20.8 6.35
Q 20.8 6.3 20.8 6.25
L 20.8 6.2 20.75 6.15 20.75 6.1
Q 20.7 6.05 20.65 6
L 19.1 4.25 21.7 3.65 21.7 3.45 22.95 0.15 22.95 0.1 Z"/>
</g>
</defs>

<g transform="matrix( 1, 0, 0, 1, 0,0) ">
<use xlink:href="#Layer1_0_FILL"/>
</g>

<g transform="matrix( 1, 0, 0, 1, 1.8,0) ">
<use xlink:href="#Layer0_0_FILL"/>
</g>

<g transform="matrix( 2.670013427734375, 0, 0, 2.689666748046875, 109.5,26.3) ">
<g transform="matrix( 1, 0, 0, 1, 0,0) ">
<use xlink:href="#Symbol_1_0_Layer0_0_FILL"/>
</g>
</g>
</svg>
