
<svg xmlns="http://www.w3.org/2000/svg" version="1.1" xmlns:xlink="http://www.w3.org/1999/xlink" preserveAspectRatio="none" x="0px" y="0px" width="267px" height="78px" viewBox="0 0 267 78">
<defs>
<g id="Layer1_0_FILL">
<path fill="#FFFFFF" stroke="none" d="
M 267 78
L 267 0 0 0 0 78 267 78 Z"/>
</g>

<g id="Layer0_0_FILL">
<path fill="#000000" stroke="none" d="
M 89.85 21.25
Q 89.45 21.1 89.2 21
L 89.85 20.85
Q 90.4 20.7 95.6 19.75 100.4 18.7 100.4 17.35 100.4 16.4 94.8 14.65 89.7 13.05 87.2 12.8 82.35 11.7 78.25 10.9 77.15 10.6 76.1 10.5 74.65 10.2 73.3 9.95 68.35 9.15 64.9 9.15
L 63.55 9.15
Q 61.8 8.9 59.8 8.75
L 47.55 8.75
Q 46.05 8.9 44.6 9.3
L 44.45 8.9
Q 38.45 9.15 26.7 12.35 12.95 16.15 12.95 19.25 12.95 19.75 16 22.85 13.2 24.2 11.2 25.3 7.6 27.45 7.6 28.5 7.6 29.7 10.8 30.8 12.55 31.35 14.7 31.85 11.9 32.8 10.4 33.5 7.6 34.7 7.6 35.9
L 8.4 37 17.1 37
Q 16.3 37.5 15.35 38.05 8.3 42.5 8.3 42.9 8.3 43.05 8.4 43.3
L 8.3 43.3 8.55 43.55 8.8 43.7
Q 11.9 45.6 20.55 52.2 19.35 52.45 14 55.8 8.7 59.05 8.7 59.3 8.7 60 9.6 61.45 15.5 64.8 23.25 66.85 26.55 67.8 31.25 68.6 37.65 69.8 46.45 70.85
L 64.5 70.85
Q 68.6 70.35 73.3 69.4
L 84.75 66.55
Q 98.65 62.8 98.65 59.85 98.65 58.9 85.7 51.9 98.1 42.9 100.25 41.15
L 101.45 39.25
Q 101.35 39.15 98.5 38.05 95.2 36.85 92.65 36.2 88.65 35.25 86.35 34.55
L 98.5 34.55
Q 98.8 34.45 98.9 34.3 99.3 33.75 99.3 33.6 98.8 32.8 96.4 30.95 93.85 29.05 93.6 28.4 93.85 28.4 96 27.85 98 27.05 98 25.8 98 24.75 89.85 21.25
M 86.1 21.1
Q 86.1 22.05 89.85 23.55 94.5 25.4 95.2 25.95 94.8 26.2 92.4 26.75 91.05 27.05 91.05 28.25
L 93.85 31.45
Q 94.65 32.3 95.45 32.95
L 85.45 32.8
Q 84.5 32.7 83.7 32.55
L 83.7 29.05
Q 83.45 22.3 78.75 16.95 77.55 15.45 76.1 14.4 74.75 13.3 73.3 12.5 73 12.25 72.6 12.1 73 12.1 73.3 12.25 74.75 12.35 76.1 12.65 79.7 13.2 82.65 13.7 84.5 14.1 96.8 17.2
L 95.85 17.5
Q 86.1 18.95 86.1 21.1
M 84.65 48.8
Q 84.65 42.75 83.7 41
L 83.7 34.85
Q 85.7 35.65 92.4 37.8 97.6 39.55 99.05 39.95
L 99.3 39.95 97.3 41.15
Q 94.4 42.75 90.4 45.7 85.45 49.5 84.65 50.85
L 84.65 48.8
M 82.1 30.25
L 82.1 41.7
Q 82.9 45.3 83.05 50.55 81.15 48.8 80.5 48.7
L 76.75 51.8
Q 76.65 49.75 76.1 45.6 75.95 44 75.7 42.1 75.15 37.1 73.3 34 72.6 32.95 71.8 32.15
L 71.7 33.1
Q 71.7 33.35 72.6 36.85
L 67.7 27.7
Q 66.35 24.05 65.4 22.2 64.2 19.75 62.5 19.25
L 53 37.25 53 36.7
Q 52.05 33.1 51.55 31.05 51 29.05 50.35 27.7 51 25.3 51.95 22.2
L 51.65 22.2
Q 51.4 22.3 51.15 22.3 50.85 22.3 50.6 22.2 50.45 22.2 50.35 22.2 49.95 24.75 49.25 26.2 48.85 27.15 45.8 32.95 44.85 34.55 44.45 35.75 43 31.2 41 29.6 41 29.3 41 29.05
L 40.85 27.7
Q 39.4 27.85 39 29.45 38.85 30.4 38.7 32.15 38.6 32.55 37.4 34.7 36.85 35.75 36.6 36.45
L 37 31.45 36.85 29.05
Q 36.2 29.2 35.8 29.85 36.05 29.2 36.3 28.5
L 36.2 27.7
Q 34.05 28.9 30.95 38.35 28.3 46.25 27.65 50.85 25.65 48.8 25.65 48.7 25.35 48.7 24.3 49.2 23.25 49.75 22.95 50.05 23.1 48.95 24.3 42.75 25.65 36.3 26.05 34.7 28.95 24.9 28.95 24.75 28.95 24.05 28.3 24.05 30.7 20.7 34.2 17.75 40.6 12.35 48.05 10.5
L 59.55 10.5
Q 67.95 11.3 73.3 14.65 74.75 15.6 76.1 16.8 76.9 17.5 77.7 18.4 81.05 22.75 82.1 30.25
M 84.5 52.85
L 84.5 52.45
Q 85.15 53.8 90 57 93.6 59.45 95.7 60.4 92.1 61.6 83.85 64.4 80.1 65.75 76.1 66.85 74.75 67.1 73.3 67.5 70.5 68.05 67.55 68.6 65.7 68.85 63.95 69.1
L 47 69.1
Q 44.6 68.85 42.45 68.6 30.05 67.1 23.5 65.2 22.15 64.8 16.4 62.15 11.5 60 10.55 59.85 18.8 55.4 21.5 53.5 21.65 53.8 21.9 53.95
L 24.85 50.95 29.1 54.2
Q 29.35 52.7 30.95 46 31.9 42.5 32.3 40.35
L 32.3 54.6
Q 33.4 54.75 34.45 55 36.3 55 35.9 46.15
L 35.8 41.15 34.85 41
Q 34.45 41.3 34.3 41.3 34.3 39.4 32.55 39.25 33.25 35.65 35.1 31.75
L 35.1 31.85
Q 35 32.4 35 35.5 35 37.5 35.8 37.9
L 36.45 37.65 36.45 37.4 37.4 38.35
Q 38.7 37 39.8 34 40.2 33.1 40.45 32.3 40.85 33.35 41.5 34.7 42.7 37 43 38.85
L 43.9 39 44.3 39
Q 46.45 39 49.25 31.2 49.4 32.55 49.8 34 50.2 35.9 51.65 38.05 52.75 39.95 53.4 40.35 61.4 27.05 62.5 21.4 63.8 22.85 64.75 24.6 65.4 25.95 66.6 29.7 67.3 31.05 69.3 35.75 71.3 39.65 72.5 39.65 73 39.65 73.3 39.4 73.85 41.7 75.7 55
L 80.35 50.55
Q 84.35 53 84.5 52.85
M 20.45 16.55
Q 24.55 14.65 27.5 13.7 29.35 13.05 37.8 11.3 39.9 10.9 41.5 10.5 37.5 12.35 32.85 16.4 24.7 23.55 24.7 27.55
L 25.25 28.1 24.05 33.5
Q 21.5 34.15 17.2 36.85 17.6 36.45 17.6 36.2
L 16.8 35.35 11.75 35.25
Q 17.6 33.5 17.6 31.6 17.6 30.8 14.7 29.7 11.35 28.65 10.4 28.25 18.95 23.95 18.95 22.75 18.95 22.05 14.95 19.65 16.4 18.55 20.45 16.55
M 19.9 49.35
Q 16.8 46.95 15.6 45.85 13.5 43.85 12.15 42.9 11.75 42.65 11.5 42.5 20.3 37.5 23.65 35.25
L 22.55 40.35
Q 21.35 46.65 21.1 50.55 20.55 49.9 19.9 49.35
M 62.2 59.7
L 62.1 58.75
Q 61.95 58.75 43.25 59.3 43.25 59.45 44.85 62.95 47.4 66.55 52.2 66.55 57 66.55 59.95 64 62.2 62 62.2 59.7
M 46.3 61.85
Q 45.9 61.3 45.65 60.9
L 59.95 60.5
Q 59.4 61.05 59 62 57.4 64.8 52.2 64.8 48.75 64.8 46.3 61.85
M 70.35 41.4
L 70.35 40.6
Q 69.7 40.5 68.9 40.9
L 68.9 47.9
Q 69 54.85 69.55 55
L 70.35 54.75
Q 70.35 54.2 70.5 53.8 71 54.6 71.8 54.6 72.5 54.6 72.6 54.35
L 72.6 42.25 72.5 41.7 71.55 41.55 71.55 41.4 70.35 41.4 Z"/>

<path fill="#FFFFFF" stroke="none" d="
M 15.6 45.85
Q 16.8 46.95 19.9 49.35 20.55 49.9 21.1 50.55 21.35 46.65 22.55 40.35
L 23.65 35.25
Q 20.3 37.5 11.5 42.5 11.75 42.65 12.15 42.9 13.5 43.85 15.6 45.85
M 27.5 13.7
Q 24.55 14.65 20.45 16.55 16.4 18.55 14.95 19.65 18.95 22.05 18.95 22.75 18.95 23.95 10.4 28.25 11.35 28.65 14.7 29.7 17.6 30.8 17.6 31.6 17.6 33.5 11.75 35.25
L 16.8 35.35 17.6 36.2
Q 17.6 36.45 17.2 36.85 21.5 34.15 24.05 33.5
L 25.25 28.1 24.7 27.55
Q 24.7 23.55 32.85 16.4 37.5 12.35 41.5 10.5 39.9 10.9 37.8 11.3 29.35 13.05 27.5 13.7
M 84.5 52.45
L 84.5 52.85
Q 84.35 53 80.35 50.55
L 75.7 55
Q 73.85 41.7 73.3 39.4 73 39.65 72.5 39.65 71.3 39.65 69.3 35.75 67.3 31.05 66.6 29.7 65.4 25.95 64.75 24.6 63.8 22.85 62.5 21.4 61.4 27.05 53.4 40.35 52.75 39.95 51.65 38.05 50.2 35.9 49.8 34 49.4 32.55 49.25 31.2 46.45 39 44.3 39
L 43.9 39 43 38.85
Q 42.7 37 41.5 34.7 40.85 33.35 40.45 32.3 40.2 33.1 39.8 34 38.7 37 37.4 38.35
L 36.45 37.4 36.45 37.65 35.8 37.9
Q 35 37.5 35 35.5 35 32.4 35.1 31.85
L 35.1 31.75
Q 33.25 35.65 32.55 39.25 34.3 39.4 34.3 41.3 34.45 41.3 34.85 41
L 35.8 41.15 35.9 46.15
Q 36.3 55 34.45 55 33.4 54.75 32.3 54.6
L 32.3 40.35
Q 31.9 42.5 30.95 46 29.35 52.7 29.1 54.2
L 24.85 50.95 21.9 53.95
Q 21.65 53.8 21.5 53.5 18.8 55.4 10.55 59.85 11.5 60 16.4 62.15 22.15 64.8 23.5 65.2 30.05 67.1 42.45 68.6 44.6 68.85 47 69.1
L 63.95 69.1
Q 65.7 68.85 67.55 68.6 70.5 68.05 73.3 67.5 74.75 67.1 76.1 66.85 80.1 65.75 83.85 64.4 92.1 61.6 95.7 60.4 93.6 59.45 90 57 85.15 53.8 84.5 52.45
M 70.35 40.6
L 70.35 41.4 71.55 41.4 71.55 41.55 72.5 41.7 72.6 42.25 72.6 54.35
Q 72.5 54.6 71.8 54.6 71 54.6 70.5 53.8 70.35 54.2 70.35 54.75
L 69.55 55
Q 69 54.85 68.9 47.9
L 68.9 40.9
Q 69.7 40.5 70.35 40.6
M 62.1 58.75
L 62.2 59.7
Q 62.2 62 59.95 64 57 66.55 52.2 66.55 47.4 66.55 44.85 62.95 43.25 59.45 43.25 59.3 61.95 58.75 62.1 58.75
M 45.65 60.9
Q 45.9 61.3 46.3 61.85 48.75 64.8 52.2 64.8 57.4 64.8 59 62 59.4 61.05 59.95 60.5
L 45.65 60.9
M 82.1 41.7
L 82.1 30.25
Q 81.05 22.75 77.7 18.4 76.9 17.5 76.1 16.8 74.75 15.6 73.3 14.65 67.95 11.3 59.55 10.5
L 48.05 10.5
Q 40.6 12.35 34.2 17.75 30.7 20.7 28.3 24.05 28.95 24.05 28.95 24.75 28.95 24.9 26.05 34.7 25.65 36.3 24.3 42.75 23.1 48.95 22.95 50.05 23.25 49.75 24.3 49.2 25.35 48.7 25.65 48.7 25.65 48.8 27.65 50.85 28.3 46.25 30.95 38.35 34.05 28.9 36.2 27.7
L 36.3 28.5
Q 36.05 29.2 35.8 29.85 36.2 29.2 36.85 29.05
L 37 31.45 36.6 36.45
Q 36.85 35.75 37.4 34.7 38.6 32.55 38.7 32.15 38.85 30.4 39 29.45 39.4 27.85 40.85 27.7
L 41 29.05
Q 41 29.3 41 29.6 43 31.2 44.45 35.75 44.85 34.55 45.8 32.95 48.85 27.15 49.25 26.2 49.95 24.75 50.35 22.2 50.45 22.2 50.6 22.2 50.85 22.3 51.15 22.3 51.4 22.3 51.65 22.2
L 51.95 22.2
Q 51 25.3 50.35 27.7 51 29.05 51.55 31.05 52.05 33.1 53 36.7
L 53 37.25 62.5 19.25
Q 64.2 19.75 65.4 22.2 66.35 24.05 67.7 27.7
L 72.6 36.85
Q 71.7 33.35 71.7 33.1
L 71.8 32.15
Q 72.6 32.95 73.3 34 75.15 37.1 75.7 42.1 75.95 44 76.1 45.6 76.65 49.75 76.75 51.8
L 80.5 48.7
Q 81.15 48.8 83.05 50.55 82.9 45.3 82.1 41.7
M 83.7 41
Q 84.65 42.75 84.65 48.8
L 84.65 50.85
Q 85.45 49.5 90.4 45.7 94.4 42.75 97.3 41.15
L 99.3 39.95 99.05 39.95
Q 97.6 39.55 92.4 37.8 85.7 35.65 83.7 34.85
L 83.7 41
M 89.85 23.55
Q 86.1 22.05 86.1 21.1 86.1 18.95 95.85 17.5
L 96.8 17.2
Q 84.5 14.1 82.65 13.7 79.7 13.2 76.1 12.65 74.75 12.35 73.3 12.25 73 12.1 72.6 12.1 73 12.25 73.3 12.5 74.75 13.3 76.1 14.4 77.55 15.45 78.75 16.95 83.45 22.3 83.7 29.05
L 83.7 32.55
Q 84.5 32.7 85.45 32.8
L 95.45 32.95
Q 94.65 32.3 93.85 31.45
L 91.05 28.25
Q 91.05 27.05 92.4 26.75 94.8 26.2 95.2 25.95 94.5 25.4 89.85 23.55 Z"/>
</g>

<g id="Symbol_1_0_Layer0_0_FILL">
<path fill="#000000" stroke="none" d="
M 2.45 3.45
Q 2.45 3.5 2.45 3.7
L 2.45 6.05
Q 2.45 6.55 2.45 7.5 2.4 8.5 2.4 8.7 2.4 9.15 2.65 9.15 2.9 9.15 2.9 8.8
L 2.9 8.25
Q 2.9 7.55 2.9 7.05 3.65 7.75 4.25 7.75 5 7.75 5.4 7.05 5.75 6.45 5.75 5.6 5.75 3.2 4.3 3.2 3.7 3.2 2.95 3.7
L 2.9 3.4
Q 2.85 3.2 2.7 3.2 2.45 3.2 2.45 3.45
M 2.95 4.25
Q 3.1 4.25 3.25 4.15 3.85 3.7 4.25 3.7 5.25 3.7 5.25 5.55 5.25 7.25 4.25 7.25 3.8 7.25 3.3 6.75 3.1 6.5 2.95 6.55
L 2.95 4.25
M 7.2 5.6
Q 7.2 5 7.2 4.3
L 7.25 3.65
Q 7.25 3.55 7.15 3.4 7.1 3.25 6.95 3.25 6.65 3.25 6.65 3.7
L 6.65 4.4
Q 6.7 5.1 6.7 5.55 6.7 5.75 6.7 6.5 6.65 7.3 6.65 7.35 6.65 7.75 6.95 7.75 7.05 7.75 7.15 7.6 7.2 7.4 7.2 7.25 7.2 6.05 7.2 5.6
M 7.2 1.85
Q 7.3 1.75 7.3 1.6 7.3 1.45 7.2 1.35 7.1 1.2 6.95 1.2 6.8 1.2 6.65 1.3 6.55 1.45 6.55 1.6 6.55 1.75 6.65 1.85 6.8 2 6.95 2 7.1 2 7.2 1.85
M 10.45 5.4
L 11.6 3.85
Q 11.65 3.75 11.8 3.65 11.9 3.55 11.9 3.5 11.9 3.15 11.5 3.15 11.4 3.15 11.2 3.45 10.55 4.4 10.1 5
L 8.95 3.5
Q 8.9 3.4 8.8 3.3 8.75 3.2 8.6 3.2 8.3 3.2 8.3 3.55
L 8.4 3.65
Q 8.45 3.75 8.55 3.8 9.3 4.75 9.8 5.4 9.25 6.1 8.95 6.45 8.5 7 8.25 7.25 8.05 7.5 8.05 7.6 8.05 7.8 8.25 7.8 8.35 7.8 8.6 7.65 8.7 7.55 9.25 6.9 9.65 6.4 10.1 5.8 10.85 6.75 11.2 7.25 11.6 7.75 11.75 7.75 12 7.75 12 7.5 12 7.35 11.8 7.2 11.7 7.05 10.45 5.4
M 15.55 5.55
Q 15.8 5.55 15.8 5.1 15.8 4.45 15.6 4 15.25 3.2 14.35 3.2 13.3 3.2 12.85 4.2 12.65 4.75 12.65 5.5 12.65 6.55 13.1 7.2 13.55 7.85 14.3 7.85 14.9 7.85 15.35 7.4 15.85 6.95 15.85 6.6 15.85 6.35 15.6 6.35 15.4 6.35 15.35 6.55 15.25 6.85 15 7.1 14.7 7.35 14.35 7.35 13.9 7.35 13.65 7.1 13.2 6.6 13.2 5.6 13.3 5.6 13.4 5.6
L 13.7 5.55
Q 14 5.5 14.35 5.5 14.6 5.5 14.95 5.5 15.35 5.55 15.55 5.55
M 13.2 5.1
Q 13.25 4.5 13.55 4.05 13.85 3.65 14.35 3.65 15.2 3.65 15.3 5.05 14.4 5 14.3 5 13.5 5 13.2 5.1
M 17.25 1.55
Q 17.25 1.3 17.25 1.25 17.25 0.85 16.95 0.85 16.7 0.85 16.7 1.25 16.7 1.35 16.7 1.6 16.7 1.9 16.7 1.95
L 16.7 4.4
Q 16.7 4.9 16.7 5.85 16.65 6.85 16.65 7.3 16.65 7.75 16.9 7.75 17.05 7.75 17.15 7.6 17.2 7.5 17.2 7.3
L 17.2 3.9
Q 17.2 3.8 17.2 2.85
L 17.2 1.9
Q 17.2 1.8 17.25 1.55
M 34.55 1.55
Q 34.55 1.35 34.3 1.35 34.05 1.35 33.95 1.65 33.7 2.7 33.5 3.7 33 5.8 32.6 7.1 32 4.9 31.6 3.45 31.5 3.1 31.3 3.1 31.15 3.1 31.05 3.3 30.65 4.4 30.5 4.95 30.05 6.3 29.8 7.05
L 29 3.4
Q 28.75 1.95 28.5 1.5 28.45 1.35 28.2 1.35 28 1.35 28 1.55 28 1.6 28.05 1.75 28.15 1.85 28.15 1.9 28.25 2.15 28.45 3.1 28.7 4 28.75 4.4 29.1 6.35 29.5 7.9 29.55 8.05 29.55 8.1 29.6 8.15 29.75 8.15 29.9 8.15 29.95 7.95 30.8 5.35 31.3 4 32.05 7.05 32.35 7.75 32.4 7.85 32.45 8 32.5 8.15 32.65 8.15 32.85 8.15 32.95 7.85 33 7.65 33.05 7.45 33.75 4.55 34.35 2.05 34.35 2 34.45 1.8 34.55 1.6 34.55 1.55
M 38.75 1.55
Q 38.75 1.3 38.45 1.3 37.4 1.3 37.15 1.3 36.6 1.3 35.9 1.35 35.75 1.25 35.55 1.25 35.3 1.25 35.3 1.5 35.3 1.55 35.35 1.75 35.35 1.9 35.35 1.95 35.35 2 35.4 3.3 35.4 4.55 35.4 4.75 35.4 4.9 35.4 6 35.4 7.15 35.4 7.25 35.4 7.45 35.35 7.65 35.3 7.9 35.3 7.95 35.3 8.2 35.55 8.2
L 36.1 8.15
Q 36.7 8.1 36.95 8.1 37.2 8.1 37.75 8.15 38.25 8.15 38.4 8.15 38.7 8.15 38.7 7.95 38.7 7.7 38.4 7.7 38.3 7.7 37.9 7.65 37.55 7.65 37.25 7.65 36.55 7.65 35.85 7.7 35.9 7 35.9 4.55 36.55 4.45 37.15 4.45 37.25 4.45 37.6 4.5 37.95 4.5 38 4.5 38.3 4.5 38.3 4.25 38.3 4 38 4 36.75 4 35.9 4.05
L 35.9 1.85
Q 36.5 1.75 37.25 1.75 37.4 1.75 37.95 1.8 38.45 1.8 38.5 1.8 38.75 1.8 38.75 1.55
M 42.85 2.8
Q 42.85 2.05 42.5 1.7 42.05 1.3 41.05 1.3 40.6 1.3 40.1 1.35 40 1.2 39.8 1.2 39.55 1.2 39.55 1.5
L 39.55 2
Q 39.6 2.55 39.6 3.1 39.6 4.15 39.55 6.05
L 39.55 7.8
Q 39.55 8.25 39.75 8.25 39.95 8.25 40.05 8.1 40.15 8.15 40.25 8.15
L 41 8.15
Q 43.15 8.15 43.15 6.1 43.15 5.65 43 5.25 42.75 4.6 42 4.25 42.85 3.75 42.85 2.8
M 41 1.75
Q 41.6 1.75 41.9 1.85 42.4 2.1 42.4 2.8 42.4 3.95 40.9 3.95
L 40.05 3.95
Q 40.05 2.25 40.1 1.85 40.65 1.75 41 1.75
M 40.65 4.45
Q 41.45 4.45 42 4.8 42.65 5.2 42.65 6 42.65 6.8 42.35 7.2 42 7.7 41.1 7.7 41 7.7 40.6 7.65 40.2 7.6 40.05 7.65
L 40.05 4.4
Q 40.2 4.45 40.35 4.45
L 40.65 4.45
M 23.4 -0.35
Q 23.4 -0.4 23.35 -0.4 23.35 -0.45 23.35 -0.5 23.3 -0.5 23.25 -0.55 23.2 -0.55 23.05 -0.6 23 -0.6 22.95 -0.6 22.9 -0.55 22.85 -0.55 22.8 -0.55 22.8 -0.5
L 22.75 -0.5 21.35 3.35 18.55 3.9 18.55 3.95 18.5 4
Q 18.5 4.05 18.5 4.1
L 18.5 4.2 20.2 6.25 19 9
Q 18.85 9.8 19 9.95 19.2 10 19.15 10.05
L 22.3 7.6 22.35 7.65 26.45 8.7
Q 26.45 8.65 26.5 8.65 26.55 8.65 26.6 8.6
L 26.6 8.55
Q 26.6 8.5 26.6 8.45 26.6 8.4 26.6 8.35
L 26.6 8.3 25.65 6.2
Q 25.6 6.15 25.6 6.1
L 25.6 6 27.55 3.45
Q 28.1 2.9 27.35 2.95
L 24.8 2.95
Q 24.8 2.9 24.75 2.9
L 23.4 -0.35
M 22.95 0.1
L 23 0.05
Q 23.05 0.05 23.2 0.1
L 24.5 3.3
Q 24.55 3.3 27.05 3.45
L 25.2 5.85 25.2 5.9
Q 25.2 6 25.15 6.05 25.15 6.1 25.15 6.2 26 8.2 25.95 8.2
L 22.35 7.15 19.65 9.2
Q 19.6 9.2 19.55 9.2
L 20.75 6.4 20.8 6.35
Q 20.8 6.3 20.8 6.25
L 20.8 6.2 20.75 6.15 20.75 6.1
Q 20.7 6.05 20.65 6
L 19.1 4.25 21.7 3.65 21.7 3.45 22.95 0.15 22.95 0.1 Z"/>
</g>
</defs>

<g transform="matrix( 1, 0, 0, 1, 0,0) ">
<use xlink:href="#Layer1_0_FILL"/>
</g>

<g transform="matrix( 1, 0, 0, 1, 0,0) ">
<use xlink:href="#Layer0_0_FILL"/>
</g>

<g transform="matrix( 2.670013427734375, 0, 0, 2.689666748046875, 108.3,27.15) ">
<g transform="matrix( 1, 0, 0, 1, 0,0) ">
<use xlink:href="#Symbol_1_0_Layer0_0_FILL"/>
</g>
</g>
</svg>
