
<svg xmlns="http://www.w3.org/2000/svg" version="1.1" xmlns:xlink="http://www.w3.org/1999/xlink" preserveAspectRatio="none" x="0px" y="0px" width="215px" height="72px" viewBox="0 0 215 72">
<defs>
<g id="Layer1_0_FILL">
<path fill="#FFFFFF" stroke="none" d="
M 215.15 71.9
L 215.15 0 0 0 0 71.9 215.15 71.9 Z"/>
</g>

<g id="Layer0_0_FILL">
<path fill="#333333" stroke="none" d="
M 68.15 14.35
Q 66.45 13.8 66.3 13.75
L 58.7 12.3
Q 55.65 11.85 52.55 12 52.25 12 52.05 12.05 51.05 11.9 49.8 11.85 41.85 11.4 34.65 12.85 34.45 12.5 34.15 12.35 33.6 12.1 32.65 12.2 29.1 12.75 27.3 12.85 25.05 12.85 23.9 12.95
L 18.85 13.9
Q 16.75 14.4 12.25 16.05 11.7 16.2 11.35 16.5
L 10.2 16
Q 9.5 15.7 9 15.6 8.65 15.5 8.3 15.6 8.2 15.55 8.1 15.55 7.45 15.55 7.15 16.2 7 16.75 7.65 17.8 8.6 19.1 9.3 20.6 9.35 20.7 9.4 20.85 8.65 21.25 7.5 21.75 6.35 22.25 6 22.6 5.85 22.7 5.7 22.85 5.4 23.25 5.5 23.7 5.6 24.15 6.35 24.7 7.65 25.55 8.55 26.4 8.7 26.5 8.85 26.65
L 5.5 30.4
Q 5.25 30.7 5.1 31 4.9 31.15 4.85 31.4 4.8 31.45 4.8 31.55 4.75 31.65 4.8 31.8 4.85 31.9 4.9 32 5 32.55 5.6 32.6 5.9 32.7 6.55 32.7 9.9 32.6 12.95 31.95 12.75 32.05 12.55 32.2 11.25 33.25 10.15 33.95
L 8.85 34.85
Q 8.7 35 8.6 35.15 8.45 35.15 8.35 35.25 8 35.5 7.95 35.9 7.9 36.4 8.35 37.05 10.1 39.8 12.55 42.55 12.6 42.6 12.7 42.7
L 9.5 46
Q 8.7 46.8 8.4 47.25
L 6.1 50.5
Q 5.95 50.65 5.9 50.85 5.7 50.95 5.65 51.2 5.6 51.45 5.65 51.7 5.7 52.05 7.05 52.5 8.4 52.95 13.15 56.15 17.85 59.3 22.3 60.35 26.7 61.4 29.6 61.85 37.9 63.05 46.5 62.7 57.95 62.2 68.95 58.9 73.75 57.45 76.6 55.85 76.7 55.8 76.8 55.75 76.85 55.75 76.95 55.7 77.35 55.6 77.55 55.2 77.75 54.8 77.55 54.25
L 75.25 51
Q 73.8 49 73.15 48.25
L 72.4 47.35 70.95 44.65
Q 72.3 43.5 73.9 42
L 79.3 36.85
Q 79.5 36.65 79.6 36.55
L 79.65 36.5
Q 80.05 36.3 80.1 35.9 80.3 35.25 79.45 34.4
L 77.8 32.6
Q 77.05 31.85 73.6 28.6
L 76.55 29.8
Q 77.6 30.2 78.1 30 78.5 29.85 78.65 29.35 78.7 29 78.55 28.75 78.65 28.65 78.75 28.55 79.1 28.2 79.05 27.8 79 27.4 78.2 26.6 77.4 25.75 77.05 25
L 78.7 24.25
Q 79.5 23.8 79.65 23.55 79.65 23.5 79.7 23.5 79.85 23.25 79.9 23 79.95 22.45 79.1 21.5 77.55 19.9 76.5 18.25
L 77.1 17.65
Q 78 17.05 78.1 16.45 78.15 16 77.8 15.65 77.45 15.3 77.05 15.35 77 15.35 76.95 15.4 76.5 15.35 75.95 15.45 74.4 15.75 72.85 15.75 72.55 15.75 72.3 15.8 72.05 15.65 71.7 15.55
L 68.15 14.35
M 64.4 15.4
L 67 16.05
Q 67.75 16.25 70.65 17.35 71.2 17.55 71.6 17.6 71.95 17.75 72.55 17.8 73.05 17.8 74.3 17.7 74.15 17.9 74.15 18.1 74.05 18.6 74.45 18.95 74.55 19.2 74.8 19.45 75 19.7 75.45 20.15 75.85 20.6 75.95 20.95
L 77.4 22.65
Q 76.85 22.95 76.3 23.15
L 75.3 23.55
Q 75.1 23.7 75 23.85 74.8 24 74.7 24.25 74.7 24.3 74.65 24.4 74.6 24.75 74.8 25.05 74.85 25.25 75 25.45 75.7 26.65 76.3 27.5
L 69.8 24.85
Q 69 23.1 67.7 21.5 65.25 18.45 60.6 15.45 59.75 14.9 58.95 14.45 60.05 14.6 61.3 14.8 62.75 15.05 64.4 15.4
M 62.25 24.25
Q 61.8 24.1 61.4 24.3 60.9 24.6 60.7 25.55
L 59.45 29.95
Q 58.95 31.55 57.85 33.35 57.55 33.9 56.8 35.05
L 55.85 30.8
Q 54.55 25.05 53.35 20.9
L 52 16.6
Q 51.7 15.7 51.3 15.45 50.9 15.25 50.5 15.4 50.2 15.55 50.1 15.75 49.75 15.95 49.6 16.45 49 17.7 48.5 20 48.15 21.45 47.9 22.4 47.7 23.15 47.5 23.6
L 44.65 29.05
Q 44.25 29.95 44.2 30.35 43.5 29.2 42.95 27.75 42.8 27.3 42.65 27.05 43.2 26.2 43.25 26.15
L 44.5 24.35
Q 45.05 23.3 45 22.25 45 21.45 44.5 21.1 44.1 20.85 43.65 21.05 43.15 21.2 43 21.6 42.85 22 42.95 22.9 42.9 23.15 42.45 23.8
L 39.25 28.6
Q 38.05 30.5 37.3 31.35 36 32.5 35.2 33.3
L 34.45 30.5 34.45 29.35
Q 34.45 27.5 34.5 27.1 34.65 26.65 34.65 26.35
L 36.4 23.35
Q 36.9 22.55 36.9 22.1 37 21.25 36.35 20.95 35.7 20.8 35.25 21.3 35.1 21.45 34.6 22.3 34.1 23.35 32.7 25.75
L 29.4 31.3
Q 27.5 34.55 26.25 36.15 25.85 35.05 25.55 34.1 24.95 32.15 24.7 30.2
L 24.6 28.9
Q 24.6 27.9 24.45 27.65 24.4 27.55 24.35 27.5 24.6 26.05 24.9 24.25 25 23.45 24.85 23.15 24.65 22.8 24.3 22.7 23.9 22.55 23.55 22.75 23.1 23 22.9 23.85 22.8 24.2 22.55 26.15 22.1 29.65 20.5 33.85 19.8 35.7 18.15 39.4 18.15 39.3 18.1 39.25 18.15 38.75 17.9 38.05 16.85 34.1 17.15 30.45 17.25 30.2 17.25 30.05 17.25 29.85 17.2 29.7 17.65 25.75 19.65 22.85 21.9 19.55 26.4 17.45 29.7 15.85 34.7 14.9 38.65 14.05 41.6 13.85 44.25 13.7 49.45 13.9 52.45 14 54.15 14.45 56.1 15 59.25 16.95 63.55 19.75 65.65 22.15 67.1 23.85 67.95 25.65 67.95 25.9 68.05 26.15 68.1 26.25 68.2 26.3 68.4 26.85 68.55 27.4 68.45 27.85 68.5 28.55 68.65 31.05 68.1 34.2 67.9 35.2 67.5 36.95 67.2 38.15 66.8 39.7 66.55 40.7 66.3 41.45 66.25 41.4 66.25 41.35 65.45 39.35 64.6 37.65 63.1 34.5 61.5 32.15 61.25 31.8 61.05 31.6
L 61.25 31.05 62.7 25.85
Q 62.9 25.15 62.8 24.85 62.7 24.45 62.25 24.25
M 49.4 24.25
Q 49.8 23.2 50.35 20.9 50.55 20 50.75 19.3 52.2 23.95 53.35 28.7
L 53.8 30.8
Q 54.05 32.4 54.15 32.8 54.25 33.25 54.55 34.2 54.85 35.1 54.95 35.6
L 55.05 37
Q 55.15 37.45 55.35 37.75 55.4 38.15 55.75 38.4 56.2 38.65 56.6 38.5 57.05 38.35 57.45 37.65 59.25 34.9 60.05 33.6 61.4 35.65 63.75 40.5 63.9 40.85 64.05 41.2 63.95 41.15 63.75 41.15 63.2 41.05 62.2 41.05 62.4 40.95 62.35 40.7 62.35 40.5 62.15 40.35 61.95 40.2 61.4 40.2
L 58.6 40.25
Q 58.5 40.2 58.45 40.15 58.25 40.05 57.8 40.05
L 53.95 40.05
Q 52.95 40.05 52.5 40.15 52.4 40.15 52.3 40.2
L 50.9 40.2 50.35 40.25
Q 50.05 40.45 50.05 40.7 50.05 41.05 50.55 41.15
L 51.25 41.3
Q 51.1 41.4 51 41.55 50.8 41.65 50.75 41.75 50.75 41.95 50.75 42.1 50.2 42.15 50.05 42.25 49.65 42.55 49.85 42.9 49.85 42.95 49.85 43 49.65 43.15 49.6 43.4 49.5 43.7 49.7 43.9
L 50.15 44.2 50.35 44.55
Q 50.6 44.7 50.85 44.7 51.5 44.75 52.15 44.75
L 52.15 44.8
Q 52.15 45.1 52.35 45.25
L 52.75 45.3 57.5 45.35
Q 60.55 45.35 61.75 44.9 62.15 44.8 62.2 44.55 62.35 44.5 62.5 44.5 63.15 44.5 63.2 44.05 63.25 43.85 62.85 43.45 63.4 43.2 63.55 43.05 63.9 42.7 63.65 42.4 63.75 42.3 63.8 42.2 64.05 42.05 64.15 41.95 64.25 41.85 64.3 41.8 64.8 43.1 64.95 43.7 65.25 44.85 65.7 45.15 66.05 45.35 66.45 45.2 66.8 45.1 67 44.8 67.05 44.7 67.1 44.65 67.5 44.2 67.75 43.3 68.25 41.95 68.65 40.55 69.25 38.55 69.7 36.45
L 70.45 32.05
Q 70.45 31.8 70.5 31.5 70.95 31.15 70.95 30.1 70.95 29.45 70.9 28.85 73.7 31.35 76.3 33.95
L 77.75 35.55 71.4 41.6
Q 69.95 42.8 69.6 43.05 69 43.55 68.9 43.85 68.7 44 68.65 44.2 68.6 44.6 69.15 45.65 69.65 46.45 70.5 48.15 70.65 48.35 72 50
L 75.25 54.4
Q 69.35 56.9 63.1 58.4 55.9 60.15 48.25 60.6 33.95 61.5 24.9 59 15.8 56.5 15.25 55.4 14.65 54.3 7.95 51.35 9.05 49.75 10.2 48.25
L 10.9 47.4
Q 11.5 46.75 12.75 45.5 14.05 44.3 14.6 43.6 15.1 43 15.15 42.6 15.2 42.15 14.8 41.8 14.65 41.7 14.55 41.65 14.4 41.5 14.25 41.3 12 39.05 10.3 36.35
L 10.9 35.9
Q 13.05 34.45 14.2 33.45 14.7 33.05 15.1 32.65 15.15 35.7 16.05 38.9 16.1 39.1 16.15 39.3 16.15 39.6 16.2 40.2 16.5 41.5 16.55 42.75 16.4 42.9 16.3 43.05 15.5 44.2 15.75 44.7 15.9 45.1 16.4 45.2 16.6 45.25 16.8 45.25 17 45.5 17.5 45.5 17.95 45.5 18.2 45.2 18.45 44.95 18.55 44 18.55 43.8 18.55 43.35
L 20.15 39.85
Q 22.2 35.25 23.05 32.7 23.2 33.3 23.4 33.95 23.6 34.6 24.7 37.85 24.85 38.35 25.15 38.7 25.45 38.95 25.75 38.95 26.1 39.1 26.6 38.8 27.1 38.5 27.45 37.9 29.45 35.2 32.45 30.1
L 32.45 30.15
Q 32.45 30.9 32.55 31.4 32.6 31.75 32.9 32.45
L 33.65 35.45
Q 33.75 35.95 33.9 36.1 34.25 36.6 34.85 36.5 35.4 36.4 35.65 35.85 35.7 35.75 35.7 35.6 35.9 35.45 36.45 34.9
L 37.65 33.85
Q 39.05 32.6 40.6 30.2 40.85 29.8 41.15 29.4 41.35 30.05 41.75 30.8 42.4 31.75 43.7 33.05 44.3 33.65 44.65 33.8 45.4 34.1 45.8 33.6 46.1 33.15 45.85 32.6 45.8 32.5 45.45 32.05 45.8 31.95 46 31.7 46.1 31.55 46.2 30.85 46.4 30 47 28.85 49 25.35 49.4 24.25
M 24.75 14.9
L 27.4 14.85
Q 21.25 17.2 18.25 21.35 15.75 24.75 15.2 29.55 15.15 29.55 15.1 29.55 14.3 29.55 13.15 29.8 11.9 30.1 11.25 30.2 9.6 30.6 7.95 30.65 9.15 29.15 10.55 27.75 10.8 27.45 10.95 27.3 11.35 27.05 11.4 26.65 11.45 26.55 11.4 26.4 11.4 25.95 11.1 25.65 10.9 25.4 10.6 25.4
L 8.3 23.65 10.75 22.4
Q 11.7 21.8 11.8 21.45 11.9 21.05 11.7 20.7 11.65 20.6 11.65 20.55 11.55 20.3 11.35 20
L 10.3 18.2
Q 10.55 18.3 10.8 18.45 11.95 18.85 12.45 18.25 12.75 18.1 13.25 17.9 15.45 16.95 17.85 16.25
L 20.55 15.6
Q 23.65 14.95 24.75 14.9
M 21.7 42.8
Q 21.5 42.85 21.4 42.95 21.2 43.1 21.2 43.35 21.2 43.45 21.2 43.55 20.55 43.65 20.6 44.1 20.6 44.55 21.25 44.7 21.15 44.7 21.1 44.75 20.55 45.15 21 45.6 21.15 45.75 21.65 45.75
L 32.55 45.55
Q 34.3 45.55 35.45 45.25 36.05 45 36.05 44.75 36.05 44.35 35.4 44.25 33.45 44.35 32.6 43.95 33.3 43.85 33.45 43.6 33.5 43.55 33.55 43.5
L 35.05 43.4
Q 35.35 43.3 35.35 43.05 35.45 42.7 35.05 42.6 34.9 42.5 34.5 42.5 34.25 42.5 34 42.5 34.15 42.2 34.15 41.95 34.15 41.65 33.8 41.55 33.6 41.45 33.25 41.45 33.2 41.25 32.9 41.15 32.65 41.05 32.15 41.1 31.8 41.1 31.6 41.1
L 33.1 40.95
Q 33.4 40.75 33.4 40.55 33.45 40.35 33.15 40.15 33 40.05 32.65 40.05 32.2 40.05 29.8 40.15
L 22.5 40.2 22 40.25
Q 21.65 40.35 21.65 40.65 21.65 41.15 22.25 41.15 22.55 41.2 23.15 41.25
L 23.45 41.45 22.5 41.45
Q 22.2 41.45 22.05 41.5 21.45 41.4 20.95 41.4 20.4 41.5 20.25 41.75 20.1 42.05 20.4 42.35 20.65 42.65 21.05 42.7 21.3 42.75 21.7 42.8
M 53.95 47.95
L 51.75 47.95
Q 41.5 47.95 37.6 48.2 34.95 48.4 33.55 48.7 32.65 48.45 31.75 48.9 30.8 49.4 30.45 50.35 30.25 50.8 30.25 51.5
L 30.4 52.25
Q 30.5 52.65 31 53.15 32.4 54.45 35.35 55.45 36.9 55.9 38.05 56.1
L 40.6 56.25
Q 48.1 56.25 52 55.8 52 55.9 52.05 56
L 52.55 57.2
Q 52.95 57.85 53.05 57.95 53.7 58.45 54.65 57.95 55.1 57.8 55.25 57.5 55.35 57.3 55.35 56.85
L 55.35 54.85
Q 55.35 54.75 55.35 54.7 56.55 54.3 57.25 53.05 57.95 51.85 57.6 50.35 57.35 49 56.4 48.4 55.65 47.95 53.95 47.95
M 54 48.95
Q 54.85 48.95 55.25 49.05 56.1 49.3 56.55 50.1 57 50.95 56.75 51.75 56.45 52.8 55.05 53.75 54.65 53.95 54.55 54.15 54.35 54.4 54.45 54.6 54.45 54.7 54.45 54.85
L 54.5 55.95
Q 54.5 56.55 54.4 56.8 54.1 57.3 53.7 57.15 53.6 57.05 53.1 55.85
L 52.7 54.8
Q 52.5 54.6 52.25 54.6 52 54.65 51.9 54.9 51.8 54.9 51.7 54.9 46.8 55.25 41.15 55.25
L 39.05 55.2
Q 35.5 54.9 32.5 53.05 31.45 52.45 31.3 51.8 31.1 51.3 31.35 50.65 31.7 49.7 32.8 49.6 32.95 49.7 33.4 49.65 39.4 48.95 51.55 48.95
L 54 48.95
M 93.45 35.1
Q 93.2 34.25 92.55 33.9 91.9 33.45 90.85 33.55 87.35 33.6 84.15 36.55 83.85 36.85 83.55 37.15 83.05 37.7 82.7 38.25 81.85 39.7 82.1 42.05 82.15 42.55 82.35 43.35 82.6 44.35 83.1 45.85
L 81 47.3
Q 80.25 47.85 80.15 48.2 80.05 48.6 80.25 48.95 80.5 49.3 80.9 49.35 81.3 49.45 81.95 49.05 82.9 48.5 83.55 48.05 83.75 47.9 83.9 47.75
L 85.6 51.85
Q 85.85 52.55 86.25 52.95 86.7 53.5 87.35 53.35 88.05 53.25 88.05 52.6 88.1 52.2 87.8 51.6 86.8 49.65 85.5 46.5 88.75 43.9 91.65 40.45 92.8 39 93.25 37.95 93.85 36.35 93.45 35.1
M 91.5 35.7
L 91.55 35.85
Q 91.55 36.75 91.5 36.9 91.45 37.15 91.15 37.65 90.2 39.35 87.1 42.35
L 84.8 44.55
Q 84.05 42.75 84.05 40.8 84.05 40.2 84.2 39.65 84.35 39.3 84.85 38.7 85.6 37.85 86.65 37.15 88.95 35.45 91.25 35.6 91.45 35.6 91.5 35.7
M 95.7 33.6
Q 95.25 33.6 95 33.95 94.7 34.25 94.7 35.15
L 94.7 42.8
Q 94.7 44.8 94.8 45.8 94.95 47.1 94.9 47.35
L 94.9 48.85
Q 95.1 49.8 95.75 50 96.5 50.2 96.85 49.55 97.05 49.15 96.95 48.5
L 96.7 35.15
Q 96.7 34.25 96.45 33.95 96.2 33.6 95.7 33.6
M 121.9 42.65
Q 122.1 42.05 121.75 41.75 121.25 41.15 120.45 41.65 120.05 41.9 119.45 42.6 118.3 43.9 116.45 44.5 114.75 45.05 112.85 44.9 112.25 44.9 112 44.6 111.8 44.35 111.8 43.9 111.7 42.55 111.85 41.3 111.85 41.5 111.95 41.7 112.15 42.15 112.6 42.25 113.15 42.35 113.9 41.9 117.9 39.75 119.6 38 120.75 36.85 121.05 35.85 121.6 34.4 120.75 33.35 120.25 32.7 119.3 32.4 118.55 32.15 117.55 32.05 115.7 32.05 113.95 33.3 112.55 34.3 111.45 36.25 109.65 39.45 109.75 43.35 109.75 44.95 110.35 45.8 108.9 44.65 106.6 42.85 105.85 42.25 105.2 41.65 106.75 39.4 107.3 38.6 108.85 36.2 109.75 34.2 110.3 33.05 109.95 32.5 109.75 32.15 109.35 32.05 108.95 32 108.6 32.2 108.3 32.4 108 33.1 106.95 35.6 103.7 40.3 101.9 38.6 100.95 37.25 100.4 36.65 100 35.75 99.45 34.55 98.9 34.45 98.5 34.4 98.15 34.7 97.85 35.05 97.8 35.5 97.75 36.15 98.4 37.1 99.95 39.55 102.55 42
L 98.9 47.2
Q 98.45 48 98.45 48.3 98.5 48.7 98.85 49 99.25 49.25 99.65 49.15 100.05 49.05 100.6 48.3
L 104.05 43.35
Q 105.65 44.7 108.2 46.7
L 109.95 48
Q 110.55 48.5 110.95 48.5 111.45 48.55 111.75 48.1 112.1 47.65 111.9 47.2 111.85 47.05 111.4 46.6 112.2 46.95 113.4 46.95 115.7 47 117.8 46.1 120 45.2 121.4 43.5 121.85 43.05 121.9 42.65
M 138.4 30.2
Q 135.9 29.75 133.25 30.15 132.05 30.35 131.65 30.9 131.15 31.55 131.5 32.45 131.6 32.8 132.3 33.85
L 135.7 38.3
Q 133.7 40.75 132.25 43.1 132.25 43.05 132.2 43 131.9 42.7 131.5 42.7 131 42.75 130.25 43.6 129.75 44.2 128.75 45.1 128.3 45.5 127.8 45.95 126.65 46.9 125.65 46.8 125.3 46.2 125.25 45.1 125.2 44.75 125.2 44.4 125.1 40.8 125.35 38.4
L 126.1 33.9
Q 126.35 33 126.45 32.85 126.95 32.2 127.05 31.85 127.25 31.1 126.6 30.75 125.85 30.45 125.15 31.05 124.75 31.45 124.45 32.4 124.2 33.15 123.9 34.65 122.85 39.75 123.25 45.1 123.25 45.2 123.25 45.3 123.45 47.7 124.5 48.45 125.3 48.95 126.4 48.8 127.9 48.55 129.75 46.9 130.35 46.4 130.85 45.9 130.8 46.55 131.25 46.9 131.85 47.3 132.95 46.75
L 138.1 44.35
Q 138.9 43.95 139.45 44 139.95 44 140.85 44.5 141.35 44.8 141.9 45.1 144.45 46.6 147.1 47.75 147.75 48.15 148.25 47.95 148.8 47.75 148.9 46.85 149 46.15 148.75 45.1 148.55 44.4 148.25 43.6
L 146.45 39.25
Q 149.3 37.5 152.05 34.4 153.1 33.2 152.7 32.5 152.4 32.1 151.4 31.85 150.25 31.65 148.05 31.05 147.4 30.85 147.1 30.55 146.9 30.35 146.4 29.4 145.9 28.1 145.2 26.9 145.05 26.65 144.9 26.4 144.3 25.5 143.65 25.4 142.95 25.35 142 26.4 141.8 26.65 141.6 26.9 140.15 28.55 138.4 30.2
M 133.6 32.2
Q 134.85 31.85 136.9 32.05 139.6 32.35 140.3 32.3 141.15 32.2 141.45 31.95 141.85 31.6 141.7 31.05 141.6 30.5 141.1 30.3 142.35 29.2 143.4 27.85 144.2 29.15 144.8 30.75 145.1 31.75 145.45 32.1 145.8 32.45 146.55 32.65 147.85 33.1 150.05 33.65 148.1 35.75 145.85 37.2 144.8 37.95 144.55 38.5 144.25 39.35 144.95 40.95 145.95 43.15 146.65 45.1 146.7 45.25 146.75 45.4 146.45 45.25 146.15 45.1 143.8 43.9 141.25 42.45 140.25 41.9 139.85 41.85 139.2 41.75 137.9 42.3
L 134 44.05
Q 136.1 40.85 137.2 39.7 137.95 38.85 137.95 38.35 137.95 37.95 137.45 37.25
L 133.6 32.2
M 177 34.05
Q 176.8 33.7 176.25 33.65 175.75 33.6 175.5 33.95 175.25 34.2 175.15 34.9 174.9 36.4 174.85 37.95 174.3 36.95 173.3 36.6 172.2 36.3 171.75 37.05 171.55 37.4 171.7 37.85 171.8 38.3 172.2 38.45
L 172.85 38.65
Q 173 38.75 173.2 39.3 173.85 42.15 172.1 44.3 171.75 44.65 171.55 44.65 171.1 44.75 170.9 44.15 170.85 43.85 170.95 43.25 171.3 41.5 171.35 39.15 171.35 36.4 171.35 35 171.35 31.65 172.05 29.6 172.4 28.65 172.4 28.4 172.4 27.6 171.85 27.35 171.2 27.1 170.75 27.65 170.5 27.9 170.15 28.7 169.55 30.7 169.4 33.5 169.35 34.35 169.35 38.4 169.35 40.25 169.25 41.35 169.2 41.35 169.2 41.3 169.05 40.8 168.55 40.7 168.05 40.55 167.65 40.85 167.4 41.05 167.1 41.65
L 166.4 42.75
Q 165.95 43.3 165.6 43.45 165.3 43.6 164.9 43.65 164.55 43.7 164.05 43.65 163.4 43.65 163.2 43.3
L 163.15 42.9 163.15 41.05
Q 163.95 41.2 164.9 40.85 165.4 40.65 165.9 40.35 167.15 39.6 167.7 38.85 168.45 37.8 168.4 36.7 168.3 35.35 167.2 34.85 166.75 34.65 165.85 34.65 165.25 34.65 164.9 34.7 164.65 34.75 164.5 34.8 163.7 35.15 163.1 36.1 162.25 37.25 161.75 38.85 161.35 38.85 161.05 39.15 161.05 39.05 161.05 38.95 161.2 37.05 161.35 36.2 161.5 35.15 161.5 35.1 161.4 34.45 160.95 34.2 160.65 34 160.2 34.2 159.85 34.35 159.6 34.7 159.35 35.15 159.25 36.2
L 159.05 38.85
Q 158.95 40.55 158.7 41.8 158.3 43.25 157.6 44.3 157.15 44.25 157.05 43.65 156.85 43 156.85 41.6
L 156.85 36.85
Q 156.85 35.75 156.4 35.4 155.7 34.95 155 35.65 154.65 36 154.35 37.05 154.05 38.1 153.35 40.15 152.75 41.95 152.05 43.15 152.25 39.6 153.1 37.25 153.4 36.35 153.8 35.85 154.2 35.35 154.3 35.05 154.4 34.65 154.15 34.3 153.9 33.9 153.5 33.8 152.9 33.7 152.5 34.2 152.1 34.55 151.85 35.1 150.95 36.85 150.5 39.25 150.1 41.3 150 43.8 150 44.65 150.2 45.1 150.25 45.2 150.3 45.3 150.8 46.05 151.85 45.85 152.5 45.7 153.15 45.1 153.2 45.05 153.25 44.95 153.65 44.4 154.15 43.45
L 154.85 42
Q 154.85 43.95 155.45 45.05 155.45 45.1 155.5 45.1 155.95 45.75 156.6 46.1 157.35 46.5 158.05 46.3 158.85 46.05 159.5 45.1 159.75 44.65 160 44.1 160.6 42.65 160.75 41.7 160.85 41.15 160.95 40.4
L 161.1 40.7
Q 161.15 40.8 161.15 41.15
L 161.15 42.55
Q 161.15 43.7 161.3 44.05 161.55 44.7 162.15 45.1 162.4 45.3 162.75 45.4 163.55 45.7 164.75 45.7 165.85 45.6 166.35 45.4 166.95 45.1 167.6 44.35 168.35 43.6 168.85 42.75 169 42.55 169.1 42.35 169 42.75 168.9 43.4 168.85 44.3 169.05 44.95 169.35 45.95 170.4 46.45 171.5 46.95 172.45 46.5 173.45 46.1 174.4 44.45 174.9 43.45 175.05 43.05 175.1 43.3 175.2 43.55 175.65 44.85 176.65 45.35 177.15 45.65 177.75 45.65 178.4 45.65 178.85 45.3 179.45 44.9 179.8 43.9 180.9 45.3 181.8 45.85 183.25 46.65 184.45 46 185.15 45.55 185.6 44.6 185.65 44.45 185.75 44.3 185.85 45.25 186.3 45.65 186.9 46.2 187.95 46.1 188.95 46.1 189.7 45.7 190.15 45.45 190.85 44.75 192.3 43.3 192.75 42.2 193.1 41.4 193.2 39.75 193.2 38.1 192.85 37.1 192.55 36.2 191.6 34.85 191.9 34.6 191.9 34.15 191.9 33.65 191.55 33.4 191.1 33.05 190.4 33.2 189.85 33.4 189.35 33.9 188.05 35.15 186.7 38.45 186.7 36.9 186.5 34.1 186.4 33.05 186.05 32.75 185.75 32.5 185.35 32.5 184.9 32.55 184.65 32.85 184.35 33.25 184.45 34.3 184.7 36.7 184.7 38.65 184.7 42.15 183.65 43.95 183.6 44.15 183.4 44.25 183.35 44.3 182.95 44.15 181.55 43.3 181 41.7 180.45 40.35 180.55 38.55 180.55 37.7 180.5 37.5 180.35 36.9 179.85 36.7 179.2 36.55 178.75 37.15 178.6 37.4 178.5 37.7 178.4 38 178.35 38.4
L 178.35 41
Q 178.35 42.6 177.8 43.5 177.7 43.65 177.65 43.6
L 177.5 43.5 177.05 42.75 177.1 42.95
Q 176.75 42.15 176.75 40.3 176.85 36.85 177.1 35.65 177.3 34.45 177 34.05
M 166.1 36.65
L 166.4 36.7
Q 166.5 36.8 166.4 36.95 166.25 37.55 165.7 38.05 165.45 38.35 164.9 38.65 164.75 38.7 164.55 38.8
L 163.85 39.1
Q 164.15 37.95 164.85 37.1 164.85 37.05 164.9 37 165.05 36.75 165.3 36.7 165.45 36.65 166.1 36.65
M 188.85 43.8
Q 188.15 44.2 187.7 44.1 187.5 42.2 188.25 39.95 188.7 38.65 190 36.15 191.55 37.95 191.15 40.2 190.85 42.55 188.85 43.8
M 207.95 29.75
Q 207.8 30.2 207.9 30.85
L 207.95 35.75
Q 206.8 35.4 205.85 36.05 205.4 36.35 204.7 37.15 202.6 39.8 202.15 41.8 202.1 42.05 202.1 42.25 201.95 42.25 201.8 42.25 201.4 42.3 200.8 42.85 200.2 43.45 199.85 43.55 199.85 42.4 200.35 40.2 200.9 37.75 202.2 32.95
L 203 29.85
Q 203.2 29.15 203.1 28.75 203 28.4 202.6 28.25 202.15 28.05 201.8 28.2 201.3 28.45 201 29.6
L 199.95 33.65
Q 199.65 33.6 199.35 33.6
L 197.85 33.7
Q 197.1 33.95 195.85 35.2 196.05 34.4 195.35 33.95 195.1 33.75 194.7 33.85 194.35 33.9 194.1 34.15 193.85 34.45 193.85 35.35
L 193.85 39.45
Q 193.6 41.1 193.6 41.45
L 193.65 42.45 193.5 43.35
Q 193.4 43.85 193.5 44.2 193.6 44.55 193.95 44.75 194.3 44.95 194.65 44.85 195.4 44.65 195.6 43.5 195.6 42 195.65 41.25 195.7 40.3 196.05 39.15 196.25 38.55 196.5 37.95
L 197.05 36.9 197.8 36.05 198.4 35.65
Q 198.7 35.6 199.25 35.6 199.3 35.6 199.4 35.6 198 40.85 197.8 43.65 197.8 44.7 198.05 45.1 198.55 45.65 199.5 45.65 200.3 45.65 201 45.25 201.7 44.9 202.2 44.35 202.45 44.1 202.65 43.85 203.15 44.25 204.05 44.4 205.85 44.8 206.9 44.3 207 45.15 207.95 45.15 208.65 45.15 209.2 44.4 209.55 43.8 209.7 43 210.4 39.85 210.1 36.3
L 209.95 35.2
Q 209.9 34.65 209.9 31.8
L 209.95 30.5
Q 210.05 29.7 210 29.5 209.9 29.1 209.45 28.9 209.05 28.7 208.65 28.85 208.1 29.1 207.95 29.75
M 207.6 37.8
Q 207.95 37.9 208.15 37.9
L 208.15 39.6
Q 207.55 39.55 207.2 40.15 207.05 40.4 206.85 41.25 206.65 41.95 206.3 42.25 205.9 42.6 205.25 42.6 204.6 42.5 204.1 42.3 204.5 40.7 206.55 38.05 206.85 37.75 207 37.7 207.2 37.65 207.6 37.8 Z"/>

<path fill="#FFFFFF" stroke="none" d="
M 27.4 14.85
L 24.75 14.9
Q 23.65 14.95 20.55 15.6
L 17.85 16.25
Q 15.45 16.95 13.25 17.9 12.75 18.1 12.45 18.25 11.95 18.85 10.8 18.45 10.55 18.3 10.3 18.2
L 11.35 20
Q 11.55 20.3 11.65 20.55 11.65 20.6 11.7 20.7 11.9 21.05 11.8 21.45 11.7 21.8 10.75 22.4
L 8.3 23.65 10.6 25.4
Q 10.9 25.4 11.1 25.65 11.4 25.95 11.4 26.4 11.45 26.55 11.4 26.65 11.35 27.05 10.95 27.3 10.8 27.45 10.55 27.75 9.15 29.15 7.95 30.65 9.6 30.6 11.25 30.2 11.9 30.1 13.15 29.8 14.3 29.55 15.1 29.55 15.15 29.55 15.2 29.55 15.75 24.75 18.25 21.35 21.25 17.2 27.4 14.85
M 50.35 20.9
Q 49.8 23.2 49.4 24.25 49 25.35 47 28.85 46.4 30 46.2 30.85 46.1 31.55 46 31.7 45.8 31.95 45.45 32.05 45.8 32.5 45.85 32.6 46.1 33.15 45.8 33.6 45.4 34.1 44.65 33.8 44.3 33.65 43.7 33.05 42.4 31.75 41.75 30.8 41.35 30.05 41.15 29.4 40.85 29.8 40.6 30.2 39.05 32.6 37.65 33.85
L 36.45 34.9
Q 35.9 35.45 35.7 35.6 35.7 35.75 35.65 35.85 35.4 36.4 34.85 36.5 34.25 36.6 33.9 36.1 33.75 35.95 33.65 35.45
L 32.9 32.45
Q 32.6 31.75 32.55 31.4 32.45 30.9 32.45 30.15
L 32.45 30.1
Q 29.45 35.2 27.45 37.9 27.1 38.5 26.6 38.8 26.1 39.1 25.75 38.95 25.45 38.95 25.15 38.7 24.85 38.35 24.7 37.85 23.6 34.6 23.4 33.95 23.2 33.3 23.05 32.7 22.2 35.25 20.15 39.85
L 18.55 43.35
Q 18.55 43.8 18.55 44 18.45 44.95 18.2 45.2 17.95 45.5 17.5 45.5 17 45.5 16.8 45.25 16.6 45.25 16.4 45.2 15.9 45.1 15.75 44.7 15.5 44.2 16.3 43.05 16.4 42.9 16.55 42.75 16.5 41.5 16.2 40.2 16.15 39.6 16.15 39.3 16.1 39.1 16.05 38.9 15.15 35.7 15.1 32.65 14.7 33.05 14.2 33.45 13.05 34.45 10.9 35.9
L 10.3 36.35
Q 12 39.05 14.25 41.3 14.4 41.5 14.55 41.65 14.65 41.7 14.8 41.8 15.2 42.15 15.15 42.6 15.1 43 14.6 43.6 14.05 44.3 12.75 45.5 11.5 46.75 10.9 47.4
L 10.2 48.25
Q 9.05 49.75 7.95 51.35 14.65 54.3 15.25 55.4 15.8 56.5 24.9 59 33.95 61.5 48.25 60.6 55.9 60.15 63.1 58.4 69.35 56.9 75.25 54.4
L 72 50
Q 70.65 48.35 70.5 48.15 69.65 46.45 69.15 45.65 68.6 44.6 68.65 44.2 68.7 44 68.9 43.85 69 43.55 69.6 43.05 69.95 42.8 71.4 41.6
L 77.75 35.55 76.3 33.95
Q 73.7 31.35 70.9 28.85 70.95 29.45 70.95 30.1 70.95 31.15 70.5 31.5 70.45 31.8 70.45 32.05
L 69.7 36.45
Q 69.25 38.55 68.65 40.55 68.25 41.95 67.75 43.3 67.5 44.2 67.1 44.65 67.05 44.7 67 44.8 66.8 45.1 66.45 45.2 66.05 45.35 65.7 45.15 65.25 44.85 64.95 43.7 64.8 43.1 64.3 41.8 64.25 41.85 64.15 41.95 64.05 42.05 63.8 42.2 63.75 42.3 63.65 42.4 63.9 42.7 63.55 43.05 63.4 43.2 62.85 43.45 63.25 43.85 63.2 44.05 63.15 44.5 62.5 44.5 62.35 44.5 62.2 44.55 62.15 44.8 61.75 44.9 60.55 45.35 57.5 45.35
L 52.75 45.3 52.35 45.25
Q 52.15 45.1 52.15 44.8
L 52.15 44.75
Q 51.5 44.75 50.85 44.7 50.6 44.7 50.35 44.55
L 50.15 44.2 49.7 43.9
Q 49.5 43.7 49.6 43.4 49.65 43.15 49.85 43 49.85 42.95 49.85 42.9 49.65 42.55 50.05 42.25 50.2 42.15 50.75 42.1 50.75 41.95 50.75 41.75 50.8 41.65 51 41.55 51.1 41.4 51.25 41.3
L 50.55 41.15
Q 50.05 41.05 50.05 40.7 50.05 40.45 50.35 40.25
L 50.9 40.2 52.3 40.2
Q 52.4 40.15 52.5 40.15 52.95 40.05 53.95 40.05
L 57.8 40.05
Q 58.25 40.05 58.45 40.15 58.5 40.2 58.6 40.25
L 61.4 40.2
Q 61.95 40.2 62.15 40.35 62.35 40.5 62.35 40.7 62.4 40.95 62.2 41.05 63.2 41.05 63.75 41.15 63.95 41.15 64.05 41.2 63.9 40.85 63.75 40.5 61.4 35.65 60.05 33.6 59.25 34.9 57.45 37.65 57.05 38.35 56.6 38.5 56.2 38.65 55.75 38.4 55.4 38.15 55.35 37.75 55.15 37.45 55.05 37
L 54.95 35.6
Q 54.85 35.1 54.55 34.2 54.25 33.25 54.15 32.8 54.05 32.4 53.8 30.8
L 53.35 28.7
Q 52.2 23.95 50.75 19.3 50.55 20 50.35 20.9
M 51.75 47.95
L 53.95 47.95
Q 55.65 47.95 56.4 48.4 57.35 49 57.6 50.35 57.95 51.85 57.25 53.05 56.55 54.3 55.35 54.7 55.35 54.75 55.35 54.85
L 55.35 56.85
Q 55.35 57.3 55.25 57.5 55.1 57.8 54.65 57.95 53.7 58.45 53.05 57.95 52.95 57.85 52.55 57.2
L 52.05 56
Q 52 55.9 52 55.8 48.1 56.25 40.6 56.25
L 38.05 56.1
Q 36.9 55.9 35.35 55.45 32.4 54.45 31 53.15 30.5 52.65 30.4 52.25
L 30.25 51.5
Q 30.25 50.8 30.45 50.35 30.8 49.4 31.75 48.9 32.65 48.45 33.55 48.7 34.95 48.4 37.6 48.2 41.5 47.95 51.75 47.95
M 21.4 42.95
Q 21.5 42.85 21.7 42.8 21.3 42.75 21.05 42.7 20.65 42.65 20.4 42.35 20.1 42.05 20.25 41.75 20.4 41.5 20.95 41.4 21.45 41.4 22.05 41.5 22.2 41.45 22.5 41.45
L 23.45 41.45 23.15 41.25
Q 22.55 41.2 22.25 41.15 21.65 41.15 21.65 40.65 21.65 40.35 22 40.25
L 22.5 40.2 29.8 40.15
Q 32.2 40.05 32.65 40.05 33 40.05 33.15 40.15 33.45 40.35 33.4 40.55 33.4 40.75 33.1 40.95
L 31.6 41.1
Q 31.8 41.1 32.15 41.1 32.65 41.05 32.9 41.15 33.2 41.25 33.25 41.45 33.6 41.45 33.8 41.55 34.15 41.65 34.15 41.95 34.15 42.2 34 42.5 34.25 42.5 34.5 42.5 34.9 42.5 35.05 42.6 35.45 42.7 35.35 43.05 35.35 43.3 35.05 43.4
L 33.55 43.5
Q 33.5 43.55 33.45 43.6 33.3 43.85 32.6 43.95 33.45 44.35 35.4 44.25 36.05 44.35 36.05 44.75 36.05 45 35.45 45.25 34.3 45.55 32.55 45.55
L 21.65 45.75
Q 21.15 45.75 21 45.6 20.55 45.15 21.1 44.75 21.15 44.7 21.25 44.7 20.6 44.55 20.6 44.1 20.55 43.65 21.2 43.55 21.2 43.45 21.2 43.35 21.2 43.1 21.4 42.95
M 55.25 49.05
Q 54.85 48.95 54 48.95
L 51.55 48.95
Q 39.4 48.95 33.4 49.65 32.95 49.7 32.8 49.6 31.7 49.7 31.35 50.65 31.1 51.3 31.3 51.8 31.45 52.45 32.5 53.05 35.5 54.9 39.05 55.2
L 41.15 55.25
Q 46.8 55.25 51.7 54.9 51.8 54.9 51.9 54.9 52 54.65 52.25 54.6 52.5 54.6 52.7 54.8
L 53.1 55.85
Q 53.6 57.05 53.7 57.15 54.1 57.3 54.4 56.8 54.5 56.55 54.5 55.95
L 54.45 54.85
Q 54.45 54.7 54.45 54.6 54.35 54.4 54.55 54.15 54.65 53.95 55.05 53.75 56.45 52.8 56.75 51.75 57 50.95 56.55 50.1 56.1 49.3 55.25 49.05
M 61.4 24.3
Q 61.8 24.1 62.25 24.25 62.7 24.45 62.8 24.85 62.9 25.15 62.7 25.85
L 61.25 31.05 61.05 31.6
Q 61.25 31.8 61.5 32.15 63.1 34.5 64.6 37.65 65.45 39.35 66.25 41.35 66.25 41.4 66.3 41.45 66.55 40.7 66.8 39.7 67.2 38.15 67.5 36.95 67.9 35.2 68.1 34.2 68.65 31.05 68.5 28.55 68.45 27.85 68.55 27.4 68.4 26.85 68.2 26.3 68.1 26.25 68.05 26.15 67.95 25.9 67.95 25.65 67.1 23.85 65.65 22.15 63.55 19.75 59.25 16.95 56.1 15 54.15 14.45 52.45 14 49.45 13.9 44.25 13.7 41.6 13.85 38.65 14.05 34.7 14.9 29.7 15.85 26.4 17.45 21.9 19.55 19.65 22.85 17.65 25.75 17.2 29.7 17.25 29.85 17.25 30.05 17.25 30.2 17.15 30.45 16.85 34.1 17.9 38.05 18.15 38.75 18.1 39.25 18.15 39.3 18.15 39.4 19.8 35.7 20.5 33.85 22.1 29.65 22.55 26.15 22.8 24.2 22.9 23.85 23.1 23 23.55 22.75 23.9 22.55 24.3 22.7 24.65 22.8 24.85 23.15 25 23.45 24.9 24.25 24.6 26.05 24.35 27.5 24.4 27.55 24.45 27.65 24.6 27.9 24.6 28.9
L 24.7 30.2
Q 24.95 32.15 25.55 34.1 25.85 35.05 26.25 36.15 27.5 34.55 29.4 31.3
L 32.7 25.75
Q 34.1 23.35 34.6 22.3 35.1 21.45 35.25 21.3 35.7 20.8 36.35 20.95 37 21.25 36.9 22.1 36.9 22.55 36.4 23.35
L 34.65 26.35
Q 34.65 26.65 34.5 27.1 34.45 27.5 34.45 29.35
L 34.45 30.5 35.2 33.3
Q 36 32.5 37.3 31.35 38.05 30.5 39.25 28.6
L 42.45 23.8
Q 42.9 23.15 42.95 22.9 42.85 22 43 21.6 43.15 21.2 43.65 21.05 44.1 20.85 44.5 21.1 45 21.45 45 22.25 45.05 23.3 44.5 24.35
L 43.25 26.15
Q 43.2 26.2 42.65 27.05 42.8 27.3 42.95 27.75 43.5 29.2 44.2 30.35 44.25 29.95 44.65 29.05
L 47.5 23.6
Q 47.7 23.15 47.9 22.4 48.15 21.45 48.5 20 49 17.7 49.6 16.45 49.75 15.95 50.1 15.75 50.2 15.55 50.5 15.4 50.9 15.25 51.3 15.45 51.7 15.7 52 16.6
L 53.35 20.9
Q 54.55 25.05 55.85 30.8
L 56.8 35.05
Q 57.55 33.9 57.85 33.35 58.95 31.55 59.45 29.95
L 60.7 25.55
Q 60.9 24.6 61.4 24.3
M 67 16.05
L 64.4 15.4
Q 62.75 15.05 61.3 14.8 60.05 14.6 58.95 14.45 59.75 14.9 60.6 15.45 65.25 18.45 67.7 21.5 69 23.1 69.8 24.85
L 76.3 27.5
Q 75.7 26.65 75 25.45 74.85 25.25 74.8 25.05 74.6 24.75 74.65 24.4 74.7 24.3 74.7 24.25 74.8 24 75 23.85 75.1 23.7 75.3 23.55
L 76.3 23.15
Q 76.85 22.95 77.4 22.65
L 75.95 20.95
Q 75.85 20.6 75.45 20.15 75 19.7 74.8 19.45 74.55 19.2 74.45 18.95 74.05 18.6 74.15 18.1 74.15 17.9 74.3 17.7 73.05 17.8 72.55 17.8 71.95 17.75 71.6 17.6 71.2 17.55 70.65 17.35 67.75 16.25 67 16.05 Z"/>
</g>
</defs>

<g transform="matrix( 1, 0, 0, 1, 0,0) ">
<use xlink:href="#Layer1_0_FILL"/>
</g>

<g transform="matrix( 1, 0, 0, 1, 0,0) ">
<use xlink:href="#Layer0_0_FILL"/>
</g>
</svg>
