
<svg xmlns="http://www.w3.org/2000/svg" version="1.1" xmlns:xlink="http://www.w3.org/1999/xlink" preserveAspectRatio="none" x="0px" y="0px" width="600px" height="120px" viewBox="0 0 600 120">
<defs>
<filter id="Filter_1" x="-20%" y="-20%" width="140%" height="140%" color-interpolation-filters="sRGB">
<feColorMatrix in="SourceGraphic" type="matrix" values="1 0 0 0 0 0 1 0 0 0 0 0 1 0 0 0 0 0 0.5 0" result="result1"/>
</filter>

<g id="Layer2_0_FILL">
<path fill="#FFFFFF" stroke="none" d="
M 600 120
L 600 0.2 0 0.2 0 120 600 120 Z"/>
</g>

<g id="bits_0_Layer0_0_FILL">
<path fill="#000000" stroke="none" d="
M 41.7 86.8
L 21.7 86.8 21.7 106.8 41.7 106.8 41.7 86.8
M 21.7 43.4
L 21.7 63.4 41.7 63.4 41.7 43.4 21.7 43.4
M 20 86.8
L 0 86.8 0 106.8 20 106.8 20 86.8
M 20 43.4
L 0 43.4 0 63.4 20 63.4 20 43.4
M 20 0
L 0 0 0 20 20 20 20 0
M 20 21.7
L 0 21.7 0 41.7 20 41.7 20 21.7
M 43.4 21.7
L 43.4 41.7 63.4 41.7 63.4 21.7 43.4 21.7
M 41.7 41.7
L 41.7 21.7 21.7 21.7 21.7 41.7 41.7 41.7
M 63.4 43.4
L 43.4 43.4 43.4 63.4 63.4 63.4 63.4 43.4
M 128.5 86.8
L 108.5 86.8 108.5 106.8 128.5 106.8 128.5 86.8
M 108.5 43.4
L 108.5 63.4 128.5 63.4 128.5 43.4 108.5 43.4
M 85.1 63.4
L 85.1 43.4 65.1 43.4 65.1 63.4 85.1 63.4
M 150.2 86.8
L 130.2 86.8 130.2 106.8 150.2 106.8 150.2 86.8
M 86.8 65.1
L 86.8 85.1 106.8 85.1 106.8 65.1 86.8 65.1
M 85.1 85.1
L 85.1 65.1 65.1 65.1 65.1 85.1 85.1 85.1
M 108.5 65.1
L 108.5 85.1 128.5 85.1 128.5 65.1 108.5 65.1
M 106.8 86.8
L 86.8 86.8 86.8 106.8 106.8 106.8 106.8 86.8
M 86.8 0
L 86.8 20 106.8 20 106.8 0 86.8 0
M 85.1 20
L 85.1 0 65.1 0 65.1 20 85.1 20
M 130.2 21.7
L 130.2 41.7 150.2 41.7 150.2 21.7 130.2 21.7
M 150.2 43.4
L 130.2 43.4 130.2 63.4 150.2 63.4 150.2 43.4
M 128.5 41.7
L 128.5 21.7 108.5 21.7 108.5 41.7 128.5 41.7
M 238.7 86.8
L 238.7 106.8 258.7 106.8 258.7 86.8 238.7 86.8
M 215.3 86.8
L 195.3 86.8 195.3 106.8 215.3 106.8 215.3 86.8
M 195.3 43.4
L 195.3 63.4 215.3 63.4 215.3 43.4 195.3 43.4
M 217 65.1
L 217 85.1 237 85.1 237 65.1 217 65.1
M 173.6 65.1
L 173.6 85.1 193.6 85.1 193.6 65.1 173.6 65.1
M 193.6 86.8
L 173.6 86.8 173.6 106.8 193.6 106.8 193.6 86.8
M 173.6 0
L 173.6 20 193.6 20 193.6 0 173.6 0
M 171.9 20
L 171.9 0 151.9 0 151.9 20 171.9 20
M 193.6 43.4
L 173.6 43.4 173.6 63.4 193.6 63.4 193.6 43.4
M 217 0
L 217 20 237 20 237 0 217 0
M 215.3 20
L 215.3 0 195.3 0 195.3 20 215.3 20
M 237 43.4
L 217 43.4 217 63.4 237 63.4 237 43.4
M 215.3 41.7
L 215.3 21.7 195.3 21.7 195.3 41.7 215.3 41.7
M 302.1 86.8
L 282.1 86.8 282.1 106.8 302.1 106.8 302.1 86.8
M 282.1 43.4
L 282.1 63.4 302.1 63.4 302.1 43.4 282.1 43.4
M 303.8 65.1
L 303.8 85.1 323.8 85.1 323.8 65.1 303.8 65.1
M 323.8 86.8
L 303.8 86.8 303.8 106.8 323.8 106.8 323.8 86.8
M 258.7 85.1
L 258.7 65.1 238.7 65.1 238.7 85.1 258.7 85.1
M 260.4 65.1
L 260.4 85.1 280.4 85.1 280.4 65.1 260.4 65.1
M 282.1 65.1
L 282.1 85.1 302.1 85.1 302.1 65.1 282.1 65.1
M 260.4 21.7
L 260.4 41.7 280.4 41.7 280.4 21.7 260.4 21.7
M 258.7 20
L 258.7 0 238.7 0 238.7 20 258.7 20
M 280.4 20
L 280.4 0 260.4 0 260.4 20 280.4 20
M 303.8 21.7
L 303.8 41.7 323.8 41.7 323.8 21.7 303.8 21.7
M 302.1 41.7
L 302.1 21.7 282.1 21.7 282.1 41.7 302.1 41.7
M 347.2 43.4
L 347.2 63.4 367.2 63.4 367.2 43.4 347.2 43.4
M 367.2 86.8
L 347.2 86.8 347.2 106.8 367.2 106.8 367.2 86.8
M 368.9 65.1
L 368.9 85.1 388.9 85.1 388.9 65.1 368.9 65.1
M 347.2 65.1
L 347.2 85.1 367.2 85.1 367.2 65.1 347.2 65.1
M 345.5 86.8
L 325.5 86.8 325.5 106.8 345.5 106.8 345.5 86.8
M 325.5 21.7
L 325.5 41.7 345.5 41.7 345.5 21.7 325.5 21.7
M 388.9 21.7
L 368.9 21.7 368.9 41.7 388.9 41.7 388.9 21.7
M 388.9 43.4
L 368.9 43.4 368.9 63.4 388.9 63.4 388.9 43.4
M 367.2 20
L 367.2 0 347.2 0 347.2 20 367.2 20
M 388.9 20
L 388.9 0 368.9 0 368.9 20 388.9 20 Z"/>
</g>

<g id="hair_body_0_Layer0_0_FILL">
<path fill="#FFFFFF" stroke="none" d="
M 65.2 -16.35
L 13.95 -16.35 10.8 0.7 0.65 64.05
Q -1.2 78.9 2.35 93.05 6.5 84.35 6.7 76.4 7.75 87.95 11.3 98.85 17.7 91.05 20.95 81.7
L 58.9 88.65 63.55 101.4
Q 68.65 90.7 69.05 79.4 69.1 78 69.05 76.6 69.1 78 69.05 79.4 70.65 88.75 75.6 96.15 77.7 80.45 75.6 63.1 73.85 34 66.65 0
L 65.2 -16.35 Z"/>
</g>

<g id="body_0_Layer4_0_FILL">
<path fill="#FFFFFF" stroke="none" d="
M 48.15 113.6
Q 52.45 117.45 58.85 119.95 62.9 119.6 62.2 115.85 57.9 111.5 51.85 108.6 50.85 111.1 48.15 113.6
M 63.95 117.8
Q 63.1 116.8 62.2 115.85 62.9 119.6 58.85 119.95 52.45 117.45 48.15 113.6 50.85 111.1 51.85 108.6 50.45 107.85 48.9 107.25 49.1 110.8 46.3 112.15 43.5 113.45 40.95 110.9 38.45 108.3 38.4 107.4 36.8 107.8 36.35 111.8 35.95 115.8 41.7 119.6 47.45 123.4 61 123.55 65.35 122.55 64.4 118.6 64.35 118.4 64.3 118.25 64.1 118 63.95 117.8
M 45.5 83.25
Q 42.05 80.6 36.85 82.15 37.15 91.9 38.4 107.4 38.45 108.3 40.95 110.9 43.5 113.45 46.3 112.15 49.1 110.8 48.9 107.25 46.15 93.65 45.5 83.25
M 11.9 108.55
Q 5.8759765625 111.51328125 1.6 115.85 0.8904296875 119.616796875 4.95 119.95 11.3392578125 117.468359375 15.65 113.6 12.944921875 111.0875 11.9 108.55
M 25.4 107.35
Q 25.332421875 108.31328125 22.8 110.85 20.308203125 113.428515625 17.5 112.1 14.698046875 110.8216796875 14.9 107.25 13.3578125 107.87109375 11.9 108.55 12.944921875 111.0875 15.65 113.6 11.3392578125 117.468359375 4.95 119.95 0.8904296875 119.616796875 1.6 115.85 0.697265625 116.787109375 -0.15 117.75 -0.3205078125 118.0037109375 -0.5 118.2 -0.5541015625 118.409765625 -0.6 118.6 -1.558984375 122.5615234375 2.8 123.55 16.33828125 123.412890625 22.1 119.6 27.858984375 115.77890625 27.4 111.8 26.986328125 107.8189453125 25.4 107.35
M 26.95 82.15
Q 21.7263671875 80.6033203125 18.3 83.25 17.658203125 93.6625 14.9 107.25 14.698046875 110.8216796875 17.5 112.1 20.308203125 113.428515625 22.8 110.85 25.332421875 108.31328125 25.4 107.35 26.665625 91.9025390625 26.95 82.15 Z"/>
</g>

<g id="body_0_Layer3_0_FILL">
<path fill="#FFFFFF" stroke="none" d="
M 47.15 3.2
L 46 0 20.6 0.4 18.8 4.15 18.8 4.2
Q 18.423046875 4.45625 14.15 17.55 9.926953125 30.64375 0 57 2.9466796875 64.6611328125 14.2 69.7
L 18.3 61.2 16.3 61.25 16.15 61.25
Q 16.2 60.95 16.25 60.7 18.6 41.05 19 25.9 18.6 41.05 16.25 60.7
L 16.3 61.25 18.3 61.2 45.6 60.7 47.65 60.65 47.8 60.3
Q 45.25 42.05 44.75 25.9 45.25 42.05 47.8 60.3 47.8 60.45 47.85 60.65
L 47.65 60.65 45.6 60.7 47.7 68.25
Q 59.1693359375 63.459375 62.05 57.4 52.650390625 31.9185546875 47.15 3.2 Z"/>
</g>

<g id="body_0_Layer2_0_FILL">
<path fill="#FFFFFF" stroke="none" d="
M 10.3 81.9
Q 9.311328125 84.591015625 8.25 87.3 16.15 91.95 27.15 89.65
L 39.85 86.85
Q 46.824609375 85.6759765625 52.85 86.4 51.41328125 82.6109375 50.3 78.65 46.0146484375 76.81484375 42.7 79.25 33.50625 73.131640625 23.4 81.75 17.64375 78.900390625 10.3 81.9
M 37.85 65.15
Q 31.860546875 68.604296875 25.85 65.35 21.8412109375 69.5755859375 15.2 67.2 13.051953125 74.453125 10.3 81.9 17.64375 78.900390625 23.4 81.75 33.50625 73.131640625 42.7 79.25 46.0146484375 76.81484375 50.3 78.65 48.3966796875 71.7888671875 47.5 64.4 41.358203125 67.3212890625 38.1 65.15
L 37.85 65.15
M 25.85 65.35
Q 31.860546875 68.604296875 37.85 65.15
L 38.1 65.15
Q 41.358203125 67.3212890625 47.5 64.4 47.2642578125 62.57421875 47.1 60.7
L 16.95 61.25
Q 16.141015625 64.2166015625 15.2 67.2 21.8412109375 69.5755859375 25.85 65.35 Z"/>
</g>

<g id="body_0_Layer1_0_FILL">
<path fill="#FFFFFF" stroke="none" d="
M 37.05 8.05
L 37.85 9.5 46.9 1.05 38 -4.05 38 1.2 34 2.55 35.85 5.9 37.05 8.05
M 33 10.1
Q 32.391796875 10.022265625 31.95 9.8
L 25.3 44.5 32.95 52.65 42.15 44.1 33.9 9.8
Q 33.537890625 10.0384765625 33 10.1
M 30.75 7.6
Q 30.8642578125 7.057421875 31.1 6.65
L 29.75 5.95 28.5 7.95 31.05 9.05
Q 30.7103515625 8.47265625 30.75 7.6
M 34.8 8
Q 34.78125 8.7125 34.5 9.15
L 37.05 8.05 35.85 5.9 34.4 6.6
Q 34.823828125 7.117578125 34.8 8
M 33.9 9.8
Q 34.305859375 9.581640625 34.5 9.15 34.78125 8.7125 34.8 8 34.823828125 7.117578125 34.4 6.6 33.99140625 6.0068359375 33.05 5.85 31.692578125 5.7427734375 31.1 6.65 30.8642578125 7.057421875 30.75 7.6 30.7103515625 8.47265625 31.05 9.05 31.35390625 9.5462890625 31.95 9.8 32.391796875 10.022265625 33 10.1 33.537890625 10.0384765625 33.9 9.8
M 27.4 -3.65
L 27.4 -3.75 17.6 1.85 27.9 8.9 28.5 7.95 29.75 5.95 31.8 2.7 27.25 0.6 27.4 -3.65
M 37.8 -4.15
L 27.4 -3.65 27.25 0.6 31.8 2.7 29.75 5.95 31.1 6.65
Q 31.692578125 5.7427734375 33.05 5.85 33.99140625 6.0068359375 34.4 6.6
L 35.85 5.9 34 2.55 38 1.2 38 -4.05 37.8 -4.15 Z"/>
</g>

<g id="body_0_Layer0_0_FILL">
<path fill="#FFFFFF" stroke="none" d="
M 35.3 55.35
Q 35.16015625 55.158984375 35 54.95 34.198828125 55.520703125 33.2 55.4
L 33.2 55.45
Q 33.68828125 62 36 68.55 38.42578125 68.57265625 39.55 66.55 36.7611328125 60.62421875 35.3 55.35
M 31.1 55.2
Q 30.941796875 55.4130859375 30.75 55.6 28.254296875 60.9427734375 27 66.95 28.3359375 68.7857421875 30.15 68.55
L 33.2 55.45 33.2 55.4
Q 32.3810546875 55.3544921875 31.4 54.8 31.2779296875 55.0123046875 31.1 55.2
M 35.65 54.35
Q 36.5068359375 51.854296875 35.65 51.05 35.18984375 50.8310546875 34.75 50.7 33.1373046875 50.191796875 31.65 50.7 31.14921875 50.893359375 30.65 51.2 29.8869140625 52.85 30.9 54.5 31.164453125 54.67421875 31.4 54.8 32.3810546875 55.3544921875 33.2 55.4 34.198828125 55.520703125 35 54.95 35.0607421875 54.907421875 35.1 54.85 35.398828125 54.6447265625 35.65 54.35
M 20.25 45.6
Q 18.2732421875 45.8939453125 17.6 48.3 16.111328125 54.9 17.5 61.5 17.6701171875 63.9458984375 20.3 63.2 26.9951171875 59.9763671875 30.75 55.6 30.941796875 55.4130859375 31.1 55.2 31.2779296875 55.0123046875 31.4 54.8 31.164453125 54.67421875 30.9 54.5 29.8869140625 52.85 30.65 51.2 31.14921875 50.893359375 31.65 50.7 27.3935546875 46.3962890625 20.25 45.6
M 46.2 46.05
Q 45.7595703125 45.0330078125 43.35 45.3 37.971484375 46.9873046875 34.75 50.7 35.18984375 50.8310546875 35.65 51.05 36.5068359375 51.854296875 35.65 54.35 35.398828125 54.6447265625 35.1 54.85
L 35.3 55.35
Q 38.6966796875 59.5529296875 44.2 62.25 46.662890625 63.876953125 47.2 60.1 49.181640625 53.2439453125 46.2 46.05 Z"/>
</g>

<g id="head_0_Layer2_0_FILL">
<path fill="#FFFFFF" stroke="none" d="
M 3 31.65
Q 5.66875 30.7521484375 11.65 27.7 11.589453125 20.836328125 14.75 14.45 18.35859375 7.0826171875 24.55 3.1 8.304296875 7.04609375 3 10.1 -1.5560546875 12.770703125 -5.4 15.95
L 0.9 16.2 -3.4 18.2 0 18.75 -6.4 23.25
Q -4.3015625 24.6453125 1.9 25.65 -1.8693359375 26.5544921875 -5.15 28.6 -4.880078125 29.2419921875 0.9 28.9 -1.4662109375 30.775 -1.85 32.65 0.7724609375 32.3953125 3 31.65
M 66.8 27.05
Q 73.5685546875 30.141015625 76.2 31.05 78.45 31.8 81.05 32.05 80.65 30.2 78.3 28.3 84.1 28.65 84.35 28 81.05 25.95 77.3 25.05 83.5 24.05 85.6 22.65
L 79.2 18.15 82.6 17.6 78.3 15.6 84.6 15.35
Q 80.75 12.15 76.2 9.55 70.75 6.35 57.45 4 63.9673828125 8.2501953125 65.9 16.05 67.441015625 22.269140625 66.8 27.05
M 57.45 4
Q 54.575390625 2.1271484375 50.75 0.95 38.35 -2.85 28.95 0.9 26.6166015625 1.830859375 24.55 3.1 18.35859375 7.0826171875 14.75 14.45 11.589453125 20.836328125 11.65 27.7 11.721484375 31.1275390625 12.7 35.55 6.765234375 36.8107421875 2.7 39.25
L 10.05 45.65
Q 7.8 48.2 5.35 52.25 4.1 54.3 2.8 56.75 4.1 56.55 5.35 56.35 12.7 55.05 18.3 53
L 17.35 49.95 18.3 53
Q 18.3 52.95 18.4 52.95 19.4 53.8 21.65 55.05 25.05 56.95 32.95 58.55 40.85 60.15 47.95 57.95 55 55.75 57.05 54.1 58.05 53.3 58.65 52.8 58.75 52.85 58.85 52.95 60.4 49 60.25 47.9 60.4 49 58.85 52.95 64.85 56.15 73.9 56.3 72.5 50.9 67.7 44.95
L 75.35 37.15
Q 72.4 35.45 64.35 34 66.305859375 31.0099609375 66.8 27.05 67.441015625 22.269140625 65.9 16.05 63.9673828125 8.2501953125 57.45 4 Z"/>
</g>

<g id="head_0_Layer1_0_FILL">
<path fill="#FFFFFF" stroke="none" d="
M 17.35 45.9
L 17.1 27.9
Q 15.7 33.25 14.2 36.05 12 29.15 12 23.95 11.9 26.75 10.7 29.7 10.3 30.8 9.7 31.9 9.5 32.25 9.3 32.6 7.9 56.1 18.2 69.9 16.45 55.1 15.5 42.75
L 17.35 45.9
M 60.1 27.95
Q 61.3 38.95 59.5 45.7
L 61.65 42.95
Q 59.75 57.65 59.85 70.75 68.95 52.75 68.4 36.2 67.75 37.1 66.95 37.95 65.3 32 65.3 25.25 65.05 29.5 62.6 35.1 60.75 32.2 60.1 27.95
M 53.55 -2.8
Q 40.0111328125 -8.958203125 26.6 -3.05 13.1947265625 2.8634765625 8.2 12.4 3.2013671875 21.945703125 4.7 28.6
L 8.2 20.45
Q 7.25 28.15 8.85 33.35 9.1 32.95 9.3 32.6 9.5 32.25 9.7 31.9 10.3 30.8 10.7 29.7 11.9 26.75 12 23.95 12 29.15 14.2 36.05 15.7 33.25 17.1 27.9 17.15 27.55 17.25 27.2 17.7 25.45 18.15 23.45 18.2 23.15 18.25 22.85 18.9 19.65 19.55 15.9 19.5 17.6 19.7 19.3 20 22.85 21.15 26.45 21.35 27.1 21.6 27.75 25.6 20.65 29.15 13.85 31.4 21.35 31.85 27.4 34.5 20.85 34.85 14.3 35 22.3 37.2 29.75 40.6 21.25 42.05 14.05
L 42.7 16.15 47.05 3.7 50.3 22.15 51.15 20.25
Q 51.2 25.55 52.3 29.85 55.95 24.75 57.75 19.05
L 58.65 21.9 59.7 19.9
Q 59.5 24.4 60.1 27.95 60.75 32.2 62.6 35.1 65.05 29.5 65.3 25.25 65.3 32 66.95 37.95 67.75 37.1 68.4 36.2 73.1 29.45 70 19.1
L 73.6 28.3
Q 74.802734375 21.9986328125 70.95 12.65 67.1400390625 3.3537109375 53.55 -2.8 Z"/>
</g>

<g id="Layer0_1_FILL">
<path fill="#000000" stroke="none" d="
M 223.15 81.35
L 223.15 115.2 257.1 115.2 257.1 81.35 223.15 81.35
M 185.1 43.55
L 185.1 77.45 219.1 77.45 219.1 43.55 185.1 43.55
M 192.65 69.85
L 192.65 51.05 211.45 51.05 211.45 62.3 196.25 62.3 196.25 69.85 192.65 69.85
M 196.45 54.85
L 196.45 58.55 207.65 58.55 207.65 54.85 196.45 54.85
M 219.2 81.35
L 185.2 81.35 185.2 115.2 219.2 115.2 219.2 81.35
M 260.7 43.55
L 260.7 77.45 294.7 77.45 294.7 43.55 260.7 43.55
M 283.45 54.75
L 283.45 51.05 287.1 51.05 287.1 54.75 283.45 54.75
M 279.7 58.55
L 279.7 54.85 283.35 54.85 283.35 58.55 279.7 58.55
M 275.8 54.85
L 275.8 58.55 272.1 58.55 272.1 54.85 275.8 54.85
M 275.85 58.6
L 279.6 58.6 279.6 62.3 275.85 62.3 275.85 58.6
M 268.35 51.05
L 272.05 51.05 272.05 54.75 268.35 54.75 268.35 51.05
M 268.35 66.2
L 272.05 66.2 272.05 69.85 268.35 69.85 268.35 66.2
M 272.1 66.05
L 272.1 62.45 275.8 62.45 275.8 66.05 272.1 66.05
M 283.35 66.05
L 279.7 66.05 279.7 62.45 283.35 62.45 283.35 66.05
M 283.45 69.85
L 283.45 66.2 287.1 66.2 287.1 69.85 283.45 69.85
M 256.95 77.45
L 256.95 43.55 222.95 43.55 222.95 77.45 256.95 77.45
M 238.1 51.05
L 241.75 51.05 241.75 69.85 238.1 69.85 238.1 51.05
M 294.7 81.35
L 260.7 81.35 260.7 115.2 294.7 115.2 294.7 81.35
M 332.45 77.45
L 332.45 43.55 298.45 43.55 298.45 77.45 332.45 77.45
M 324.85 66.2
L 324.85 69.85 306.1 69.85 306.1 51.05 324.85 51.05 324.85 54.75 309.85 54.75 309.85 58.6 321.1 58.6 321.1 62.3 309.85 62.3 309.85 66.2 324.85 66.2
M 336.35 43.55
L 336.35 77.45 370.35 77.45 370.35 43.55 336.35 43.55
M 343.85 69.85
L 343.85 51.05 347.6 51.05 347.6 66.2 362.7 66.2 362.7 69.85 343.85 69.85
M 411.95 43.55
L 411.95 77.45 445.95 77.45 445.95 43.55 411.95 43.55
M 419.6 51.05
L 438.35 51.05 438.35 54.75 430.85 54.75 430.85 69.85 427.1 69.85 427.1 54.75 419.6 54.75 419.6 51.05
M 408.2 77.45
L 408.2 43.55 374.2 43.55 374.2 77.45 408.2 77.45
M 385.45 66.05
L 385.45 69.85 381.8 69.85 381.8 51.05 400.6 51.05 400.6 69.85 396.85 69.85 396.85 66.05 385.45 66.05
M 396.8 54.85
L 385.6 54.85 385.6 62.3 396.8 62.3 396.8 54.85
M 483.85 43.55
L 449.85 43.55 449.85 77.45 483.85 77.45 483.85 43.55
M 468.6 51.05
L 468.6 69.85 464.95 69.85 464.95 51.05 468.6 51.05
M 449.7 39.6
L 483.7 39.6 483.7 5.75 449.7 5.75 449.7 39.6
M 525.35 77.45
L 559.35 77.45 559.35 43.55 525.35 43.55 525.35 77.45
M 548.05 69.85
L 548.05 54.75 536.6 54.75 536.6 69.85 532.9 69.85 532.9 51.05 551.75 51.05 551.75 69.85 548.05 69.85
M 521.5 43.55
L 487.45 43.55 487.45 77.45 521.5 77.45 521.5 43.55
M 513.9 51.05
L 513.9 69.85 495.1 69.85 495.1 51.05 513.9 51.05
M 510.1 66.05
L 510.1 54.85 498.95 54.85 498.95 66.05 510.1 66.05
M 487.45 39.6
L 521.5 39.6 521.5 5.75 487.45 5.75 487.45 39.6
M 559.35 39.6
L 559.35 5.75 525.35 5.75 525.35 39.6 559.35 39.6 Z"/>

<path fill="#FFFFFF" stroke="none" d="
M 192.65 51.05
L 192.65 69.85 196.25 69.85 196.25 62.3 211.45 62.3 211.45 51.05 192.65 51.05
M 196.45 58.55
L 196.45 54.85 207.65 54.85 207.65 58.55 196.45 58.55
M 283.45 66.2
L 283.45 69.85 287.1 69.85 287.1 66.2 283.45 66.2
M 279.7 66.05
L 283.35 66.05 283.35 62.45 279.7 62.45 279.7 66.05
M 272.1 62.45
L 272.1 66.05 275.8 66.05 275.8 62.45 272.1 62.45
M 272.05 66.2
L 268.35 66.2 268.35 69.85 272.05 69.85 272.05 66.2
M 272.05 51.05
L 268.35 51.05 268.35 54.75 272.05 54.75 272.05 51.05
M 279.6 58.6
L 275.85 58.6 275.85 62.3 279.6 62.3 279.6 58.6
M 275.8 58.55
L 275.8 54.85 272.1 54.85 272.1 58.55 275.8 58.55
M 279.7 54.85
L 279.7 58.55 283.35 58.55 283.35 54.85 279.7 54.85
M 283.45 51.05
L 283.45 54.75 287.1 54.75 287.1 51.05 283.45 51.05
M 241.75 51.05
L 238.1 51.05 238.1 69.85 241.75 69.85 241.75 51.05
M 324.85 69.85
L 324.85 66.2 309.85 66.2 309.85 62.3 321.1 62.3 321.1 58.6 309.85 58.6 309.85 54.75 324.85 54.75 324.85 51.05 306.1 51.05 306.1 69.85 324.85 69.85
M 343.85 51.05
L 343.85 69.85 362.7 69.85 362.7 66.2 347.6 66.2 347.6 51.05 343.85 51.05
M 438.35 51.05
L 419.6 51.05 419.6 54.75 427.1 54.75 427.1 69.85 430.85 69.85 430.85 54.75 438.35 54.75 438.35 51.05
M 385.45 69.85
L 385.45 66.05 396.85 66.05 396.85 69.85 400.6 69.85 400.6 51.05 381.8 51.05 381.8 69.85 385.45 69.85
M 385.6 54.85
L 396.8 54.85 396.8 62.3 385.6 62.3 385.6 54.85
M 468.6 69.85
L 468.6 51.05 464.95 51.05 464.95 69.85 468.6 69.85
M 548.05 54.75
L 548.05 69.85 551.75 69.85 551.75 51.05 532.9 51.05 532.9 69.85 536.6 69.85 536.6 54.75 548.05 54.75
M 513.9 69.85
L 513.9 51.05 495.1 51.05 495.1 69.85 513.9 69.85
M 510.1 54.85
L 510.1 66.05 498.95 66.05 498.95 54.85 510.1 54.85 Z"/>
</g>

<path id="hair_body_0_Layer0_0_1_STROKES" stroke="#000000" stroke-width="1.5" stroke-linejoin="round" stroke-linecap="round" fill="none" d="
M 69.05 79.4
Q 70.65 88.75 75.6 96.15 77.7 80.45 75.6 63.1 73.85 34 66.65 0
L 65.2 -16.35 13.95 -16.35 10.8 0.7 0.65 64.05
Q -1.2 78.9 2.35 93.05 6.5 84.35 6.7 76.4 7.75 87.95 11.3 98.85 17.7 91.05 20.95 81.7
L 58.9 88.65 63.55 101.4
Q 68.65 90.7 69.05 79.4 69.1 78 69.05 76.6"/>

<path id="body_0_Layer4_0_1_STROKES" stroke="#000000" stroke-width="1.5" stroke-linejoin="round" stroke-linecap="round" fill="none" d="
M 25.4 107.375
Q 26.665625 91.9025390625 26.95 82.15 21.7263671875 80.6033203125 18.3 83.25 17.658203125 93.6625 14.9 107.25 14.698046875 110.8216796875 17.5 112.125 20.308203125 113.428515625 22.825 110.875 25.332421875 108.31328125 25.4 107.375 26.986328125 107.8189453125 27.425 111.8 27.858984375 115.77890625 22.1 119.6 16.33828125 123.412890625 2.8 123.55 -1.558984375 122.5615234375 -0.6 118.6 -0.5541015625 118.409765625 -0.5 118.225 -0.3205078125 118.0037109375 -0.15 117.775 0.697265625 116.787109375 1.6 115.85 5.8759765625 111.51328125 11.925 108.575 13.3578125 107.87109375 14.9 107.25
M 38.4 107.4
Q 37.15 91.9 36.85 82.15 42.05 80.6 45.5 83.25 46.15 93.65 48.9 107.25 50.45 107.85 51.85 108.6 57.9 111.5 62.2 115.85 63.1 116.8 63.95 117.8 64.1 118 64.3 118.25 64.35 118.4 64.4 118.6 65.35 122.55 61 123.55 47.45 123.4 41.7 119.6 35.95 115.8 36.35 111.8 36.8 107.8 38.4 107.4 38.45 108.3 40.95 110.9 43.5 113.45 46.3 112.15 49.1 110.8 48.9 107.25
M 51.85 108.6
Q 50.85 111.1 48.15 113.6 52.45 117.45 58.85 119.95 62.9 119.6 62.2 115.85
M 11.925 108.575
Q 12.944921875 111.0875 15.65 113.6 11.3392578125 117.468359375 4.95 119.95 0.8904296875 119.616796875 1.6 115.85"/>

<path id="body_0_Layer3_0_1_STROKES" stroke="#000000" stroke-width="1.5" stroke-linejoin="round" stroke-linecap="round" fill="none" d="
M 45.6 60.7
L 47.7 68.275
Q 59.1693359375 63.459375 62.05 57.4 52.650390625 31.9185546875 47.15 3.2
L 46 0 20.6 0.4 18.8 4.15 18.8 4.2
Q 18.423046875 4.45625 14.175 17.55 9.926953125 30.64375 0 57 2.9466796875 64.6611328125 14.2 69.725
L 18.3 61.225 16.3 61.25 16.15 61.25
Q 16.2 60.95 16.25 60.7 18.6 41.05 19 25.9
M 16.3 61.25
L 16.25 60.7
M 47.85 60.65
Q 47.8 60.45 47.8 60.3
L 47.65 60.65 47.85 60.65 Z
M 47.65 60.65
L 45.6 60.7 18.3 61.225
M 44.75 25.9
Q 45.25 42.05 47.8 60.3"/>

<path id="body_0_Layer2_0_1_STROKES" stroke="#000000" stroke-width="1.5" stroke-linejoin="round" stroke-linecap="round" fill="none" d="
M 15.225 67.225
Q 21.8412109375 69.5755859375 25.85 65.35 31.860546875 68.604296875 37.875 65.175
L 38.1 65.15
Q 41.358203125 67.3212890625 47.5 64.425 47.2642578125 62.57421875 47.1 60.7
L 16.95 61.25
Q 16.141015625 64.2166015625 15.225 67.225 13.051953125 74.453125 10.3 81.925 17.64375 78.900390625 23.4 81.75 33.50625 73.131640625 42.7 79.25 46.0146484375 76.81484375 50.3 78.65 48.3966796875 71.7888671875 47.5 64.425
M 10.3 81.925
Q 9.311328125 84.591015625 8.25 87.3 16.15 91.95 27.15 89.65
L 39.85 86.85
Q 46.824609375 85.6759765625 52.85 86.4 51.41328125 82.6109375 50.3 78.65"/>

<path id="body_0_Layer1_0_1_STROKES" stroke="#000000" stroke-width="1.5" stroke-linejoin="round" stroke-linecap="round" fill="none" d="
M 38.025 -4.025
L 37.825 -4.15 27.4 -3.65 27.25 0.6 31.8 2.7 29.75 5.95 31.1 6.675
Q 31.692578125 5.7427734375 33.05 5.85 33.99140625 6.0068359375 34.425 6.6
L 35.875 5.925 34 2.55 38 1.2 38.025 -4.025 46.9 1.05 37.85 9.5 37.05 8.05 34.525 9.175
Q 34.305859375 9.581640625 33.925 9.825
L 42.15 44.1 32.95 52.65 25.3 44.5 31.95 9.825
Q 31.35390625 9.5462890625 31.05 9.05
L 28.5 7.95 27.9 8.9 17.6 1.85 27.4 -3.75 27.4 -3.65
M 34.525 9.175
Q 34.78125 8.7125 34.8 8 34.823828125 7.117578125 34.425 6.6
M 31.1 6.675
Q 30.8642578125 7.057421875 30.75 7.6 30.7103515625 8.47265625 31.05 9.05
M 31.95 9.825
Q 32.391796875 10.022265625 33 10.1 33.537890625 10.0384765625 33.925 9.825
M 35.875 5.925
L 37.05 8.05
M 28.5 7.95
L 29.75 5.95"/>

<path id="body_0_Layer0_0_1_STROKES" stroke="#000000" stroke-width="1.5" stroke-linejoin="round" stroke-linecap="round" fill="none" d="
M 35.125 54.85
L 35.325 55.375
Q 38.6966796875 59.5529296875 44.2 62.25 46.662890625 63.876953125 47.2 60.1 49.181640625 53.2439453125 46.2 46.05 45.7595703125 45.0330078125 43.35 45.3 37.971484375 46.9873046875 34.75 50.7 35.18984375 50.8310546875 35.65 51.05 36.5068359375 51.854296875 35.65 54.35 35.398828125 54.6447265625 35.125 54.85 35.0607421875 54.907421875 35 54.95 35.16015625 55.158984375 35.325 55.375 36.7611328125 60.62421875 39.55 66.55 38.42578125 68.57265625 36 68.55 33.68828125 62 33.2 55.45
L 30.15 68.55
Q 28.3359375 68.7857421875 27 66.95 28.254296875 60.9427734375 30.75 55.625 26.9951171875 59.9763671875 20.3 63.2 17.6701171875 63.9458984375 17.5 61.5 16.111328125 54.9 17.6 48.3 18.2732421875 45.8939453125 20.25 45.6 27.3935546875 46.3962890625 31.675 50.7 33.1373046875 50.191796875 34.75 50.7
M 30.75 55.625
Q 30.941796875 55.4130859375 31.125 55.2 31.2779296875 55.0123046875 31.425 54.825 31.164453125 54.67421875 30.9 54.5 29.8869140625 52.85 30.65 51.2 31.14921875 50.893359375 31.675 50.7
M 33.2 55.45
L 33.2 55.425
Q 32.3810546875 55.3544921875 31.425 54.825
M 35 54.95
Q 34.198828125 55.520703125 33.2 55.425"/>

<path id="head_0_Layer2_0_1_STROKES" stroke="#000000" stroke-width="1.5" stroke-linejoin="round" stroke-linecap="round" fill="none" d="
M 57.475 4.025
Q 70.75 6.35 76.2 9.55 80.75 12.15 84.6 15.35
L 78.3 15.6 82.6 17.6 79.2 18.15 85.6 22.65
Q 83.5 24.05 77.3 25.05 81.05 25.95 84.35 28 84.1 28.65 78.3 28.3 80.65 30.2 81.05 32.05 78.45 31.8 76.2 31.05 73.5685546875 30.141015625 66.825 27.075 66.305859375 31.0099609375 64.35 34 72.4 35.45 75.35 37.15
L 67.7 44.95
Q 72.5 50.9 73.9 56.3 64.85 56.15 58.85 52.95 58.75 52.85 58.65 52.8 58.05 53.3 57.05 54.1 55 55.75 47.95 57.95 40.85 60.15 32.95 58.55 25.05 56.95 21.65 55.05 19.4 53.8 18.4 52.95 18.3 52.95 18.3 53 12.7 55.05 5.35 56.35 4.1 56.55 2.8 56.75 4.1 54.3 5.35 52.25 7.8 48.2 10.05 45.65
L 2.7 39.25
Q 6.765234375 36.8107421875 12.725 35.55 11.721484375 31.1275390625 11.675 27.7 5.66875 30.7521484375 3 31.65 0.7724609375 32.3953125 -1.85 32.65 -1.4662109375 30.775 0.9 28.9 -4.880078125 29.2419921875 -5.15 28.6 -1.8693359375 26.5544921875 1.9 25.65 -4.3015625 24.6453125 -6.4 23.25
L 0 18.75 -3.4 18.2 0.9 16.2 -5.4 15.95
Q -1.5560546875 12.770703125 3 10.125 8.304296875 7.04609375 24.575 3.125 26.6166015625 1.830859375 28.95 0.9 38.35 -2.85 50.75 0.95 54.575390625 2.1271484375 57.475 4.025 63.9673828125 8.2501953125 65.9 16.05 67.441015625 22.269140625 66.825 27.075
M 11.675 27.7
Q 11.589453125 20.836328125 14.75 14.45 18.35859375 7.0826171875 24.575 3.125
M 18.3 53
L 17.35 49.95
M 60.25 47.9
Q 60.4 49 58.85 52.95"/>

<path id="head_0_Layer1_0_1_STROKES" stroke="#000000" stroke-width="1.5" stroke-linejoin="round" stroke-linecap="round" fill="none" d="
M 4.7 28.6
Q 3.2013671875 21.945703125 8.2 12.4 13.1947265625 2.8634765625 26.6 -3.05 40.0111328125 -8.958203125 53.575 -2.8 67.1400390625 3.3537109375 70.975 12.675 74.802734375 21.9986328125 73.6 28.3
L 70 19.1
Q 73.1 29.45 68.4 36.2 68.95 52.75 59.85 70.75 59.75 57.65 61.65 42.95
L 59.5 45.7
Q 61.3 38.95 60.1 27.95 59.5 24.4 59.7 19.9
L 58.65 21.9 57.75 19.05
Q 55.95 24.75 52.3 29.85 51.2 25.55 51.15 20.25
L 50.3 22.15 47.05 3.7 42.7 16.15 42.05 14.05
Q 40.6 21.25 37.2 29.75 35 22.3 34.85 14.3 34.5 20.85 31.85 27.4 31.4 21.35 29.15 13.85 25.6 20.65 21.6 27.75 21.35 27.1 21.15 26.45 20 22.85 19.7 19.3 19.5 17.6 19.55 15.9 18.9 19.65 18.25 22.85 18.2 23.15 18.15 23.45 17.7 25.45 17.25 27.2 17.15 27.55 17.1 27.9
L 17.35 45.9 15.5 42.75
Q 16.45 55.1 18.2 69.9 7.9 56.1 9.3 32.6 9.1 32.95 8.85 33.35 7.25 28.15 8.2 20.45
L 4.7 28.6 4.6 29
M 60.1 27.95
Q 60.75 32.2 62.6 35.1 65.05 29.5 65.3 25.25 65.3 32 66.95 37.95 67.75 37.1 68.4 36.2
M 9.3 32.6
Q 9.5 32.25 9.7 31.9 10.3 30.8 10.7 29.7 11.9 26.75 12 23.95 12 29.15 14.2 36.05 15.7 33.25 17.1 27.9"/>

<path id="head_0_Layer0_0_1_STROKES" stroke="#000000" stroke-width="1.5" stroke-linejoin="round" stroke-linecap="round" fill="none" d="
M 45.25 31.7
Q 50.85 29.7 57.5 30.9
M 18.2 33.45
Q 24.15 30.75 29.4 31.85
M 46.85 50.3
Q 46 54.3 40.6 55 34.65 55.25 32.9 51.1
L 46.85 50.3 Z"/>

<path id="head_0_Layer0_0_2_STROKES" stroke="#000000" stroke-width="2" stroke-linejoin="round" stroke-linecap="round" fill="none" d="
M 54.15 31.9
L 54.75 42.5
M 26.65 32.65
L 27.05 44.05"/>

<path id="Layer0_0_1_STROKES" stroke="#333333" stroke-width="1" stroke-linejoin="round" stroke-linecap="round" fill="none" d="
M 528.45 -28.6
L 527.55 -28.7"/>

<path id="Layer0_0_2_STROKES" stroke="#000000" stroke-width="12" stroke-linejoin="miter" stroke-linecap="butt" stroke-miterlimit="1" fill="none" d="
M 0 0.2
L 600 0.2 600 120 0 120 0 0.2 Z"/>
</defs>

<g transform="matrix( 1, 0, 0, 1, 0,0) ">
<use xlink:href="#Layer2_0_FILL"/>
</g>

<g transform="matrix( 1, 0, 0, 1, 178.75,5.75) ">
<g transform="matrix( 1, 0, 0, 1, 0,0) ">
<use filter="url(#Filter_1)" xlink:href="#bits_0_Layer0_0_FILL"/>
</g>
</g>

<g transform="matrix( 1.48419189453125, 0, 0, 1.48419189453125, 46.2,113.8) ">
<g transform="matrix( 1, 0, 0, 1, -6.9,-6.75) ">
<g transform="matrix( 1, 0, 0, 1, 0,0) ">
<use xlink:href="#hair_body_0_Layer0_0_FILL"/>

<use xlink:href="#hair_body_0_Layer0_0_1_STROKES"/>
</g>
</g>

<g transform="matrix( 1, 0, 0, 1, 0,0) ">
<g transform="matrix( 1, 0, 0, 1, 0,0) ">
<use xlink:href="#body_0_Layer4_0_FILL"/>

<use xlink:href="#body_0_Layer4_0_1_STROKES"/>
</g>

<g transform="matrix( 1, 0, 0, 1, 0,0) ">
<use xlink:href="#body_0_Layer3_0_FILL"/>

<use xlink:href="#body_0_Layer3_0_1_STROKES"/>
</g>

<g transform="matrix( 1, 0, 0, 1, 0,0) ">
<use xlink:href="#body_0_Layer2_0_FILL"/>

<use xlink:href="#body_0_Layer2_0_1_STROKES"/>
</g>

<g transform="matrix( 1, 0, 0, 1, 0,0) ">
<use xlink:href="#body_0_Layer1_0_FILL"/>

<use xlink:href="#body_0_Layer1_0_1_STROKES"/>
</g>

<g transform="matrix( 1, 0, 0, 1, 0,0) ">
<use xlink:href="#body_0_Layer0_0_FILL"/>

<use xlink:href="#body_0_Layer0_0_1_STROKES"/>
</g>
</g>

<g transform="matrix( 0.99615478515625, -0.08734130859375, 0.08734130859375, 0.99615478515625, -10.9,-59.2) ">
<g transform="matrix( 1, 0, 0, 1, 0,0) ">
<use xlink:href="#head_0_Layer2_0_FILL"/>

<use xlink:href="#head_0_Layer2_0_1_STROKES"/>
</g>

<g transform="matrix( 1, 0, 0, 1, 0,0) ">
<use xlink:href="#head_0_Layer1_0_FILL"/>

<use xlink:href="#head_0_Layer1_0_1_STROKES"/>
</g>

<g transform="matrix( 1, 0, 0, 1, 0,0) ">
<use xlink:href="#head_0_Layer0_0_1_STROKES"/>

<use xlink:href="#head_0_Layer0_0_2_STROKES"/>
</g>
</g>
</g>

<g transform="matrix( 1, 0, 0, 1, 0,0) ">
<use xlink:href="#Layer0_0_1_STROKES"/>

<use xlink:href="#Layer0_0_2_STROKES"/>
</g>

<g transform="matrix( 1, 0, 0, 1, 0,0) ">
<use xlink:href="#Layer0_1_FILL"/>
</g>
</svg>
