
<svg xmlns="http://www.w3.org/2000/svg" version="1.1" xmlns:xlink="http://www.w3.org/1999/xlink" preserveAspectRatio="none" x="0px" y="0px" width="600px" height="120px" viewBox="0 0 600 120">
<defs>
<g id="Layer3_0_FILL">
<path fill="#FFFFFF" stroke="none" d="
M 600 120
L 600 0.2 0 0.2 0 120 600 120 Z"/>
</g>

<g id="Layer2_0_FILL">
<path fill="#FFFFFF" stroke="none" d="
M 56.65 33.4
Q 61.2 24.5 70.15 20.2
L 29.7 25.2 42.75 32.55 26.05 39.65 38.55 44.05 23.55 54.25 30.3 54.25 26.8 60 49.65 58
Q 50.45 46.05 56.65 33.4
M 96.4 36.95
L 94.05 36.95 87.65 54.35 94.15 35.5 84.55 61.5 77.55 43.75 69.9 61.3 65.55 47.1 59.1 83.15 55.25 70.15 50.2 78.8
Q 49.7 67.25 49.6 63.5 49.55 63.25 49.55 63 49.55 62.95 49.55 62.9
L 27.35 66.45 39.5 79.9 25.7 99.65 56.9 95.55
Q 57.15 95.7 57.65 95.95 53 93.4 48.65 90.85 53 93.4 57.65 95.95 58.1 96.2 58.6 96.45 73.3 103.85 87.65 103.9 102 103.85 116.7 96.45 117.2 96.2 117.65 95.95 122.3 93.4 126.65 90.85 122.3 93.4 117.65 95.95 118.15 95.7 118.4 95.55
L 149.6 99.65 135.8 79.9 147.95 66.45 125.75 62.9
Q 125.75 62.95 125.75 63 125.75 63.25 125.7 63.5 125.6 67.25 125.1 78.8
L 120.05 70.15 116.2 83.15 109.75 47.1 105.4 61.3 96.4 29.2 96.4 36.95
M 88.05 16.15
L 87.25 16.15
Q 77.3 16.7 70.15 20.2 61.2 24.5 56.65 33.4 50.45 46.05 49.65 58 49.5 60.45 49.55 62.9 49.55 62.95 49.55 63 49.55 63.25 49.6 63.5 49.7 67.25 50.2 78.8
L 55.25 70.15 59.1 83.15 65.55 47.1 69.9 61.3 77.55 43.75 84.55 61.5 94.15 35.5 96.4 29.2 105.4 61.3 109.75 47.1 116.2 83.15 120.05 70.15 125.1 78.8
Q 125.6 67.25 125.7 63.5 125.75 63.25 125.75 63 125.75 62.95 125.75 62.9 125.8 60.45 125.65 58 124.85 46.05 118.65 33.4 114.1 24.5 105.15 20.2 98 16.7 88.05 16.15
M 132.55 32.55
L 145.6 25.2 105.15 20.2
Q 114.1 24.5 118.65 33.4 124.85 46.05 125.65 58
L 148.5 60 145 54.25 151.75 54.25 136.75 44.05 149.25 39.65 132.55 32.55 Z"/>
</g>

<g id="Layer1_0_MEMBER_0_FILL">
<path fill="#000000" stroke="none" d="
M 193.25 71.9
L 227.25 71.9 227.25 38 193.25 38 193.25 71.9
M 204.45 56.8
L 204.45 64.35 200.8 64.35 200.8 45.55 219.6 45.55 219.6 56.8 204.45 56.8
M 215.8 49.35
L 204.6 49.35 204.6 53 215.8 53 215.8 49.35
M 268.85 71.9
L 302.85 71.9 302.85 38 268.85 38 268.85 71.9
M 295.25 45.55
L 295.25 49.2 291.6 49.2 291.6 45.55 295.25 45.55
M 287.85 49.35
L 291.5 49.35 291.5 53 287.85 53 287.85 49.35
M 280.2 45.55
L 280.2 49.2 276.5 49.2 276.5 45.55 280.2 45.55
M 280.2 60.65
L 280.2 64.35 276.5 64.35 276.5 60.65 280.2 60.65
M 280.25 60.55
L 280.25 56.9 283.95 56.9 283.95 60.55 280.25 60.55
M 284.05 53.1
L 287.75 53.1 287.75 56.8 284.05 56.8 284.05 53.1
M 287.85 60.55
L 287.85 56.9 291.5 56.9 291.5 60.55 287.85 60.55
M 295.25 60.65
L 295.25 64.35 291.6 64.35 291.6 60.65 295.25 60.65
M 283.95 49.35
L 283.95 53 280.25 53 280.25 49.35 283.95 49.35
M 265.15 71.9
L 265.15 38 231.15 38 231.15 71.9 265.15 71.9
M 253.7 49.2
L 249.95 49.2 249.95 60.65 253.7 60.65 253.7 64.35 242.5 64.35 242.5 60.65 246.25 60.65 246.25 49.2 242.5 49.2 242.5 45.55 253.7 45.55 253.7 49.2
M 344.5 71.9
L 378.5 71.9 378.5 38 344.5 38 344.5 71.9
M 352.05 45.55
L 355.75 45.55 355.75 60.65 370.85 60.65 370.85 64.35 352.05 64.35 352.05 45.55
M 340.6 71.9
L 340.6 38 306.6 38 306.6 71.9 340.6 71.9
M 333.05 45.55
L 333.05 49.2 318 49.2 318 53.1 329.25 53.1 329.25 56.8 318 56.8 318 60.65 333.05 60.65 333.05 64.35 314.3 64.35 314.3 45.55 333.05 45.55
M 420.1 71.9
L 454.1 71.9 454.1 38 420.1 38 420.1 71.9
M 446.55 45.55
L 446.55 49.2 439 49.2 439 64.35 435.3 64.35 435.3 49.2 427.75 49.2 427.75 45.55 446.55 45.55
M 416.4 71.9
L 416.4 38 382.4 38 382.4 71.9 416.4 71.9
M 405.05 64.35
L 405.05 60.55 393.6 60.55 393.6 64.35 389.95 64.35 389.95 45.55 408.75 45.55 408.75 64.35 405.05 64.35
M 404.95 49.35
L 393.75 49.35 393.75 56.8 404.95 56.8 404.95 49.35
M 495.65 71.9
L 529.65 71.9 529.65 38 495.65 38 495.65 71.9
M 503.3 45.55
L 522.1 45.55 522.1 64.35 503.3 64.35 503.3 45.55
M 518.3 49.35
L 507.1 49.35 507.1 60.55 518.3 60.55 518.3 49.35
M 492 71.9
L 492 38 458 38 458 71.9 492 71.9
M 480.55 49.2
L 476.8 49.2 476.8 60.65 480.55 60.65 480.55 64.35 469.35 64.35 469.35 60.65 473.1 60.65 473.1 49.2 469.35 49.2 469.35 45.55 480.55 45.55 480.55 49.2
M 567.55 71.9
L 567.55 38 533.55 38 533.55 71.9 567.55 71.9
M 544.75 49.35
L 548.55 49.35 548.55 53 544.75 53 544.75 64.35 541.1 64.35 541.1 45.55 544.75 45.55 544.75 49.35
M 556.2 45.55
L 559.9 45.55 559.9 64.35 556.2 64.35 556.2 60.5 552.45 60.5 552.45 56.85 556.2 56.85 556.2 45.55
M 552.45 56.8
L 548.55 56.8 548.55 53.1 552.45 53.1 552.45 56.8 Z"/>
</g>

<g id="Layer1_1_MEMBER_0_FILL">
<path fill="#000000" stroke="none" d="
M 231.3 109.7
L 265.3 109.7 265.3 75.8 231.3 75.8 231.3 109.7
M 227.4 75.8
L 193.4 75.8 193.4 109.7 227.4 109.7 227.4 75.8
M 302.85 75.8
L 268.85 75.8 268.85 109.7 302.85 109.7 302.85 75.8
M 491.85 34.1
L 491.85 0.2 457.85 0.2 457.85 34.1 491.85 34.1
M 529.65 34.1
L 529.65 0.2 495.65 0.2 495.65 34.1 529.65 34.1
M 567.55 34.1
L 567.55 0.2 533.55 0.2 533.55 34.1 567.55 34.1 Z"/>
</g>

<path id="Layer2_0_1_STROKES" stroke="#000000" stroke-width="4" stroke-linejoin="miter" stroke-linecap="butt" stroke-miterlimit="2" fill="none" d="
M 105.15 20.2
L 145.6 25.2 132.55 32.55 149.25 39.65 136.75 44.05 151.75 54.25 145 54.25 148.5 60 125.65 58
Q 125.8 60.45 125.75 62.9
L 147.95 66.45 135.8 79.9 149.6 99.65 118.4 95.55
Q 118.15 95.7 117.65 95.95 117.2 96.2 116.7 96.45 102 103.85 87.65 103.9 73.3 103.85 58.6 96.45 58.1 96.2 57.65 95.95 57.15 95.7 56.9 95.55
L 25.7 99.65 39.5 79.9 27.35 66.45 49.55 62.9
Q 49.5 60.45 49.65 58
L 26.8 60 30.3 54.25 23.55 54.25 38.55 44.05 26.05 39.65 42.75 32.55 29.7 25.2 70.15 20.2
Q 77.3 16.7 87.25 16.15
L 88.05 16.15
Q 98 16.7 105.15 20.2 114.1 24.5 118.65 33.4 124.85 46.05 125.65 58
M 94.15 35.5
L 96.4 29.2 105.4 61.3 109.75 47.1 116.2 83.15 120.05 70.15 125.1 78.8
Q 125.6 67.25 125.7 63.5 125.75 63.25 125.75 63 125.75 62.95 125.75 62.9
M 94.15 35.5
L 84.55 61.5 77.55 43.75 69.9 61.3 65.55 47.1 59.1 83.15 55.25 70.15 50.2 78.8
Q 49.7 67.25 49.6 63.5 49.55 63.25 49.55 63 49.55 62.95 49.55 62.9
M 126.65 90.85
Q 122.3 93.4 117.65 95.95
M 70.15 20.2
Q 61.2 24.5 56.65 33.4 50.45 46.05 49.65 58
M 48.65 90.85
Q 53 93.4 57.65 95.95"/>

<path id="Layer0_0_1_STROKES" stroke="#000000" stroke-width="10" stroke-linejoin="miter" stroke-linecap="butt" stroke-miterlimit="3" fill="none" d="
M 0 0
L 600 0 600 119 0 119 0 0 Z"/>
</defs>

<g transform="matrix( 1, 0, 0, 1, 0,0) ">
<use xlink:href="#Layer3_0_FILL"/>
</g>

<g transform="matrix( 1, 0, 0, 1, 0,0) ">
<use xlink:href="#Layer2_0_FILL"/>

<use xlink:href="#Layer2_0_1_STROKES"/>
</g>

<g transform="matrix( 1, 0, 0, 1, -8.15,4.8) ">
<use xlink:href="#Layer1_0_MEMBER_0_FILL"/>
</g>

<g transform="matrix( 1, 0, 0, 1, -8.15,4.8) ">
<use xlink:href="#Layer1_1_MEMBER_0_FILL"/>
</g>

<g transform="matrix( 1, 0, 0, 1, 0,0) ">
<use xlink:href="#Layer0_0_1_STROKES"/>
</g>
</svg>
