
<svg xmlns="http://www.w3.org/2000/svg" version="1.1" xmlns:xlink="http://www.w3.org/1999/xlink" preserveAspectRatio="none" x="0px" y="0px" width="600px" height="120px" viewBox="0 0 600 120">
<defs>
<g id="Layer3_0_FILL">
<path fill="#FFFFFF" stroke="none" d="
M 600 120
L 600 0.2 0 0.2 0 120 600 120 Z"/>
</g>

<g id="Layer2_0_FILL">
<path fill="#FFFFFF" stroke="none" d="
M 53.45 34.9
Q 58 26 66.95 21.7
L 26.5 26.7 39.55 34.05 22.85 41.15 35.35 45.55 20.35 55.75 27.1 55.75 23.6 61.5 46.45 59.5
Q 47.25 47.55 53.45 34.9
M 93.2 38.45
L 90.85 38.45 84.45 55.85 90.95 37 81.35 63 74.35 45.25 66.7 62.8 62.35 48.6 55.9 84.65 52.05 71.65 47 80.3
Q 46.5 68.75 46.4 65 46.35 64.75 46.35 64.5 46.35 64.45 46.35 64.4
L 24.15 67.95 36.3 81.4 22.5 101.15 53.7 97.05
Q 53.95 97.2 54.45 97.45 49.8 94.9 45.45 92.35 49.8 94.9 54.45 97.45 54.9 97.7 55.4 97.95 70.1 105.35 84.45 105.4 98.8 105.35 113.5 97.95 114 97.7 114.45 97.45 119.1 94.9 123.45 92.35 119.1 94.9 114.45 97.45 114.95 97.2 115.2 97.05
L 146.4 101.15 132.6 81.4 144.75 67.95 122.55 64.4
Q 122.55 64.45 122.55 64.5 122.55 64.75 122.5 65 122.4 68.75 121.9 80.3
L 116.85 71.65 113 84.65 106.55 48.6 102.2 62.8 93.2 30.7 93.2 38.45
M 84.85 17.65
L 84.05 17.65
Q 74.1 18.2 66.95 21.7 58 26 53.45 34.9 47.25 47.55 46.45 59.5 46.3 61.95 46.35 64.4 46.35 64.45 46.35 64.5 46.35 64.75 46.4 65 46.5 68.75 47 80.3
L 52.05 71.65 55.9 84.65 62.35 48.6 66.7 62.8 74.35 45.25 81.35 63 90.95 37 93.2 30.7 102.2 62.8 106.55 48.6 113 84.65 116.85 71.65 121.9 80.3
Q 122.4 68.75 122.5 65 122.55 64.75 122.55 64.5 122.55 64.45 122.55 64.4 122.6 61.95 122.45 59.5 121.65 47.55 115.45 34.9 110.9 26 101.95 21.7 94.8 18.2 84.85 17.65
M 133.55 45.55
L 146.05 41.15 129.35 34.05 142.4 26.7 101.95 21.7
Q 110.9 26 115.45 34.9 121.65 47.55 122.45 59.5
L 145.3 61.5 141.8 55.75 148.55 55.75 133.55 45.55 Z"/>
</g>

<g id="Layer2_1_MEMBER_0_FILL">
<path fill="#000000" stroke="none" d="
M 231.3 109.7
L 265.3 109.7 265.3 75.8 231.3 75.8 231.3 109.7
M 227.4 75.8
L 193.4 75.8 193.4 109.7 227.4 109.7 227.4 75.8
M 302.85 75.8
L 268.85 75.8 268.85 109.7 302.85 109.7 302.85 75.8
M 491.85 34.1
L 491.85 0.2 457.85 0.2 457.85 34.1 491.85 34.1
M 529.65 34.1
L 529.65 0.2 495.65 0.2 495.65 34.1 529.65 34.1
M 567.55 34.1
L 567.55 0.2 533.55 0.2 533.55 34.1 567.55 34.1 Z"/>
</g>

<g id="Layer1_0_MEMBER_0_FILL">
<path fill="#000000" stroke="none" d="
M 193.25 71.9
L 227.25 71.9 227.25 38 193.25 38 193.25 71.9
M 204.45 56.8
L 204.45 64.35 200.8 64.35 200.8 45.55 219.6 45.55 219.6 56.8 204.45 56.8
M 215.8 49.35
L 204.6 49.35 204.6 53 215.8 53 215.8 49.35
M 268.85 71.9
L 302.85 71.9 302.85 38 268.85 38 268.85 71.9
M 295.25 45.55
L 295.25 49.2 291.6 49.2 291.6 45.55 295.25 45.55
M 287.85 49.35
L 291.5 49.35 291.5 53 287.85 53 287.85 49.35
M 280.2 45.55
L 280.2 49.2 276.5 49.2 276.5 45.55 280.2 45.55
M 280.2 60.65
L 280.2 64.35 276.5 64.35 276.5 60.65 280.2 60.65
M 280.25 60.55
L 280.25 56.9 283.95 56.9 283.95 60.55 280.25 60.55
M 284.05 53.1
L 287.75 53.1 287.75 56.8 284.05 56.8 284.05 53.1
M 287.85 60.55
L 287.85 56.9 291.5 56.9 291.5 60.55 287.85 60.55
M 295.25 60.65
L 295.25 64.35 291.6 64.35 291.6 60.65 295.25 60.65
M 283.95 49.35
L 283.95 53 280.25 53 280.25 49.35 283.95 49.35
M 265.15 71.9
L 265.15 38 231.15 38 231.15 71.9 265.15 71.9
M 253.7 49.2
L 249.95 49.2 249.95 60.65 253.7 60.65 253.7 64.35 242.5 64.35 242.5 60.65 246.25 60.65 246.25 49.2 242.5 49.2 242.5 45.55 253.7 45.55 253.7 49.2
M 344.5 71.9
L 378.5 71.9 378.5 38 344.5 38 344.5 71.9
M 352.05 45.55
L 355.75 45.55 355.75 60.65 370.85 60.65 370.85 64.35 352.05 64.35 352.05 45.55
M 340.6 71.9
L 340.6 38 306.6 38 306.6 71.9 340.6 71.9
M 333.05 45.55
L 333.05 49.2 318 49.2 318 53.1 329.25 53.1 329.25 56.8 318 56.8 318 60.65 333.05 60.65 333.05 64.35 314.3 64.35 314.3 45.55 333.05 45.55
M 420.1 71.9
L 454.1 71.9 454.1 38 420.1 38 420.1 71.9
M 446.55 45.55
L 446.55 49.2 439 49.2 439 64.35 435.3 64.35 435.3 49.2 427.75 49.2 427.75 45.55 446.55 45.55
M 416.4 71.9
L 416.4 38 382.4 38 382.4 71.9 416.4 71.9
M 405.05 64.35
L 405.05 60.55 393.6 60.55 393.6 64.35 389.95 64.35 389.95 45.55 408.75 45.55 408.75 64.35 405.05 64.35
M 404.95 49.35
L 393.75 49.35 393.75 56.8 404.95 56.8 404.95 49.35
M 495.65 71.9
L 529.65 71.9 529.65 38 495.65 38 495.65 71.9
M 503.3 45.55
L 522.1 45.55 522.1 64.35 503.3 64.35 503.3 45.55
M 518.3 49.35
L 507.1 49.35 507.1 60.55 518.3 60.55 518.3 49.35
M 492 71.9
L 492 38 458 38 458 71.9 492 71.9
M 480.55 49.2
L 476.8 49.2 476.8 60.65 480.55 60.65 480.55 64.35 469.35 64.35 469.35 60.65 473.1 60.65 473.1 49.2 469.35 49.2 469.35 45.55 480.55 45.55 480.55 49.2
M 567.55 71.9
L 567.55 38 533.55 38 533.55 71.9 567.55 71.9
M 544.75 49.35
L 548.55 49.35 548.55 53 544.75 53 544.75 64.35 541.1 64.35 541.1 45.55 544.75 45.55 544.75 49.35
M 556.2 45.55
L 559.9 45.55 559.9 64.35 556.2 64.35 556.2 60.5 552.45 60.5 552.45 56.85 556.2 56.85 556.2 45.55
M 552.45 56.8
L 548.55 56.8 548.55 53.1 552.45 53.1 552.45 56.8 Z"/>
</g>

<path id="Layer2_0_1_STROKES" stroke="#000000" stroke-width="4" stroke-linejoin="miter" stroke-linecap="butt" stroke-miterlimit="2" fill="none" d="
M 101.95 21.7
L 142.4 26.7 129.35 34.05 146.05 41.15 133.55 45.55 148.55 55.75 141.8 55.75 145.3 61.5 122.45 59.5
Q 122.6 61.95 122.55 64.4
L 144.75 67.95 132.6 81.4 146.4 101.15 115.2 97.05
Q 114.95 97.2 114.45 97.45 114 97.7 113.5 97.95 98.8 105.35 84.45 105.4 70.1 105.35 55.4 97.95 54.9 97.7 54.45 97.45 53.95 97.2 53.7 97.05
L 22.5 101.15 36.3 81.4 24.15 67.95 46.35 64.4
Q 46.3 61.95 46.45 59.5
L 23.6 61.5 27.1 55.75 20.35 55.75 35.35 45.55 22.85 41.15 39.55 34.05 26.5 26.7 66.95 21.7
Q 74.1 18.2 84.05 17.65
L 84.85 17.65
Q 94.8 18.2 101.95 21.7 110.9 26 115.45 34.9 121.65 47.55 122.45 59.5
M 90.95 37
L 93.2 30.7 102.2 62.8 106.55 48.6 113 84.65 116.85 71.65 121.9 80.3
Q 122.4 68.75 122.5 65 122.55 64.75 122.55 64.5 122.55 64.45 122.55 64.4
M 90.95 37
L 81.35 63 74.35 45.25 66.7 62.8 62.35 48.6 55.9 84.65 52.05 71.65 47 80.3
Q 46.5 68.75 46.4 65 46.35 64.75 46.35 64.5 46.35 64.45 46.35 64.4
M 123.45 92.35
Q 119.1 94.9 114.45 97.45
M 66.95 21.7
Q 58 26 53.45 34.9 47.25 47.55 46.45 59.5
M 45.45 92.35
Q 49.8 94.9 54.45 97.45"/>

<path id="Layer0_0_1_STROKES" stroke="#000000" stroke-width="10" stroke-linejoin="miter" stroke-linecap="butt" stroke-miterlimit="3" fill="none" d="
M 0 0.5
L 600 0.5 600 119.5 0 119.5 0 0.5 Z"/>
</defs>

<g transform="matrix( 1, 0, 0, 1, 0,0) ">
<use xlink:href="#Layer3_0_FILL"/>
</g>

<g transform="matrix( 1, 0, 0, 1, 0,0) ">
<use xlink:href="#Layer2_0_FILL"/>

<use xlink:href="#Layer2_0_1_STROKES"/>
</g>

<g transform="matrix( 1, 0, 0, 1, -8.15,5.05) ">
<use xlink:href="#Layer2_1_MEMBER_0_FILL"/>
</g>

<g transform="matrix( 1, 0, 0, 1, -8.15,5.05) ">
<use xlink:href="#Layer1_0_MEMBER_0_FILL"/>
</g>

<g transform="matrix( 1, 0, 0, 1, 0,0) ">
<use xlink:href="#Layer0_0_1_STROKES"/>
</g>
</svg>
