
<svg xmlns="http://www.w3.org/2000/svg" version="1.1" xmlns:xlink="http://www.w3.org/1999/xlink" preserveAspectRatio="none" x="0px" y="0px" width="240px" height="78px" viewBox="0 0 240 78">
<defs>
<g id="Layer1_0_FILL">
<path fill="#FFFFFF" stroke="none" d="
M 240 78
L 240 0 0 0 0 78 240 78 Z"/>
</g>

<g id="Layer0_0_FILL">
<path fill="#000000" fill-opacity="0.996078431372549" stroke="none" d="
M 222.2 32.85
L 221.95 33.35
Q 222.8 37.5 223.15 41.7 223.45 45.9 224.35 50
L 224.85 50.25
Q 225.05 50.3 225.3 50.25 225.5 50.15 225.7 50
L 225.7 49.9
Q 227.05 49.75 228.3 49.2 229.55 48.65 230.45 47.6 231.2 46.5 231.7 45.3 232.2 44.1 232.35 42.85 232.35 42.1 232.1 41.5 231.85 40.85 231.4 40.3 231.05 40 230.7 39.65 230.3 39.3 229.85 39.3 230.35 38.6 230.85 37.9 231.35 37.15 231.35 36.25 231.35 35.35 231.15 34.5 230.95 33.65 230.3 33 229.6 32.2 228.75 31.85 227.85 31.5 226.85 31.4 225.6 31.4 224.4 31.75 223.25 32.1 222.2 32.85
M 226.35 33.25
Q 227.05 33.25 227.7 33.4 228.35 33.55 228.8 34.1 229.2 34.4 229.35 34.8 229.5 35.2 229.55 35.65
L 229.45 36.8
Q 229 37.55 228.35 38.1 227.65 38.6 226.9 38.95 226.4 39.1 225.8 39.2 225.25 39.3 224.8 39.5 224.55 38.2 224.4 36.85 224.25 35.5 224 34.2
L 224.05 33.95
Q 224.55 33.6 225.15 33.45 225.7 33.3 226.35 33.25
M 228.65 40.85
Q 229.25 40.95 229.75 41.25 230.1 41.55 230.25 41.9 230.4 42.2 230.5 42.6 230.45 43.25 230.3 43.85 230.1 44.45 229.85 45 229.55 45.65 229.05 46.35 228.6 47 227.9 47.3 227.55 47.55 227.15 47.7 226.75 47.8 226.4 47.95
L 225.65 47.8
Q 225.45 46.2 225.25 44.6 225.05 42.95 224.95 41.35
L 224.95 41.25 225.1 41.3
Q 225.75 41.35 226.3 41.2 226.85 41.05 227.35 40.8 228 40.75 228.65 40.85
M 214.8 34.2
Q 215.9 34.4 216.95 34.55 217.35 34.55 217.65 34.5 217.95 34.45 218.25 34.25
L 218.45 33.8
Q 218.5 33.55 218.45 33.35 218.35 33.15 218.25 32.95 216.6 32.65 214.95 32.4 213.3 32.1 211.65 31.7 211.4 31.65 211.2 31.75 211 31.8 210.8 31.95
L 210.6 32.45
Q 210.85 34.9 210.95 37.35 211 39.85 211.35 42.3
L 211 48.8
Q 211 49.05 211.05 49.35 211.15 49.6 211.3 49.85
L 211.75 50.05
Q 212 50.05 212.15 50.05 212.35 50 212.5 49.85
L 212.9 49.95 218.25 50.15
Q 218.55 50.15 218.9 50.15 219.2 50.1 219.45 49.9
L 219.7 49.45
Q 219.75 49.15 219.65 48.95 219.6 48.75 219.45 48.55 218.4 48.25 217.3 48.25 216.15 48.2 215.1 48.15
L 212.9 48.15 213.15 42.3 212.95 40.8 213 40.7
Q 214.3 41.05 215.55 41.4 216.75 41.75 218.05 41.95 218.3 42 218.55 41.9 218.75 41.85 218.95 41.7
L 219.15 41.2
Q 219.2 41 219.15 40.75 219.05 40.55 218.95 40.35 217.45 40 215.9 39.6 214.4 39.2 212.85 38.8
L 212.6 33.8
Q 213.65 34 214.8 34.2
M 202.95 34.45
L 203.05 34.85
Q 202.5 36.65 201.8 38.35 201.1 40.1 200.45 41.85 200.2 40.35 200.05 38.9 199.85 37.45 199.8 35.95
L 199.9 35.4
Q 199.95 35.1 199.85 34.9 199.8 34.65 199.65 34.45
L 199.2 34.25
Q 198.9 34.2 198.7 34.25 198.5 34.35 198.3 34.5 198.05 34.8 198.05 35.15 198 35.55 197.95 35.95 198.1 38.4 198.45 40.8 198.8 43.25 198.95 45.7 198.8 46.3 198.6 46.85 198.45 47.35 198.35 48 198.4 48.15 198.45 48.35 198.55 48.5 198.6 48.65
L 199.1 48.9
Q 199.35 48.95 199.55 48.85 199.75 48.8 199.95 48.65 200.8 46.2 201.7 43.75 202.6 41.3 203.6 38.9 203.95 41.35 204.15 43.8 204.35 46.3 205 48.65
L 205.4 48.85 205.4 48.95
Q 205.5 49 205.7 49.1 205.85 49.15 206.05 49.2 206.25 49.15 206.4 49.1 206.6 49.05 206.75 48.95 207.65 45.35 208.3 41.7 209 38.05 210.05 34.5 210.05 34.25 210 34 209.95 33.8 209.8 33.6
L 209.3 33.35
Q 209.1 33.35 208.9 33.4 208.65 33.45 208.5 33.6 207.7 36.1 207.05 38.75 206.45 41.4 206 44 205.8 41.4 205.5 38.85 205.15 36.3 204.55 33.8
L 204.05 33.55
Q 203.85 33.5 203.6 33.6 203.4 33.65 203.2 33.8 203.15 33.95 203.05 34.1 203 34.25 202.95 34.45
M 179.55 40.1
Q 177.9 40.4 176.3 40.85
L 176.1 41.3
Q 176.05 41.6 176.1 41.85 176.15 42.05 176.35 42.25 177.55 42.8 178.8 43.25 180 43.7 181.15 44.35 181.1 45.85 180.8 47.3 180.55 48.8 180.2 50.25 180.25 50.45 180.3 50.65 180.35 50.85 180.5 51 180.65 51.1 180.8 51.15 180.95 51.25 181.15 51.3 181.4 51.25 181.55 51.2 181.75 51.15 181.95 51 182.9 50.25 183.8 49.4 184.65 48.5 185.55 47.65 186.9 48.2 188.1 49.05 189.25 49.85 190.55 50.6
L 190.65 50.6 190.65 50.7 191.1 50.9
Q 191.35 50.95 191.55 50.9 191.75 50.8 191.95 50.7
L 192.2 50.2
Q 191.55 48.55 190.95 46.85 190.35 45.1 189.7 43.4 190.9 42.45 192.3 41.85 193.75 41.2 195.15 40.6
L 195.35 40.15
Q 195.4 39.9 195.35 39.7 195.25 39.45 195.15 39.3
L 194.65 39.05 192.9 39.2
Q 191.45 39.15 190.1 39.1 188.7 39.05 187.35 38.8 186.85 37.5 186.7 36.1 186.5 34.75 186.05 33.45
L 185.55 33.25
Q 185.3 33.2 185.1 33.25 184.9 33.35 184.7 33.45 184.1 34.9 183.75 36.4 183.35 37.95 182.85 39.45 181.2 39.75 179.55 40.1
M 181.5 42.5
Q 180.9 42.1 180.25 41.85 181.25 41.55 182.25 41.45 183.3 41.3 184.2 40.8 184.55 40.15 184.8 39.45 185.05 38.7 185.25 38 185.4 38.55 185.5 39.1 185.6 39.65 185.95 40.15 186.85 40.8 188 40.8 189.1 40.85 190.15 40.95
L 188.05 42.15
Q 187.95 42.3 187.9 42.5 187.8 42.65 187.75 42.85 187.85 44.05 188.4 45.2 188.95 46.4 189.25 47.55
L 189.2 47.65
Q 188.45 47.05 187.6 46.55 186.7 46.1 185.8 45.65 185.4 45.6 185.1 45.7 184.8 45.8 184.55 46.05
L 182.6 47.95 182.55 47.9
Q 182.75 47 182.8 46.05 182.9 45.15 183 44.25 183.05 43.95 183 43.7 182.95 43.4 182.75 43.2 182.15 42.85 181.5 42.5
M 166.45 34.25
Q 166.4 35.15 166.35 36.1
L 166.35 44.75
Q 166.45 45.85 166.45 46.95 166.4 48.1 166.8 49.05
L 167.25 49.3
Q 167.5 49.35 167.7 49.3 167.9 49.2 168.1 49.05
L 168.35 48.6 168.15 39.35 168.2 39.3 168.2 36.1
Q 168.25 35.5 168.25 34.85 168.25 34.25 168.35 33.6 168.35 33.3 168.3 32.95 168.3 32.65 168.1 32.45
L 167.65 32.2
Q 167.4 32.15 167.2 32.2 167 32.3 166.8 32.45 166.45 33.3 166.45 34.25
M 151.8 41
L 151.55 41.45 151.6 41.9 151.35 43.6
Q 151.5 44.5 151.8 45.35 152.1 46.2 152.65 46.9 153.55 47.8 154.6 48.4 155.7 49 156.95 49 157.6 49 158.2 49 158.85 49 159.35 48.7
L 159.6 48.2
Q 159.65 48 159.55 47.75 159.5 47.55 159.35 47.35
L 158.9 47.15 158.35 47.2
Q 157.25 47.25 156.2 47 155.15 46.75 154.35 45.95 153.8 45.45 153.55 44.85 153.3 44.25 153.2 43.6
L 153.35 42.9
Q 154.15 43.2 154.95 43.35 155.8 43.5 156.65 43.65 157.45 43.75 158.2 43.55 158.95 43.35 159.65 42.9
L 160.15 41.9
Q 160.15 41.25 160 40.7 159.85 40.1 159.5 39.6
L 158.9 39
Q 158.5 38.75 158.1 38.6 157.65 38.45 157.25 38.35 156.05 38.2 155 38.55 153.9 38.9 153.05 39.75
L 152.25 40.7 151.8 41
M 158.3 41.55
L 157.7 41.8
Q 156.8 41.85 155.95 41.65 155.1 41.5 154.25 41.3
L 154.35 41.05
Q 154.7 40.75 155.1 40.55 155.45 40.3 155.9 40.2 156.4 40.2 156.85 40.2 157.35 40.25 157.7 40.45 157.95 40.65 158.1 40.9 158.25 41.15 158.3 41.4
L 158.3 41.55
M 139.65 39.7
Q 140.1 40.85 140.85 41.9 141.6 42.95 142.25 44.05 141.55 45.05 140.7 45.95 139.9 46.85 139.3 47.85 139.25 48.1 139.3 48.3 139.35 48.5 139.5 48.7
L 140 48.95
Q 140.25 49 140.5 48.9 140.75 48.8 140.9 48.6
L 143.2 45.75
Q 143.75 46.75 144.3 47.7 144.9 48.7 145.55 49.65
L 146.05 49.85
Q 146.25 49.9 146.5 49.85 146.7 49.8 146.9 49.65
L 147.1 49.15
Q 146.65 47.95 145.9 46.75 145.2 45.55 144.55 44.4 145.45 43.6 146.25 42.65 147.1 41.75 148.2 41.2
L 148.45 40.75
Q 148.5 40.5 148.4 40.3 148.35 40.1 148.2 39.9
L 147.75 39.65
Q 146.4 39.9 145.5 40.85 144.6 41.85 143.6 42.75 143.05 41.9 142.45 41 141.85 40.1 141.2 39.25
L 140.75 39
Q 140.5 38.95 140.3 39 140.1 39.1 139.9 39.25
L 139.65 39.7
M 131.35 41.15
Q 131.1 41.1 130.9 41.15 130.7 41.2 130.5 41.35 130.05 42.25 129.95 43.25 129.8 44.25 129.75 45.25
L 129.75 47.45
Q 129.8 47.95 129.85 48.4 129.9 48.9 130.25 49.25
L 130.7 49.5
Q 130.95 49.55 131.15 49.45 131.35 49.4 131.55 49.25
L 131.8 48.8
Q 131.8 48.4 131.7 48.1 131.6 47.8 131.6 47.45
L 131.6 45.25
Q 131.65 44.5 131.7 43.75 131.8 42.95 132.05 42.25 132.1 42 132.05 41.75 131.95 41.55 131.85 41.35
L 131.35 41.15
M 132.3 36.8
Q 131.9 35.9 131.7 35
L 131.2 34.75
Q 131 34.7 130.75 34.75 130.55 34.85 130.35 35 130.3 35.1 130.2 35.3 130.15 35.45 130.1 35.65 130.25 36.6 130.55 37.45 130.9 38.35 131.35 39.15
L 131.85 39.4
Q 132.05 39.45 132.25 39.35 132.5 39.3 132.65 39.15
L 132.9 38.65
Q 132.65 37.7 132.3 36.8
M 123.6 35.7
Q 123.2 34.75 122.6 33.9 121.7 33 120.55 32.5 119.4 32.05 118.2 31.95 117.7 31.95 117.2 31.95 116.75 31.9 116.35 32.2
L 116.25 32.45 115.8 32.6
Q 115.25 36.25 114.9 39.95 114.6 43.7 114.25 47.35 114.2 47.65 114.25 47.85 114.35 48.1 114.5 48.25
L 114.95 48.5
Q 115.2 48.55 115.4 48.5 115.6 48.4 115.8 48.25 116.2 46.9 116.3 45.45 116.4 44 116.5 42.6 116.8 42.75 117.1 42.8 117.45 42.9 117.75 42.9 119.25 42.9 120.7 42.65 122.15 42.4 123.35 41.35 123.6 41.05 123.75 40.7 123.9 40.35 124.05 40.05
L 124.05 37.7
Q 123.95 36.7 123.6 35.7
M 121.95 40.05
Q 121.8 40.3 121.55 40.4 120.95 40.75 120.25 40.9 119.55 41.05 118.85 41.1 118.2 41.2 117.65 41 117.1 40.85 116.7 40.45
L 117.35 33.8
Q 118.4 33.75 119.4 34.05 120.35 34.35 121.15 35.1 121.55 35.7 121.85 36.35 122.15 37 122.2 37.7
L 122.2 39.6
Q 122.15 39.85 121.95 40.05 Z"/>

<path fill="#000000" stroke="none" d="
M 102.85 13.95
Q 102.7021484375 13.8974609375 102.55 13.85 97.45 12.25 94.95 12 90.1 10.9 86 10.1 84.9 9.8 83.85 9.7 82.4 9.4 81.05 9.15 76.1 8.35 72.65 8.35
L 71.3 8.35
Q 69.55 8.1 67.55 7.95
L 55.3 7.95
Q 53.8 8.1 52.35 8.5
L 52.2 8.1
Q 46.2 8.35 34.45 11.55 20.7 15.35 20.7 18.45 20.7 18.95 23.75 22.05 20.95 23.4 18.95 24.5 15.35 26.65 15.35 27.7 15.35 28.9 18.55 30 20.3 30.55 22.45 31.05 19.65 32 18.15 32.7 15.35 33.9 15.35 35.1
L 16.15 36.2 24.85 36.2
Q 24.05 36.7 23.1 37.25 16.05 41.7 16.05 42.1 16.05 42.25 16.15 42.5
L 16.05 42.5 16.3 42.75 16.55 42.9
Q 19.65 44.8 28.3 51.4 27.1 51.65 21.75 55 16.45 58.25 16.45 58.5 16.45 59.2 17.35 60.65 23.25 64 31 66.05 34.3 67 39 67.8 45.4 69 54.2 70.05
L 72.25 70.05
Q 76.35 69.55 81.05 68.6
L 92.5 65.75
Q 99.37578125 63.8951171875 102.85 62.2 106.4 60.5408203125 106.4 59.05 106.4 58.5525390625 102.85 56.4 99.619921875 54.43515625 93.45 51.1 99.2849609375 46.86484375 102.85 44.2 106.86171875 41.2765625 108 40.35
L 108.75 39.2 108.75 38.25
Q 108.05 37.95 106.25 37.25 104.43671875 36.590625 102.85 36.1 101.548828125 35.6927734375 100.4 35.4 96.4 34.45 94.1 33.75
L 106.25 33.75
Q 106.55 33.65 106.65 33.5 107.05 32.95 107.05 32.8 106.55 32 104.15 30.15 103.40078125 29.591796875 102.85 29.15 101.5265625 28.058984375 101.35 27.6 101.5416015625 27.6 102.85 27.25 103.2482421875 27.1783203125 103.75 27.05 105.75 26.25 105.75 25 105.75 24.3736328125 102.85 22.85 100.8884765625 21.8623046875 97.6 20.45 97.2 20.3 96.95 20.2
L 97.6 20.05
Q 98.123046875 19.907421875 102.85 19.05 103.0943359375 18.9966796875 103.35 18.95 108.15 17.9 108.15 16.55 108.15 15.62578125 102.85 13.95
M 83.85 16
Q 84.65 16.7 85.45 17.6 88.8 21.95 89.85 29.45
L 89.85 40.9
Q 90.65 44.5 90.8 49.75 88.9 48 88.25 47.9
L 84.5 51
Q 84.4 48.95 83.85 44.8 83.7 43.2 83.45 41.3 82.9 36.3 81.05 33.2 80.35 32.15 79.55 31.35
L 79.45 32.3
Q 79.45 32.55 80.35 36.05
L 75.45 26.9
Q 74.1 23.25 73.15 21.4 71.95 18.95 70.25 18.45
L 60.75 36.45 60.75 35.9
Q 59.8 32.3 59.3 30.25 58.75 28.25 58.1 26.9 58.75 24.5 59.7 21.4
L 59.4 21.4
Q 59.15 21.5 58.9 21.5 58.6 21.5 58.35 21.4 58.2 21.4 58.1 21.4 57.7 23.95 57 25.4 56.6 26.35 53.55 32.15 52.6 33.75 52.2 34.95 50.75 30.4 48.75 28.8 48.75 28.5 48.75 28.25
L 48.6 26.9
Q 47.15 27.05 46.75 28.65 46.6 29.6 46.45 31.35 46.35 31.75 45.15 33.9 44.6 34.95 44.35 35.65
L 44.75 30.65 44.6 28.25
Q 43.95 28.4 43.55 29.05 43.8 28.4 44.05 27.7
L 43.95 26.9
Q 41.8 28.1 38.7 37.55 36.05 45.45 35.4 50.05 33.4 48 33.4 47.9 33.1 47.9 32.05 48.4 31 48.95 30.7 49.25 30.85 48.15 32.05 41.95 33.4 35.5 33.8 33.9 36.7 24.1 36.7 23.95 36.7 23.25 36.05 23.25 38.45 19.9 41.95 16.95 48.35 11.55 55.8 9.7
L 67.3 9.7
Q 75.7 10.5 81.05 13.85 82.5 14.8 83.85 16
M 45.55 10.5
Q 47.65 10.1 49.25 9.7 45.25 11.55 40.6 15.6 32.45 22.75 32.45 26.75
L 33 27.3 31.8 32.7
Q 29.25 33.35 24.95 36.05 25.35 35.65 25.35 35.4
L 24.55 34.55 19.5 34.45
Q 25.35 32.7 25.35 30.8 25.35 30 22.45 28.9 19.1 27.85 18.15 27.45 26.7 23.15 26.7 21.95 26.7 21.25 22.7 18.85 24.15 17.75 28.2 15.75 32.3 13.85 35.25 12.9 37.1 12.25 45.55 10.5
M 19.9 42.1
Q 19.5 41.85 19.25 41.7 28.05 36.7 31.4 34.45
L 30.3 39.55
Q 29.1 45.85 28.85 49.75 28.3 49.1 27.65 48.55 24.55 46.15 23.35 45.05 21.25 43.05 19.9 42.1
M 103.6 16.7
Q 103.217578125 16.7568359375 102.85 16.8 93.85 18.234375 93.85 20.3 93.85 21.25 97.6 22.75 101.966796875 24.4873046875 102.85 25.05 102.907421875 25.1166015625 102.95 25.15 102.9099609375 25.175 102.85 25.2 102.3103515625 25.4548828125 100.15 25.95 98.8 26.25 98.8 27.45
L 101.6 30.65
Q 102.225 31.3140625 102.85 31.85 103.025 32.0078125 103.2 32.15
L 93.2 32
Q 92.25 31.9 91.45 31.75
L 91.45 28.25
Q 91.2 21.5 86.5 16.15 85.3 14.65 83.85 13.6 82.5 12.5 81.05 11.7 80.75 11.45 80.35 11.3 80.75 11.3 81.05 11.45 82.5 11.55 83.85 11.85 87.45 12.4 90.4 12.9 92.1181640625 13.271484375 102.85 15.95 103.6734375 16.1791015625 104.55 16.4
L 103.6 16.7
M 91.45 34.05
Q 93.45 34.85 100.15 37 101.6578125 37.507421875 102.85 37.9 105.7705078125 38.866015625 106.8 39.15
L 107.05 39.15 105.05 40.35
Q 104.01953125 40.9185546875 102.85 41.65 100.7287109375 42.9982421875 98.15 44.9 93.2 48.7 92.4 50.05
L 92.4 48
Q 92.4 41.95 91.45 40.2
L 91.45 34.05
M 103.45 59.6
Q 103.1646484375 59.6951171875 102.85 59.8 99.19609375 61.021875 91.6 63.6 87.85 64.95 83.85 66.05 82.5 66.3 81.05 66.7 78.25 67.25 75.3 67.8 73.45 68.05 71.7 68.3
L 54.75 68.3
Q 52.35 68.05 50.2 67.8 37.8 66.3 31.25 64.4 29.9 64 24.15 61.35 19.25 59.2 18.3 59.05 26.55 54.6 29.25 52.7 29.4 53 29.65 53.15
L 32.6 50.15 36.85 53.4
Q 37.1 51.9 38.7 45.2 39.65 41.7 40.05 39.55
L 40.05 53.8
Q 41.15 53.95 42.2 54.2 44.05 54.2 43.65 45.35
L 43.55 40.35 42.6 40.2
Q 42.2 40.5 42.05 40.5 42.05 38.6 40.3 38.45 41 34.85 42.85 30.95
L 42.85 31.05
Q 42.75 31.6 42.75 34.7 42.75 36.7 43.55 37.1
L 44.2 36.85 44.2 36.6 45.15 37.55
Q 46.45 36.2 47.55 33.2 47.95 32.3 48.2 31.5 48.6 32.55 49.25 33.9 50.45 36.2 50.75 38.05
L 51.65 38.2 52.05 38.2
Q 54.2 38.2 57 30.4 57.15 31.75 57.55 33.2 57.95 35.1 59.4 37.25 60.5 39.15 61.15 39.55 69.15 26.25 70.25 20.6 71.55 22.05 72.5 23.8 73.15 25.15 74.35 28.9 75.05 30.25 77.05 34.95 79.05 38.85 80.25 38.85 80.75 38.85 81.05 38.6 81.6 40.9 83.45 54.2
L 88.1 49.75
Q 92.1 52.2 92.25 52.05
L 92.25 51.65
Q 92.9 53 97.75 56.2 100.8595703125 58.3162109375 102.85 59.3 103.1638671875 59.4705078125 103.45 59.6
M 67.7 63.2
Q 69.95 61.2 69.95 58.9
L 69.85 57.95
Q 69.7 57.95 51 58.5 51 58.65 52.6 62.15 55.15 65.75 59.95 65.75 64.75 65.75 67.7 63.2
M 67.7 59.7
Q 67.15 60.25 66.75 61.2 65.15 64 59.95 64 56.5 64 54.05 61.05 53.65 60.5 53.4 60.1
L 67.7 59.7
M 78.1 40.6
L 78.1 39.8
Q 77.45 39.7 76.65 40.1
L 76.65 47.1
Q 76.75 54.05 77.3 54.2
L 78.1 53.95
Q 78.1 53.4 78.25 53 78.75 53.8 79.55 53.8 80.25 53.8 80.35 53.55
L 80.35 41.45 80.25 40.9 79.3 40.75 79.3 40.6 78.1 40.6 Z"/>

<path fill="#FFFFFF" stroke="none" d="
M 102.85 59.8
Q 103.1646484375 59.6951171875 103.45 59.6 103.1638671875 59.4705078125 102.85 59.3 100.8595703125 58.3162109375 97.75 56.2 92.9 53 92.25 51.65
L 92.25 52.05
Q 92.1 52.2 88.1 49.75
L 83.45 54.2
Q 81.6 40.9 81.05 38.6 80.75 38.85 80.25 38.85 79.05 38.85 77.05 34.95 75.05 30.25 74.35 28.9 73.15 25.15 72.5 23.8 71.55 22.05 70.25 20.6 69.15 26.25 61.15 39.55 60.5 39.15 59.4 37.25 57.95 35.1 57.55 33.2 57.15 31.75 57 30.4 54.2 38.2 52.05 38.2
L 51.65 38.2 50.75 38.05
Q 50.45 36.2 49.25 33.9 48.6 32.55 48.2 31.5 47.95 32.3 47.55 33.2 46.45 36.2 45.15 37.55
L 44.2 36.6 44.2 36.85 43.55 37.1
Q 42.75 36.7 42.75 34.7 42.75 31.6 42.85 31.05
L 42.85 30.95
Q 41 34.85 40.3 38.45 42.05 38.6 42.05 40.5 42.2 40.5 42.6 40.2
L 43.55 40.35 43.65 45.35
Q 44.05 54.2 42.2 54.2 41.15 53.95 40.05 53.8
L 40.05 39.55
Q 39.65 41.7 38.7 45.2 37.1 51.9 36.85 53.4
L 32.6 50.15 29.65 53.15
Q 29.4 53 29.25 52.7 26.55 54.6 18.3 59.05 19.25 59.2 24.15 61.35 29.9 64 31.25 64.4 37.8 66.3 50.2 67.8 52.35 68.05 54.75 68.3
L 71.7 68.3
Q 73.45 68.05 75.3 67.8 78.25 67.25 81.05 66.7 82.5 66.3 83.85 66.05 87.85 64.95 91.6 63.6 99.19609375 61.021875 102.85 59.8
M 78.1 39.8
L 78.1 40.6 79.3 40.6 79.3 40.75 80.25 40.9 80.35 41.45 80.35 53.55
Q 80.25 53.8 79.55 53.8 78.75 53.8 78.25 53 78.1 53.4 78.1 53.95
L 77.3 54.2
Q 76.75 54.05 76.65 47.1
L 76.65 40.1
Q 77.45 39.7 78.1 39.8
M 69.95 58.9
Q 69.95 61.2 67.7 63.2 64.75 65.75 59.95 65.75 55.15 65.75 52.6 62.15 51 58.65 51 58.5 69.7 57.95 69.85 57.95
L 69.95 58.9
M 66.75 61.2
Q 67.15 60.25 67.7 59.7
L 53.4 60.1
Q 53.65 60.5 54.05 61.05 56.5 64 59.95 64 65.15 64 66.75 61.2
M 100.15 37
Q 93.45 34.85 91.45 34.05
L 91.45 40.2
Q 92.4 41.95 92.4 48
L 92.4 50.05
Q 93.2 48.7 98.15 44.9 100.7287109375 42.9982421875 102.85 41.65 104.01953125 40.9185546875 105.05 40.35
L 107.05 39.15 106.8 39.15
Q 105.7705078125 38.866015625 102.85 37.9 101.6578125 37.507421875 100.15 37
M 101.7 38.25
Q 102.1 38.4 102.15 38.45
L 101.7 39.2 101.7 38.25
M 102.85 16.8
Q 103.217578125 16.7568359375 103.6 16.7
L 104.55 16.4
Q 103.6734375 16.1791015625 102.85 15.95 92.1181640625 13.271484375 90.4 12.9 87.45 12.4 83.85 11.85 82.5 11.55 81.05 11.45 80.75 11.3 80.35 11.3 80.75 11.45 81.05 11.7 82.5 12.5 83.85 13.6 85.3 14.65 86.5 16.15 91.2 21.5 91.45 28.25
L 91.45 31.75
Q 92.25 31.9 93.2 32
L 103.2 32.15
Q 103.025 32.0078125 102.85 31.85 102.225 31.3140625 101.6 30.65
L 98.8 27.45
Q 98.8 26.25 100.15 25.95 102.3103515625 25.4548828125 102.85 25.2 102.9099609375 25.175 102.95 25.15 102.907421875 25.1166015625 102.85 25.05 101.966796875 24.4873046875 97.6 22.75 93.85 21.25 93.85 20.3 93.85 18.234375 102.85 16.8
M 19.25 41.7
Q 19.5 41.85 19.9 42.1 21.25 43.05 23.35 45.05 24.55 46.15 27.65 48.55 28.3 49.1 28.85 49.75 29.1 45.85 30.3 39.55
L 31.4 34.45
Q 28.05 36.7 19.25 41.7
M 49.25 9.7
Q 47.65 10.1 45.55 10.5 37.1 12.25 35.25 12.9 32.3 13.85 28.2 15.75 24.15 17.75 22.7 18.85 26.7 21.25 26.7 21.95 26.7 23.15 18.15 27.45 19.1 27.85 22.45 28.9 25.35 30 25.35 30.8 25.35 32.7 19.5 34.45
L 24.55 34.55 25.35 35.4
Q 25.35 35.65 24.95 36.05 29.25 33.35 31.8 32.7
L 33 27.3 32.45 26.75
Q 32.45 22.75 40.6 15.6 45.25 11.55 49.25 9.7
M 85.45 17.6
Q 84.65 16.7 83.85 16 82.5 14.8 81.05 13.85 75.7 10.5 67.3 9.7
L 55.8 9.7
Q 48.35 11.55 41.95 16.95 38.45 19.9 36.05 23.25 36.7 23.25 36.7 23.95 36.7 24.1 33.8 33.9 33.4 35.5 32.05 41.95 30.85 48.15 30.7 49.25 31 48.95 32.05 48.4 33.1 47.9 33.4 47.9 33.4 48 35.4 50.05 36.05 45.45 38.7 37.55 41.8 28.1 43.95 26.9
L 44.05 27.7
Q 43.8 28.4 43.55 29.05 43.95 28.4 44.6 28.25
L 44.75 30.65 44.35 35.65
Q 44.6 34.95 45.15 33.9 46.35 31.75 46.45 31.35 46.6 29.6 46.75 28.65 47.15 27.05 48.6 26.9
L 48.75 28.25
Q 48.75 28.5 48.75 28.8 50.75 30.4 52.2 34.95 52.6 33.75 53.55 32.15 56.6 26.35 57 25.4 57.7 23.95 58.1 21.4 58.2 21.4 58.35 21.4 58.6 21.5 58.9 21.5 59.15 21.5 59.4 21.4
L 59.7 21.4
Q 58.75 24.5 58.1 26.9 58.75 28.25 59.3 30.25 59.8 32.3 60.75 35.9
L 60.75 36.45 70.25 18.45
Q 71.95 18.95 73.15 21.4 74.1 23.25 75.45 26.9
L 80.35 36.05
Q 79.45 32.55 79.45 32.3
L 79.55 31.35
Q 80.35 32.15 81.05 33.2 82.9 36.3 83.45 41.3 83.7 43.2 83.85 44.8 84.4 48.95 84.5 51
L 88.25 47.9
Q 88.9 48 90.8 49.75 90.65 44.5 89.85 40.9
L 89.85 29.45
Q 88.8 21.95 85.45 17.6 Z"/>
</g>
</defs>

<g transform="matrix( 1, 0, 0, 1, 0,0) ">
<use xlink:href="#Layer1_0_FILL"/>
</g>

<g transform="matrix( 1, 0, 0, 1, -2.65,0) ">
<use xlink:href="#Layer0_0_FILL"/>
</g>
</svg>
