
<svg xmlns="http://www.w3.org/2000/svg" version="1.1" xmlns:xlink="http://www.w3.org/1999/xlink" preserveAspectRatio="none" x="0px" y="0px" width="100px" height="29px" viewBox="0 0 100 29">
<defs>
<g id="Layer1_0_FILL">
<path fill="#FFFFFF" stroke="none" d="
M 100 29
L 100 0 0 0 0 29 100 29 Z"/>
</g>

<g id="Layer0_0_FILL">
<path fill="#000000" stroke="none" d="
M 33.4 7.8
L 33.65 7.75
Q 33.85 7.7 35.8 7.35 37.6 6.95 37.6 6.45 37.6 6.1 35.5 5.45 33.6 4.85 32.65 4.75 30.85 4.35 29.3 4.05 28.9 3.95 28.5 3.9 27.95 3.8 27.45 3.7 25.6 3.4 24.3 3.4
L 23.8 3.4
Q 23.15 3.3 22.4 3.25
L 17.8 3.25
Q 17.25 3.3 16.7 3.45
L 16.65 3.3
Q 14.4 3.4 10 4.6 4.85 6 4.85 7.15 4.85 7.35 6 8.5 4.95 9 4.2 9.4 2.85 10.2 2.85 10.6 2.85 11.05 4.05 11.45 4.7 11.65 5.5 11.85 4.45 12.2 3.9 12.45 2.85 12.9 2.85 13.35
L 3.15 13.75 6.4 13.75
Q 6.1 13.95 5.75 14.15 3.1 15.8 3.1 15.95 3.1 16 3.15 16.1
L 3.1 16.1 3.2 16.2 3.3 16.25
Q 4.45 16.95 7.7 19.4 7.25 19.5 5.25 20.75 3.25 21.95 3.25 22.05 3.25 22.3 3.6 22.85 5.8 24.1 8.7 24.85 9.9724609375 25.1837890625 11.7 25.5 14.1072265625 25.9419921875 17.4 26.35
L 24.15 26.35
Q 25.7 26.15 27.45 25.8
L 31.75 24.75
Q 36.95 23.35 36.95 22.25 36.95 21.9 32.1 19.3 36.7462890625 15.93984375 37.55 15.25
L 38 14.6
Q 37.95 14.55 36.9 14.15 35.65 13.7 34.7 13.45 33.2 13.1 32.35 12.85
L 36.9 12.85
Q 37 12.8 37.05 12.75 37.2 12.55 37.2 12.5 37 12.2 36.1 11.5 35.15 10.8 35.05 10.55 35.15 10.55 35.95 10.35 36.7 10.05 36.7 9.6 36.7 9.2 33.65 7.9 33.5 7.85 33.4 7.8
M 32 12.2
Q 31.65 12.15 31.35 12.1
L 31.35 10.8
Q 31.25 8.3 29.5 6.3 29.05 5.75 28.5 5.35 28 4.95 27.45 4.65 27.35 4.55 27.2 4.5 27.35 4.5 27.45 4.55 28 4.6 28.5 4.7 29.85 4.9 30.95 5.1 31.65 5.25 36.25 6.4
L 35.9 6.5
Q 32.25 7.05 32.25 7.85 32.25 8.2 33.65 8.75 35.4 9.45 35.65 9.65 35.5 9.75 34.6 9.95 34.1 10.05 34.1 10.5
L 35.15 11.7
Q 35.45 12 35.75 12.25
L 32 12.2
M 24.5 8.25
Q 24.05 7.35 23.4 7.15
L 19.85 13.85 19.85 13.65
Q 19.5 12.3 19.3 11.55 19.1 10.8 18.85 10.3 19.1 9.4 19.45 8.25
L 19.35 8.25
Q 19.25 8.3 19.15 8.3 19.05 8.3 18.95 8.25 18.9 8.25 18.85 8.25 18.7 9.2 18.45 9.75 18.3 10.1 17.15 12.25 16.8 12.85 16.65 13.3 16.1 11.6 15.35 11 15.35 10.9 15.35 10.8
L 15.3 10.3
Q 14.75 10.35 14.6 10.95 14.55 11.3 14.5 11.95 14.45 12.1 14 12.9 13.8 13.3 13.7 13.55
L 13.85 11.7 13.8 10.8
Q 13.55 10.85 13.4 11.1 13.5 10.85 13.6 10.6
L 13.55 10.3
Q 12.75 10.75 11.6 14.25 10.6 17.2 10.35 18.9 9.6 18.15 9.6 18.1 9.5 18.1 9.1 18.3 8.7 18.5 8.6 18.6 8.65 18.2 9.1 15.9 9.6 13.5 9.75 12.9 10.85 9.25 10.85 9.2 10.85 8.95 10.6 8.95 11.5 7.7 12.8 6.6 15.2 4.6 18 3.9
L 22.3 3.9
Q 25.45 4.2 27.45 5.45 28 5.8 28.5 6.25 28.8 6.5 29.1 6.85 30.35 8.45 30.75 11.25
L 30.75 15.5
Q 31.05 16.85 31.1 18.8 30.4 18.15 30.15 18.1
L 28.75 19.25
Q 28.7 18.5 28.5 16.95 28.45 16.35 28.35 15.65 28.15 13.8 27.45 12.65 27.2 12.25 26.9 11.95
L 26.85 12.3
Q 26.85 12.4 27.2 13.7
L 25.35 10.3
Q 24.85 8.95 24.5 8.25
M 23.4 7.95
Q 23.9 8.5 24.25 9.15 24.5 9.65 24.95 11.05 25.2 11.55 25.95 13.3 26.7 14.75 27.15 14.75 27.35 14.75 27.45 14.65 27.65 15.5 28.35 20.45
L 30.1 18.8
Q 31.6 19.7 31.65 19.65
L 31.65 19.5
Q 31.9 20 33.7 21.2 35.05 22.1 35.85 22.45 34.5 22.9 31.4 23.95 30 24.45 28.5 24.85 28 24.95 27.45 25.1 26.3828125 25.3197265625 25.25 25.5 24.6201171875 25.60703125 23.95 25.7
L 17.6 25.7
Q 16.708203125 25.6017578125 15.85 25.5 11.26171875 24.9291015625 8.8 24.25 8.3 24.1 6.15 23.1 4.3 22.3 3.95 22.25 7.05 20.6 8.05 19.9 8.1 20 8.2 20.05
L 9.3 18.95 10.9 20.15
Q 11 19.6 11.6 17.1 11.95 15.8 12.1 15
L 12.1 20.3
Q 12.5 20.35 12.9 20.45 13.6 20.45 13.45 17.15
L 13.4 15.3 13.05 15.25
Q 12.9 15.35 12.85 15.35 12.85 14.65 12.2 14.6 12.45 13.25 13.15 11.8
L 13.15 11.85
Q 13.1 12.05 13.1 13.2 13.1 13.95 13.4 14.1
L 13.65 14 13.65 13.9 14 14.25
Q 14.5 13.75 14.9 12.65 15.05 12.3 15.15 12 15.3 12.4 15.55 12.9 16 13.75 16.1 14.45
L 16.45 14.5 16.6 14.5
Q 17.4 14.5 18.45 11.6 18.5 12.1 18.65 12.65 18.8 13.35 19.35 14.15 19.75 14.85 20 15 23 10.05 23.4 7.95
M 37.1 14.8
L 37.2 14.85 36.45 15.3
Q 35.344140625 15.879296875 33.85 17 32 18.4 31.7 18.9
L 31.7 18.15
Q 31.7 15.9 31.35 15.25
L 31.35 12.95
Q 32.1 13.25 34.6 14.05 36.5625 14.6779296875 37.1 14.8
M 10.3 5.1
Q 11 4.85 14.15 4.2 14.95 4.05 15.55 3.9 14.05 4.6 12.3 6.1 9.25 8.75 9.25 10.25
L 9.45 10.45 9 12.45
Q 8.05 12.7 6.45 13.7 6.6 13.55 6.6 13.45
L 6.3 13.15 4.4 13.1
Q 6.6 12.45 6.6 11.75 6.6 11.45 5.5 11.05 4.25 10.65 3.9 10.5 7.1 8.9 7.1 8.45 7.1 8.2 5.6 7.3 6.15 6.9 7.65 6.15 9.2 5.45 10.3 5.1
M 8.85 13.1
L 8.45 15
Q 8 17.35 7.9 18.8 7.7 18.55 7.45 18.35 6.3 17.45 5.85 17.05 5.05 16.3 4.55 15.95 4.4 15.85 4.3 15.8 7.6 13.95 8.85 13.1
M 23.3 22.2
L 23.25 21.85
Q 23.2 21.85 16.2 22.05 16.2 22.1 16.8 23.4 17.75 24.75 19.55 24.75 21.35 24.75 22.45 23.8 23.3 23.05 23.3 22.2
M 22.45 22.5
Q 22.25 22.7 22.1 23.05 21.5 24.1 19.55 24.1 18.25 24.1 17.35 23 17.2 22.8 17.1 22.65
L 22.45 22.5
M 26.35 15.4
L 26.35 15.1
Q 26.1 15.05 25.8 15.2
L 25.8 17.8
Q 25.85 20.4 26.05 20.45
L 26.35 20.35
Q 26.35 20.15 26.4 20 26.6 20.3 26.9 20.3 27.15 20.3 27.2 20.2
L 27.2 15.7 27.15 15.5 26.8 15.45 26.8 15.4 26.35 15.4 Z"/>

<path fill="#FFFFFF" stroke="none" d="
M 8.45 15
L 8.85 13.1
Q 7.6 13.95 4.3 15.8 4.4 15.85 4.55 15.95 5.05 16.3 5.85 17.05 6.3 17.45 7.45 18.35 7.7 18.55 7.9 18.8 8 17.35 8.45 15
M 14.15 4.2
Q 11 4.85 10.3 5.1 9.2 5.45 7.65 6.15 6.15 6.9 5.6 7.3 7.1 8.2 7.1 8.45 7.1 8.9 3.9 10.5 4.25 10.65 5.5 11.05 6.6 11.45 6.6 11.75 6.6 12.45 4.4 13.1
L 6.3 13.15 6.6 13.45
Q 6.6 13.55 6.45 13.7 8.05 12.7 9 12.45
L 9.45 10.45 9.25 10.25
Q 9.25 8.75 12.3 6.1 14.05 4.6 15.55 3.9 14.95 4.05 14.15 4.2
M 37.2 14.85
L 37.1 14.8
Q 36.5625 14.6779296875 34.6 14.05 32.1 13.25 31.35 12.95
L 31.35 15.25
Q 31.7 15.9 31.7 18.15
L 31.7 18.9
Q 32 18.4 33.85 17 35.344140625 15.879296875 36.45 15.3
L 37.2 14.85
M 24.25 9.15
Q 23.9 8.5 23.4 7.95 23 10.05 20 15 19.75 14.85 19.35 14.15 18.8 13.35 18.65 12.65 18.5 12.1 18.45 11.6 17.4 14.5 16.6 14.5
L 16.45 14.5 16.1 14.45
Q 16 13.75 15.55 12.9 15.3 12.4 15.15 12 15.05 12.3 14.9 12.65 14.5 13.75 14 14.25
L 13.65 13.9 13.65 14 13.4 14.1
Q 13.1 13.95 13.1 13.2 13.1 12.05 13.15 11.85
L 13.15 11.8
Q 12.45 13.25 12.2 14.6 12.85 14.65 12.85 15.35 12.9 15.35 13.05 15.25
L 13.4 15.3 13.45 17.15
Q 13.6 20.45 12.9 20.45 12.5 20.35 12.1 20.3
L 12.1 15
Q 11.95 15.8 11.6 17.1 11 19.6 10.9 20.15
L 9.3 18.95 8.2 20.05
Q 8.1 20 8.05 19.9 7.05 20.6 3.95 22.25 4.3 22.3 6.15 23.1 8.3 24.1 8.8 24.25 11.26171875 24.9291015625 15.85 25.5 16.708203125 25.6017578125 17.6 25.7
L 23.95 25.7
Q 24.6201171875 25.60703125 25.25 25.5 26.3828125 25.3197265625 27.45 25.1 28 24.95 28.5 24.85 30 24.45 31.4 23.95 34.5 22.9 35.85 22.45 35.05 22.1 33.7 21.2 31.9 20 31.65 19.5
L 31.65 19.65
Q 31.6 19.7 30.1 18.8
L 28.35 20.45
Q 27.65 15.5 27.45 14.65 27.35 14.75 27.15 14.75 26.7 14.75 25.95 13.3 25.2 11.55 24.95 11.05 24.5 9.65 24.25 9.15
M 26.35 15.1
L 26.35 15.4 26.8 15.4 26.8 15.45 27.15 15.5 27.2 15.7 27.2 20.2
Q 27.15 20.3 26.9 20.3 26.6 20.3 26.4 20 26.35 20.15 26.35 20.35
L 26.05 20.45
Q 25.85 20.4 25.8 17.8
L 25.8 15.2
Q 26.1 15.05 26.35 15.1
M 23.25 21.85
L 23.3 22.2
Q 23.3 23.05 22.45 23.8 21.35 24.75 19.55 24.75 17.75 24.75 16.8 23.4 16.2 22.1 16.2 22.05 23.2 21.85 23.25 21.85
M 22.1 23.05
Q 22.25 22.7 22.45 22.5
L 17.1 22.65
Q 17.2 22.8 17.35 23 18.25 24.1 19.55 24.1 21.5 24.1 22.1 23.05
M 23.4 7.15
Q 24.05 7.35 24.5 8.25 24.85 8.95 25.35 10.3
L 27.2 13.7
Q 26.85 12.4 26.85 12.3
L 26.9 11.95
Q 27.2 12.25 27.45 12.65 28.15 13.8 28.35 15.65 28.45 16.35 28.5 16.95 28.7 18.5 28.75 19.25
L 30.15 18.1
Q 30.4 18.15 31.1 18.8 31.05 16.85 30.75 15.5
L 30.75 11.25
Q 30.35 8.45 29.1 6.85 28.8 6.5 28.5 6.25 28 5.8 27.45 5.45 25.45 4.2 22.3 3.9
L 18 3.9
Q 15.2 4.6 12.8 6.6 11.5 7.7 10.6 8.95 10.85 8.95 10.85 9.2 10.85 9.25 9.75 12.9 9.6 13.5 9.1 15.9 8.65 18.2 8.6 18.6 8.7 18.5 9.1 18.3 9.5 18.1 9.6 18.1 9.6 18.15 10.35 18.9 10.6 17.2 11.6 14.25 12.75 10.75 13.55 10.3
L 13.6 10.6
Q 13.5 10.85 13.4 11.1 13.55 10.85 13.8 10.8
L 13.85 11.7 13.7 13.55
Q 13.8 13.3 14 12.9 14.45 12.1 14.5 11.95 14.55 11.3 14.6 10.95 14.75 10.35 15.3 10.3
L 15.35 10.8
Q 15.35 10.9 15.35 11 16.1 11.6 16.65 13.3 16.8 12.85 17.15 12.25 18.3 10.1 18.45 9.75 18.7 9.2 18.85 8.25 18.9 8.25 18.95 8.25 19.05 8.3 19.15 8.3 19.25 8.3 19.35 8.25
L 19.45 8.25
Q 19.1 9.4 18.85 10.3 19.1 10.8 19.3 11.55 19.5 12.3 19.85 13.65
L 19.85 13.85 23.4 7.15
M 31.35 12.1
Q 31.65 12.15 32 12.2
L 35.75 12.25
Q 35.45 12 35.15 11.7
L 34.1 10.5
Q 34.1 10.05 34.6 9.95 35.5 9.75 35.65 9.65 35.4 9.45 33.65 8.75 32.25 8.2 32.25 7.85 32.25 7.05 35.9 6.5
L 36.25 6.4
Q 31.65 5.25 30.95 5.1 29.85 4.9 28.5 4.7 28 4.6 27.45 4.55 27.35 4.5 27.2 4.5 27.35 4.55 27.45 4.65 28 4.95 28.5 5.35 29.05 5.75 29.5 6.3 31.25 8.3 31.35 10.8
L 31.35 12.1 Z"/>
</g>

<g id="Symbol_1_0_Layer0_0_FILL">
<path fill="#000000" stroke="none" d="
M 4.8 5.6
Q 4.8 5 4.8 4.3
L 4.85 3.65
Q 4.85 3.55 4.75 3.4 4.7 3.25 4.55 3.25 4.25 3.25 4.25 3.7
L 4.25 4.4
Q 4.3 5.1 4.3 5.55 4.3 5.75 4.3 6.5 4.25 7.3 4.25 7.35 4.25 7.75 4.55 7.75 4.65 7.75 4.75 7.6 4.8 7.4 4.8 7.25 4.8 6.05 4.8 5.6
M 0.05 3.45
Q 0.05 3.5 0.05 3.7
L 0.05 6.05
Q 0.05 6.55 0.05 7.5 0 8.5 0 8.7 0 9.15 0.25 9.15 0.5 9.15 0.5 8.8
L 0.5 8.25
Q 0.5 7.55 0.5 7.05 1.25 7.75 1.85 7.75 2.6 7.75 3 7.05 3.35 6.45 3.35 5.6 3.35 3.2 1.9 3.2 1.3 3.2 0.55 3.7
L 0.5 3.4
Q 0.45 3.2 0.3 3.2 0.05 3.2 0.05 3.45
M 0.55 4.25
Q 0.7 4.25 0.85 4.15 1.45 3.7 1.85 3.7 2.85 3.7 2.85 5.55 2.85 7.25 1.85 7.25 1.4 7.25 0.9 6.75 0.7 6.5 0.55 6.55
L 0.55 4.25
M 4.55 2
Q 4.7 2 4.8 1.85 4.9 1.75 4.9 1.6 4.9 1.45 4.8 1.35 4.7 1.2 4.55 1.2 4.4 1.2 4.25 1.3 4.15 1.45 4.15 1.6 4.15 1.75 4.25 1.85 4.4 2 4.55 2
M 6.2 3.2
Q 5.9 3.2 5.9 3.55
L 6 3.65
Q 6.05 3.75 6.15 3.8 6.9 4.75 7.4 5.4 6.85 6.1 6.55 6.45 6.1 7 5.85 7.25 5.65 7.5 5.65 7.6 5.65 7.8 5.85 7.8 5.95 7.8 6.2 7.65 6.3 7.55 6.85 6.9 7.25 6.4 7.7 5.8 8.45 6.75 8.8 7.25 9.2 7.75 9.35 7.75 9.6 7.75 9.6 7.5 9.6 7.35 9.4 7.2 9.3 7.05 8.05 5.4
L 9.2 3.85
Q 9.25 3.75 9.4 3.65 9.5 3.55 9.5 3.5 9.5 3.15 9.1 3.15 9 3.15 8.8 3.45 8.15 4.4 7.7 5
L 6.55 3.5
Q 6.5 3.4 6.4 3.3 6.35 3.2 6.2 3.2
M 10.8 5.6
Q 10.9 5.6 11 5.6
L 11.3 5.55
Q 11.6 5.5 11.95 5.5 12.2 5.5 12.55 5.5 12.95 5.55 13.15 5.55 13.4 5.55 13.4 5.1 13.4 4.45 13.2 4 12.85 3.2 11.95 3.2 10.9 3.2 10.45 4.2 10.25 4.75 10.25 5.5 10.25 6.55 10.7 7.2 11.15 7.85 11.9 7.85 12.5 7.85 12.95 7.4 13.45 6.95 13.45 6.6 13.45 6.35 13.2 6.35 13 6.35 12.95 6.55 12.85 6.85 12.6 7.1 12.3 7.35 11.95 7.35 11.5 7.35 11.25 7.1 10.8 6.6 10.8 5.6
M 11.9 5
Q 11.1 5 10.8 5.1 10.85 4.5 11.15 4.05 11.45 3.65 11.95 3.65 12.8 3.65 12.9 5.05 12 5 11.9 5
M 14.85 1.55
Q 14.85 1.3 14.85 1.25 14.85 0.85 14.55 0.85 14.3 0.85 14.3 1.25 14.3 1.35 14.3 1.6 14.3 1.9 14.3 1.95
L 14.3 4.4
Q 14.3 4.9 14.3 5.85 14.25 6.85 14.25 7.3 14.25 7.75 14.5 7.75 14.65 7.75 14.75 7.6 14.8 7.5 14.8 7.3
L 14.8 3.9
Q 14.8 3.8 14.8 2.85
L 14.8 1.9
Q 14.8 1.8 14.85 1.55
M 22.15 5.4
L 24.85 3.3 21.45 3.3 20.35 0 19.25 3.3 15.85 3.3 18.6 5.4 17.45 8.75 20.35 6.6 23.25 8.75 22.15 5.4
M 20.35 2.15
L 20.95 4 22.85 4 21.35 5.2 21.95 7 20.35 5.8 18.8 6.95 19.35 5.2 17.85 4 19.75 4 20.35 2.15
M 32.55 5.6
L 32.85 5.55
Q 33.15 5.5 33.5 5.5 33.75 5.5 34.1 5.5 34.5 5.55 34.7 5.55 34.95 5.55 34.95 5.1 34.95 4.45 34.75 4 34.4 3.2 33.5 3.2 32.45 3.2 32 4.2 31.8 4.75 31.8 5.5 31.8 6.55 32.25 7.2 32.7 7.85 33.45 7.85 34.05 7.85 34.5 7.4 35 6.95 35 6.6 35 6.35 34.75 6.35 34.55 6.35 34.5 6.55 34.4 6.85 34.15 7.1 33.85 7.35 33.5 7.35 33.05 7.35 32.8 7.1 32.35 6.6 32.35 5.6 32.45 5.6 32.55 5.6
M 32.35 5.1
Q 32.4 4.5 32.7 4.05 33 3.65 33.5 3.65 34.35 3.65 34.45 5.05 33.55 5 33.45 5 32.65 5 32.35 5.1
M 30.9 3.25
Q 30.75 3.25 30.7 3.3 30.65 3.35 30.55 3.55
L 29.5 6.85
Q 28.9 5.2 28.7 4.6 28.6 4.25 28.35 4.25 28.15 4.25 28.05 4.5 27.65 5.5 27 6.85 26.45 4.55 26.2 3.55 26.15 3.35 26.1 3.3 26.05 3.2 25.85 3.2 25.6 3.2 25.6 3.45
L 25.65 3.6
Q 25.75 3.75 25.75 3.85 26.65 7.3 26.75 7.6 26.85 7.8 26.95 7.8 27.05 7.8 27.15 7.6 27.9 5.9 28.35 5 29.1 7 29.3 7.5 29.45 7.8 29.6 7.8 29.65 7.8 29.75 7.6
L 30.95 3.9
Q 30.95 3.8 31.05 3.7 31.15 3.55 31.15 3.5 31.15 3.25 30.9 3.25
M 36.15 0.8
Q 35.9 0.8 35.9 1.1
L 35.9 1.35
Q 35.9 1.6 35.9 1.7
L 35.8 7.4
Q 35.8 7.8 36.05 7.8 36.3 7.8 36.3 7.35 36.7 7.65 37 7.75 37.2 7.8 37.65 7.8 38.4 7.8 38.8 7.05 39.15 6.45 39.15 5.5 39.15 3.35 37.6 3.35 37.1 3.35 36.35 3.9
L 36.4 1.55
Q 36.4 1.45 36.45 1.3
L 36.45 1.15
Q 36.45 0.8 36.15 0.8
M 36.6 4.4
Q 36.85 4.25 37.05 4.05 37.35 3.85 37.55 3.85 38.65 3.85 38.65 5.45 38.65 6.1 38.4 6.65 38.15 7.3 37.55 7.3 37.2 7.3 36.85 7.05 36.5 6.8 36.3 6.85 36.35 5 36.35 4.45 36.55 4.45 36.6 4.4
M 42.8 4.6
Q 42.7 4.25 42.45 4.25 42.25 4.25 42.15 4.5 41.75 5.5 41.1 6.85 40.55 4.55 40.3 3.55 40.25 3.35 40.2 3.3 40.15 3.2 39.95 3.2 39.7 3.2 39.7 3.45
L 39.75 3.6
Q 39.85 3.75 39.85 3.85 40.75 7.3 40.85 7.6 40.95 7.8 41.05 7.8 41.15 7.8 41.25 7.6 42 5.9 42.45 5 43.2 7 43.4 7.5 43.55 7.8 43.7 7.8 43.75 7.8 43.85 7.6
L 45.05 3.9
Q 45.05 3.8 45.15 3.7 45.25 3.55 45.25 3.5 45.25 3.25 45 3.25 44.85 3.25 44.8 3.3 44.75 3.35 44.65 3.55
L 43.6 6.85
Q 43 5.2 42.8 4.6
M 47.8 3.2
Q 47.75 3.2 47.7 3.25 47.6 3.15 47.45 3.15 47.4 3.15 47.35 3.2 47.3 3.3 47.2 3.35 46.1 3.65 45.9 4.75 45.8 5.25 45.8 5.5 45.8 6.4 46.2 7.05 46.65 7.85 47.6 7.85 48.45 7.85 49 7.1 49.45 6.45 49.45 5.6 49.45 4.15 48.7 3.55 48.15 3.2 47.8 3.2
M 47.35 3.75
Q 47.55 3.65 47.65 3.6 47.85 3.7 47.95 3.7 48.55 3.95 48.75 4.35 48.95 4.85 48.95 5.35 48.95 6.25 48.6 6.85 48.25 7.45 47.65 7.45 47 7.45 46.6 6.8 46.3 6.25 46.3 5.65 46.3 4.3 47.05 3.85 47.1 3.8 47.35 3.75
M 52.65 3.6
Q 52.65 3.4 52.4 3.4 51.85 3.4 50.8 4.05 50.8 3.95 50.8 3.75
L 50.8 3.6
Q 50.8 3.2 50.5 3.2 50.25 3.2 50.25 3.55
L 50.3 3.75
Q 50.3 3.9 50.3 4.05
L 50.3 6.55
Q 50.3 6.75 50.3 7.05 50.3 7.35 50.3 7.45 50.3 7.8 50.55 7.8 50.8 7.8 50.8 7.4 50.8 6.9 50.8 5.85 50.8 4.7 50.8 4.65 51.1 4.4 51.55 4.15 52.05 3.9 52.4 3.9 52.65 3.9 52.65 3.6
M 53.95 1.9
Q 53.95 1.8 54 1.55 54 1.3 54 1.25 54 0.85 53.7 0.85 53.45 0.85 53.45 1.25 53.45 1.35 53.45 1.6 53.45 1.9 53.45 1.95
L 53.45 4.4
Q 53.45 4.9 53.45 5.85 53.4 6.85 53.4 7.3 53.4 7.75 53.65 7.75 53.8 7.75 53.9 7.6 53.95 7.5 53.95 7.3
L 53.95 3.9
Q 53.95 3.8 53.95 2.85
L 53.95 1.9
M 58.15 1.25
Q 58.15 0.85 57.9 0.85 57.55 0.85 57.55 1.2 57.55 1.25 57.55 1.45 57.6 1.6 57.6 1.75 57.6 2 57.6 4 57 3.3 56.35 3.3 54.8 3.3 54.8 5.5 54.8 6.2 55 6.8 55.35 7.75 56.25 7.75 56.95 7.75 57.55 7.25 57.55 7.8 57.8 7.8 58.1 7.8 58.1 7.15 58.1 7.1 58.1 5.8 58.1 4.45 58.1 4.3 58.1 3.85 58.15 1.25
M 57.15 4.35
Q 57.3 4.5 57.35 4.55 57.45 4.6 57.6 4.55
L 57.6 5.6
Q 57.6 6.25 57.55 6.65 57.45 6.65 57.3 6.75 56.95 7.05 56.85 7.1 56.55 7.25 56.3 7.25 55.75 7.25 55.5 6.65 55.3 6.1 55.3 5.45 55.3 3.85 56.3 3.85 56.75 3.85 57.15 4.35 Z"/>
</g>
</defs>

<g transform="matrix( 1, 0, 0, 1, 0,0) ">
<use xlink:href="#Layer1_0_FILL"/>
</g>

<g transform="matrix( 1, 0, 0, 1, 0,0) ">
<use xlink:href="#Layer0_0_FILL"/>
</g>

<g transform="matrix( 1, 0, 0, 1, 38.85,10.1) ">
<g transform="matrix( 1, 0, 0, 1, 0,0) ">
<use xlink:href="#Symbol_1_0_Layer0_0_FILL"/>
</g>
</g>
</svg>
