
<svg xmlns="http://www.w3.org/2000/svg" version="1.1" xmlns:xlink="http://www.w3.org/1999/xlink" preserveAspectRatio="none" x="0px" y="0px" width="94px" height="94px" viewBox="0 0 94 94">
<defs>
<g id="Layer0_0_FILL">
<path fill="#000000" stroke="none" d="
M 108.15 16.55
Q 108.15 15.6 102.55 13.85 97.45 12.25 94.95 12 90.1 10.9 86 10.1 84.9 9.8 83.85 9.7 82.4 9.4 81.05 9.15 76.1 8.35 72.65 8.35
L 71.3 8.35
Q 69.55 8.1 67.55 7.95
L 55.3 7.95
Q 53.8 8.1 52.35 8.5
L 52.2 8.1
Q 46.2 8.35 34.45 11.55 20.7 15.35 20.7 18.45 20.7 18.95 23.75 22.05 20.95 23.4 18.95 24.5 15.35 26.65 15.35 27.7 15.35 28.9 18.55 30 20.3 30.55 22.45 31.05 19.65 32 18.15 32.7 15.35 33.9 15.35 35.1
L 16.15 36.2 24.85 36.2
Q 24.05 36.7 23.1 37.25 16.05 41.7 16.05 42.1 16.05 42.25 16.15 42.5
L 16.05 42.5 16.3 42.75 16.55 42.9
Q 19.65 44.8 28.3 51.4 27.1 51.65 21.75 55 16.45 58.25 16.45 58.5 16.45 59.2 17.35 60.65 23.25 64 31 66.05 34.3 67 39 67.8 45.4 69 54.2 70.05
L 72.25 70.05
Q 76.35 69.55 81.05 68.6
L 92.5 65.75
Q 106.4 62 106.4 59.05 106.4 58.1 93.45 51.1 105.85 42.1 108 40.35
L 108.75 39.2 108.75 38.25
Q 108.05 37.95 106.25 37.25 102.95 36.05 100.4 35.4 96.4 34.45 94.1 33.75
L 106.25 33.75
Q 106.55 33.65 106.65 33.5 107.05 32.95 107.05 32.8 106.55 32 104.15 30.15 101.6 28.25 101.35 27.6 101.6 27.6 103.75 27.05 105.75 26.25 105.75 25 105.75 23.95 97.6 20.45 97.2 20.3 96.95 20.2
L 97.6 20.05
Q 98.15 19.9 103.35 18.95 108.15 17.9 108.15 16.55
M 104.55 16.4
L 103.6 16.7
Q 93.85 18.15 93.85 20.3 93.85 21.25 97.6 22.75 102.25 24.6 102.95 25.15 102.55 25.4 100.15 25.95 98.8 26.25 98.8 27.45
L 101.6 30.65
Q 102.4 31.5 103.2 32.15
L 93.2 32
Q 92.25 31.9 91.45 31.75
L 91.45 28.25
Q 91.2 21.5 86.5 16.15 85.3 14.65 83.85 13.6 82.5 12.5 81.05 11.7 80.75 11.45 80.35 11.3 80.75 11.3 81.05 11.45 82.5 11.55 83.85 11.85 87.45 12.4 90.4 12.9 92.25 13.3 104.55 16.4
M 83.85 16
Q 84.65 16.7 85.45 17.6 88.8 21.95 89.85 29.45
L 89.85 40.9
Q 90.65 44.5 90.8 49.75 88.9 48 88.25 47.9
L 84.5 51
Q 84.4 48.95 83.85 44.8 83.7 43.2 83.45 41.3 82.9 36.3 81.05 33.2 80.35 32.15 79.55 31.35
L 79.45 32.3
Q 79.45 32.55 80.35 36.05
L 75.45 26.9
Q 74.1 23.25 73.15 21.4 71.95 18.95 70.25 18.45
L 60.75 36.45 60.75 35.9
Q 59.8 32.3 59.3 30.25 58.75 28.25 58.1 26.9 58.75 24.5 59.7 21.4
L 59.4 21.4
Q 59.15 21.5 58.9 21.5 58.6 21.5 58.35 21.4 58.2 21.4 58.1 21.4 57.7 23.95 57 25.4 56.6 26.35 53.55 32.15 52.6 33.75 52.2 34.95 50.75 30.4 48.75 28.8 48.75 28.5 48.75 28.25
L 48.6 26.9
Q 47.15 27.05 46.75 28.65 46.6 29.6 46.45 31.35 46.35 31.75 45.15 33.9 44.6 34.95 44.35 35.65
L 44.75 30.65 44.6 28.25
Q 43.95 28.4 43.55 29.05 43.8 28.4 44.05 27.7
L 43.95 26.9
Q 41.8 28.1 38.7 37.55 36.05 45.45 35.4 50.05 33.4 48 33.4 47.9 33.1 47.9 32.05 48.4 31 48.95 30.7 49.25 30.85 48.15 32.05 41.95 33.4 35.5 33.8 33.9 36.7 24.1 36.7 23.95 36.7 23.25 36.05 23.25 38.45 19.9 41.95 16.95 48.35 11.55 55.8 9.7
L 67.3 9.7
Q 75.7 10.5 81.05 13.85 82.5 14.8 83.85 16
M 91.45 34.05
Q 93.45 34.85 100.15 37 105.35 38.75 106.8 39.15
L 107.05 39.15 105.05 40.35
Q 102.15 41.95 98.15 44.9 93.2 48.7 92.4 50.05
L 92.4 48
Q 92.4 41.95 91.45 40.2
L 91.45 34.05
M 83.45 54.2
L 88.1 49.75
Q 92.1 52.2 92.25 52.05
L 92.25 51.65
Q 92.9 53 97.75 56.2 101.35 58.65 103.45 59.6 99.85 60.8 91.6 63.6 87.85 64.95 83.85 66.05 82.5 66.3 81.05 66.7 78.25 67.25 75.3 67.8 73.45 68.05 71.7 68.3
L 54.75 68.3
Q 52.35 68.05 50.2 67.8 37.8 66.3 31.25 64.4 29.9 64 24.15 61.35 19.25 59.2 18.3 59.05 26.55 54.6 29.25 52.7 29.4 53 29.65 53.15
L 32.6 50.15 36.85 53.4
Q 37.1 51.9 38.7 45.2 39.65 41.7 40.05 39.55
L 40.05 53.8
Q 41.15 53.95 42.2 54.2 44.05 54.2 43.65 45.35
L 43.55 40.35 42.6 40.2
Q 42.2 40.5 42.05 40.5 42.05 38.6 40.3 38.45 41 34.85 42.85 30.95
L 42.85 31.05
Q 42.75 31.6 42.75 34.7 42.75 36.7 43.55 37.1
L 44.2 36.85 44.2 36.6 45.15 37.55
Q 46.45 36.2 47.55 33.2 47.95 32.3 48.2 31.5 48.6 32.55 49.25 33.9 50.45 36.2 50.75 38.05
L 51.65 38.2 52.05 38.2
Q 54.2 38.2 57 30.4 57.15 31.75 57.55 33.2 57.95 35.1 59.4 37.25 60.5 39.15 61.15 39.55 69.15 26.25 70.25 20.6 71.55 22.05 72.5 23.8 73.15 25.15 74.35 28.9 75.05 30.25 77.05 34.95 79.05 38.85 80.25 38.85 80.75 38.85 81.05 38.6 81.6 40.9 83.45 54.2
M 45.55 10.5
Q 47.65 10.1 49.25 9.7 45.25 11.55 40.6 15.6 32.45 22.75 32.45 26.75
L 33 27.3 31.8 32.7
Q 29.25 33.35 24.95 36.05 25.35 35.65 25.35 35.4
L 24.55 34.55 19.5 34.45
Q 25.35 32.7 25.35 30.8 25.35 30 22.45 28.9 19.1 27.85 18.15 27.45 26.7 23.15 26.7 21.95 26.7 21.25 22.7 18.85 24.15 17.75 28.2 15.75 32.3 13.85 35.25 12.9 37.1 12.25 45.55 10.5
M 19.9 42.1
Q 19.5 41.85 19.25 41.7 28.05 36.7 31.4 34.45
L 30.3 39.55
Q 29.1 45.85 28.85 49.75 28.3 49.1 27.65 48.55 24.55 46.15 23.35 45.05 21.25 43.05 19.9 42.1
M 67.7 63.2
Q 69.95 61.2 69.95 58.9
L 69.85 57.95
Q 69.7 57.95 51 58.5 51 58.65 52.6 62.15 55.15 65.75 59.95 65.75 64.75 65.75 67.7 63.2
M 67.7 59.7
Q 67.15 60.25 66.75 61.2 65.15 64 59.95 64 56.5 64 54.05 61.05 53.65 60.5 53.4 60.1
L 67.7 59.7
M 78.1 40.6
L 78.1 39.8
Q 77.45 39.7 76.65 40.1
L 76.65 47.1
Q 76.75 54.05 77.3 54.2
L 78.1 53.95
Q 78.1 53.4 78.25 53 78.75 53.8 79.55 53.8 80.25 53.8 80.35 53.55
L 80.35 41.45 80.25 40.9 79.3 40.75 79.3 40.6 78.1 40.6 Z"/>

<path fill="#FFFFFF" stroke="none" d="
M 19.25 41.7
Q 19.5 41.85 19.9 42.1 21.25 43.05 23.35 45.05 24.55 46.15 27.65 48.55 28.3 49.1 28.85 49.75 29.1 45.85 30.3 39.55
L 31.4 34.45
Q 28.05 36.7 19.25 41.7
M 49.25 9.7
Q 47.65 10.1 45.55 10.5 37.1 12.25 35.25 12.9 32.3 13.85 28.2 15.75 24.15 17.75 22.7 18.85 26.7 21.25 26.7 21.95 26.7 23.15 18.15 27.45 19.1 27.85 22.45 28.9 25.35 30 25.35 30.8 25.35 32.7 19.5 34.45
L 24.55 34.55 25.35 35.4
Q 25.35 35.65 24.95 36.05 29.25 33.35 31.8 32.7
L 33 27.3 32.45 26.75
Q 32.45 22.75 40.6 15.6 45.25 11.55 49.25 9.7
M 88.1 49.75
L 83.45 54.2
Q 81.6 40.9 81.05 38.6 80.75 38.85 80.25 38.85 79.05 38.85 77.05 34.95 75.05 30.25 74.35 28.9 73.15 25.15 72.5 23.8 71.55 22.05 70.25 20.6 69.15 26.25 61.15 39.55 60.5 39.15 59.4 37.25 57.95 35.1 57.55 33.2 57.15 31.75 57 30.4 54.2 38.2 52.05 38.2
L 51.65 38.2 50.75 38.05
Q 50.45 36.2 49.25 33.9 48.6 32.55 48.2 31.5 47.95 32.3 47.55 33.2 46.45 36.2 45.15 37.55
L 44.2 36.6 44.2 36.85 43.55 37.1
Q 42.75 36.7 42.75 34.7 42.75 31.6 42.85 31.05
L 42.85 30.95
Q 41 34.85 40.3 38.45 42.05 38.6 42.05 40.5 42.2 40.5 42.6 40.2
L 43.55 40.35 43.65 45.35
Q 44.05 54.2 42.2 54.2 41.15 53.95 40.05 53.8
L 40.05 39.55
Q 39.65 41.7 38.7 45.2 37.1 51.9 36.85 53.4
L 32.6 50.15 29.65 53.15
Q 29.4 53 29.25 52.7 26.55 54.6 18.3 59.05 19.25 59.2 24.15 61.35 29.9 64 31.25 64.4 37.8 66.3 50.2 67.8 52.35 68.05 54.75 68.3
L 71.7 68.3
Q 73.45 68.05 75.3 67.8 78.25 67.25 81.05 66.7 82.5 66.3 83.85 66.05 87.85 64.95 91.6 63.6 99.85 60.8 103.45 59.6 101.35 58.65 97.75 56.2 92.9 53 92.25 51.65
L 92.25 52.05
Q 92.1 52.2 88.1 49.75
M 78.1 39.8
L 78.1 40.6 79.3 40.6 79.3 40.75 80.25 40.9 80.35 41.45 80.35 53.55
Q 80.25 53.8 79.55 53.8 78.75 53.8 78.25 53 78.1 53.4 78.1 53.95
L 77.3 54.2
Q 76.75 54.05 76.65 47.1
L 76.65 40.1
Q 77.45 39.7 78.1 39.8
M 69.95 58.9
Q 69.95 61.2 67.7 63.2 64.75 65.75 59.95 65.75 55.15 65.75 52.6 62.15 51 58.65 51 58.5 69.7 57.95 69.85 57.95
L 69.95 58.9
M 66.75 61.2
Q 67.15 60.25 67.7 59.7
L 53.4 60.1
Q 53.65 60.5 54.05 61.05 56.5 64 59.95 64 65.15 64 66.75 61.2
M 100.15 37
Q 93.45 34.85 91.45 34.05
L 91.45 40.2
Q 92.4 41.95 92.4 48
L 92.4 50.05
Q 93.2 48.7 98.15 44.9 102.15 41.95 105.05 40.35
L 107.05 39.15 106.8 39.15
Q 105.35 38.75 100.15 37
M 85.45 17.6
Q 84.65 16.7 83.85 16 82.5 14.8 81.05 13.85 75.7 10.5 67.3 9.7
L 55.8 9.7
Q 48.35 11.55 41.95 16.95 38.45 19.9 36.05 23.25 36.7 23.25 36.7 23.95 36.7 24.1 33.8 33.9 33.4 35.5 32.05 41.95 30.85 48.15 30.7 49.25 31 48.95 32.05 48.4 33.1 47.9 33.4 47.9 33.4 48 35.4 50.05 36.05 45.45 38.7 37.55 41.8 28.1 43.95 26.9
L 44.05 27.7
Q 43.8 28.4 43.55 29.05 43.95 28.4 44.6 28.25
L 44.75 30.65 44.35 35.65
Q 44.6 34.95 45.15 33.9 46.35 31.75 46.45 31.35 46.6 29.6 46.75 28.65 47.15 27.05 48.6 26.9
L 48.75 28.25
Q 48.75 28.5 48.75 28.8 50.75 30.4 52.2 34.95 52.6 33.75 53.55 32.15 56.6 26.35 57 25.4 57.7 23.95 58.1 21.4 58.2 21.4 58.35 21.4 58.6 21.5 58.9 21.5 59.15 21.5 59.4 21.4
L 59.7 21.4
Q 58.75 24.5 58.1 26.9 58.75 28.25 59.3 30.25 59.8 32.3 60.75 35.9
L 60.75 36.45 70.25 18.45
Q 71.95 18.95 73.15 21.4 74.1 23.25 75.45 26.9
L 80.35 36.05
Q 79.45 32.55 79.45 32.3
L 79.55 31.35
Q 80.35 32.15 81.05 33.2 82.9 36.3 83.45 41.3 83.7 43.2 83.85 44.8 84.4 48.95 84.5 51
L 88.25 47.9
Q 88.9 48 90.8 49.75 90.65 44.5 89.85 40.9
L 89.85 29.45
Q 88.8 21.95 85.45 17.6
M 103.6 16.7
L 104.55 16.4
Q 92.25 13.3 90.4 12.9 87.45 12.4 83.85 11.85 82.5 11.55 81.05 11.45 80.75 11.3 80.35 11.3 80.75 11.45 81.05 11.7 82.5 12.5 83.85 13.6 85.3 14.65 86.5 16.15 91.2 21.5 91.45 28.25
L 91.45 31.75
Q 92.25 31.9 93.2 32
L 103.2 32.15
Q 102.4 31.5 101.6 30.65
L 98.8 27.45
Q 98.8 26.25 100.15 25.95 102.55 25.4 102.95 25.15 102.25 24.6 97.6 22.75 93.85 21.25 93.85 20.3 93.85 18.15 103.6 16.7 Z"/>
</g>
</defs>

<g transform="matrix( 1, 0, 0, 1, -15.35,9.7) ">
<use xlink:href="#Layer0_0_FILL"/>
</g>
</svg>
