
<svg xmlns="http://www.w3.org/2000/svg" version="1.1" xmlns:xlink="http://www.w3.org/1999/xlink" preserveAspectRatio="none" x="0px" y="0px" width="82px" height="82px" viewBox="0 0 82 82">
<defs>
<g id="Layer0_0_FILL">
<path fill="#000000" stroke="none" d="
M 67.75 18.1
Q 66.05 17.55 65.9 17.5
L 58.3 16.05
Q 55.25 15.6 52.15 15.75 51.85 15.75 51.65 15.8 50.65 15.65 49.4 15.6 41.45 15.15 34.25 16.6 34.05 16.25 33.75 16.1 33.2 15.85 32.25 15.95 28.7 16.5 26.9 16.6 24.65 16.6 23.5 16.7
L 18.45 17.65
Q 16.35 18.15 11.85 19.8 11.3 19.95 10.95 20.25
L 9.8 19.75
Q 9.1 19.45 8.6 19.35 8.25 19.25 7.9 19.35 7.8 19.3 7.7 19.3 7.05 19.3 6.75 19.95 6.6 20.5 7.25 21.55 8.2 22.85 8.9 24.35 8.95 24.45 9 24.6 8.25 25 7.1 25.5 5.95 26 5.6 26.35 5.45 26.45 5.3 26.6 5 27 5.1 27.45 5.2 27.9 5.95 28.45 7.25 29.3 8.15 30.15 8.3 30.25 8.45 30.4
L 5.1 34.15
Q 4.85 34.45 4.7 34.75 4.5 34.9 4.45 35.15 4.4 35.2 4.4 35.3 4.35 35.4 4.4 35.55 4.45 35.65 4.5 35.75 4.6 36.3 5.2 36.35 5.5 36.45 6.15 36.45 9.5 36.35 12.55 35.7 12.35 35.8 12.15 35.95 10.85 37 9.75 37.7
L 8.45 38.6
Q 8.3 38.75 8.2 38.9 8.05 38.9 7.95 39 7.6 39.25 7.55 39.65 7.5 40.15 7.95 40.8 9.7 43.55 12.15 46.3 12.2 46.35 12.3 46.45
L 9.1 49.75
Q 8.3 50.55 8 51
L 5.7 54.25
Q 5.55 54.4 5.5 54.6 5.3 54.7 5.25 54.95 5.2 55.2 5.25 55.45 5.3 55.8 6.65 56.25 8 56.7 12.75 59.9 17.45 63.05 21.9 64.1 26.3 65.15 29.2 65.6 37.5 66.8 46.1 66.45 54.55 66.1 62.8 64.2 65.7 63.5 68.55 62.65 71.05 61.9 73 61.1 74.85 60.35 76.2 59.6 76.3 59.55 76.4 59.5 76.45 59.5 76.55 59.45 76.95 59.35 77.15 58.95 77.35 58.55 77.15 58
L 74.85 54.75
Q 73.65 53.1 73 52.3 72.85 52.15 72.75 52
L 72 51.1 70.55 48.4
Q 71.7 47.45 73 46.25 73.25 46 73.5 45.75
L 78.9 40.6
Q 79.1 40.4 79.2 40.3
L 79.25 40.25
Q 79.65 40.05 79.7 39.65 79.9 39 79.05 38.15
L 77.4 36.35
Q 76.65 35.6 73.2 32.35
L 76.15 33.55
Q 77.2 33.95 77.7 33.75 78.1 33.6 78.25 33.1 78.3 32.75 78.15 32.5 78.25 32.4 78.35 32.3 78.7 31.95 78.65 31.55 78.6 31.15 77.8 30.35 77 29.5 76.65 28.75
L 78.3 28
Q 79.1 27.55 79.25 27.3 79.25 27.25 79.3 27.25 79.45 27 79.5 26.75 79.55 26.2 78.7 25.25 77.15 23.65 76.1 22
L 76.7 21.4
Q 77.6 20.8 77.7 20.2 77.75 19.75 77.4 19.4 77.05 19.05 76.65 19.1 76.6 19.1 76.55 19.15 76.1 19.1 75.55 19.2 74.3 19.45 73 19.5 72.75 19.5 72.45 19.5 72.15 19.5 71.9 19.55 71.65 19.4 71.3 19.3
L 67.75 18.1
M 60.9 18.55
Q 61.8 18.7 62.8 18.9 63.4 19 64 19.15
L 66.6 19.8
Q 67.35 20 70.25 21.1 70.8 21.3 71.2 21.35 71.55 21.5 72.15 21.55 72.45 21.55 73 21.55 73.4 21.5 73.9 21.45 73.75 21.65 73.75 21.85 73.65 22.35 74.05 22.7 74.15 22.95 74.4 23.2 74.6 23.45 75.05 23.9 75.45 24.35 75.55 24.7
L 77 26.4
Q 76.45 26.7 75.9 26.9
L 74.9 27.3
Q 74.7 27.45 74.6 27.6 74.4 27.75 74.3 28 74.3 28.05 74.25 28.15 74.2 28.5 74.4 28.8 74.45 29 74.6 29.2 75.3 30.4 75.9 31.25
L 69.4 28.6
Q 68.6 26.85 67.3 25.25 65.6 23.1 62.8 21 61.6 20.1 60.2 19.2 59.35 18.65 58.55 18.2 59.65 18.35 60.9 18.55
M 49.7 19.5
Q 49.35 19.7 49.2 20.2 48.6 21.45 48.1 23.75 47.75 25.2 47.5 26.15 47.3 26.9 47.1 27.35
L 44.25 32.8
Q 43.85 33.7 43.8 34.1 43.1 32.95 42.55 31.5 42.4 31.05 42.25 30.8 42.8 29.95 42.85 29.9
L 44.1 28.1
Q 44.65 27.05 44.6 26 44.6 25.2 44.1 24.85 43.7 24.6 43.25 24.8 42.75 24.95 42.6 25.35 42.45 25.75 42.55 26.65 42.5 26.9 42.05 27.55
L 38.85 32.35
Q 37.65 34.25 36.9 35.1 35.6 36.25 34.8 37.05
L 34.05 34.25 34.05 33.1
Q 34.05 31.25 34.1 30.85 34.25 30.4 34.25 30.1
L 36 27.1
Q 36.5 26.3 36.5 25.85 36.6 25 35.95 24.7 35.3 24.55 34.85 25.05 34.7 25.2 34.2 26.05 33.7 27.1 32.3 29.5
L 29 35.05
Q 27.1 38.3 25.85 39.9 25.45 38.8 25.15 37.85 24.55 35.9 24.3 33.95
L 24.2 32.65
Q 24.2 31.65 24.05 31.4 24 31.3 23.95 31.25 24.2 29.8 24.5 28 24.6 27.2 24.45 26.9 24.25 26.55 23.9 26.45 23.5 26.3 23.15 26.5 22.7 26.75 22.5 27.6 22.4 27.95 22.15 29.9 21.7 33.4 20.1 37.6 19.4 39.45 17.75 43.15 17.75 43.05 17.7 43 17.75 42.5 17.5 41.8 16.45 37.85 16.75 34.2 16.85 33.95 16.85 33.8 16.85 33.6 16.8 33.45 17.25 29.5 19.25 26.6 21.5 23.3 26 21.2 29.3 19.6 34.3 18.65 38.25 17.8 41.2 17.6 43.85 17.45 49.05 17.65 52.05 17.75 53.75 18.2 55.7 18.75 58.85 20.7 61.15 22.2 62.8 23.6 64.25 24.8 65.25 25.9 66.7 27.6 67.55 29.4 67.55 29.65 67.65 29.9 67.7 30 67.8 30.05 68 30.6 68.15 31.15 68.05 31.6 68.1 32.3 68.25 34.8 67.7 37.95 67.5 38.95 67.1 40.7 66.8 41.9 66.4 43.45 66.15 44.45 65.9 45.2 65.85 45.15 65.85 45.1 65.05 43.1 64.2 41.4 63.5 39.95 62.8 38.7 61.95 37.15 61.1 35.9 60.85 35.55 60.65 35.35
L 60.85 34.8 62.3 29.6
Q 62.5 28.9 62.4 28.6 62.3 28.2 61.85 28 61.4 27.85 61 28.05 60.5 28.35 60.3 29.3
L 59.05 33.7
Q 58.55 35.3 57.45 37.1 57.15 37.65 56.4 38.8
L 55.45 34.55
Q 54.15 28.8 52.95 24.65
L 51.6 20.35
Q 51.3 19.45 50.9 19.2 50.5 19 50.1 19.15 49.8 19.3 49.7 19.5
M 49.95 24.65
Q 50.15 23.75 50.35 23.05 51.8 27.7 52.95 32.45
L 53.4 34.55
Q 53.65 36.15 53.75 36.55 53.85 37 54.15 37.95 54.45 38.85 54.55 39.35
L 54.65 40.75
Q 54.75 41.2 54.95 41.5 55 41.9 55.35 42.15 55.8 42.4 56.2 42.25 56.65 42.1 57.05 41.4 58.85 38.65 59.65 37.35 60.85 39.15 62.8 43.15 63.05 43.65 63.35 44.25 63.5 44.6 63.65 44.95 63.55 44.9 63.35 44.9 63.1 44.85 62.8 44.85 62.35 44.8 61.8 44.8 62 44.7 61.95 44.45 61.95 44.25 61.75 44.1 61.55 43.95 61 43.95
L 58.2 44
Q 58.1 43.95 58.05 43.9 57.85 43.8 57.4 43.8
L 53.55 43.8
Q 52.55 43.8 52.1 43.9 52 43.9 51.9 43.95
L 50.5 43.95 49.95 44
Q 49.65 44.2 49.65 44.45 49.65 44.8 50.15 44.9
L 50.85 45.05
Q 50.7 45.15 50.6 45.3 50.4 45.4 50.35 45.5 50.35 45.7 50.35 45.85 49.8 45.9 49.65 46 49.25 46.3 49.45 46.65 49.45 46.7 49.45 46.75 49.25 46.9 49.2 47.15 49.1 47.45 49.3 47.65
L 49.75 47.95 49.95 48.3
Q 50.2 48.45 50.45 48.45 51.1 48.5 51.75 48.5
L 51.75 48.55
Q 51.75 48.85 51.95 49
L 52.35 49.05 57.1 49.1
Q 60.15 49.1 61.35 48.65 61.75 48.55 61.8 48.3 61.95 48.25 62.1 48.25 62.75 48.25 62.8 47.8 62.8 47.75 62.8 47.7 62.75 47.5 62.45 47.2 62.65 47.1 62.8 47.05 63.05 46.9 63.15 46.8 63.5 46.45 63.25 46.15 63.35 46.05 63.4 45.95 63.65 45.8 63.75 45.7 63.85 45.6 63.9 45.55 64.4 46.85 64.55 47.45 64.85 48.6 65.3 48.9 65.65 49.1 66.05 48.95 66.4 48.85 66.6 48.55 66.65 48.45 66.7 48.4 67.1 47.95 67.35 47.05 67.85 45.7 68.25 44.3 68.85 42.3 69.3 40.2
L 70.05 35.8
Q 70.05 35.55 70.1 35.25 70.55 34.9 70.55 33.85 70.55 33.2 70.5 32.6 71.75 33.75 73 34.9 74.5 36.3 75.9 37.7
L 77.35 39.3 71 45.35
Q 69.55 46.55 69.2 46.8 68.6 47.3 68.5 47.6 68.3 47.75 68.25 47.95 68.2 48.35 68.75 49.4 69.25 50.2 70.1 51.9 70.25 52.1 71.6 53.75
L 74.85 58.15
Q 73.95 58.55 73 58.9 68 60.85 62.8 62.15 62.75 62.15 62.7 62.15 55.5 63.9 47.85 64.35 33.55 65.25 24.5 62.75 15.4 60.25 14.85 59.15 14.25 58.05 7.55 55.1 8.65 53.5 9.8 52
L 10.5 51.15
Q 11.1 50.5 12.35 49.25 13.65 48.05 14.2 47.35 14.7 46.75 14.75 46.35 14.8 45.9 14.4 45.55 14.25 45.45 14.15 45.4 14 45.25 13.85 45.05 11.6 42.8 9.9 40.1
L 10.5 39.65
Q 12.65 38.2 13.8 37.2 14.3 36.8 14.7 36.4 14.75 39.45 15.65 42.65 15.7 42.85 15.75 43.05 15.75 43.35 15.8 43.95 16.1 45.25 16.15 46.5 16 46.65 15.9 46.8 15.1 47.95 15.35 48.45 15.5 48.85 16 48.95 16.2 49 16.4 49 16.6 49.25 17.1 49.25 17.55 49.25 17.8 48.95 18.05 48.7 18.15 47.75 18.15 47.55 18.15 47.1
L 19.75 43.6
Q 21.8 39 22.65 36.45 22.8 37.05 23 37.7 23.2 38.35 24.3 41.6 24.45 42.1 24.75 42.45 25.05 42.7 25.35 42.7 25.7 42.85 26.2 42.55 26.7 42.25 27.05 41.65 29.05 38.95 32.05 33.85
L 32.05 33.9
Q 32.05 34.65 32.15 35.15 32.2 35.5 32.5 36.2
L 33.25 39.2
Q 33.35 39.7 33.5 39.85 33.85 40.35 34.45 40.25 35 40.15 35.25 39.6 35.3 39.5 35.3 39.35 35.5 39.2 36.05 38.65
L 37.25 37.6
Q 38.65 36.35 40.2 33.95 40.45 33.55 40.75 33.15 40.95 33.8 41.35 34.55 42 35.5 43.3 36.8 43.9 37.4 44.25 37.55 45 37.85 45.4 37.35 45.7 36.9 45.45 36.35 45.4 36.25 45.05 35.8 45.4 35.7 45.6 35.45 45.7 35.3 45.8 34.6 46 33.75 46.6 32.6 48.6 29.1 49 28 49.4 26.95 49.95 24.65
M 24.35 18.65
L 27 18.6
Q 20.85 20.95 17.85 25.1 15.35 28.5 14.8 33.3 14.75 33.3 14.7 33.3 13.9 33.3 12.75 33.55 11.5 33.85 10.85 33.95 9.2 34.35 7.55 34.4 8.75 32.9 10.15 31.5 10.4 31.2 10.55 31.05 10.95 30.8 11 30.4 11.05 30.3 11 30.15 11 29.7 10.7 29.4 10.5 29.15 10.2 29.15
L 7.9 27.4 10.35 26.15
Q 11.3 25.55 11.4 25.2 11.5 24.8 11.3 24.45 11.25 24.35 11.25 24.3 11.15 24.05 10.95 23.75
L 9.9 21.95
Q 10.15 22.05 10.4 22.2 11.55 22.6 12.05 22 12.35 21.85 12.85 21.65 15.05 20.7 17.45 20
L 20.15 19.35
Q 23.25 18.7 24.35 18.65
M 33.15 52.45
Q 32.25 52.2 31.35 52.65 30.4 53.15 30.05 54.1 29.85 54.55 29.85 55.25
L 30 56
Q 30.1 56.4 30.6 56.9 32 58.2 34.95 59.2 36.5 59.65 37.65 59.85
L 40.2 60
Q 47.7 60 51.6 59.55 51.6 59.65 51.65 59.75
L 52.15 60.95
Q 52.55 61.6 52.65 61.7 53.3 62.2 54.25 61.7 54.7 61.55 54.85 61.25 54.95 61.05 54.95 60.6
L 54.95 58.6
Q 54.95 58.5 54.95 58.45 56.15 58.05 56.85 56.8 57.55 55.6 57.2 54.1 56.95 52.75 56 52.15 55.25 51.7 53.55 51.7
L 51.35 51.7
Q 41.1 51.7 37.2 51.95 34.55 52.15 33.15 52.45
M 32.4 53.35
Q 32.55 53.45 33 53.4 39 52.7 51.15 52.7
L 53.6 52.7
Q 54.45 52.7 54.85 52.8 55.7 53.05 56.15 53.85 56.6 54.7 56.35 55.5 56.05 56.55 54.65 57.5 54.25 57.7 54.15 57.9 53.95 58.15 54.05 58.35 54.05 58.45 54.05 58.6
L 54.1 59.7
Q 54.1 60.3 54 60.55 53.7 61.05 53.3 60.9 53.2 60.8 52.7 59.6
L 52.3 58.55
Q 52.1 58.35 51.85 58.35 51.6 58.4 51.5 58.65 51.4 58.65 51.3 58.65 46.4 59 40.75 59
L 38.65 58.95
Q 35.1 58.65 32.1 56.8 31.05 56.2 30.9 55.55 30.7 55.05 30.95 54.4 31.3 53.45 32.4 53.35
M 19.85 45.5
Q 19.7 45.8 20 46.1 20.25 46.4 20.65 46.45 20.9 46.5 21.3 46.55 21.1 46.6 21 46.7 20.8 46.85 20.8 47.1 20.8 47.2 20.8 47.3 20.15 47.4 20.2 47.85 20.2 48.3 20.85 48.45 20.75 48.45 20.7 48.5 20.15 48.9 20.6 49.35 20.75 49.5 21.25 49.5
L 32.15 49.3
Q 33.9 49.3 35.05 49 35.65 48.75 35.65 48.5 35.65 48.1 35 48 33.05 48.1 32.2 47.7 32.9 47.6 33.05 47.35 33.1 47.3 33.15 47.25
L 34.65 47.15
Q 34.95 47.05 34.95 46.8 35.05 46.45 34.65 46.35 34.5 46.25 34.1 46.25 33.85 46.25 33.6 46.25 33.75 45.95 33.75 45.7 33.75 45.4 33.4 45.3 33.2 45.2 32.85 45.2 32.8 45 32.5 44.9 32.25 44.8 31.75 44.85 31.4 44.85 31.2 44.85
L 32.7 44.7
Q 33 44.5 33 44.3 33.05 44.1 32.75 43.9 32.6 43.8 32.25 43.8 31.8 43.8 29.4 43.9
L 22.1 43.95 21.6 44
Q 21.25 44.1 21.25 44.4 21.25 44.9 21.85 44.9 22.15 44.95 22.75 45
L 23.05 45.2 22.1 45.2
Q 21.8 45.2 21.65 45.25 21.05 45.15 20.55 45.15 20 45.25 19.85 45.5 Z"/>

<path fill="#FFFFFF" stroke="none" d="
M 27 18.6
L 24.35 18.65
Q 23.25 18.7 20.15 19.35
L 17.45 20
Q 15.05 20.7 12.85 21.65 12.35 21.85 12.05 22 11.55 22.6 10.4 22.2 10.15 22.05 9.9 21.95
L 10.95 23.75
Q 11.15 24.05 11.25 24.3 11.25 24.35 11.3 24.45 11.5 24.8 11.4 25.2 11.3 25.55 10.35 26.15
L 7.9 27.4 10.2 29.15
Q 10.5 29.15 10.7 29.4 11 29.7 11 30.15 11.05 30.3 11 30.4 10.95 30.8 10.55 31.05 10.4 31.2 10.15 31.5 8.75 32.9 7.55 34.4 9.2 34.35 10.85 33.95 11.5 33.85 12.75 33.55 13.9 33.3 14.7 33.3 14.75 33.3 14.8 33.3 15.35 28.5 17.85 25.1 20.85 20.95 27 18.6
M 50.35 23.05
Q 50.15 23.75 49.95 24.65 49.4 26.95 49 28 48.6 29.1 46.6 32.6 46 33.75 45.8 34.6 45.7 35.3 45.6 35.45 45.4 35.7 45.05 35.8 45.4 36.25 45.45 36.35 45.7 36.9 45.4 37.35 45 37.85 44.25 37.55 43.9 37.4 43.3 36.8 42 35.5 41.35 34.55 40.95 33.8 40.75 33.15 40.45 33.55 40.2 33.95 38.65 36.35 37.25 37.6
L 36.05 38.65
Q 35.5 39.2 35.3 39.35 35.3 39.5 35.25 39.6 35 40.15 34.45 40.25 33.85 40.35 33.5 39.85 33.35 39.7 33.25 39.2
L 32.5 36.2
Q 32.2 35.5 32.15 35.15 32.05 34.65 32.05 33.9
L 32.05 33.85
Q 29.05 38.95 27.05 41.65 26.7 42.25 26.2 42.55 25.7 42.85 25.35 42.7 25.05 42.7 24.75 42.45 24.45 42.1 24.3 41.6 23.2 38.35 23 37.7 22.8 37.05 22.65 36.45 21.8 39 19.75 43.6
L 18.15 47.1
Q 18.15 47.55 18.15 47.75 18.05 48.7 17.8 48.95 17.55 49.25 17.1 49.25 16.6 49.25 16.4 49 16.2 49 16 48.95 15.5 48.85 15.35 48.45 15.1 47.95 15.9 46.8 16 46.65 16.15 46.5 16.1 45.25 15.8 43.95 15.75 43.35 15.75 43.05 15.7 42.85 15.65 42.65 14.75 39.45 14.7 36.4 14.3 36.8 13.8 37.2 12.65 38.2 10.5 39.65
L 9.9 40.1
Q 11.6 42.8 13.85 45.05 14 45.25 14.15 45.4 14.25 45.45 14.4 45.55 14.8 45.9 14.75 46.35 14.7 46.75 14.2 47.35 13.65 48.05 12.35 49.25 11.1 50.5 10.5 51.15
L 9.8 52
Q 8.65 53.5 7.55 55.1 14.25 58.05 14.85 59.15 15.4 60.25 24.5 62.75 33.55 65.25 47.85 64.35 55.5 63.9 62.7 62.15 62.75 62.15 62.8 62.15 68 60.85 73 58.9 73.95 58.55 74.85 58.15
L 71.6 53.75
Q 70.25 52.1 70.1 51.9 69.25 50.2 68.75 49.4 68.2 48.35 68.25 47.95 68.3 47.75 68.5 47.6 68.6 47.3 69.2 46.8 69.55 46.55 71 45.35
L 77.35 39.3 75.9 37.7
Q 74.5 36.3 73 34.9 71.75 33.75 70.5 32.6 70.55 33.2 70.55 33.85 70.55 34.9 70.1 35.25 70.05 35.55 70.05 35.8
L 69.3 40.2
Q 68.85 42.3 68.25 44.3 67.85 45.7 67.35 47.05 67.1 47.95 66.7 48.4 66.65 48.45 66.6 48.55 66.4 48.85 66.05 48.95 65.65 49.1 65.3 48.9 64.85 48.6 64.55 47.45 64.4 46.85 63.9 45.55 63.85 45.6 63.75 45.7 63.65 45.8 63.4 45.95 63.35 46.05 63.25 46.15 63.5 46.45 63.15 46.8 63.05 46.9 62.8 47.05 62.65 47.1 62.45 47.2 62.75 47.5 62.8 47.7 62.8 47.75 62.8 47.8 62.75 48.25 62.1 48.25 61.95 48.25 61.8 48.3 61.75 48.55 61.35 48.65 60.15 49.1 57.1 49.1
L 52.35 49.05 51.95 49
Q 51.75 48.85 51.75 48.55
L 51.75 48.5
Q 51.1 48.5 50.45 48.45 50.2 48.45 49.95 48.3
L 49.75 47.95 49.3 47.65
Q 49.1 47.45 49.2 47.15 49.25 46.9 49.45 46.75 49.45 46.7 49.45 46.65 49.25 46.3 49.65 46 49.8 45.9 50.35 45.85 50.35 45.7 50.35 45.5 50.4 45.4 50.6 45.3 50.7 45.15 50.85 45.05
L 50.15 44.9
Q 49.65 44.8 49.65 44.45 49.65 44.2 49.95 44
L 50.5 43.95 51.9 43.95
Q 52 43.9 52.1 43.9 52.55 43.8 53.55 43.8
L 57.4 43.8
Q 57.85 43.8 58.05 43.9 58.1 43.95 58.2 44
L 61 43.95
Q 61.55 43.95 61.75 44.1 61.95 44.25 61.95 44.45 62 44.7 61.8 44.8 62.35 44.8 62.8 44.85 63.1 44.85 63.35 44.9 63.55 44.9 63.65 44.95 63.5 44.6 63.35 44.25 63.05 43.65 62.8 43.15 60.85 39.15 59.65 37.35 58.85 38.65 57.05 41.4 56.65 42.1 56.2 42.25 55.8 42.4 55.35 42.15 55 41.9 54.95 41.5 54.75 41.2 54.65 40.75
L 54.55 39.35
Q 54.45 38.85 54.15 37.95 53.85 37 53.75 36.55 53.65 36.15 53.4 34.55
L 52.95 32.45
Q 51.8 27.7 50.35 23.05
M 20 46.1
Q 19.7 45.8 19.85 45.5 20 45.25 20.55 45.15 21.05 45.15 21.65 45.25 21.8 45.2 22.1 45.2
L 23.05 45.2 22.75 45
Q 22.15 44.95 21.85 44.9 21.25 44.9 21.25 44.4 21.25 44.1 21.6 44
L 22.1 43.95 29.4 43.9
Q 31.8 43.8 32.25 43.8 32.6 43.8 32.75 43.9 33.05 44.1 33 44.3 33 44.5 32.7 44.7
L 31.2 44.85
Q 31.4 44.85 31.75 44.85 32.25 44.8 32.5 44.9 32.8 45 32.85 45.2 33.2 45.2 33.4 45.3 33.75 45.4 33.75 45.7 33.75 45.95 33.6 46.25 33.85 46.25 34.1 46.25 34.5 46.25 34.65 46.35 35.05 46.45 34.95 46.8 34.95 47.05 34.65 47.15
L 33.15 47.25
Q 33.1 47.3 33.05 47.35 32.9 47.6 32.2 47.7 33.05 48.1 35 48 35.65 48.1 35.65 48.5 35.65 48.75 35.05 49 33.9 49.3 32.15 49.3
L 21.25 49.5
Q 20.75 49.5 20.6 49.35 20.15 48.9 20.7 48.5 20.75 48.45 20.85 48.45 20.2 48.3 20.2 47.85 20.15 47.4 20.8 47.3 20.8 47.2 20.8 47.1 20.8 46.85 21 46.7 21.1 46.6 21.3 46.55 20.9 46.5 20.65 46.45 20.25 46.4 20 46.1
M 31.35 52.65
Q 32.25 52.2 33.15 52.45 34.55 52.15 37.2 51.95 41.1 51.7 51.35 51.7
L 53.55 51.7
Q 55.25 51.7 56 52.15 56.95 52.75 57.2 54.1 57.55 55.6 56.85 56.8 56.15 58.05 54.95 58.45 54.95 58.5 54.95 58.6
L 54.95 60.6
Q 54.95 61.05 54.85 61.25 54.7 61.55 54.25 61.7 53.3 62.2 52.65 61.7 52.55 61.6 52.15 60.95
L 51.65 59.75
Q 51.6 59.65 51.6 59.55 47.7 60 40.2 60
L 37.65 59.85
Q 36.5 59.65 34.95 59.2 32 58.2 30.6 56.9 30.1 56.4 30 56
L 29.85 55.25
Q 29.85 54.55 30.05 54.1 30.4 53.15 31.35 52.65
M 33 53.4
Q 32.55 53.45 32.4 53.35 31.3 53.45 30.95 54.4 30.7 55.05 30.9 55.55 31.05 56.2 32.1 56.8 35.1 58.65 38.65 58.95
L 40.75 59
Q 46.4 59 51.3 58.65 51.4 58.65 51.5 58.65 51.6 58.4 51.85 58.35 52.1 58.35 52.3 58.55
L 52.7 59.6
Q 53.2 60.8 53.3 60.9 53.7 61.05 54 60.55 54.1 60.3 54.1 59.7
L 54.05 58.6
Q 54.05 58.45 54.05 58.35 53.95 58.15 54.15 57.9 54.25 57.7 54.65 57.5 56.05 56.55 56.35 55.5 56.6 54.7 56.15 53.85 55.7 53.05 54.85 52.8 54.45 52.7 53.6 52.7
L 51.15 52.7
Q 39 52.7 33 53.4
M 49.2 20.2
Q 49.35 19.7 49.7 19.5 49.8 19.3 50.1 19.15 50.5 19 50.9 19.2 51.3 19.45 51.6 20.35
L 52.95 24.65
Q 54.15 28.8 55.45 34.55
L 56.4 38.8
Q 57.15 37.65 57.45 37.1 58.55 35.3 59.05 33.7
L 60.3 29.3
Q 60.5 28.35 61 28.05 61.4 27.85 61.85 28 62.3 28.2 62.4 28.6 62.5 28.9 62.3 29.6
L 60.85 34.8 60.65 35.35
Q 60.85 35.55 61.1 35.9 61.95 37.15 62.8 38.7 63.5 39.95 64.2 41.4 65.05 43.1 65.85 45.1 65.85 45.15 65.9 45.2 66.15 44.45 66.4 43.45 66.8 41.9 67.1 40.7 67.5 38.95 67.7 37.95 68.25 34.8 68.1 32.3 68.05 31.6 68.15 31.15 68 30.6 67.8 30.05 67.7 30 67.65 29.9 67.55 29.65 67.55 29.4 66.7 27.6 65.25 25.9 64.25 24.8 62.8 23.6 61.15 22.2 58.85 20.7 55.7 18.75 53.75 18.2 52.05 17.75 49.05 17.65 43.85 17.45 41.2 17.6 38.25 17.8 34.3 18.65 29.3 19.6 26 21.2 21.5 23.3 19.25 26.6 17.25 29.5 16.8 33.45 16.85 33.6 16.85 33.8 16.85 33.95 16.75 34.2 16.45 37.85 17.5 41.8 17.75 42.5 17.7 43 17.75 43.05 17.75 43.15 19.4 39.45 20.1 37.6 21.7 33.4 22.15 29.9 22.4 27.95 22.5 27.6 22.7 26.75 23.15 26.5 23.5 26.3 23.9 26.45 24.25 26.55 24.45 26.9 24.6 27.2 24.5 28 24.2 29.8 23.95 31.25 24 31.3 24.05 31.4 24.2 31.65 24.2 32.65
L 24.3 33.95
Q 24.55 35.9 25.15 37.85 25.45 38.8 25.85 39.9 27.1 38.3 29 35.05
L 32.3 29.5
Q 33.7 27.1 34.2 26.05 34.7 25.2 34.85 25.05 35.3 24.55 35.95 24.7 36.6 25 36.5 25.85 36.5 26.3 36 27.1
L 34.25 30.1
Q 34.25 30.4 34.1 30.85 34.05 31.25 34.05 33.1
L 34.05 34.25 34.8 37.05
Q 35.6 36.25 36.9 35.1 37.65 34.25 38.85 32.35
L 42.05 27.55
Q 42.5 26.9 42.55 26.65 42.45 25.75 42.6 25.35 42.75 24.95 43.25 24.8 43.7 24.6 44.1 24.85 44.6 25.2 44.6 26 44.65 27.05 44.1 28.1
L 42.85 29.9
Q 42.8 29.95 42.25 30.8 42.4 31.05 42.55 31.5 43.1 32.95 43.8 34.1 43.85 33.7 44.25 32.8
L 47.1 27.35
Q 47.3 26.9 47.5 26.15 47.75 25.2 48.1 23.75 48.6 21.45 49.2 20.2
M 62.8 18.9
Q 61.8 18.7 60.9 18.55 59.65 18.35 58.55 18.2 59.35 18.65 60.2 19.2 61.6 20.1 62.8 21 65.6 23.1 67.3 25.25 68.6 26.85 69.4 28.6
L 75.9 31.25
Q 75.3 30.4 74.6 29.2 74.45 29 74.4 28.8 74.2 28.5 74.25 28.15 74.3 28.05 74.3 28 74.4 27.75 74.6 27.6 74.7 27.45 74.9 27.3
L 75.9 26.9
Q 76.45 26.7 77 26.4
L 75.55 24.7
Q 75.45 24.35 75.05 23.9 74.6 23.45 74.4 23.2 74.15 22.95 74.05 22.7 73.65 22.35 73.75 21.85 73.75 21.65 73.9 21.45 73.4 21.5 73 21.55 72.45 21.55 72.15 21.55 71.55 21.5 71.2 21.35 70.8 21.3 70.25 21.1 67.35 20 66.6 19.8
L 64 19.15
Q 63.4 19 62.8 18.9 Z"/>
</g>
</defs>

<g transform="matrix( 1, 0, 0, 1, 0,0) ">
<use xlink:href="#Layer0_0_FILL"/>
</g>
</svg>
