
<svg xmlns="http://www.w3.org/2000/svg" version="1.1" xmlns:xlink="http://www.w3.org/1999/xlink" preserveAspectRatio="none" x="0px" y="0px" width="140px" height="140px" viewBox="0 0 140 140">
<defs>
<g id="Layer0_0_FILL">
<path fill="#FFFFFF" stroke="none" d="
M 108.2 71.85
Q 108.2 72.1 108.15 72.35 108.05 76.1 107.55 87.65
L 102.5 79 98.65 92 92.2 55.95 87.85 70.15 78.85 38.05 78.85 45.8 76.5 45.8 70.1 63.2 76.6 44.3 67 70.35 60 52.6 52.35 70.15 48 55.95 41.55 92 37.7 79 32.65 87.65
Q 32.15 76.1 32.05 72.35 32 72.1 32 71.85 32 71.8 32 71.75
L 9.8 75.3 21.95 88.75 8.15 108.5 39.35 104.4
Q 39.6 104.55 40.1 104.8 35.45 102.25 31.1 99.7 35.45 102.25 40.1 104.8 40.55 105.05 41.05 105.3 55.75 112.7 70.1 112.75 84.45 112.7 99.15 105.3 99.65 105.05 100.1 104.8 104.75 102.25 109.1 99.7 104.75 102.25 100.1 104.8 100.6 104.55 100.85 104.4
L 132.05 108.5 118.25 88.75 130.4 75.3 108.2 71.75
Q 108.2 71.8 108.2 71.85
M 101.1 42.25
Q 96.55 33.35 87.6 29.05 80.45 25.55 70.5 25
L 69.7 25
Q 59.75 25.55 52.6 29.05 43.65 33.35 39.1 42.25 32.9 54.9 32.1 66.85 31.95 69.3 32 71.75 32 71.8 32 71.85 32 72.1 32.05 72.35 32.15 76.1 32.65 87.65
L 37.7 79 41.55 92 48 55.95 52.35 70.15 60 52.6 67 70.35 76.6 44.3 78.85 38.05 87.85 70.15 92.2 55.95 98.65 92 102.5 79 107.55 87.65
Q 108.05 76.1 108.15 72.35 108.2 72.1 108.2 71.85 108.2 71.8 108.2 71.75 108.25 69.3 108.1 66.85 107.3 54.9 101.1 42.25
M 25.2 41.4
L 8.5 48.5 21 52.9 6 63.1 12.75 63.1 9.25 68.85 32.1 66.85
Q 32.9 54.9 39.1 42.25 43.65 33.35 52.6 29.05
L 12.15 34.05 25.2 41.4
M 87.6 29.05
Q 96.55 33.35 101.1 42.25 107.3 54.9 108.1 66.85
L 130.95 68.85 127.45 63.1 134.2 63.1 119.2 52.9 131.7 48.5 115 41.4 128.05 34.05 87.6 29.05 Z"/>
</g>

<path id="Layer0_0_1_STROKES" stroke="#000000" stroke-width="4" stroke-linejoin="miter" stroke-linecap="butt" stroke-miterlimit="2" fill="none" d="
M 87.6 29.05
Q 96.55 33.35 101.1 42.25 107.3 54.9 108.1 66.85
L 130.95 68.85 127.45 63.1 134.2 63.1 119.2 52.9 131.7 48.5 115 41.4 128.05 34.05 87.6 29.05
Q 80.45 25.55 70.5 25
L 69.7 25
Q 59.75 25.55 52.6 29.05 43.65 33.35 39.1 42.25 32.9 54.9 32.1 66.85 31.95 69.3 32 71.75 32 71.8 32 71.85 32 72.1 32.05 72.35 32.15 76.1 32.65 87.65
L 37.7 79 41.55 92 48 55.95 52.35 70.15 60 52.6 67 70.35 76.6 44.325 78.85 38.05 87.85 70.15 92.2 55.95 98.65 92 102.5 79 107.55 87.65
Q 108.05 76.1 108.15 72.35 108.2 72.1 108.2 71.85 108.2 71.8 108.2 71.75 108.25 69.3 108.1 66.85
M 108.2 71.75
L 130.4 75.3 118.25 88.75 132.05 108.5 100.85 104.4
Q 100.6 104.55 100.1 104.8 99.65 105.05 99.15 105.3 84.45 112.7 70.1 112.75 55.75 112.7 41.05 105.3 40.55 105.05 40.1 104.8 39.6 104.55 39.35 104.4
L 8.15 108.5 21.95 88.75 9.8 75.3 32 71.75
M 52.6 29.05
L 12.15 34.05 25.2 41.4 8.5 48.5 21 52.9 6 63.1 12.75 63.1 9.25 68.85 32.1 66.85
M 31.1 99.7
Q 35.45 102.25 40.1 104.8
M 109.1 99.7
Q 104.75 102.25 100.1 104.8"/>
</defs>

<g transform="matrix( 1, 0, 0, 1, 0,0) ">
<use xlink:href="#Layer0_0_FILL"/>

<use xlink:href="#Layer0_0_1_STROKES"/>
</g>
</svg>
