
<svg xmlns="http://www.w3.org/2000/svg" version="1.1" xmlns:xlink="http://www.w3.org/1999/xlink" preserveAspectRatio="none" x="0px" y="0px" width="72px" height="72px" viewBox="0 0 72 72">
<defs>
<g id="Layer3_0_FILL">
<path fill="#000000" stroke="none" d="
M 72 38
L 38 38 38 72 72 72 72 38
M 45.6 45.55
L 64.4 45.55 64.4 64.4 60.65 64.4 60.65 60.55 49.25 60.55 49.25 64.4 45.6 64.4 45.6 45.55
M 60.6 49.35
L 49.4 49.35 49.4 56.85 60.6 56.85 60.6 49.35 Z"/>

<path fill="#FFFFFF" stroke="none" d="
M 64.4 45.55
L 45.6 45.55 45.6 64.4 49.25 64.4 49.25 60.55 60.65 60.55 60.65 64.4 64.4 64.4 64.4 45.55
M 49.4 49.35
L 60.6 49.35 60.6 56.85 49.4 56.85 49.4 49.35 Z"/>
</g>

<g id="Layer2_0_FILL">
<path fill="#000000" stroke="none" d="
M 34 38
L 0 38 0 72 34 72 34 38
M 7.45 45.55
L 11.25 45.55 11.25 60.7 26.35 60.7 26.35 64.4 7.45 64.4 7.45 45.55 Z"/>

<path fill="#FFFFFF" stroke="none" d="
M 11.25 45.55
L 7.45 45.55 7.45 64.4 26.35 64.4 26.35 60.7 11.25 60.7 11.25 45.55 Z"/>
</g>

<g id="Layer1_0_FILL">
<path fill="#000000" stroke="none" d="
M 72 34
L 72 0 38 0 38 34 72 34
M 64.4 11.2
L 60.8 11.2 60.8 7.5 64.4 7.5 64.4 11.2
M 60.8 22.65
L 64.4 22.65 64.4 26.35 60.8 26.35 60.8 22.65
M 57.05 11.35
L 60.65 11.35 60.65 15 57.05 15 57.05 11.35
M 49.4 7.5
L 49.4 11.2 45.65 11.2 45.65 7.5 49.4 7.5
M 49.45 22.5
L 49.45 19 53.15 19 53.15 22.5 49.45 22.5
M 45.65 22.65
L 49.4 22.65 49.4 26.35 45.65 26.35 45.65 22.65
M 57.05 19
L 60.65 19 60.65 22.5 57.05 22.5 57.05 19
M 56.95 18.8
L 53.2 18.8 53.2 15.05 56.95 15.05 56.95 18.8
M 53.15 15
L 49.45 15 49.45 11.35 53.15 11.35 53.15 15 Z"/>

<path fill="#FFFFFF" stroke="none" d="
M 49.45 15
L 53.15 15 53.15 11.35 49.45 11.35 49.45 15
M 53.2 18.8
L 56.95 18.8 56.95 15.05 53.2 15.05 53.2 18.8
M 60.65 19
L 57.05 19 57.05 22.5 60.65 22.5 60.65 19
M 49.4 22.65
L 45.65 22.65 45.65 26.35 49.4 26.35 49.4 22.65
M 49.45 19
L 49.45 22.5 53.15 22.5 53.15 19 49.45 19
M 49.4 11.2
L 49.4 7.5 45.65 7.5 45.65 11.2 49.4 11.2
M 60.65 11.35
L 57.05 11.35 57.05 15 60.65 15 60.65 11.35
M 64.4 22.65
L 60.8 22.65 60.8 26.35 64.4 26.35 64.4 22.65
M 60.8 11.2
L 64.4 11.2 64.4 7.5 60.8 7.5 60.8 11.2 Z"/>
</g>

<g id="Layer0_0_FILL">
<path fill="#000000" stroke="none" d="
M 34 34
L 34 0 0 0 0 34 34 34
M 26.35 7.55
L 26.35 18.8 11.15 18.8 11.15 26.35 7.55 26.35 7.55 7.55 26.35 7.55
M 22.55 15
L 22.55 11.35 11.35 11.35 11.35 15 22.55 15
M 167.55 35.05
L 167.55 1.15 133.55 1.15 133.55 35.05 167.55 35.05
M 156.1 12.35
L 152.35 12.35 152.35 23.8 156.1 23.8 156.1 27.45 144.95 27.45 144.95 23.8 148.7 23.8 148.7 12.35 144.95 12.35 144.95 8.65 156.1 8.65 156.1 12.35
M 243.05 35.05
L 243.05 1.15 209.05 1.15 209.05 35.05 243.05 35.05
M 235.45 8.65
L 235.45 12.35 220.45 12.35 220.45 16.2 231.7 16.2 231.7 19.9 220.45 19.9 220.45 23.8 235.45 23.8 235.45 27.45 216.7 27.45 216.7 8.65 235.45 8.65
M 356.55 35.05
L 356.55 1.15 322.55 1.15 322.55 35.05 356.55 35.05
M 348.95 8.65
L 348.95 12.35 341.45 12.35 341.45 27.45 337.7 27.45 337.7 12.35 330.2 12.35 330.2 8.65 348.95 8.65
M 394.45 35.05
L 394.45 1.15 360.45 1.15 360.45 35.05 394.45 35.05
M 382.95 12.35
L 379.2 12.35 379.2 23.8 382.95 23.8 382.95 27.45 371.8 27.45 371.8 23.8 375.55 23.8 375.55 12.35 371.8 12.35 371.8 8.65 382.95 8.65 382.95 12.35
M 432.1 35.05
L 432.1 1.15 398.05 1.15 398.05 35.05 432.1 35.05
M 405.7 8.65
L 424.5 8.65 424.5 27.45 405.7 27.45 405.7 8.65
M 420.7 23.65
L 420.7 12.45 409.55 12.45 409.55 23.65 420.7 23.65
M 469.95 35.05
L 469.95 1.15 435.95 1.15 435.95 35.05 469.95 35.05
M 458.65 8.65
L 462.35 8.65 462.35 27.45 458.65 27.45 458.65 23.65 454.9 23.65 454.9 19.95 458.65 19.95 458.65 8.65
M 450.95 16.15
L 447.2 16.15 447.2 27.45 443.5 27.45 443.5 8.65 447.2 8.65 447.2 12.45 450.95 12.45 450.95 16.15
M 454.9 16.2
L 454.9 19.9 450.95 19.9 450.95 16.2 454.9 16.2
M 435.95 -2.95
L 435.95 -2.8 469.95 -2.8 469.95 -2.95 435.95 -2.95
M 398.05 -2.95
L 398.05 -2.8 432.1 -2.8 432.1 -2.95 398.05 -2.95
M 360.3 -2.95
L 360.3 -2.8 394.3 -2.8 394.3 -2.95 360.3 -2.95 Z"/>

<path fill="#FFFFFF" stroke="none" d="
M 26.35 18.8
L 26.35 7.55 7.55 7.55 7.55 26.35 11.15 26.35 11.15 18.8 26.35 18.8
M 22.55 11.35
L 22.55 15 11.35 15 11.35 11.35 22.55 11.35
M 152.35 12.35
L 156.1 12.35 156.1 8.65 144.95 8.65 144.95 12.35 148.7 12.35 148.7 23.8 144.95 23.8 144.95 27.45 156.1 27.45 156.1 23.8 152.35 23.8 152.35 12.35
M 235.45 12.35
L 235.45 8.65 216.7 8.65 216.7 27.45 235.45 27.45 235.45 23.8 220.45 23.8 220.45 19.9 231.7 19.9 231.7 16.2 220.45 16.2 220.45 12.35 235.45 12.35
M 348.95 12.35
L 348.95 8.65 330.2 8.65 330.2 12.35 337.7 12.35 337.7 27.45 341.45 27.45 341.45 12.35 348.95 12.35
M 379.2 12.35
L 382.95 12.35 382.95 8.65 371.8 8.65 371.8 12.35 375.55 12.35 375.55 23.8 371.8 23.8 371.8 27.45 382.95 27.45 382.95 23.8 379.2 23.8 379.2 12.35
M 424.5 8.65
L 405.7 8.65 405.7 27.45 424.5 27.45 424.5 8.65
M 420.7 12.45
L 420.7 23.65 409.55 23.65 409.55 12.45 420.7 12.45
M 454.9 19.9
L 454.9 16.2 450.95 16.2 450.95 19.9 454.9 19.9
M 447.2 16.15
L 450.95 16.15 450.95 12.45 447.2 12.45 447.2 8.65 443.5 8.65 443.5 27.45 447.2 27.45 447.2 16.15
M 462.35 8.65
L 458.65 8.65 458.65 19.95 454.9 19.95 454.9 23.65 458.65 23.65 458.65 27.45 462.35 27.45 462.35 8.65 Z"/>
</g>
</defs>

<g transform="matrix( 1, 0, 0, 1, 0,0) ">
<use xlink:href="#Layer3_0_FILL"/>
</g>

<g transform="matrix( 1, 0, 0, 1, 0,0) ">
<use xlink:href="#Layer2_0_FILL"/>
</g>

<g transform="matrix( 1, 0, 0, 1, 0,0) ">
<use xlink:href="#Layer1_0_FILL"/>
</g>

<g transform="matrix( 1, 0, 0, 1, 0,0) ">
<use xlink:href="#Layer0_0_FILL"/>
</g>
</svg>
