
<svg xmlns="http://www.w3.org/2000/svg" version="1.1" xmlns:xlink="http://www.w3.org/1999/xlink" preserveAspectRatio="none" x="0px" y="0px" width="40px" height="40px" viewBox="0 0 40 40">
<defs>
<g id="Layer0_0_FILL">
<path fill="#000000" stroke="none" d="
M 36.4 11.1
Q 35.95 10.95 35.35 10.75 33.45 10.15 32.5 10.05 30.7 9.65 29.15 9.35 28.75 9.25 28.35 9.2 27.8 9.1 27.3 9 25.45 8.7 24.15 8.7
L 23.65 8.7
Q 23 8.6 22.25 8.55
L 17.65 8.55
Q 17.1 8.6 16.55 8.75
L 16.5 8.6
Q 14.25 8.7 9.85 9.9 4.7 11.3 4.7 12.45 4.7 12.65 5.85 13.8 4.8 14.3 4.05 14.7 2.7 15.5 2.7 15.9 2.7 16.35 3.9 16.75 4.55 16.95 5.35 17.15 4.3 17.5 3.75 17.75 2.7 18.2 2.7 18.65
L 3 19.05 6.25 19.05
Q 5.95 19.25 5.6 19.45 2.95 21.1 2.95 21.25 2.95 21.3 3 21.4
L 2.95 21.4 3.05 21.5 3.15 21.55
Q 4.3 22.25 7.55 24.7 7.1 24.8 5.1 26.05 3.1 27.25 3.1 27.35 3.1 27.6 3.45 28.15 5.65 29.4 8.55 30.15 9.8 30.5 11.55 30.8 13.95 31.25 17.25 31.65
L 24 31.65
Q 25.55 31.45 27.3 31.1
L 31.6 30.05
Q 35.35 29.05 36.4 28.2 36.8 27.85 36.8 27.55 36.8 27.45 36.4 27.2 35.4 26.45 31.95 24.6 35 22.4 36.4 21.35 37.15 20.8 37.4 20.6
L 37.85 19.9
Q 37.8 19.85 36.75 19.45 36.55 19.4 36.4 19.35 35.35 18.95 34.55 18.75 33.05 18.4 32.2 18.15
L 36.75 18.15
Q 36.85 18.1 36.9 18.05 37.05 17.85 37.05 17.8 36.9 17.6 36.4 17.15 36.2 17 35.95 16.8 35 16.1 34.9 15.85 35 15.85 35.8 15.65 36.2 15.5 36.4 15.3 36.55 15.1 36.55 14.9 36.55 14.8 36.4 14.7 35.85 14.2 33.5 13.2 33.35 13.15 33.25 13.1
L 33.5 13.05
Q 33.7 13 35.65 12.65 36.1 12.55 36.4 12.45 37.45 12.15 37.45 11.75 37.45 11.5 36.4 11.1
M 30.8 10.4
Q 31.5 10.55 36.1 11.7
L 35.75 11.8
Q 32.1 12.35 32.1 13.15 32.1 13.5 33.5 14.05 35.25 14.75 35.5 14.95 35.35 15.05 34.45 15.25 33.95 15.35 33.95 15.8
L 35 17
Q 35.3 17.3 35.6 17.55
L 31.85 17.5
Q 31.5 17.45 31.2 17.4
L 31.2 16.1
Q 31.1 13.6 29.35 11.6 28.9 11.05 28.35 10.65 27.85 10.25 27.3 9.95 27.2 9.85 27.05 9.8 27.2 9.8 27.3 9.85 27.85 9.9 28.35 10 29.7 10.2 30.8 10.4
M 28.35 11.55
Q 28.65 11.8 28.95 12.15 30.2 13.75 30.6 16.55
L 30.6 20.8
Q 30.9 22.15 30.95 24.1 30.25 23.45 30 23.4
L 28.6 24.55
Q 28.55 23.8 28.35 22.25 28.3 21.65 28.2 20.95 28 19.1 27.3 17.95 27.05 17.55 26.75 17.25
L 26.7 17.6
Q 26.7 17.7 27.05 19
L 25.2 15.6
Q 24.7 14.25 24.35 13.55 23.9 12.65 23.25 12.45
L 19.7 19.15 19.7 18.95
Q 19.35 17.6 19.15 16.85 18.95 16.1 18.7 15.6 18.95 14.7 19.3 13.55
L 19.2 13.55
Q 19.1 13.6 19 13.6 18.9 13.6 18.8 13.55 18.75 13.55 18.7 13.55 18.55 14.5 18.3 15.05 18.15 15.4 17 17.55 16.65 18.15 16.5 18.6 15.95 16.9 15.2 16.3 15.2 16.2 15.2 16.1
L 15.15 15.6
Q 14.6 15.65 14.45 16.25 14.4 16.6 14.35 17.25 14.3 17.4 13.85 18.2 13.65 18.6 13.55 18.85
L 13.7 17 13.65 16.1
Q 13.4 16.15 13.25 16.4 13.35 16.15 13.45 15.9
L 13.4 15.6
Q 12.6 16.05 11.45 19.55 10.45 22.5 10.2 24.2 9.45 23.45 9.45 23.4 9.35 23.4 8.95 23.6 8.55 23.8 8.45 23.9 8.5 23.5 8.95 21.2 9.45 18.8 9.6 18.2 10.7 14.55 10.7 14.5 10.7 14.25 10.45 14.25 11.35 13 12.65 11.9 15.05 9.9 17.85 9.2
L 22.15 9.2
Q 25.3 9.5 27.3 10.75 27.85 11.1 28.35 11.55
M 23.25 13.25
Q 23.75 13.8 24.1 14.45 24.35 14.95 24.8 16.35 25.05 16.85 25.8 18.6 26.55 20.05 27 20.05 27.2 20.05 27.3 19.95 27.5 20.8 28.2 25.75
L 29.95 24.1
Q 31.45 25 31.5 24.95
L 31.5 24.8
Q 31.75 25.3 33.55 26.5 34.9 27.4 35.7 27.75 34.35 28.2 31.25 29.25 29.85 29.75 28.35 30.15 27.85 30.25 27.3 30.4 26.25 30.6 25.15 30.8 24.45 30.9 23.8 31
L 17.45 31
Q 16.55 30.9 15.75 30.8 11.1 30.25 8.65 29.55 8.15 29.4 6 28.4 4.15 27.6 3.8 27.55 6.9 25.9 7.9 25.2 7.95 25.3 8.05 25.35
L 9.15 24.25 10.75 25.45
Q 10.85 24.9 11.45 22.4 11.8 21.1 11.95 20.3
L 11.95 25.6
Q 12.35 25.65 12.75 25.75 13.45 25.75 13.3 22.45
L 13.25 20.6 12.9 20.55
Q 12.75 20.65 12.7 20.65 12.7 19.95 12.05 19.9 12.3 18.55 13 17.1
L 13 17.15
Q 12.95 17.35 12.95 18.5 12.95 19.25 13.25 19.4
L 13.5 19.3 13.5 19.2 13.85 19.55
Q 14.35 19.05 14.75 17.95 14.9 17.6 15 17.3 15.15 17.7 15.4 18.2 15.85 19.05 15.95 19.75
L 16.3 19.8 16.45 19.8
Q 17.25 19.8 18.3 16.9 18.35 17.4 18.5 17.95 18.65 18.65 19.2 19.45 19.6 20.15 19.85 20.3 22.85 15.35 23.25 13.25
M 31.55 24.2
L 31.55 23.45
Q 31.55 21.2 31.2 20.55
L 31.2 18.25
Q 31.95 18.55 34.45 19.35 35.75 19.75 36.4 20 36.75 20.05 36.95 20.15
L 37.05 20.15 36.4 20.55 36.3 20.6
Q 35.2 21.2 33.7 22.3 31.85 23.7 31.55 24.2
M 10.15 10.4
Q 10.85 10.15 14 9.5 14.8 9.35 15.4 9.2 13.9 9.9 12.15 11.4 9.1 14.05 9.1 15.55
L 9.3 15.75 8.85 17.75
Q 7.9 18 6.3 19 6.45 18.85 6.45 18.75
L 6.15 18.45 4.25 18.4
Q 6.45 17.75 6.45 17.05 6.45 16.75 5.35 16.35 4.1 15.95 3.75 15.8 6.95 14.2 6.95 13.75 6.95 13.5 5.45 12.6 6 12.2 7.5 11.45 9.05 10.75 10.15 10.4
M 4.4 21.25
Q 4.25 21.15 4.15 21.1 7.45 19.25 8.7 18.4
L 8.3 20.3
Q 7.85 22.65 7.75 24.1 7.55 23.85 7.3 23.65 6.15 22.75 5.7 22.35 4.9 21.6 4.4 21.25
M 16.65 28.7
Q 17.6 30.05 19.4 30.05 21.2 30.05 22.3 29.1 23.15 28.35 23.15 27.5
L 23.1 27.15
Q 23.05 27.15 16.05 27.35 16.05 27.4 16.65 28.7
M 19.4 29.4
Q 18.1 29.4 17.2 28.3 17.05 28.1 16.95 27.95
L 22.3 27.8
Q 22.1 28 21.95 28.35 21.35 29.4 19.4 29.4
M 26.2 20.4
Q 25.95 20.35 25.65 20.5
L 25.65 23.1
Q 25.7 25.7 25.9 25.75
L 26.2 25.65
Q 26.2 25.45 26.25 25.3 26.45 25.6 26.75 25.6 27 25.6 27.05 25.5
L 27.05 21 27 20.8 26.65 20.75 26.65 20.7 26.2 20.7 26.2 20.4 Z"/>

<path fill="#FFFFFF" stroke="none" d="
M 4.15 21.1
Q 4.25 21.15 4.4 21.25 4.9 21.6 5.7 22.35 6.15 22.75 7.3 23.65 7.55 23.85 7.75 24.1 7.85 22.65 8.3 20.3
L 8.7 18.4
Q 7.45 19.25 4.15 21.1
M 14 9.5
Q 10.85 10.15 10.15 10.4 9.05 10.75 7.5 11.45 6 12.2 5.45 12.6 6.95 13.5 6.95 13.75 6.95 14.2 3.75 15.8 4.1 15.95 5.35 16.35 6.45 16.75 6.45 17.05 6.45 17.75 4.25 18.4
L 6.15 18.45 6.45 18.75
Q 6.45 18.85 6.3 19 7.9 18 8.85 17.75
L 9.3 15.75 9.1 15.55
Q 9.1 14.05 12.15 11.4 13.9 9.9 15.4 9.2 14.8 9.35 14 9.5
M 31.55 23.45
L 31.55 24.2
Q 31.85 23.7 33.7 22.3 35.2 21.2 36.3 20.6
L 36.4 20.55 37.05 20.15 36.95 20.15
Q 36.75 20.05 36.4 20 35.75 19.75 34.45 19.35 31.95 18.55 31.2 18.25
L 31.2 20.55
Q 31.55 21.2 31.55 23.45
M 24.1 14.45
Q 23.75 13.8 23.25 13.25 22.85 15.35 19.85 20.3 19.6 20.15 19.2 19.45 18.65 18.65 18.5 17.95 18.35 17.4 18.3 16.9 17.25 19.8 16.45 19.8
L 16.3 19.8 15.95 19.75
Q 15.85 19.05 15.4 18.2 15.15 17.7 15 17.3 14.9 17.6 14.75 17.95 14.35 19.05 13.85 19.55
L 13.5 19.2 13.5 19.3 13.25 19.4
Q 12.95 19.25 12.95 18.5 12.95 17.35 13 17.15
L 13 17.1
Q 12.3 18.55 12.05 19.9 12.7 19.95 12.7 20.65 12.75 20.65 12.9 20.55
L 13.25 20.6 13.3 22.45
Q 13.45 25.75 12.75 25.75 12.35 25.65 11.95 25.6
L 11.95 20.3
Q 11.8 21.1 11.45 22.4 10.85 24.9 10.75 25.45
L 9.15 24.25 8.05 25.35
Q 7.95 25.3 7.9 25.2 6.9 25.9 3.8 27.55 4.15 27.6 6 28.4 8.15 29.4 8.65 29.55 11.1 30.25 15.75 30.8 16.55 30.9 17.45 31
L 23.8 31
Q 24.45 30.9 25.15 30.8 26.25 30.6 27.3 30.4 27.85 30.25 28.35 30.15 29.85 29.75 31.25 29.25 34.35 28.2 35.7 27.75 34.9 27.4 33.55 26.5 31.75 25.3 31.5 24.8
L 31.5 24.95
Q 31.45 25 29.95 24.1
L 28.2 25.75
Q 27.5 20.8 27.3 19.95 27.2 20.05 27 20.05 26.55 20.05 25.8 18.6 25.05 16.85 24.8 16.35 24.35 14.95 24.1 14.45
M 25.65 20.5
Q 25.95 20.35 26.2 20.4
L 26.2 20.7 26.65 20.7 26.65 20.75 27 20.8 27.05 21 27.05 25.5
Q 27 25.6 26.75 25.6 26.45 25.6 26.25 25.3 26.2 25.45 26.2 25.65
L 25.9 25.75
Q 25.7 25.7 25.65 23.1
L 25.65 20.5
M 19.4 30.05
Q 17.6 30.05 16.65 28.7 16.05 27.4 16.05 27.35 23.05 27.15 23.1 27.15
L 23.15 27.5
Q 23.15 28.35 22.3 29.1 21.2 30.05 19.4 30.05
M 17.2 28.3
Q 18.1 29.4 19.4 29.4 21.35 29.4 21.95 28.35 22.1 28 22.3 27.8
L 16.95 27.95
Q 17.05 28.1 17.2 28.3
M 28.95 12.15
Q 28.65 11.8 28.35 11.55 27.85 11.1 27.3 10.75 25.3 9.5 22.15 9.2
L 17.85 9.2
Q 15.05 9.9 12.65 11.9 11.35 13 10.45 14.25 10.7 14.25 10.7 14.5 10.7 14.55 9.6 18.2 9.45 18.8 8.95 21.2 8.5 23.5 8.45 23.9 8.55 23.8 8.95 23.6 9.35 23.4 9.45 23.4 9.45 23.45 10.2 24.2 10.45 22.5 11.45 19.55 12.6 16.05 13.4 15.6
L 13.45 15.9
Q 13.35 16.15 13.25 16.4 13.4 16.15 13.65 16.1
L 13.7 17 13.55 18.85
Q 13.65 18.6 13.85 18.2 14.3 17.4 14.35 17.25 14.4 16.6 14.45 16.25 14.6 15.65 15.15 15.6
L 15.2 16.1
Q 15.2 16.2 15.2 16.3 15.95 16.9 16.5 18.6 16.65 18.15 17 17.55 18.15 15.4 18.3 15.05 18.55 14.5 18.7 13.55 18.75 13.55 18.8 13.55 18.9 13.6 19 13.6 19.1 13.6 19.2 13.55
L 19.3 13.55
Q 18.95 14.7 18.7 15.6 18.95 16.1 19.15 16.85 19.35 17.6 19.7 18.95
L 19.7 19.15 23.25 12.45
Q 23.9 12.65 24.35 13.55 24.7 14.25 25.2 15.6
L 27.05 19
Q 26.7 17.7 26.7 17.6
L 26.75 17.25
Q 27.05 17.55 27.3 17.95 28 19.1 28.2 20.95 28.3 21.65 28.35 22.25 28.55 23.8 28.6 24.55
L 30 23.4
Q 30.25 23.45 30.95 24.1 30.9 22.15 30.6 20.8
L 30.6 16.55
Q 30.2 13.75 28.95 12.15
M 36.1 11.7
Q 31.5 10.55 30.8 10.4 29.7 10.2 28.35 10 27.85 9.9 27.3 9.85 27.2 9.8 27.05 9.8 27.2 9.85 27.3 9.95 27.85 10.25 28.35 10.65 28.9 11.05 29.35 11.6 31.1 13.6 31.2 16.1
L 31.2 17.4
Q 31.5 17.45 31.85 17.5
L 35.6 17.55
Q 35.3 17.3 35 17
L 33.95 15.8
Q 33.95 15.35 34.45 15.25 35.35 15.05 35.5 14.95 35.25 14.75 33.5 14.05 32.1 13.5 32.1 13.15 32.1 12.35 35.75 11.8
L 36.1 11.7 Z"/>
</g>

<g id="Symbol_1_0_Layer0_0_FILL">
<path fill="#000000" stroke="none" d="
M 4.8 5.6
Q 4.8 5 4.8 4.3
L 4.85 3.65
Q 4.85 3.55 4.75 3.4 4.7 3.25 4.55 3.25 4.25 3.25 4.25 3.7
L 4.25 4.4
Q 4.3 5.1 4.3 5.55 4.3 5.75 4.3 6.5 4.25 7.3 4.25 7.35 4.25 7.75 4.55 7.75 4.65 7.75 4.75 7.6 4.8 7.4 4.8 7.25 4.8 6.05 4.8 5.6
M 0.05 3.45
Q 0.05 3.5 0.05 3.7
L 0.05 6.05
Q 0.05 6.55 0.05 7.5 0 8.5 0 8.7 0 9.15 0.25 9.15 0.5 9.15 0.5 8.8
L 0.5 8.25
Q 0.5 7.55 0.5 7.05 1.25 7.75 1.85 7.75 2.6 7.75 3 7.05 3.35 6.45 3.35 5.6 3.35 3.2 1.9 3.2 1.3 3.2 0.55 3.7
L 0.5 3.4
Q 0.45 3.2 0.3 3.2 0.05 3.2 0.05 3.45
M 0.55 4.25
Q 0.7 4.25 0.85 4.15 1.45 3.7 1.85 3.7 2.85 3.7 2.85 5.55 2.85 7.25 1.85 7.25 1.4 7.25 0.9 6.75 0.7 6.5 0.55 6.55
L 0.55 4.25
M 4.55 2
Q 4.7 2 4.8 1.85 4.9 1.75 4.9 1.6 4.9 1.45 4.8 1.35 4.7 1.2 4.55 1.2 4.4 1.2 4.25 1.3 4.15 1.45 4.15 1.6 4.15 1.75 4.25 1.85 4.4 2 4.55 2
M 6.2 3.2
Q 5.9 3.2 5.9 3.55
L 6 3.65
Q 6.05 3.75 6.15 3.8 6.9 4.75 7.4 5.4 6.85 6.1 6.55 6.45 6.1 7 5.85 7.25 5.65 7.5 5.65 7.6 5.65 7.8 5.85 7.8 5.95 7.8 6.2 7.65 6.3 7.55 6.85 6.9 7.25 6.4 7.7 5.8 8.45 6.75 8.8 7.25 9.2 7.75 9.35 7.75 9.6 7.75 9.6 7.5 9.6 7.35 9.4 7.2 9.3 7.05 8.05 5.4
L 9.2 3.85
Q 9.25 3.75 9.4 3.65 9.5 3.55 9.5 3.5 9.5 3.15 9.1 3.15 9 3.15 8.8 3.45 8.15 4.4 7.7 5
L 6.55 3.5
Q 6.5 3.4 6.4 3.3 6.35 3.2 6.2 3.2
M 10.8 5.6
Q 10.9 5.6 11 5.6
L 11.3 5.55
Q 11.6 5.5 11.95 5.5 12.2 5.5 12.55 5.5 12.95 5.55 13.15 5.55 13.4 5.55 13.4 5.1 13.4 4.45 13.2 4 12.85 3.2 11.95 3.2 10.9 3.2 10.45 4.2 10.25 4.75 10.25 5.5 10.25 6.55 10.7 7.2 11.15 7.85 11.9 7.85 12.5 7.85 12.95 7.4 13.45 6.95 13.45 6.6 13.45 6.35 13.2 6.35 13 6.35 12.95 6.55 12.85 6.85 12.6 7.1 12.3 7.35 11.95 7.35 11.5 7.35 11.25 7.1 10.8 6.6 10.8 5.6
M 11.9 5
Q 11.1 5 10.8 5.1 10.85 4.5 11.15 4.05 11.45 3.65 11.95 3.65 12.8 3.65 12.9 5.05 12 5 11.9 5
M 14.85 1.55
Q 14.85 1.3 14.85 1.25 14.85 0.85 14.55 0.85 14.3 0.85 14.3 1.25 14.3 1.35 14.3 1.6 14.3 1.9 14.3 1.95
L 14.3 4.4
Q 14.3 4.9 14.3 5.85 14.25 6.85 14.25 7.3 14.25 7.75 14.5 7.75 14.65 7.75 14.75 7.6 14.8 7.5 14.8 7.3
L 14.8 3.9
Q 14.8 3.8 14.8 2.85
L 14.8 1.9
Q 14.8 1.8 14.85 1.55
M 22.15 5.4
L 24.85 3.3 21.45 3.3 20.35 0 19.25 3.3 15.85 3.3 18.6 5.4 17.45 8.75 20.35 6.6 23.25 8.75 22.15 5.4
M 20.35 2.15
L 20.95 4 22.85 4 21.35 5.2 21.95 7 20.35 5.8 18.8 6.95 19.35 5.2 17.85 4 19.75 4 20.35 2.15
M 32.55 5.6
L 32.85 5.55
Q 33.15 5.5 33.5 5.5 33.75 5.5 34.1 5.5 34.5 5.55 34.7 5.55 34.95 5.55 34.95 5.1 34.95 4.45 34.75 4 34.4 3.2 33.5 3.2 32.45 3.2 32 4.2 31.8 4.75 31.8 5.5 31.8 6.55 32.25 7.2 32.7 7.85 33.45 7.85 34.05 7.85 34.5 7.4 35 6.95 35 6.6 35 6.35 34.75 6.35 34.55 6.35 34.5 6.55 34.4 6.85 34.15 7.1 33.85 7.35 33.5 7.35 33.05 7.35 32.8 7.1 32.35 6.6 32.35 5.6 32.45 5.6 32.55 5.6
M 32.35 5.1
Q 32.4 4.5 32.7 4.05 33 3.65 33.5 3.65 34.35 3.65 34.45 5.05 33.55 5 33.45 5 32.65 5 32.35 5.1
M 30.9 3.25
Q 30.75 3.25 30.7 3.3 30.65 3.35 30.55 3.55
L 29.5 6.85
Q 28.9 5.2 28.7 4.6 28.6 4.25 28.35 4.25 28.15 4.25 28.05 4.5 27.65 5.5 27 6.85 26.45 4.55 26.2 3.55 26.15 3.35 26.1 3.3 26.05 3.2 25.85 3.2 25.6 3.2 25.6 3.45
L 25.65 3.6
Q 25.75 3.75 25.75 3.85 26.65 7.3 26.75 7.6 26.85 7.8 26.95 7.8 27.05 7.8 27.15 7.6 27.9 5.9 28.35 5 29.1 7 29.3 7.5 29.45 7.8 29.6 7.8 29.65 7.8 29.75 7.6
L 30.95 3.9
Q 30.95 3.8 31.05 3.7 31.15 3.55 31.15 3.5 31.15 3.25 30.9 3.25
M 36.15 0.8
Q 35.9 0.8 35.9 1.1
L 35.9 1.35
Q 35.9 1.6 35.9 1.7
L 35.8 7.4
Q 35.8 7.8 36.05 7.8 36.3 7.8 36.3 7.35 36.7 7.65 37 7.75 37.2 7.8 37.65 7.8 38.4 7.8 38.8 7.05 39.15 6.45 39.15 5.5 39.15 3.35 37.6 3.35 37.1 3.35 36.35 3.9
L 36.4 1.55
Q 36.4 1.45 36.45 1.3
L 36.45 1.15
Q 36.45 0.8 36.15 0.8
M 36.6 4.4
Q 36.85 4.25 37.05 4.05 37.35 3.85 37.55 3.85 38.65 3.85 38.65 5.45 38.65 6.1 38.4 6.65 38.15 7.3 37.55 7.3 37.2 7.3 36.85 7.05 36.5 6.8 36.3 6.85 36.35 5 36.35 4.45 36.55 4.45 36.6 4.4
M 42.8 4.6
Q 42.7 4.25 42.45 4.25 42.25 4.25 42.15 4.5 41.75 5.5 41.1 6.85 40.55 4.55 40.3 3.55 40.25 3.35 40.2 3.3 40.15 3.2 39.95 3.2 39.7 3.2 39.7 3.45
L 39.75 3.6
Q 39.85 3.75 39.85 3.85 40.75 7.3 40.85 7.6 40.95 7.8 41.05 7.8 41.15 7.8 41.25 7.6 42 5.9 42.45 5 43.2 7 43.4 7.5 43.55 7.8 43.7 7.8 43.75 7.8 43.85 7.6
L 45.05 3.9
Q 45.05 3.8 45.15 3.7 45.25 3.55 45.25 3.5 45.25 3.25 45 3.25 44.85 3.25 44.8 3.3 44.75 3.35 44.65 3.55
L 43.6 6.85
Q 43 5.2 42.8 4.6
M 47.8 3.2
Q 47.75 3.2 47.7 3.25 47.6 3.15 47.45 3.15 47.4 3.15 47.35 3.2 47.3 3.3 47.2 3.35 46.1 3.65 45.9 4.75 45.8 5.25 45.8 5.5 45.8 6.4 46.2 7.05 46.65 7.85 47.6 7.85 48.45 7.85 49 7.1 49.45 6.45 49.45 5.6 49.45 4.15 48.7 3.55 48.15 3.2 47.8 3.2
M 47.35 3.75
Q 47.55 3.65 47.65 3.6 47.85 3.7 47.95 3.7 48.55 3.95 48.75 4.35 48.95 4.85 48.95 5.35 48.95 6.25 48.6 6.85 48.25 7.45 47.65 7.45 47 7.45 46.6 6.8 46.3 6.25 46.3 5.65 46.3 4.3 47.05 3.85 47.1 3.8 47.35 3.75
M 52.65 3.6
Q 52.65 3.4 52.4 3.4 51.85 3.4 50.8 4.05 50.8 3.95 50.8 3.75
L 50.8 3.6
Q 50.8 3.2 50.5 3.2 50.25 3.2 50.25 3.55
L 50.3 3.75
Q 50.3 3.9 50.3 4.05
L 50.3 6.55
Q 50.3 6.75 50.3 7.05 50.3 7.35 50.3 7.45 50.3 7.8 50.55 7.8 50.8 7.8 50.8 7.4 50.8 6.9 50.8 5.85 50.8 4.7 50.8 4.65 51.1 4.4 51.55 4.15 52.05 3.9 52.4 3.9 52.65 3.9 52.65 3.6
M 53.95 1.9
Q 53.95 1.8 54 1.55 54 1.3 54 1.25 54 0.85 53.7 0.85 53.45 0.85 53.45 1.25 53.45 1.35 53.45 1.6 53.45 1.9 53.45 1.95
L 53.45 4.4
Q 53.45 4.9 53.45 5.85 53.4 6.85 53.4 7.3 53.4 7.75 53.65 7.75 53.8 7.75 53.9 7.6 53.95 7.5 53.95 7.3
L 53.95 3.9
Q 53.95 3.8 53.95 2.85
L 53.95 1.9
M 58.15 1.25
Q 58.15 0.85 57.9 0.85 57.55 0.85 57.55 1.2 57.55 1.25 57.55 1.45 57.6 1.6 57.6 1.75 57.6 2 57.6 4 57 3.3 56.35 3.3 54.8 3.3 54.8 5.5 54.8 6.2 55 6.8 55.35 7.75 56.25 7.75 56.95 7.75 57.55 7.25 57.55 7.8 57.8 7.8 58.1 7.8 58.1 7.15 58.1 7.1 58.1 5.8 58.1 4.45 58.1 4.3 58.1 3.85 58.15 1.25
M 57.15 4.35
Q 57.3 4.5 57.35 4.55 57.45 4.6 57.6 4.55
L 57.6 5.6
Q 57.6 6.25 57.55 6.65 57.45 6.65 57.3 6.75 56.95 7.05 56.85 7.1 56.55 7.25 56.3 7.25 55.75 7.25 55.5 6.65 55.3 6.1 55.3 5.45 55.3 3.85 56.3 3.85 56.75 3.85 57.15 4.35 Z"/>
</g>
</defs>

<g transform="matrix( 1, 0, 0, 1, 0,0) ">
<use xlink:href="#Layer0_0_FILL"/>
</g>

<g transform="matrix( 1, 0, 0, 1, 54.95,11.3) ">
<g transform="matrix( 1, 0, 0, 1, 0,0) ">
<use xlink:href="#Symbol_1_0_Layer0_0_FILL"/>
</g>
</g>
</svg>
