
<svg xmlns="http://www.w3.org/2000/svg" version="1.1" xmlns:xlink="http://www.w3.org/1999/xlink" preserveAspectRatio="none" x="0px" y="0px" width="32px" height="32px" viewBox="0 0 32 32">
<defs>
<g id="Layer0_0_FILL">
<path fill="#333333" stroke="none" d="
M 31 25
L 25 25 25 31 31 31 31 25
M 28 22
L 28 19 19 19 19 28 22 28 22 22 28 22
M 7 25
L 1 25 1 31 7 31 7 25
M 4 22
L 10 22 10 28 13 28 13 19 4 19 4 22
M 13 10
L 10 10 10 13 13 13 13 10
M 10 7
L 7 7 7 10 10 10 10 7
M 19 13
L 13 13 13 16 19 16 19 13
M 22 13
L 22 10 19 10 19 13 22 13
M 22 7
L 22 10 25 10 25 7 22 7
M 19 1
L 13 1 13 7 19 7 19 1 Z"/>
</g>
</defs>

<g transform="matrix( 1, 0, 0, 1, 0,0) ">
<use xlink:href="#Layer0_0_FILL"/>
</g>
</svg>
