<?xml version="1.0" encoding="UTF-8" standalone="no"?>
<!-- Created with Inkscape (http://www.inkscape.org/) -->

<svg
   width="1024"
   height="1024"
   viewBox="0 0 270.93333 270.93333"
   version="1.1"
   id="svg510"
   xml:space="preserve"
   inkscape:version="1.2.2 (732a01da63, 2022-12-09)"
   sodipodi:docname="logo.svg"
   xmlns:inkscape="http://www.inkscape.org/namespaces/inkscape"
   xmlns:sodipodi="http://sodipodi.sourceforge.net/DTD/sodipodi-0.dtd"
   xmlns="http://www.w3.org/2000/svg"
   xmlns:svg="http://www.w3.org/2000/svg"><sodipodi:namedview
     id="namedview512"
     pagecolor="#ffffff"
     bordercolor="#000000"
     borderopacity="0.25"
     inkscape:showpageshadow="2"
     inkscape:pageopacity="0.0"
     inkscape:pagecheckerboard="0"
     inkscape:deskcolor="#d1d1d1"
     inkscape:document-units="px"
     showgrid="true"
     showguides="true"
     inkscape:zoom="1.4142136"
     inkscape:cx="481.53971"
     inkscape:cy="545.17931"
     inkscape:window-width="1920"
     inkscape:window-height="1057"
     inkscape:window-x="1912"
     inkscape:window-y="-8"
     inkscape:window-maximized="1"
     inkscape:current-layer="text703"><inkscape:grid
       type="xygrid"
       id="grid677" /><sodipodi:guide
       position="135.46667,135.46667"
       orientation="-1,0"
       id="guide2143"
       inkscape:locked="false"
       inkscape:label=""
       inkscape:color="rgb(0,134,229)" /></sodipodi:namedview><defs
     id="defs507"><inkscape:path-effect
       effect="perspective-envelope"
       up_left_point="139.5744,94.593976"
       up_right_point="155.62553,90.863709"
       down_left_point="139.5744,96.515055"
       down_right_point="155.62553,99.645049"
       id="path-effect2133"
       is_visible="true"
       lpeversion="1"
       deform_type="perspective"
       horizontal_mirror="false"
       vertical_mirror="false"
       overflow_perspective="false" /><inkscape:path-effect
       effect="perspective-envelope"
       up_left_point="139.5744,94.593976"
       up_right_point="155.62553,90.863709"
       down_left_point="139.5744,96.515055"
       down_right_point="155.62553,99.645049"
       id="path-effect2129"
       is_visible="true"
       lpeversion="1"
       deform_type="perspective"
       horizontal_mirror="false"
       vertical_mirror="false"
       overflow_perspective="false" /><inkscape:path-effect
       effect="perspective-envelope"
       up_left_point="139.5744,94.593976"
       up_right_point="155.62553,90.863709"
       down_left_point="139.5744,96.515055"
       down_right_point="155.62553,99.645049"
       id="path-effect2125"
       is_visible="true"
       lpeversion="1"
       deform_type="perspective"
       horizontal_mirror="false"
       vertical_mirror="false"
       overflow_perspective="false" /><inkscape:path-effect
       effect="perspective-envelope"
       up_left_point="139.5744,94.593976"
       up_right_point="155.62553,90.863709"
       down_left_point="139.5744,96.515055"
       down_right_point="155.62553,99.645049"
       id="path-effect2091"
       is_visible="true"
       lpeversion="1"
       deform_type="perspective"
       horizontal_mirror="false"
       vertical_mirror="false"
       overflow_perspective="false" /><inkscape:path-effect
       effect="perspective-envelope"
       up_left_point="139.5744,94.593976"
       up_right_point="155.62553,90.863709"
       down_left_point="139.5744,96.515055"
       down_right_point="155.62553,99.645049"
       id="path-effect2083"
       is_visible="true"
       lpeversion="1"
       deform_type="perspective"
       horizontal_mirror="false"
       vertical_mirror="false"
       overflow_perspective="false" /><inkscape:path-effect
       effect="perspective-envelope"
       up_left_point="139.5744,94.593976"
       up_right_point="155.62553,90.863709"
       down_left_point="139.5744,96.515055"
       down_right_point="155.62553,99.645049"
       id="path-effect2075"
       is_visible="true"
       lpeversion="1"
       deform_type="perspective"
       horizontal_mirror="false"
       vertical_mirror="false"
       overflow_perspective="false" /><inkscape:path-effect
       effect="perspective-envelope"
       up_left_point="139.5744,94.593976"
       up_right_point="155.62553,90.863709"
       down_left_point="139.5744,96.515055"
       down_right_point="155.62553,99.645049"
       id="path-effect2067"
       is_visible="true"
       lpeversion="1"
       deform_type="perspective"
       horizontal_mirror="false"
       vertical_mirror="false"
       overflow_perspective="false" /><inkscape:path-effect
       effect="perspective-envelope"
       up_left_point="139.5744,94.593976"
       up_right_point="155.62553,90.863709"
       down_left_point="139.5744,96.515055"
       down_right_point="155.62553,99.645049"
       id="path-effect2059"
       is_visible="true"
       lpeversion="1"
       deform_type="perspective"
       horizontal_mirror="false"
       vertical_mirror="false"
       overflow_perspective="false" /><inkscape:path-effect
       effect="perspective-envelope"
       up_left_point="139.57953,95.667258"
       up_right_point="156.27704,93.800068"
       down_left_point="139.57953,97.19146"
       down_right_point="154.19428,99.175411"
       id="path-effect2055"
       is_visible="true"
       lpeversion="1"
       deform_type="perspective"
       horizontal_mirror="false"
       vertical_mirror="false"
       overflow_perspective="false" /></defs><g
     inkscape:label="Layer 1"
     inkscape:groupmode="layer"
     id="layer1"><g
       aria-label="3"
       transform="matrix(-0.03025419,0.97765628,-1.0217547,-0.03553593,0,0)"
       id="text703"
       style="font-size:142.055px;font-family:SetoFont;-inkscape-font-specification:'SetoFont, Normal';stroke-width:2.66355"
       inkscape:transform-center-x="-0.5794479"
       inkscape:transform-center-y="10.634687"><path
         d="m 128.68452,-86.494439 c -1.57116,-0.07539 -2.77451,-1.387256 -2.77451,-1.387256 -1.10981,-1.294772 -1.57222,-2.959479 -1.38725,-4.99412 0,0 0.31494,-1.942922 1.38725,-2.774512 2.43229,-1.886261 9.89576,-2.49706 15.25982,-3.051963 5.45653,-0.647386 9.6183,-2.68203 12.4853,-6.10393 2.86699,-3.42189 3.9768,-7.21372 3.32941,-11.37549 -0.64739,-4.16177 -2.63579,-7.53742 -5.9652,-10.12697 -3.32941,-2.58955 -6.75131,-3.9768 -10.26569,-4.16177 -3.4219,-0.18497 -7.08989,0.17586 -9.14458,-2.09251 -1.6934,-1.8695 -2.04482,-5.27093 -0.70925,-7.37884 1.96812,-3.10625 6.84811,-3.38388 10.54746,-4.12375 3.79183,-0.73987 7.02876,-2.72827 9.71079,-5.9652 2.68203,-3.23693 3.74559,-6.98253 3.19069,-11.23678 -0.55491,-4.25425 -2.12713,-7.6299 -4.71667,-10.12696 -2.58955,-2.58955 -5.17909,-4.39298 -7.76864,-5.4103 -2.49706,-1.01732 -5.27157,-0.92484 -8.32353,0.27745 -3.05197,1.20229 -5.05307,1.86879 -7.62991,1.52598 -1.23899,-0.16483 -2.53071,-0.74152 -3.32941,-1.6647 -1.22442,-1.41523 -1.81,-3.4437 -1.66471,-5.27158 0.0814,-1.02348 0.60479,-2.07468 1.38726,-2.77451 2.28927,-2.04751 5.50278,-2.95948 8.73971,-3.32941 3.23693,-0.36993 6.42761,-0.41618 9.57206,-0.13873 3.23693,0.27745 6.05769,1.20229 8.46226,2.77451 2.40458,1.57223 5.31782,4.11553 8.73972,7.62991 3.42189,3.51438 5.59526,7.21373 6.5201,11.09805 0.92483,3.79183 1.06356,7.90736 0.41617,12.34657 -0.64739,4.43922 -1.75719,7.67615 -3.32941,9.71079 -1.47974,1.94216 -3.83807,4.34674 -7.075,7.21373 3.23693,2.12713 5.82647,4.43922 7.76863,6.93628 2.03464,2.40458 3.60686,5.50279 4.71667,9.29462 1.1098,3.79183 1.43349,7.72239 0.97108,11.79167 -0.46242,4.06929 -1.87592,7.33042 -4.16177,9.849517 -2.24608,2.475273 -4.80318,4.862686 -7.76863,7.075004 -2.86105,2.134432 -6.84488,3.553995 -11.9304,4.300493 -4.99521,0.733243 -11.98004,1.822089 -15.25982,1.664707 z"
         id="path2203"
         sodipodi:nodetypes="sccscssscaacssccsaaaascsscscccssssss" /></g><g
       aria-label="-"
       transform="matrix(-3.677429,0,0,3.7274632,577.61769,-220.75485)"
       id="g2071"
       style="font-size:38.7923px;font-family:SetoFont;-inkscape-font-specification:'SetoFont, Normal';white-space:pre;inline-size:36.0777;stroke-width:0.727354"
       inkscape:transform-center-x="100.63979"
       inkscape:transform-center-y="-0.76874867"
       inkscape:path-effect="#path-effect2075"><path
         d="m 141.47406,96.817384 c -0.76767,-0.189571 -1.47828,-0.326364 -1.8116,-0.876263 -0.0868,-0.143145 -0.0948,-0.372487 -0.0846,-0.562498 0.006,-0.111779 0.0362,-0.228701 0.0846,-0.3201 0.0442,-0.0835 0.1103,-0.147443 0.17904,-0.186425 1.39426,-0.79073 4.39506,-1.609048 11.38972,-1.833265 0.9526,-0.03054 2.0484,0.0471 2.75606,0.336685 1.32996,0.544232 1.80501,1.474127 1.58981,2.347425 -0.1239,0.503509 -0.53087,1.06515 -1.58981,1.293945 -6.46245,1.396246 -10.67951,0.253314 -12.51322,-0.199504 z"
         id="path2069"
         sodipodi:nodetypes="aaaaaaaaaa"
         inkscape:original-d="m 145.67817,98.713066 c -1.97035,-0.09407 -4.34273,-0.120641 -5.70898,-1.303482 -0.38888,-0.336675 -0.42565,-0.898877 -0.37884,-1.363792 0.0274,-0.272513 0.1639,-0.550498 0.37884,-0.757662 0.19243,-0.18547 0.47362,-0.313302 0.75766,-0.378831 4.39228,-1.013336 9.30828,-1.084634 13.6758,0 0.31844,0.07908 0.64352,0.228061 0.83343,0.454597 0.32098,0.382876 0.42564,0.898877 0.37883,1.363792 -0.0274,0.272512 -0.11979,0.588848 -0.37883,0.757662 -2.53625,1.652831 -6.33937,1.381371 -9.55791,1.227716 z" /></g><g
       aria-label="-"
       transform="matrix(-3.1847469,-1.8387145,-1.8637316,3.2280779,696.49147,48.045282)"
       id="g2079"
       style="font-size:38.7923px;font-family:SetoFont;-inkscape-font-specification:'SetoFont, Normal';white-space:pre;inline-size:36.0777;stroke-width:0.727354"
       inkscape:transform-center-x="87.003715"
       inkscape:transform-center-y="-51.60823"
       inkscape:path-effect="#path-effect2083"><path
         d="m 141.47406,96.817384 c -0.76767,-0.189571 -1.47828,-0.326364 -1.8116,-0.876263 -0.0868,-0.143145 -0.0948,-0.372487 -0.0846,-0.562498 0.006,-0.111779 0.0362,-0.228701 0.0846,-0.3201 0.0442,-0.0835 0.1103,-0.147443 0.17904,-0.186425 1.39426,-0.79073 4.39506,-1.609048 11.38972,-1.833265 0.9526,-0.03054 2.0484,0.0471 2.75606,0.336685 1.32996,0.544232 1.80501,1.474127 1.58981,2.347425 -0.1239,0.503509 -0.53087,1.06515 -1.58981,1.293945 -6.46245,1.396246 -10.67951,0.253314 -12.51322,-0.199504 z"
         id="path2077"
         sodipodi:nodetypes="aaaaaaaaaa"
         inkscape:original-d="m 145.67817,98.713066 c -1.97035,-0.09407 -4.34273,-0.120641 -5.70898,-1.303482 -0.38888,-0.336675 -0.42565,-0.898877 -0.37884,-1.363792 0.0274,-0.272513 0.1639,-0.550498 0.37884,-0.757662 0.19243,-0.18547 0.47362,-0.313302 0.75766,-0.378831 4.39228,-1.013336 9.30828,-1.084634 13.6758,0 0.31844,0.07908 0.64352,0.228061 0.83343,0.454597 0.32098,0.382876 0.42564,0.898877 0.37883,1.363792 -0.0274,0.272512 -0.11979,0.588848 -0.37883,0.757662 -2.53625,1.652831 -6.33937,1.381371 -9.55791,1.227716 z" /></g><g
       aria-label="-"
       transform="matrix(-3.1847469,1.8387145,1.8637316,3.2280779,340.26993,-394.10574)"
       id="g2087"
       style="font-size:38.7923px;font-family:SetoFont;-inkscape-font-specification:'SetoFont, Normal';white-space:pre;inline-size:36.0777;stroke-width:0.727354"
       inkscape:transform-center-x="87.590606"
       inkscape:transform-center-y="50.540754"
       inkscape:path-effect="#path-effect2091"><path
         d="m 141.47406,96.817384 c -0.76767,-0.189571 -1.47828,-0.326364 -1.8116,-0.876263 -0.0868,-0.143145 -0.0948,-0.372487 -0.0846,-0.562498 0.006,-0.111779 0.0362,-0.228701 0.0846,-0.3201 0.0442,-0.0835 0.1103,-0.147443 0.17904,-0.186425 1.39426,-0.79073 4.39506,-1.609048 11.38972,-1.833265 0.9526,-0.03054 2.0484,0.0471 2.75606,0.336685 1.32996,0.544232 1.80501,1.474127 1.58981,2.347425 -0.1239,0.503509 -0.53087,1.06515 -1.58981,1.293945 -6.46245,1.396246 -10.67951,0.253314 -12.51322,-0.199504 z"
         id="path2085"
         sodipodi:nodetypes="aaaaaaaaaa"
         inkscape:original-d="m 145.67817,98.713066 c -1.97035,-0.09407 -4.34273,-0.120641 -5.70898,-1.303482 -0.38888,-0.336675 -0.42565,-0.898877 -0.37884,-1.363792 0.0274,-0.272513 0.1639,-0.550498 0.37884,-0.757662 0.19243,-0.18547 0.47362,-0.313302 0.75766,-0.378831 4.39228,-1.013336 9.30828,-1.084634 13.6758,0 0.31844,0.07908 0.64352,0.228061 0.83343,0.454597 0.32098,0.382876 0.42564,0.898877 0.37883,1.363792 -0.0274,0.272512 -0.11979,0.588848 -0.37883,0.757662 -2.53625,1.652831 -6.33937,1.381371 -9.55791,1.227716 z" /></g><g
       aria-label="-"
       transform="matrix(3.677429,0,0,-3.7274632,-306.68433,491.68817)"
       id="g2113"
       style="font-size:38.7923px;font-family:SetoFont;-inkscape-font-specification:'SetoFont, Normal';white-space:pre;inline-size:36.0777;stroke-width:0.727354"
       inkscape:transform-center-x="-100.63978"
       inkscape:transform-center-y="0.76875977"
       inkscape:path-effect="#path-effect2125"><path
         d="m 141.47406,96.817384 c -0.76767,-0.189571 -1.47828,-0.326364 -1.8116,-0.876263 -0.0868,-0.143145 -0.0948,-0.372487 -0.0846,-0.562498 0.006,-0.111779 0.0362,-0.228701 0.0846,-0.3201 0.0442,-0.0835 0.1103,-0.147443 0.17904,-0.186425 1.39426,-0.79073 4.39506,-1.609048 11.38972,-1.833265 0.9526,-0.03054 2.0484,0.0471 2.75606,0.336685 1.32996,0.544232 1.80501,1.474127 1.58981,2.347425 -0.1239,0.503509 -0.53087,1.06515 -1.58981,1.293945 -6.46245,1.396246 -10.67951,0.253314 -12.51322,-0.199504 z"
         id="path2111"
         sodipodi:nodetypes="aaaaaaaaaa"
         inkscape:original-d="m 145.67817,98.713066 c -1.97035,-0.09407 -4.34273,-0.120641 -5.70898,-1.303482 -0.38888,-0.336675 -0.42565,-0.898877 -0.37884,-1.363792 0.0274,-0.272513 0.1639,-0.550498 0.37884,-0.757662 0.19243,-0.18547 0.47362,-0.313302 0.75766,-0.378831 4.39228,-1.013336 9.30828,-1.084634 13.6758,0 0.31844,0.07908 0.64352,0.228061 0.83343,0.454597 0.32098,0.382876 0.42564,0.898877 0.37883,1.363792 -0.0274,0.272512 -0.11979,0.588848 -0.37883,0.757662 -2.53625,1.652831 -6.33937,1.381371 -9.55791,1.227716 z" /></g><g
       aria-label="-"
       transform="matrix(3.1847469,1.8387145,1.8637316,-3.2280779,-425.5581,222.88805)"
       id="g2117"
       style="font-size:38.7923px;font-family:SetoFont;-inkscape-font-specification:'SetoFont, Normal';white-space:pre;inline-size:36.0777;stroke-width:0.727354"
       inkscape:transform-center-x="-87.003715"
       inkscape:transform-center-y="51.608247"
       inkscape:path-effect="#path-effect2129"><path
         d="m 141.47406,96.817384 c -0.76767,-0.189571 -1.47828,-0.326364 -1.8116,-0.876263 -0.0868,-0.143145 -0.0948,-0.372487 -0.0846,-0.562498 0.006,-0.111779 0.0362,-0.228701 0.0846,-0.3201 0.0442,-0.0835 0.1103,-0.147443 0.17904,-0.186425 1.39426,-0.79073 4.39506,-1.609048 11.38972,-1.833265 0.9526,-0.03054 2.0484,0.0471 2.75606,0.336685 1.32996,0.544232 1.80501,1.474127 1.58981,2.347425 -0.1239,0.503509 -0.53087,1.06515 -1.58981,1.293945 -6.46245,1.396246 -10.67951,0.253314 -12.51322,-0.199504 z"
         id="path2115"
         sodipodi:nodetypes="aaaaaaaaaa"
         inkscape:original-d="m 145.67817,98.713066 c -1.97035,-0.09407 -4.34273,-0.120641 -5.70898,-1.303482 -0.38888,-0.336675 -0.42565,-0.898877 -0.37884,-1.363792 0.0274,-0.272513 0.1639,-0.550498 0.37884,-0.757662 0.19243,-0.18547 0.47362,-0.313302 0.75766,-0.378831 4.39228,-1.013336 9.30828,-1.084634 13.6758,0 0.31844,0.07908 0.64352,0.228061 0.83343,0.454597 0.32098,0.382876 0.42564,0.898877 0.37883,1.363792 -0.0274,0.272512 -0.11979,0.588848 -0.37883,0.757662 -2.53625,1.652831 -6.33937,1.381371 -9.55791,1.227716 z" /></g><g
       aria-label="-"
       transform="matrix(3.1847469,-1.8387145,-1.8637316,-3.2280779,-69.33654,665.03905)"
       id="g2121"
       style="font-size:38.7923px;font-family:SetoFont;-inkscape-font-specification:'SetoFont, Normal';white-space:pre;inline-size:36.0777;stroke-width:0.727354"
       inkscape:transform-center-x="-87.590606"
       inkscape:transform-center-y="-50.540748"
       inkscape:path-effect="#path-effect2133"><path
         d="m 141.47406,96.817384 c -0.76767,-0.189571 -1.47828,-0.326364 -1.8116,-0.876263 -0.0868,-0.143145 -0.0948,-0.372487 -0.0846,-0.562498 0.006,-0.111779 0.0362,-0.228701 0.0846,-0.3201 0.0442,-0.0835 0.1103,-0.147443 0.17904,-0.186425 1.39426,-0.79073 4.39506,-1.609048 11.38972,-1.833265 0.9526,-0.03054 2.0484,0.0471 2.75606,0.336685 1.32996,0.544232 1.80501,1.474127 1.58981,2.347425 -0.1239,0.503509 -0.53087,1.06515 -1.58981,1.293945 -6.46245,1.396246 -10.67951,0.253314 -12.51322,-0.199504 z"
         id="path2119"
         sodipodi:nodetypes="aaaaaaaaaa"
         inkscape:original-d="m 145.67817,98.713066 c -1.97035,-0.09407 -4.34273,-0.120641 -5.70898,-1.303482 -0.38888,-0.336675 -0.42565,-0.898877 -0.37884,-1.363792 0.0274,-0.272513 0.1639,-0.550498 0.37884,-0.757662 0.19243,-0.18547 0.47362,-0.313302 0.75766,-0.378831 4.39228,-1.013336 9.30828,-1.084634 13.6758,0 0.31844,0.07908 0.64352,0.228061 0.83343,0.454597 0.32098,0.382876 0.42564,0.898877 0.37883,1.363792 -0.0274,0.272512 -0.11979,0.588848 -0.37883,0.757662 -2.53625,1.652831 -6.33937,1.381371 -9.55791,1.227716 z" /></g></g></svg>
